<svg width="380" height="44" viewBox="0 0 380 44" fill="none" xmlns="http://www.w3.org/2000/svg">
<g id="44*44 (&#235;&#169;&#148;&#236;&#157;&#184;)">
<g id="category">
<mask id="mask0_1835_58668" style="mask-type:alpha" maskUnits="userSpaceOnUse" x="0" y="0" width="44" height="44">
<rect id="Bounding box" width="44" height="44" fill="#D9D9D9"/>
</mask>
<g mask="url(#mask0_1835_58668)">
<path id="category_2" d="M13.2458 17.7833L20.9 5.54584C21.0528 5.33195 21.2208 5.17154 21.4042 5.06459C21.5875 4.95765 21.8014 4.90417 22.0458 4.90417C22.2903 4.90417 22.5042 4.95765 22.6875 5.06459C22.8708 5.17154 23.0389 5.33195 23.1917 5.54584L30.8458 17.7833C30.9986 18.0278 31.0674 18.2722 31.0521 18.5167C31.0368 18.7611 30.9681 18.9903 30.8458 19.2042C30.7236 19.4181 30.5617 19.5861 30.36 19.7083C30.1583 19.8306 29.9231 19.8917 29.6542 19.8917H14.4375C14.1651 19.8917 13.9268 19.8287 13.7225 19.7026C13.5182 19.5766 13.3593 19.4104 13.2458 19.2042C13.1236 18.9903 13.0549 18.7611 13.0396 18.5167C13.0243 18.2722 13.0931 18.0278 13.2458 17.7833ZM32.3583 40.3333C30.0972 40.3333 28.2028 39.5695 26.675 38.0417C25.1472 36.5139 24.3833 34.6195 24.3833 32.3583C24.3833 30.0972 25.1472 28.2028 26.675 26.675C28.2028 25.1472 30.0972 24.3833 32.3583 24.3833C34.6194 24.3833 36.5139 25.1472 38.0417 26.675C39.5694 28.2028 40.3333 30.0972 40.3333 32.3583C40.3333 34.6195 39.5694 36.5139 38.0417 38.0417C36.5139 39.5695 34.6194 40.3333 32.3583 40.3333ZM5.5 37.8125V26.6292C5.5 26.2396 5.63177 25.913 5.89531 25.6495C6.15885 25.3859 6.48542 25.2542 6.875 25.2542H18.0583C18.4479 25.2542 18.7745 25.3859 19.038 25.6495C19.3016 25.913 19.4333 26.2396 19.4333 26.6292V37.8125C19.4333 38.2021 19.3016 38.5287 19.038 38.7922C18.7745 39.0557 18.4479 39.1875 18.0583 39.1875H6.875C6.48542 39.1875 6.15885 39.0557 5.89531 38.7922C5.63177 38.5287 5.5 38.2021 5.5 37.8125ZM32.3622 37.5833C33.8263 37.5833 35.0625 37.0779 36.0708 36.0669C37.0792 35.056 37.5833 33.8185 37.5833 32.3544C37.5833 30.8904 37.0779 29.6542 36.067 28.6458C35.0561 27.6375 33.8185 27.1333 32.3544 27.1333C30.8904 27.1333 29.6542 27.6388 28.6458 28.6497C27.6375 29.6606 27.1333 30.8981 27.1333 32.3622C27.1333 33.8263 27.6388 35.0625 28.6497 36.0708C29.6606 37.0792 30.8981 37.5833 32.3622 37.5833ZM8.25 36.4375H16.6833V28.0042H8.25V36.4375ZM16.9125 17.1417H27.1792L22.0458 8.84584L16.9125 17.1417Z" fill="#12192B"/>
</g>
</g>
<g id="rebase">
<mask id="mask1_1835_58668" style="mask-type:alpha" maskUnits="userSpaceOnUse" x="84" y="0" width="44" height="44">
<rect id="Bounding box_2" x="84" width="44" height="44" fill="#D9D9D9"/>
</mask>
<g mask="url(#mask1_1835_58668)">
<path id="rebase_2" d="M105.587 36.2084H98.4827C98.1771 37.4 97.5355 38.3855 96.5577 39.1646C95.5799 39.9438 94.4493 40.3334 93.166 40.3334C91.6382 40.3334 90.3396 39.7987 89.2702 38.7292C88.2007 37.6598 87.666 36.3612 87.666 34.8334C87.666 33.55 88.0556 32.4195 88.8348 31.4417C89.6139 30.4639 90.5993 29.8223 91.791 29.5167V14.4834C90.5993 14.1778 89.6139 13.5362 88.8348 12.5584C88.0556 11.5806 87.666 10.45 87.666 9.16672C87.666 7.63894 88.2007 6.34033 89.2702 5.27088C90.3396 4.20144 91.6382 3.66672 93.166 3.66672C94.4493 3.66672 95.5799 4.0563 96.5577 4.83547C97.5355 5.61463 98.1771 6.60005 98.4827 7.79172H105.587L102.745 4.95005C102.47 4.67505 102.333 4.3518 102.333 3.98031C102.333 3.60881 102.464 3.28798 102.727 3.01781C103.014 2.74763 103.343 2.61255 103.712 2.61255C104.082 2.61255 104.401 2.75005 104.67 3.02505L109.895 8.20422C110.17 8.47922 110.308 8.80005 110.308 9.16672C110.308 9.53338 110.17 9.85422 109.895 10.1292L104.67 15.3084C104.548 15.4306 104.403 15.5299 104.235 15.6063C104.067 15.6827 103.891 15.7209 103.708 15.7209C103.524 15.7209 103.356 15.6827 103.204 15.6063C103.051 15.5299 102.899 15.4255 102.748 15.2931C102.471 15.0283 102.333 14.7125 102.333 14.3459C102.333 13.9792 102.47 13.6584 102.745 13.3834L105.587 10.5417H98.4827C98.2382 11.5195 97.7646 12.3598 97.0618 13.0625C96.3591 13.7653 95.5188 14.2389 94.541 14.4834V29.5167C95.5188 29.7612 96.3591 30.2348 97.0618 30.9375C97.7646 31.6403 98.2382 32.4806 98.4827 33.4584H105.587L102.745 30.6167C102.47 30.3417 102.333 30.0185 102.333 29.647C102.333 29.2755 102.464 28.9546 102.727 28.6845C103.014 28.4143 103.343 28.2792 103.712 28.2792C104.082 28.2792 104.401 28.4167 104.67 28.6917L109.895 33.8709C110.17 34.1459 110.308 34.4667 110.308 34.8334C110.308 35.2001 110.17 35.5209 109.895 35.7959L104.67 40.975C104.548 41.0973 104.403 41.1966 104.235 41.273C104.067 41.3494 103.891 41.3875 103.708 41.3875C103.524 41.3875 103.356 41.3494 103.204 41.273C103.051 41.1966 102.899 41.0922 102.748 40.9598C102.471 40.695 102.333 40.3792 102.333 40.0125C102.333 39.6459 102.47 39.325 102.745 39.05L105.587 36.2084ZM118.833 40.3334C117.305 40.3334 116.006 39.7987 114.937 38.7292C113.867 37.6598 113.333 36.3612 113.333 34.8334C113.333 33.5507 113.722 32.4203 114.501 31.4422C115.281 30.4641 116.266 29.8223 117.458 29.5167V14.4834C116.266 14.1778 115.281 13.536 114.501 12.5579C113.722 11.5798 113.333 10.4494 113.333 9.16672C113.333 7.63894 113.867 6.34033 114.937 5.27088C116.006 4.20144 117.305 3.66672 118.833 3.66672C120.36 3.66672 121.659 4.20144 122.729 5.27088C123.798 6.34033 124.333 7.63894 124.333 9.16672C124.333 10.45 123.943 11.5806 123.164 12.5584C122.385 13.5362 121.399 14.1778 120.208 14.4834V29.5167C121.399 29.8223 122.385 30.4639 123.164 31.4417C123.943 32.4195 124.333 33.55 124.333 34.8334C124.333 36.3612 123.798 37.6598 122.729 38.7292C121.659 39.7987 120.36 40.3334 118.833 40.3334ZM93.166 37.5834C93.9452 37.5834 94.5983 37.3198 95.1254 36.7928C95.6525 36.2657 95.916 35.6125 95.916 34.8334C95.916 34.0542 95.6525 33.4011 95.1254 32.874C94.5983 32.3469 93.9452 32.0834 93.166 32.0834C92.3868 32.0834 91.7337 32.3469 91.2066 32.874C90.6796 33.4011 90.416 34.0542 90.416 34.8334C90.416 35.6125 90.6796 36.2657 91.2066 36.7928C91.7337 37.3198 92.3868 37.5834 93.166 37.5834ZM118.833 37.5834C119.612 37.5834 120.265 37.3198 120.792 36.7928C121.319 36.2657 121.583 35.6125 121.583 34.8334C121.583 34.0542 121.319 33.4011 120.792 32.874C120.265 32.3469 119.612 32.0834 118.833 32.0834C118.054 32.0834 117.4 32.3469 116.873 32.874C116.346 33.4011 116.083 34.0542 116.083 34.8334C116.083 35.6125 116.346 36.2657 116.873 36.7928C117.4 37.3198 118.054 37.5834 118.833 37.5834ZM93.166 11.9167C93.9452 11.9167 94.5983 11.6532 95.1254 11.1261C95.6525 10.599 95.916 9.94588 95.916 9.16672C95.916 8.38755 95.6525 7.73442 95.1254 7.20734C94.5983 6.68026 93.9452 6.41672 93.166 6.41672C92.3868 6.41672 91.7337 6.68026 91.2066 7.20734C90.6796 7.73442 90.416 8.38755 90.416 9.16672C90.416 9.94588 90.6796 10.599 91.2066 11.1261C91.7337 11.6532 92.3868 11.9167 93.166 11.9167ZM118.833 11.9167C119.612 11.9167 120.265 11.6532 120.792 11.1261C121.319 10.599 121.583 9.94588 121.583 9.16672C121.583 8.38755 121.319 7.73442 120.792 7.20734C120.265 6.68026 119.612 6.41672 118.833 6.41672C118.054 6.41672 117.4 6.68026 116.873 7.20734C116.346 7.73442 116.083 8.38755 116.083 9.16672C116.083 9.94588 116.346 10.599 116.873 11.1261C117.4 11.6532 118.054 11.9167 118.833 11.9167Z" fill="#12192B"/>
</g>
</g>
<g id="emoji_objects">
<mask id="mask2_1835_58668" style="mask-type:alpha" maskUnits="userSpaceOnUse" x="168" y="0" width="44" height="44">
<rect id="Bounding box_3" x="168" width="44" height="44" fill="#D9D9D9"/>
</mask>
<g mask="url(#mask2_1835_58668)">
<path id="emoji_objects_2" d="M190.001 40.3333C189.176 40.3333 188.45 40.1347 187.824 39.7375C187.197 39.3402 186.792 38.7902 186.609 38.0875H185.967C185.234 38.0875 184.592 37.8125 184.042 37.2625C183.492 36.7125 183.217 36.0708 183.217 35.3375V28.7833C181.201 27.4694 179.612 25.7888 178.451 23.7416C177.29 21.6944 176.709 19.4333 176.709 16.9583C176.709 13.2611 178 10.1215 180.582 7.53954C183.164 4.9576 186.303 3.66663 190.001 3.66663C193.698 3.66663 196.837 4.9576 199.419 7.53954C202.001 10.1215 203.292 13.2611 203.292 16.9583C203.292 19.4333 202.712 21.6944 201.551 23.7416C200.39 25.7888 198.801 27.4694 196.784 28.7833V35.3375C196.784 36.0708 196.509 36.7125 195.959 37.2625C195.409 37.8125 194.767 38.0875 194.034 38.0875H193.392C193.209 38.7902 192.804 39.3402 192.178 39.7375C191.551 40.1347 190.826 40.3333 190.001 40.3333ZM185.967 35.3375H194.034V33.3208H185.967V35.3375ZM185.967 31.4875H194.034V29.6541H185.967V31.4875ZM185.555 26.9041H188.946V20.625L185.417 17.0958C185.203 16.8819 185.104 16.6451 185.119 16.3854C185.135 16.1257 185.249 15.8888 185.463 15.675C185.677 15.4611 185.914 15.3541 186.174 15.3541C186.433 15.3541 186.67 15.4611 186.884 15.675L190.001 18.8375L193.163 15.675C193.377 15.4611 193.614 15.3618 193.874 15.377C194.133 15.3923 194.37 15.5069 194.584 15.7208C194.798 15.9347 194.905 16.1638 194.905 16.4083C194.905 16.6527 194.798 16.8819 194.584 17.0958L191.055 20.625V26.9041H194.446C196.28 26.0486 197.754 24.7194 198.869 22.9166C199.985 21.1138 200.542 19.1277 200.542 16.9583C200.542 13.9944 199.526 11.4965 197.494 9.46454C195.462 7.4326 192.965 6.41663 190.001 6.41663C187.037 6.41663 184.539 7.4326 182.507 9.46454C180.475 11.4965 179.459 13.9944 179.459 16.9583C179.459 19.1277 180.017 21.1138 181.132 22.9166C182.247 24.7194 183.721 26.0486 185.555 26.9041Z" fill="#12192B"/>
</g>
</g>
<g id="account_tree">
<mask id="mask3_1835_58668" style="mask-type:alpha" maskUnits="userSpaceOnUse" x="252" y="0" width="44" height="44">
<rect id="Bounding box_4" x="252" width="44" height="44" fill="#D9D9D9"/>
</mask>
<g mask="url(#mask3_1835_58668)">
<path id="account_tree_2" d="M279.683 35.75V32.7708H275.374C274.618 32.7708 273.971 32.5016 273.432 31.963C272.894 31.4245 272.624 30.7771 272.624 30.0208V13.9792H268.362V17.1875C268.362 17.9438 268.093 18.5911 267.554 19.1297C267.015 19.6682 266.368 19.9375 265.612 19.9375H258.416C257.66 19.9375 257.012 19.6682 256.474 19.1297C255.935 18.5911 255.666 17.9438 255.666 17.1875V8.25C255.666 7.49375 255.935 6.84635 256.474 6.30781C257.012 5.76927 257.66 5.5 258.416 5.5H265.612C266.368 5.5 267.015 5.76927 267.554 6.30781C268.093 6.84635 268.362 7.49375 268.362 8.25V11.2292H279.683V8.25C279.683 7.49375 279.952 6.84635 280.49 6.30781C281.029 5.76927 281.676 5.5 282.433 5.5H289.583C290.339 5.5 290.986 5.76927 291.525 6.30781C292.063 6.84635 292.333 7.49375 292.333 8.25V17.1875C292.333 17.9438 292.063 18.5911 291.525 19.1297C290.986 19.6682 290.339 19.9375 289.583 19.9375H282.433C281.676 19.9375 281.029 19.6682 280.49 19.1297C279.952 18.5911 279.683 17.9438 279.683 17.1875V13.9792H275.374V30.0208H279.683V26.8125C279.683 26.0562 279.952 25.4089 280.49 24.8703C281.029 24.3318 281.676 24.0625 282.433 24.0625H289.583C290.339 24.0625 290.986 24.3318 291.525 24.8703C292.063 25.4089 292.333 26.0562 292.333 26.8125V35.75C292.333 36.5063 292.063 37.1536 291.525 37.6922C290.986 38.2307 290.339 38.5 289.583 38.5H282.433C281.676 38.5 281.029 38.2307 280.49 37.6922C279.952 37.1536 279.683 36.5063 279.683 35.75ZM282.433 17.1875H289.583V8.25H282.433V17.1875ZM282.433 35.75H289.583V26.8125H282.433V35.75ZM258.416 17.1875H265.612V8.25H258.416V17.1875Z" fill="#12192B"/>
</g>
</g>
<g id="backup">
<mask id="mask4_1835_58668" style="mask-type:alpha" maskUnits="userSpaceOnUse" x="336" y="0" width="44" height="44">
<rect id="Bounding box_5" x="336" width="44" height="44" fill="#D9D9D9"/>
</mask>
<g mask="url(#mask4_1835_58668)">
<path id="backup_2" d="M356.626 22.0917L353.784 24.9333C353.509 25.2083 353.187 25.3458 352.817 25.3458C352.447 25.3458 352.128 25.2083 351.859 24.9333C351.584 24.6583 351.446 24.3298 351.446 23.9479C351.446 23.566 351.584 23.2375 351.859 22.9625L357.038 17.7375C357.313 17.4625 357.634 17.325 358.001 17.325C358.367 17.325 358.688 17.4625 358.963 17.7375L364.188 22.9625C364.463 23.2375 364.601 23.5583 364.601 23.925C364.601 24.2917 364.463 24.6125 364.188 24.8875C363.913 25.1625 363.585 25.3 363.203 25.3C362.821 25.3 362.492 25.1625 362.217 24.8875L359.376 22.0917V33.9166H370.421C371.796 33.9166 372.973 33.4278 373.951 32.45C374.928 31.4722 375.417 30.2958 375.417 28.9208C375.417 27.5458 374.928 26.3694 373.951 25.3916C372.973 24.4139 371.796 23.925 370.421 23.925H367.534V20.075C367.534 17.3555 366.61 15.018 364.761 13.0625C362.912 11.1069 360.628 10.1292 357.909 10.1292C355.19 10.1292 352.898 11.1069 351.034 13.0625C349.17 15.018 348.238 17.3555 348.238 20.075H347.367C345.473 20.075 343.869 20.7396 342.555 22.0687C341.241 23.3979 340.584 25.0403 340.584 26.9958C340.584 28.8903 341.255 30.5173 342.597 31.8771C343.94 33.2368 345.56 33.9166 347.459 33.9166H352.501C352.89 33.9166 353.217 34.0492 353.48 34.3143C353.744 34.5794 353.876 34.9078 353.876 35.2997C353.876 35.6915 353.744 36.0173 353.48 36.2771C353.217 36.5368 352.89 36.6666 352.501 36.6666H347.459C344.831 36.6666 342.57 35.7194 340.676 33.825C338.781 31.9305 337.834 29.6694 337.834 27.0417C337.834 24.6583 338.59 22.5576 340.103 20.7396C341.615 18.9215 343.563 17.8291 345.946 17.4625C346.558 14.4986 347.994 12.0771 350.255 10.1979C352.516 8.31873 355.128 7.37915 358.092 7.37915C361.545 7.37915 364.44 8.62429 366.778 11.1146C369.115 13.6048 370.284 16.5917 370.284 20.075V21.175C372.484 21.1139 374.348 21.8243 375.876 23.3062C377.403 24.7882 378.167 26.6597 378.167 28.9208C378.167 31.0291 377.403 32.8472 375.876 34.375C374.348 35.9028 372.53 36.6666 370.421 36.6666H359.376C358.642 36.6666 358.001 36.3917 357.451 35.8417C356.901 35.2917 356.626 34.65 356.626 33.9166V22.0917Z" fill="white"/>
</g>
</g>
</g>
</svg>
