<svg width="240" height="240" viewBox="0 0 240 240" fill="none" xmlns="http://www.w3.org/2000/svg">
<circle cx="11.9999" cy="108" r="10.5" fill="#0046FF"/>
<path d="M14.6112 109.291C14.5093 109.193 14.3721 109.134 14.2171 109.134C14.0621 109.134 13.9205 109.193 13.8186 109.295L13.429 109.687C13.1833 109.93 12.7848 109.93 12.5413 109.687L11.4277 108.574L10.3142 107.46C10.0685 107.215 10.0685 106.816 10.3142 106.571L10.7038 106.181C10.8057 106.077 10.8654 105.935 10.8654 105.783C10.8654 105.63 10.8057 105.493 10.7083 105.391L8.69592 102.958C8.58966 102.832 8.43027 102.75 8.25316 102.75C8.06499 102.75 7.89896 102.841 7.79491 102.981L7.75949 103.027C7.32337 103.618 6.75 104.559 6.75 105.442C6.75 106.652 7.66208 108.169 9.30693 109.82L9.7364 110.249C9.7364 110.249 9.74083 110.254 9.74304 110.256L9.74968 110.265C11.4012 111.909 13.3493 113.25 14.558 113.25C15.4413 113.25 16.38 112.677 16.9733 112.239L17.0198 112.206C17.1592 112.099 17.25 111.936 17.25 111.748C17.25 111.57 17.1681 111.411 17.0419 111.307L14.609 109.293L14.6112 109.291Z" fill="white"/>
<circle cx="36" cy="108" r="9" fill="#0046FF"/>
<path d="M35.9321 104.143V111.722M32.1426 107.932H39.7215" stroke="white" stroke-width="1.28571" stroke-linecap="round" stroke-linejoin="round"/>
<path d="M103 59.8182L106.125 63L113 56" stroke="#EDEFF2" stroke-width="2" stroke-linecap="round" stroke-linejoin="round"/>
<path d="M79 59.8182L82.125 63L89 56" stroke="#CCDAFF" stroke-width="2" stroke-linecap="round" stroke-linejoin="round"/>
<path d="M7.74023 60.3182L10.3215 63L16.0003 57.1" stroke="white" stroke-width="2" stroke-linecap="round" stroke-linejoin="round"/>
<path d="M14 42L8 36L14 30" stroke="#313749" stroke-width="1.5" stroke-linecap="round" stroke-linejoin="round"/>
<path d="M51 5.25H69" stroke="#313749" stroke-width="1.6" stroke-linecap="round"/>
<path d="M51 12H69" stroke="#313749" stroke-width="1.6" stroke-linecap="round"/>
<path d="M51 18.75H69" stroke="#313749" stroke-width="1.6" stroke-linecap="round"/>
<path d="M77.0002 5.10596L90.8944 19" stroke="#313749" stroke-width="1.6" stroke-linecap="round"/>
<path d="M90.8947 5.10596L77.0004 19" stroke="#313749" stroke-width="1.6" stroke-linecap="round"/>
<path d="M34 30L40 36L34 42" stroke="#313749" stroke-width="1.5" stroke-linecap="round" stroke-linejoin="round"/>
<path d="M90 34L84 40L78 34" stroke="#313749" stroke-width="1.5" stroke-linecap="round" stroke-linejoin="round"/>
<path d="M228 118C226.022 118 224.089 117.414 222.444 116.315C220.8 115.216 219.518 113.654 218.761 111.827C218.004 110 217.806 107.989 218.192 106.049C218.578 104.109 219.53 102.327 220.929 100.929C222.327 99.5304 224.109 98.578 226.049 98.1922C227.989 97.8063 230 98.0043 231.827 98.7612C233.654 99.5181 235.216 100.8 236.315 102.444C237.414 104.089 238 106.022 238 108C237.997 110.651 236.943 113.193 235.068 115.068C233.193 116.943 230.651 117.997 228 118Z" fill="#FBC400"/>
<path fill-rule="evenodd" clip-rule="evenodd" d="M222.665 105.329C223.035 105.144 223.486 105.294 223.671 105.665L225.573 109.468L227.364 106.602C227.501 106.383 227.741 106.25 228 106.25C228.259 106.25 228.499 106.383 228.636 106.602L230.427 109.468L232.329 105.665C232.514 105.294 232.965 105.144 233.335 105.329C233.706 105.514 233.856 105.965 233.671 106.335L232.88 107.917H234.138C234.552 107.917 234.888 108.253 234.888 108.667C234.888 109.081 234.552 109.417 234.138 109.417H232.13L231.171 111.335C231.049 111.578 230.807 111.736 230.536 111.749C230.265 111.762 230.008 111.627 229.864 111.397L228 108.415L226.136 111.397C225.992 111.627 225.735 111.762 225.464 111.749C225.193 111.736 224.95 111.578 224.829 111.335L223.87 109.417H222C221.586 109.417 221.25 109.081 221.25 108.667C221.25 108.253 221.586 107.917 222 107.917H223.12L222.329 106.335C222.144 105.965 222.294 105.514 222.665 105.329Z" fill="url(#paint0_linear_11124_106403)"/>
<path d="M202.349 117.84C203.372 118.459 204.628 118.459 205.651 117.84C208.249 116.267 213 112.757 213 108.125V102.101C213 101.254 212.466 100.498 211.668 100.216L204.668 97.7365C204.236 97.5835 203.764 97.5835 203.332 97.7365L196.332 100.216C195.534 100.498 195 101.254 195 102.101V108.125C195 112.757 199.751 116.267 202.349 117.84Z" fill="#36C0A7"/>
<path d="M201.312 107.062L203.438 109.188L207.688 104.938" stroke="white" stroke-width="1.5" stroke-linecap="round" stroke-linejoin="round"/>
<path d="M54 38L60 32L66 38" stroke="#313749" stroke-width="1.5" stroke-linecap="round" stroke-linejoin="round"/>
<rect x="28" y="5.68445" width="16" height="14.312" rx="2" stroke="#313749" stroke-width="1.5" stroke-linecap="round" stroke-linejoin="round"/>
<path d="M28 10.1844H43.5" stroke="#313749" stroke-width="1.5" stroke-linecap="round" stroke-linejoin="round"/>
<path d="M31 4.00348V5.68448" stroke="#12192B" stroke-width="1.5" stroke-linecap="round" stroke-linejoin="round"/>
<path d="M41 4.00348V5.68448" stroke="#12192B" stroke-width="1.5" stroke-linecap="round" stroke-linejoin="round"/>
<path d="M10.7498 17.5C14.4777 17.5 17.4998 14.4779 17.4998 10.75C17.4998 7.02208 14.4777 4 10.7498 4C7.02189 4 3.99982 7.02208 3.99982 10.75C3.99982 14.4779 7.02189 17.5 10.7498 17.5Z" stroke="#313749" stroke-width="1.5" stroke-linecap="round" stroke-linejoin="round"/>
<path d="M18.9998 19.0015L15.9998 16.0015" stroke="#313749" stroke-width="1.5" stroke-linecap="round" stroke-linejoin="round"/>
<path d="M31 59.8182L34.125 63L41 56" stroke="#0046FF" stroke-width="2" stroke-linecap="round" stroke-linejoin="round"/>
<path d="M55 59.8182L58.125 63L65 56" stroke="#7E869A" stroke-width="2" stroke-linecap="round" stroke-linejoin="round"/>
<path d="M38 76H34.625C34.0283 76 33.456 76.2371 33.034 76.659C32.6121 77.081 32.375 77.6533 32.375 78.25V80.7306C33.7813 80.3305 35.2839 80.4414 36.6163 81.0435C37.9487 81.6456 39.0248 82.7001 39.6538 84.0201C40.2828 85.34 40.4241 86.84 40.0526 88.2541C39.6811 89.6683 38.8208 90.9052 37.6243 91.7455H41.375C41.9717 91.7455 42.544 91.5084 42.966 91.0865C43.3879 90.6645 43.625 90.0922 43.625 89.4955V81.6261H39.6875C39.4658 81.6261 39.2463 81.5824 39.0415 81.4976C38.8367 81.4127 38.6506 81.2883 38.4939 81.1315C38.3371 80.9747 38.2129 80.7885 38.1281 80.5836C38.0434 80.3788 37.9999 80.1592 38 79.9375V76ZM43.6216 80.5H39.6864C39.5372 80.5 39.3941 80.4407 39.2886 80.3352C39.1831 80.2298 39.1239 80.0867 39.1239 79.9375V76H39.1351L43.6216 80.5ZM39.125 86.6875C39.125 88.0302 38.5916 89.3178 37.6422 90.2672C36.6928 91.2166 35.4052 91.75 34.0625 91.75C32.7198 91.75 31.4322 91.2166 30.4828 90.2672C29.5334 89.3178 29 88.0302 29 86.6875C29 85.3448 29.5334 84.0572 30.4828 83.1078C31.4322 82.1584 32.7198 81.625 34.0625 81.625C35.4052 81.625 36.6928 82.1584 37.6422 83.1078C38.5916 84.0572 39.125 85.3448 39.125 86.6875ZM33.6642 89.3346L33.6676 89.338C33.772 89.441 33.9125 89.4991 34.0591 89.5H34.0659C34.2136 89.4991 34.355 89.4401 34.4596 89.3358L36.7096 87.0858C36.7619 87.0335 36.8034 86.9715 36.8318 86.9032C36.8601 86.835 36.8747 86.7618 36.8748 86.6879C36.8748 86.614 36.8603 86.5408 36.8321 86.4725C36.8038 86.4042 36.7624 86.3421 36.7102 86.2898C36.658 86.2375 36.5959 86.196 36.5277 86.1677C36.4594 86.1393 36.3862 86.1247 36.3123 86.1247C36.2384 86.1246 36.1652 86.1391 36.0969 86.1674C36.0286 86.1956 35.9665 86.237 35.9142 86.2892L34.625 87.5796V84.4375C34.625 84.2883 34.5657 84.1452 34.4602 84.0398C34.3548 83.9343 34.2117 83.875 34.0625 83.875C33.9133 83.875 33.7702 83.9343 33.6648 84.0398C33.5593 84.1452 33.5 84.2883 33.5 84.4375V87.5796L32.2108 86.2892C32.1051 86.1836 31.9619 86.1243 31.8125 86.1243C31.6631 86.1243 31.5199 86.1836 31.4142 86.2892C31.3086 86.3949 31.2493 86.5381 31.2493 86.6875C31.2493 86.8369 31.3086 86.9801 31.4142 87.0858L33.6642 89.3358V89.3346Z" fill="#A8AEBD"/>
<path d="M62 76H58.625C58.0283 76 57.456 76.2371 57.034 76.659C56.6121 77.081 56.375 77.6533 56.375 78.25V80.7306C57.7813 80.3305 59.2839 80.4414 60.6163 81.0435C61.9487 81.6456 63.0248 82.7001 63.6538 84.0201C64.2828 85.34 64.4241 86.84 64.0526 88.2541C63.6811 89.6683 62.8208 90.9052 61.6243 91.7455H65.375C65.9717 91.7455 66.544 91.5084 66.966 91.0865C67.3879 90.6645 67.625 90.0922 67.625 89.4955V81.6261H63.6875C63.4658 81.6261 63.2463 81.5824 63.0415 81.4976C62.8367 81.4127 62.6506 81.2883 62.4939 81.1315C62.3371 80.9747 62.2129 80.7885 62.1281 80.5836C62.0434 80.3788 61.9999 80.1592 62 79.9375V76ZM67.6216 80.5H63.6864C63.5372 80.5 63.3941 80.4407 63.2886 80.3352C63.1831 80.2298 63.1239 80.0867 63.1239 79.9375V76H63.1351L67.6216 80.5ZM63.125 86.6875C63.125 88.0302 62.5916 89.3178 61.6422 90.2672C60.6928 91.2166 59.4052 91.75 58.0625 91.75C56.7198 91.75 55.4322 91.2166 54.4828 90.2672C53.5334 89.3178 53 88.0302 53 86.6875C53 85.3448 53.5334 84.0572 54.4828 83.1078C55.4322 82.1584 56.7198 81.625 58.0625 81.625C59.4052 81.625 60.6928 82.1584 61.6422 83.1078C62.5916 84.0572 63.125 85.3448 63.125 86.6875ZM57.6642 89.3346L57.6676 89.338C57.772 89.441 57.9125 89.4991 58.0591 89.5H58.0659C58.2136 89.4991 58.355 89.4401 58.4596 89.3358L60.7096 87.0858C60.7619 87.0335 60.8034 86.9715 60.8318 86.9032C60.8601 86.835 60.8747 86.7618 60.8748 86.6879C60.8748 86.614 60.8603 86.5408 60.8321 86.4725C60.8038 86.4042 60.7624 86.3421 60.7102 86.2898C60.658 86.2375 60.5959 86.196 60.5277 86.1677C60.4594 86.1393 60.3862 86.1247 60.3123 86.1247C60.2384 86.1246 60.1652 86.1391 60.0969 86.1674C60.0286 86.1956 59.9665 86.237 59.9142 86.2892L58.625 87.5796V84.4375C58.625 84.2883 58.5657 84.1452 58.4602 84.0398C58.3548 83.9343 58.2117 83.875 58.0625 83.875C57.9133 83.875 57.7702 83.9343 57.6648 84.0398C57.5593 84.1452 57.5 84.2883 57.5 84.4375V87.5796L56.2108 86.2892C56.1051 86.1836 55.9619 86.1243 55.8125 86.1243C55.6631 86.1243 55.5199 86.1836 55.4142 86.2892C55.3086 86.3949 55.2493 86.5381 55.2493 86.6875C55.2493 86.8369 55.3086 86.9801 55.4142 87.0858L57.6642 89.3358V89.3346Z" fill="#E2E4E9"/>
<path d="M115.766 77.0921C115.95 77.226 116.026 77.4046 115.992 77.6278L113.849 90.4849C113.822 90.6468 113.732 90.7723 113.582 90.8616C113.503 90.9062 113.417 90.9286 113.322 90.9286C113.261 90.9286 113.194 90.9146 113.121 90.8867L109.329 89.3382L107.304 91.8075C107.203 91.9358 107.067 92 106.894 92C106.821 92 106.76 91.9888 106.71 91.9665C106.604 91.9275 106.518 91.8619 106.454 91.7698C106.39 91.6777 106.358 91.5759 106.358 91.4643V88.543L113.59 79.6786L104.642 87.4213L101.336 86.0653C101.129 85.9872 101.018 85.8337 101.001 85.6049C100.99 85.3817 101.079 85.2171 101.269 85.111L115.197 77.0753C115.281 77.0251 115.37 77 115.465 77C115.577 77 115.677 77.0307 115.766 77.0921Z" fill="#E2E4E9"/>
<path d="M91.7663 77.0921C91.9504 77.226 92.0258 77.4046 91.9923 77.6278L89.8495 90.4849C89.8216 90.6468 89.7323 90.7723 89.5816 90.8616C89.5035 90.9062 89.417 90.9286 89.3221 90.9286C89.2607 90.9286 89.1938 90.9146 89.1212 90.8867L85.3295 89.3382L83.3038 91.8075C83.2034 91.9358 83.0667 92 82.8937 92C82.8211 92 82.7597 91.9888 82.7095 91.9665C82.6035 91.9275 82.5184 91.8619 82.4542 91.7698C82.3901 91.6777 82.358 91.5759 82.358 91.4643V88.543L89.59 79.6786L80.642 87.4213L77.3357 86.0653C77.1293 85.9872 77.0177 85.8337 77.0009 85.6049C76.9898 85.3817 77.0791 85.2171 77.2688 85.111L91.1971 77.0753C91.2808 77.0251 91.3701 77 91.4649 77C91.5765 77 91.677 77.0307 91.7663 77.0921Z" fill="#A8AEBD"/>
<path d="M8 134L12 138M12 138L16 134M12 138V126" stroke="#7E869A" stroke-width="1.5" stroke-linecap="round" stroke-linejoin="round"/>
<circle cx="132" cy="84.2952" r="8" fill="#A8AEBD"/>
<g clip-path="url(#clip0_11124_106403)">
<path d="M128.5 87.7952L135.5 80.7952" stroke="white" stroke-width="1.5" stroke-linecap="round" stroke-linejoin="round"/>
<path d="M132.699 80.7952H135.499V83.5952" stroke="white" stroke-width="1.5" stroke-linecap="round" stroke-linejoin="round"/>
<path d="M131.3 87.7952H128.5V84.9952" stroke="white" stroke-width="1.5" stroke-linecap="round" stroke-linejoin="round"/>
</g>
<path d="M110.287 7.34037L104.594 13.0337C103.909 13.6941 103.884 14.7948 104.551 15.4736C105.211 16.1585 106.312 16.183 106.991 15.5164C107.003 15.5042 107.021 15.4859 107.034 15.4736L112.58 9.78035C113.956 8.45335 113.992 6.26409 112.666 4.88816C111.345 3.51835 109.156 3.48166 107.78 4.80867C107.749 4.83924 107.725 4.8637 107.694 4.89428L102.148 10.5876C100.124 12.6117 100.124 15.9017 102.148 17.9259C104.172 19.95 107.462 19.95 109.486 17.9259L114.891 12.52" stroke="#313749" stroke-width="1.5" stroke-linecap="round" stroke-linejoin="round"/>
<path d="M123 10.9316C123 10.3573 123 10.0701 123.074 9.80563C123.14 9.57136 123.247 9.35102 123.392 9.15543C123.555 8.93463 123.782 8.75832 124.235 8.4057L131.018 3.13058C131.369 2.85732 131.545 2.7207 131.739 2.66818C131.91 2.62184 132.09 2.62184 132.261 2.66818C132.455 2.7207 132.631 2.85732 132.982 3.13058L139.765 8.4057C140.218 8.75832 140.445 8.93463 140.608 9.15543C140.753 9.35102 140.86 9.57136 140.926 9.80563C141 10.0701 141 10.3573 141 10.9316V18.1666C141 19.2867 141 19.8467 140.782 20.2745C140.59 20.6509 140.284 20.9568 139.908 21.1486C139.48 21.3666 138.92 21.3666 137.8 21.3666H126.2C125.08 21.3666 124.52 21.3666 124.092 21.1486C123.716 20.9568 123.41 20.6509 123.218 20.2745C123 19.8467 123 19.2867 123 18.1666V10.9316Z" stroke="#313749" stroke-width="1.5"/>
<path d="M61.0014 172.697L62.9603 176.68C63.0588 176.877 63.2449 177.009 63.4528 177.041L67.8413 177.676C68.3776 177.753 68.5964 178.421 68.2025 178.793L65.0287 181.89C64.8755 182.043 64.7989 182.262 64.8427 182.47L65.5978 186.848C65.6854 187.384 65.1272 187.789 64.6457 187.537L60.7168 185.469C60.5308 185.37 60.3009 185.37 60.104 185.469L56.1751 187.537C55.6936 187.789 55.1354 187.384 55.223 186.848L55.9781 182.47C56.0109 182.262 55.9453 182.043 55.7921 181.89L52.6074 178.804C52.2134 178.421 52.4323 177.764 52.9685 177.687L57.357 177.052C57.5759 177.02 57.751 176.888 57.8495 176.691L59.8194 172.697C60.0602 172.204 60.7606 172.204 61.0014 172.697Z" fill="url(#paint1_linear_11124_106403)"/>
<path d="M37.0014 172.696L38.9603 176.68C39.0588 176.877 39.2449 177.008 39.4528 177.041L43.8413 177.676C44.3776 177.753 44.5964 178.42 44.2025 178.792L41.0287 181.89C40.8755 182.043 40.7989 182.262 40.8427 182.47L41.5978 186.847C41.6854 187.384 41.1272 187.789 40.6457 187.537L36.7168 185.468C36.5308 185.37 36.3009 185.37 36.104 185.468L32.1751 187.537C31.6936 187.789 31.1354 187.384 31.223 186.847L31.9781 182.47C32.0109 182.262 31.9453 182.043 31.7921 181.89L28.6074 178.803C28.2134 178.42 28.4323 177.763 28.9685 177.687L33.357 177.052C33.5759 177.019 33.751 176.888 33.8495 176.691L35.8194 172.696C36.0602 172.204 36.7606 172.204 37.0014 172.696Z" fill="#C4C8D4" fill-opacity="0.6"/>
<g clip-path="url(#clip1_11124_106403)">
<path d="M5.5 177.5H19.5" stroke="#A8AEBD" stroke-linecap="round" stroke-linejoin="round"/>
<path d="M5.5 180.5H19.5" stroke="#A8AEBD" stroke-linecap="round" stroke-linejoin="round"/>
<path d="M5.5 183.5H19.5" stroke="#A8AEBD" stroke-linecap="round" stroke-linejoin="round"/>
</g>
<g clip-path="url(#clip2_11124_106403)">
<path d="M155.801 3.72296V10.6462" stroke="#313749" stroke-width="1.6" stroke-linecap="round" stroke-linejoin="round"/>
<path d="M150.09 6.08838C148.625 7.5538 147.725 9.57308 147.725 11.8001C147.725 14.027 148.625 16.0463 150.09 17.5117C151.555 18.9771 153.575 19.8772 155.802 19.8772C158.028 19.8772 160.048 18.9771 161.513 17.5117C162.978 16.0463 163.878 14.027 163.878 11.8001C163.878 9.57308 162.978 7.5538 161.513 6.08838" stroke="#313749" stroke-width="1.6" stroke-linecap="round" stroke-linejoin="round"/>
</g>
<path d="M177.431 3.92485L178.178 3.98121V3.98121L177.431 3.92485ZM182.503 3.92485L181.755 3.98121V3.98121L182.503 3.92485ZM182.607 5.29981L181.859 5.35617L181.894 5.82497L182.331 5.99749L182.607 5.29981ZM184.59 6.48081L184.108 7.05546L184.474 7.36277L184.907 7.1602L184.59 6.48081ZM185.976 5.83237L186.294 6.51177L186.294 6.51177L185.976 5.83237ZM187.299 6.23626L186.655 6.62112L186.655 6.62112L187.299 6.23626ZM188.81 8.76352L188.166 9.14838L188.81 8.76352ZM188.511 10.0719L188.1 9.44457V9.44457L188.511 10.0719ZM187.097 10.9987L186.685 10.3714L186.288 10.6317L186.354 11.1021L187.097 10.9987ZM187.096 13.0024L186.354 12.899L186.288 13.3694L186.685 13.6297L187.096 13.0024ZM188.509 13.9282L188.098 14.5555V14.5555L188.509 13.9282ZM188.808 15.2365L189.452 15.6214V15.6214L188.808 15.2365ZM187.297 17.7638L187.941 18.1486V18.1486L187.297 17.7638ZM185.974 18.1677L185.657 18.847H185.657L185.974 18.1677ZM184.589 17.5198L184.907 16.8404L184.473 16.6379L184.107 16.9451L184.589 17.5198ZM182.607 18.7003L182.331 18.0026L181.894 18.1751L181.859 18.6439L182.607 18.7003ZM182.503 20.0752L183.251 20.1315L182.503 20.0752ZM177.431 20.0752L176.683 20.1315L177.431 20.0752ZM177.327 18.7012L178.075 18.6449L178.04 18.1759L177.602 18.0034L177.327 18.7012ZM175.354 17.5297L175.835 16.954L175.469 16.6483L175.037 16.8503L175.354 17.5297ZM173.991 18.1674L173.673 17.488L173.673 17.488L173.991 18.1674ZM172.668 17.7635L172.024 18.1484H172.024L172.668 17.7635ZM171.157 15.2362L171.8 14.8514H171.8L171.157 15.2362ZM171.456 13.9279L171.867 14.5552H171.867L171.456 13.9279ZM172.838 13.0224L173.249 13.6497L173.647 13.3885L173.58 12.9168L172.838 13.0224ZM172.838 10.9776L173.58 11.0832L173.647 10.6115L173.249 10.3503L172.838 10.9776ZM171.456 10.0721L171.867 9.44478L171.867 9.44478L171.456 10.0721ZM171.157 8.76374L170.513 8.37888H170.513L171.157 8.76374ZM172.668 6.23648L172.024 5.85162L172.668 6.23648ZM173.991 5.83259L173.673 6.51198L173.991 5.83259ZM175.354 6.47029L175.037 7.14969L175.469 7.35175L175.835 7.04604L175.354 6.47029ZM177.327 5.2989L177.602 5.99668L178.04 5.82425L178.075 5.35527L177.327 5.2989ZM178.428 2.25C177.512 2.25 176.751 2.95559 176.683 3.86849L178.178 3.98121C178.188 3.8508 178.297 3.75 178.428 3.75V2.25ZM181.506 2.25H178.428V3.75H181.506V2.25ZM183.251 3.86848C183.182 2.95559 182.421 2.25 181.506 2.25V3.75C181.637 3.75 181.745 3.8508 181.755 3.98121L183.251 3.86848ZM183.354 5.24345L183.251 3.86848L181.755 3.98121L181.859 5.35617L183.354 5.24345ZM182.331 5.99749C182.981 6.25389 183.58 6.61311 184.108 7.05546L185.071 5.90615C184.422 5.36163 183.684 4.91865 182.882 4.60213L182.331 5.99749ZM185.659 5.15298L184.272 5.80141L184.907 7.1602L186.294 6.51177L185.659 5.15298ZM187.943 5.8514C187.476 5.06974 186.482 4.76785 185.659 5.15298L186.294 6.51177C186.423 6.45152 186.584 6.50225 186.655 6.62112L187.943 5.8514ZM189.454 8.37866L187.943 5.8514L186.655 6.62112L188.166 9.14838L189.454 8.37866ZM188.922 10.6992C189.697 10.191 189.929 9.17288 189.454 8.37866L188.166 9.14838C188.23 9.2547 188.2 9.37886 188.1 9.44457L188.922 10.6992ZM187.508 11.626L188.922 10.6992L188.1 9.44457L186.685 10.3714L187.508 11.626ZM186.354 11.1021C186.394 11.3952 186.416 11.6949 186.416 12H187.916C187.916 11.6256 187.89 11.2568 187.839 10.8954L186.354 11.1021ZM186.416 12C186.416 12.3055 186.394 12.6056 186.354 12.899L187.839 13.1059C187.89 12.7441 187.916 12.3749 187.916 12H186.416ZM188.92 13.3009L187.508 12.3751L186.685 13.6297L188.098 14.5555L188.92 13.3009ZM189.452 15.6214C189.927 14.8271 189.695 13.809 188.92 13.3009L188.098 14.5555C188.198 14.6212 188.228 14.7453 188.165 14.8516L189.452 15.6214ZM187.941 18.1486L189.452 15.6214L188.165 14.8516L186.654 17.3789L187.941 18.1486ZM185.657 18.847C186.48 19.2322 187.474 18.9303 187.941 18.1486L186.654 17.3789C186.582 17.4978 186.421 17.5485 186.292 17.4883L185.657 18.847ZM184.271 18.1992L185.657 18.847L186.292 17.4883L184.907 16.8404L184.271 18.1992ZM184.107 16.9451C183.58 17.3872 182.981 17.7463 182.331 18.0026L182.882 19.3979C183.684 19.0815 184.422 18.6388 185.071 18.0945L184.107 16.9451ZM183.251 20.1315L183.354 18.7566L181.859 18.6439L181.755 20.0188L183.251 20.1315ZM181.506 21.75C182.421 21.75 183.182 21.0444 183.251 20.1315L181.755 20.0188C181.745 20.1492 181.637 20.25 181.506 20.25V21.75ZM178.428 21.75H181.506V20.25H178.428V21.75ZM176.683 20.1315C176.752 21.0444 177.512 21.75 178.428 21.75V20.25C178.297 20.25 178.188 20.1492 178.178 20.0188L176.683 20.1315ZM176.579 18.7576L176.683 20.1315L178.178 20.0188L178.075 18.6449L176.579 18.7576ZM177.602 18.0034C176.956 17.7488 176.36 17.3925 175.835 16.954L174.874 18.1055C175.52 18.6453 176.254 19.0846 177.052 19.399L177.602 18.0034ZM174.308 18.8468L175.672 18.2091L175.037 16.8503L173.673 17.488L174.308 18.8468ZM172.024 18.1484C172.491 18.93 173.485 19.2319 174.308 18.8468L173.673 17.488C173.544 17.5482 173.382 17.4975 173.311 17.3786L172.024 18.1484ZM170.513 15.6211L172.024 18.1484L173.311 17.3786L171.8 14.8514L170.513 15.6211ZM171.045 13.3006C170.269 13.8088 170.038 14.8269 170.513 15.6211L171.8 14.8514C171.737 14.7451 171.767 14.6209 171.867 14.5552L171.045 13.3006ZM172.427 12.3951L171.045 13.3006L171.867 14.5552L173.249 13.6497L172.427 12.3951ZM173.58 12.9168C173.538 12.6177 173.516 12.3117 173.516 12H172.016C172.016 12.3825 172.043 12.7591 172.095 13.1279L173.58 12.9168ZM173.516 12C173.516 11.6884 173.538 11.3823 173.58 11.0832L172.095 10.8721C172.043 11.2409 172.016 11.6175 172.016 12H173.516ZM171.045 10.6994L172.427 11.6049L173.249 10.3503L171.867 9.44478L171.045 10.6994ZM170.513 8.37888C170.038 9.1731 170.269 10.1912 171.045 10.6994L171.867 9.44478C171.767 9.37908 171.737 9.25491 171.8 9.1486L170.513 8.37888ZM172.024 5.85162L170.513 8.37888L171.8 9.1486L173.311 6.62134L172.024 5.85162ZM174.308 5.1532C173.485 4.76806 172.491 5.06995 172.024 5.85162L173.311 6.62134C173.382 6.50247 173.544 6.45173 173.673 6.51198L174.308 5.1532ZM175.672 5.7909L174.308 5.1532L173.673 6.51198L175.037 7.14969L175.672 5.7909ZM175.835 7.04604C176.36 6.60754 176.956 6.25131 177.602 5.99668L177.052 4.60113C176.254 4.91546 175.52 5.35476 174.874 5.89455L175.835 7.04604ZM176.683 3.86849L176.579 5.24254L178.075 5.35527L178.178 3.98121L176.683 3.86849Z" fill="#313749"/>
<circle cx="179.966" cy="12" r="2.7" stroke="#313749" stroke-width="1.5"/>
<rect width="24" height="24" transform="translate(120 192)" fill="white"/>
<path d="M130.284 212.982C131.334 213.675 132.666 213.675 133.716 212.982C136.067 211.431 140 208.207 140 204V198.386C140 197.552 139.483 196.806 138.702 196.513L132.702 194.263C132.249 194.094 131.751 194.094 131.298 194.263L125.298 196.513C124.517 196.806 124 197.552 124 198.386V204C124 208.207 127.933 211.431 130.284 212.982Z" fill="url(#paint2_linear_11124_106403)"/>
<path d="M129 203L131 205L135 201" stroke="white" stroke-width="1.5" stroke-linecap="round" stroke-linejoin="round"/>
<path fill-rule="evenodd" clip-rule="evenodd" d="M106.852 195.5C105.609 195.5 104.602 196.507 104.602 197.75V198.75C104.602 199.164 104.266 199.5 103.852 199.5C103.437 199.5 103.102 199.164 103.102 198.75V197.75C103.102 195.679 104.78 194 106.852 194H108.852C110.923 194 112.602 195.679 112.602 197.75V198.75C112.602 199.164 112.266 199.5 111.852 199.5C111.437 199.5 111.102 199.164 111.102 198.75V197.75C111.102 196.507 110.094 195.5 108.852 195.5H106.852Z" fill="#7F7CFF"/>
<path d="M97.8516 202.75C97.8516 200.541 99.6424 198.75 101.852 198.75H113.852C116.061 198.75 117.852 200.541 117.852 202.75V210.75C117.852 212.959 116.061 214.75 113.852 214.75H101.852C99.6424 214.75 97.8516 212.959 97.8516 210.75V202.75Z" fill="#BEC3FF"/>
<path d="M101.852 198.75H113.852C116.061 198.75 117.852 200.541 117.852 202.75C117.852 202.75 115.573 204.98 109.816 205.287C109.552 205.301 109.333 205.096 109.228 204.854C108.997 204.323 108.468 203.951 107.852 203.951C107.257 203.951 106.743 204.298 106.5 204.799C106.386 205.036 106.16 205.231 105.898 205.209C100.127 204.71 97.8516 202.75 97.8516 202.75C97.8516 200.541 99.6424 198.75 101.852 198.75Z" fill="#7F7CFF"/>
<rect x="107.102" y="204.75" width="1.5" height="2.79403" rx="0.75" fill="white"/>
<g clip-path="url(#clip3_11124_106403)">
<path d="M84 194C78.4758 194 74 198.476 74 204C74 209.524 78.4758 214 84 214C89.5242 214 94 209.524 94 204C94 198.476 89.5242 194 84 194ZM87.2258 200.774C87.9395 200.774 88.5161 201.351 88.5161 202.065C88.5161 202.778 87.9395 203.355 87.2258 203.355C86.5121 203.355 85.9355 202.778 85.9355 202.065C85.9355 201.351 86.5121 200.774 87.2258 200.774ZM80.7742 200.774C81.4879 200.774 82.0645 201.351 82.0645 202.065C82.0645 202.778 81.4879 203.355 80.7742 203.355C80.0605 203.355 79.4839 202.778 79.4839 202.065C79.4839 201.351 80.0605 200.774 80.7742 200.774ZM88.629 207.637C87.4798 209.016 85.7944 209.806 84 209.806C82.2056 209.806 80.5202 209.016 79.371 207.637C78.8226 206.98 79.8145 206.157 80.3629 206.81C81.2661 207.895 82.5887 208.512 84 208.512C85.4113 208.512 86.7339 207.891 87.6371 206.81C88.1774 206.157 89.1734 206.98 88.629 207.637Z" fill="#FBC400"/>
</g>
<path d="M55.5769 195.385C55.3025 194.726 55.7864 194 56.5 194H63.5C64.2136 194 64.6975 194.726 64.4231 195.385L62.5 200H57.5L55.5769 195.385Z" fill="#199F87"/>
<path d="M50 207C50 201.477 54.4772 197 60 197C65.5228 197 70 201.477 70 207V209.143V212C70 213.105 69.1046 214 68 214H52C50.8954 214 50 213.105 50 212V209.143V207Z" fill="#3DBAA3"/>
<path fill-rule="evenodd" clip-rule="evenodd" d="M56.5993 203.332C56.4511 203.035 56.0907 202.915 55.7943 203.063C55.4979 203.212 55.3778 203.572 55.526 203.868L56.0085 204.833L55.4516 204.833C55.1202 204.833 54.8516 205.102 54.8516 205.433C54.8516 205.765 55.1202 206.033 55.4516 206.033H56.6085L57.9704 208.757C58.072 208.96 58.2798 209.089 58.507 209.089C58.7343 209.089 58.9421 208.96 59.0437 208.757L60.3404 206.164L61.637 208.757C61.7386 208.96 61.9464 209.089 62.1737 209.089C62.4009 209.089 62.6087 208.96 62.7103 208.757L64.0519 206.074H65.2294C65.5607 206.074 65.8293 205.805 65.8293 205.474C65.8293 205.143 65.5607 204.874 65.2294 204.874H64.6519L65.1547 203.868C65.3029 203.572 65.1828 203.212 64.8864 203.063C64.59 202.915 64.2296 203.035 64.0814 203.332L62.1737 207.147L60.877 204.554C60.7754 204.351 60.5676 204.222 60.3404 204.222C60.1131 204.222 59.9053 204.351 59.8037 204.554L58.507 207.147L56.5993 203.332Z" fill="white"/>
<path d="M44.9044 200.5H27.8523C26.579 200.5 25.6299 201.674 25.8967 202.919L26.7008 211.338C27.096 213.182 28.7259 214.5 30.612 214.5H42.1447C44.0308 214.5 45.6607 213.182 46.0559 211.338L46.86 202.919C47.1268 201.674 46.1777 200.5 44.9044 200.5Z" fill="url(#paint3_linear_11124_106403)"/>
<path d="M44.8516 200.5V199.5C44.8516 197.843 43.5084 196.5 41.8516 196.5H38.5764C37.9084 196.5 37.2594 196.277 36.7325 195.866L35.792 195.134C35.2651 194.723 34.6161 194.5 33.9481 194.5H30.8516C29.1947 194.5 27.8516 195.843 27.8516 197.5V200.5H44.8516Z" fill="#4482F9"/>
<path fill-rule="evenodd" clip-rule="evenodd" d="M34.3516 206.75C34.3516 207.716 35.1351 208.5 36.1016 208.5C37.0681 208.5 37.8516 207.716 37.8516 206.75C37.8516 205.784 37.0681 205 36.1016 205C35.1351 205 34.3516 205.784 34.3516 206.75ZM32.8516 206.75C32.8516 208.545 34.3066 210 36.1016 210C36.7273 210 37.3117 209.823 37.8076 209.517L39.3212 211.03C39.6141 211.323 40.089 211.323 40.3819 211.03C40.6748 210.737 40.6748 210.263 40.3819 209.97L38.8683 208.456C39.1747 207.96 39.3516 207.376 39.3516 206.75C39.3516 204.955 37.8965 203.5 36.1016 203.5C34.3066 203.5 32.8516 204.955 32.8516 206.75Z" fill="white"/>
<path opacity="0.4" d="M22 211V208C22 206.343 20.6569 205 19 205H18C17.3705 205 16.7777 205.296 16.4 205.8L15.2 207.4C14.4446 208.407 13.259 209 12 209C10.741 209 9.55542 208.407 8.8 207.4L7.6 205.8C7.22229 205.296 6.62951 205 6 205H5C3.34315 205 2 206.343 2 208V211C2 212.657 3.34315 214 5 214H19C20.6569 214 22 212.657 22 211Z" fill="#6E83FF"/>
<path fill-rule="evenodd" clip-rule="evenodd" d="M5 205H6C6.62951 205 7.22229 205.296 7.6 205.8L8.8 207.4C9.55542 208.407 10.741 209 12 209C13.259 209 14.4446 208.407 15.2 207.4L16.4 205.8C16.7777 205.296 17.3705 205 18 205H19C19.3506 205 19.6872 205.06 20 205.171V198C20 195.791 18.2091 194 16 194H8C5.79086 194 4 195.791 4 198V205.171C4.31278 205.06 4.64936 205 5 205ZM15.5645 198.494C15.8372 198.182 15.8056 197.708 15.4939 197.436C15.1822 197.163 14.7084 197.194 14.4356 197.506L11.5657 200.786C11.4776 200.887 11.3258 200.9 11.2214 200.817L9.46855 199.414C9.1451 199.156 8.67313 199.208 8.41438 199.531C8.15562 199.855 8.20806 200.327 8.53151 200.586L10.2843 201.988C11.0156 202.573 12.0779 202.479 12.6946 201.774L15.5645 198.494Z" fill="#6E83FF"/>
<path d="M206.394 19.65C206.394 20.9297 205.168 21.9672 203.656 21.9672C202.145 21.9672 200.919 20.9297 200.919 19.65" stroke="#313749" stroke-width="1.42489"/>
<path d="M210.958 14.8508L211.623 14.5953L210.958 14.8508ZM212.287 18.3094L212.952 18.0538L212.287 18.3094ZM195.027 18.3094L194.362 18.0538L195.027 18.3094ZM196.292 15.0177L195.627 14.7622L196.292 15.0177ZM197.068 10.7503C197.068 7.11194 200.017 4.16246 203.656 4.16246V2.73757C199.23 2.73757 195.643 6.325 195.643 10.7503H197.068ZM197.068 14.677V10.7503H195.643V14.677H197.068ZM195.692 18.5649L196.957 15.2732L195.627 14.7622L194.362 18.0538L195.692 18.5649ZM211.401 18.8876H195.914V20.3125H211.401V18.8876ZM210.293 15.1064L211.622 18.5649L212.952 18.0538L211.623 14.5953L210.293 15.1064ZM210.244 10.7503V14.8488H211.668V10.7503H210.244ZM203.656 4.16246C207.294 4.16246 210.244 7.11194 210.244 10.7503H211.668C211.668 6.325 208.081 2.73757 203.656 2.73757V4.16246ZM210.957 14.1376C211.35 14.1376 211.668 14.456 211.668 14.8488H210.244C210.244 15.2429 210.563 15.5625 210.957 15.5625V14.1376ZM211.623 14.5953C211.517 14.3196 211.253 14.1376 210.957 14.1376V15.5625C210.663 15.5625 210.399 15.3811 210.293 15.1064L211.623 14.5953ZM211.401 20.3125C212.567 20.3125 213.371 19.1426 212.952 18.0538L211.622 18.5649C211.682 18.7205 211.567 18.8876 211.401 18.8876V20.3125ZM194.362 18.0538C193.944 19.1426 194.748 20.3125 195.914 20.3125V18.8876C195.747 18.8876 195.633 18.7205 195.692 18.5649L194.362 18.0538ZM195.643 14.677C195.643 14.7061 195.638 14.735 195.627 14.7622L196.957 15.2732C197.03 15.083 197.068 14.8808 197.068 14.677H195.643Z" fill="#313749"/>
<path d="M203.657 1.51141L203.655 2.80322" stroke="#313749" stroke-width="1.42489" stroke-linecap="round"/>
<ellipse cx="235.613" cy="4.39999" rx="1.89971" ry="1.89999" fill="#FC5B5B"/>
<circle cx="84" cy="223" r="5" fill="#C4C8D4"/>
<path d="M74 235.75C74 232.022 77.0221 229 80.75 229H87.25C90.9779 229 94 232.022 94 235.75C94 236.993 92.9926 238 91.75 238H76.25C75.0074 238 74 236.993 74 235.75Z" fill="#A8AEBD"/>
<path d="M55.5769 219.385C55.3025 218.726 55.7864 218 56.5 218H63.5C64.2136 218 64.6975 218.726 64.4231 219.385L62.5 224H57.5L55.5769 219.385Z" fill="#C4C8D4"/>
<path d="M50 231C50 225.477 54.4772 221 60 221C65.5228 221 70 225.477 70 231V233.143V236C70 237.105 69.1046 238 68 238H52C50.8954 238 50 237.105 50 236V233.143V231Z" fill="#A8AEBD"/>
<path d="M56.0001 229.5L57.0001 229.5" stroke="white" stroke-linecap="round" stroke-linejoin="round"/>
<path d="M63.0002 229.533L64.0002 229.533" stroke="white" stroke-linecap="round" stroke-linejoin="round"/>
<path d="M63.5001 228L61.5001 232L60.0001 229L58.5001 232L56.5001 228" stroke="white" stroke-linecap="round" stroke-linejoin="round"/>
<path d="M27.8199 219.801C27.9221 218.779 28.7825 218 29.81 218H42.19C43.2175 218 44.0779 218.779 44.1801 219.801L45.6701 234.701C45.8468 236.468 44.4599 238 42.685 238H29.315C27.5401 238 26.1532 236.468 26.3299 234.701L27.8199 219.801Z" fill="#A8AEBD"/>
<path d="M33 222V223C33 224.657 34.3431 226 36 226V226C37.6569 226 39 224.657 39 223V222" stroke="white" stroke-linecap="round"/>
<path d="M105 232H111" stroke="white" stroke-width="1.5" stroke-linecap="round" stroke-linejoin="round"/>
<path d="M115.156 222.699L111.656 220.009C109.898 218.659 109.02 217.983 108 217.983C106.98 217.983 106.102 218.659 104.344 220.009L100.844 222.699C99.6933 223.583 99.1179 224.025 98.8089 224.652C98.5 225.279 98.5 226.005 98.5 227.456V232C98.5 234.828 98.5 236.243 99.3787 237.121C100.257 238 101.672 238 104.5 238H111.5C114.328 238 115.743 238 116.621 237.121C117.5 236.243 117.5 234.828 117.5 232V227.456C117.5 226.005 117.5 225.279 117.191 224.652C116.882 224.025 116.307 223.583 115.156 222.699Z" fill="#0046FF"/>
<path d="M105 232.5H111" stroke="white" stroke-linecap="round"/>
<rect x="222" y="36" width="3.75" height="10" rx="1.875" fill="#1A57FF"/>
<path d="M219 33.5C219 30.4624 221.462 28 224.5 28H230V39H224.5C221.462 39 219 36.5376 219 33.5Z" fill="#A8BFFF"/>
<path d="M229 28L235.184 25.9387C235.831 25.7229 236.5 26.2049 236.5 26.8874V40.1126C236.5 40.7951 235.831 41.2771 235.184 41.0613L229 39V28Z" fill="#5784FF"/>
<path d="M9 232H15" stroke="white" stroke-width="1.5" stroke-linecap="round" stroke-linejoin="round"/>
<path d="M19.1558 222.699L15.6558 220.009C13.8983 218.659 13.0195 217.983 12 217.983C10.9805 217.983 10.1017 218.659 8.34415 220.009L4.84416 222.699C3.69329 223.583 3.11785 224.025 2.80893 224.652C2.5 225.279 2.5 226.005 2.5 227.456V232C2.5 234.828 2.5 236.243 3.37868 237.121C4.25736 238 5.67157 238 8.5 238H15.5C18.3284 238 19.7426 238 20.6213 237.121C21.5 236.243 21.5 234.828 21.5 232V227.456C21.5 226.005 21.5 225.279 21.1911 224.652C20.8821 224.025 20.3067 223.583 19.1558 222.699Z" fill="#A8AEBD"/>
<path d="M9 232.5H15" stroke="white" stroke-linecap="round"/>
<path d="M123.82 219.801C123.922 218.779 124.782 218 125.81 218H138.19C139.218 218 140.078 218.779 140.18 219.801L141.67 234.701C141.847 236.468 140.46 238 138.685 238H125.315C123.54 238 122.153 236.468 122.33 234.701L123.82 219.801Z" fill="#0046FF"/>
<path d="M129 222V223C129 224.657 130.343 226 132 226V226C133.657 226 135 224.657 135 223V222" stroke="white" stroke-linecap="round"/>
<path d="M151.577 219.385C151.302 218.726 151.786 218 152.5 218H159.5C160.214 218 160.698 218.726 160.423 219.385L158.5 224H153.5L151.577 219.385Z" fill="#0046FF"/>
<path d="M146 231C146 225.477 150.477 221 156 221C161.523 221 166 225.477 166 231V233.143V236C166 237.105 165.105 238 164 238H148C146.895 238 146 237.105 146 236V233.143V231Z" fill="#0046FF"/>
<path d="M152 229.5L153 229.5" stroke="white" stroke-linecap="round" stroke-linejoin="round"/>
<path d="M159 229.533L160 229.533" stroke="white" stroke-linecap="round" stroke-linejoin="round"/>
<path d="M159.5 228L157.5 232L156 229L154.5 232L152.5 228" stroke="white" stroke-linecap="round" stroke-linejoin="round"/>
<circle cx="180" cy="223" r="5" fill="#0046FF"/>
<path d="M170 235.75C170 232.022 173.022 229 176.75 229H183.25C186.978 229 190 232.022 190 235.75C190 236.993 188.993 238 187.75 238H172.25C171.007 238 170 236.993 170 235.75Z" fill="#0046FF"/>
<rect x="170.667" y="50.6667" width="18.6667" height="18.6667" rx="9.33333" fill="#9D8DFF"/>
<path d="M180.949 61.679H179.361C179.361 61.3314 179.386 61.0286 179.437 60.7708C179.491 60.5091 179.581 60.2747 179.706 60.0677C179.831 59.8568 179.999 59.6556 180.21 59.4642C180.394 59.304 180.554 59.1536 180.691 59.013C180.827 58.8685 180.933 58.72 181.007 58.5677C181.081 58.4153 181.118 58.2493 181.118 58.0696C181.118 57.8548 181.085 57.679 181.019 57.5423C180.956 57.4017 180.863 57.2962 180.738 57.2259C180.616 57.1517 180.464 57.1146 180.281 57.1146C180.128 57.1146 179.986 57.1497 179.853 57.22C179.72 57.2864 179.613 57.3919 179.531 57.5364C179.449 57.681 179.404 57.8704 179.396 58.1048H177.556C177.568 57.5462 177.695 57.0892 177.937 56.7337C178.179 56.3743 178.503 56.1107 178.909 55.9427C179.32 55.7708 179.777 55.6849 180.281 55.6849C180.839 55.6849 181.318 55.7728 181.716 55.9485C182.118 56.1243 182.425 56.3841 182.636 56.7278C182.851 57.0716 182.958 57.4915 182.958 57.9876C182.958 58.3275 182.894 58.6263 182.765 58.8841C182.636 59.138 182.464 59.3763 182.249 59.5989C182.034 59.8177 181.796 60.0462 181.534 60.2845C181.312 60.4837 181.159 60.6907 181.077 60.9056C180.995 61.1165 180.952 61.3743 180.949 61.679ZM179.15 63.472C179.15 63.2103 179.243 62.9896 179.431 62.8099C179.622 62.6302 179.87 62.5403 180.175 62.5403C180.48 62.5403 180.726 62.6302 180.913 62.8099C181.101 62.9896 181.195 63.2103 181.195 63.472C181.195 63.7376 181.101 63.9603 180.913 64.14C180.726 64.3157 180.48 64.4036 180.175 64.4036C179.87 64.4036 179.622 64.3157 179.431 64.14C179.243 63.9603 179.15 63.7376 179.15 63.472Z" fill="white"/>
<path d="M210.047 60.4664L209.207 60.0797C208.835 59.9102 208.421 59.8583 208.02 59.931C207.618 60.0037 207.248 60.1975 206.96 60.4864L206.393 61.0597C206.284 61.1696 206.139 61.2377 205.984 61.2523C205.83 61.2669 205.675 61.2271 205.547 61.1397L204.96 60.7531C204.159 60.225 203.468 59.5456 202.927 58.7531L202.533 58.1664C202.447 58.0373 202.408 57.882 202.424 57.7274C202.44 57.5729 202.509 57.4286 202.62 57.3197L203.167 56.7731C203.454 56.4867 203.647 56.1197 203.721 55.7208C203.795 55.3219 203.746 54.91 203.58 54.5397L203.207 53.6664C202.986 53.1729 202.65 52.7403 202.225 52.4059C201.8 52.0715 201.301 51.8454 200.769 51.747C200.238 51.6485 199.691 51.6808 199.175 51.841C198.658 52.0012 198.189 52.2844 197.807 52.6664L197.44 53.0331C196.372 54.1152 195.75 55.56 195.7 57.0796C195.649 58.5993 196.173 60.0823 197.167 61.2331C198.804 63.1457 200.587 64.9288 202.5 66.5664C203.651 67.554 205.132 68.0693 206.648 68.0086C208.163 67.948 209.599 67.316 210.667 66.2397L211.047 65.8531C211.427 65.4725 211.709 65.0056 211.869 64.4923C212.03 63.979 212.063 63.4346 211.968 62.9054C211.872 62.3762 211.65 61.8779 211.32 61.4532C210.99 61.0285 210.562 60.69 210.073 60.4664H210.047Z" fill="#FEC600"/>
<path d="M206.667 53.3332C207.727 53.3332 208.745 53.7546 209.495 54.5047C210.245 55.2549 210.667 56.2723 210.667 57.3332C210.667 57.51 210.737 57.6795 210.862 57.8046C210.987 57.9296 211.156 57.9998 211.333 57.9998C211.51 57.9998 211.68 57.9296 211.805 57.8046C211.93 57.6795 212 57.51 212 57.3332C212 55.9187 211.438 54.5621 210.438 53.5619C209.438 52.5617 208.081 51.9998 206.667 51.9998C206.49 51.9998 206.32 52.0701 206.195 52.1951C206.07 52.3201 206 52.4897 206 52.6665C206 52.8433 206.07 53.0129 206.195 53.1379C206.32 53.2629 206.49 53.3332 206.667 53.3332Z" fill="#FF8A00"/>
<path d="M206.667 55.9998C207.02 55.9998 207.359 56.1403 207.609 56.3904C207.859 56.6404 208 56.9795 208 57.3332C208 57.51 208.07 57.6796 208.195 57.8046C208.32 57.9296 208.49 57.9998 208.667 57.9998C208.843 57.9998 209.013 57.9296 209.138 57.8046C209.263 57.6796 209.333 57.51 209.333 57.3332C209.333 56.6259 209.052 55.9476 208.552 55.4476C208.052 54.9475 207.374 54.6665 206.667 54.6665C206.49 54.6665 206.32 54.7367 206.195 54.8618C206.07 54.9868 206 55.1564 206 55.3332C206 55.51 206.07 55.6796 206.195 55.8046C206.32 55.9296 206.49 55.9998 206.667 55.9998Z" fill="#FF8A00"/>
<path d="M234 64.6667L230 68H227.333" stroke="#7C8699" stroke-width="1.33333" stroke-linecap="round" stroke-linejoin="round"/>
<path d="M220 58.3333C220 53.915 223.582 50.3333 228 50.3333C232.418 50.3333 236 53.915 236 58.3333H234C234 55.0196 231.314 52.3333 228 52.3333C224.686 52.3333 222 55.0196 222 58.3333H220ZM235 65.3333H221H235ZM220 65.3333V58.3333C220 53.915 223.582 50.3333 228 50.3333V52.3333C224.686 52.3333 222 55.0196 222 58.3333V65.3333H220ZM228 50.3333C232.418 50.3333 236 53.915 236 58.3333V65.3333H234V58.3333C234 55.0196 231.314 52.3333 228 52.3333V50.3333Z" fill="#ABB6C1"/>
<path d="M218.667 62C218.667 60.5272 219.861 59.3333 221.333 59.3333H222.667C223.035 59.3333 223.333 59.6318 223.333 60V65.3333C223.333 65.7015 223.035 66 222.667 66H221.333C219.861 66 218.667 64.8061 218.667 63.3333V62Z" fill="#5088F5"/>
<path d="M232.667 60C232.667 59.6318 232.965 59.3333 233.333 59.3333H234.667C236.139 59.3333 237.333 60.5272 237.333 62V63.3333C237.333 64.8061 236.139 66 234.667 66H233.333C232.965 66 232.667 65.7015 232.667 65.3333V60Z" fill="#5088F5"/>
<path d="M198.062 34.921H194.774C194.346 34.921 194 35.2728 194 35.7067V45.7143C194 46.1482 194.346 46.5 194.774 46.5H198.062C198.489 46.5 198.835 46.1482 198.835 45.7143V35.7067C198.835 35.2728 198.489 34.921 198.062 34.921Z" fill="url(#paint4_linear_11124_106403)"/>
<path d="M214 37.1316C214 36.4731 213.474 35.9391 212.826 35.9391H206.4C206.937 35.1284 207.225 34.1767 207.225 33.1945V32.4751C207.225 31.5233 206.708 30.649 205.882 30.198C205.286 29.8743 204.564 30.3142 204.564 31.0004C204.564 32.4059 203.973 33.745 202.938 34.6802L201.548 35.9364H198.835V45.4846H210.29C210.938 45.4846 211.464 44.9506 211.464 44.2921C211.464 43.6336 210.938 43.0996 210.29 43.0996H210.974C211.622 43.0996 212.148 42.5656 212.148 41.9071C212.148 41.2486 211.622 40.7146 210.974 40.7146H211.832C212.48 40.7146 213.006 40.1806 213.006 39.5221C213.006 38.8636 212.48 38.3296 211.832 38.3296H212.82C213.469 38.3296 213.995 37.7956 213.995 37.1371L214 37.1316Z" fill="#FFC9C9"/>
<path d="M206.315 26.2083C206.315 25.8171 206.003 25.5 205.618 25.5C205.233 25.5 204.921 25.8171 204.921 26.2083V28.1866C204.921 28.5777 205.233 28.8949 205.618 28.8949C206.003 28.8949 206.315 28.5777 206.315 28.1866V26.2083Z" fill="#FEC600"/>
<path d="M202.792 26.9325C202.602 26.5919 202.177 26.4718 201.841 26.6642C201.506 26.8565 201.388 27.2886 201.577 27.6292L202.535 29.3517C202.724 29.6923 203.15 29.8125 203.485 29.6201C203.821 29.4277 203.939 28.9956 203.749 28.655L202.792 26.9325Z" fill="#FEC600"/>
<path d="M207.493 28.6546C207.304 28.9952 207.422 29.4273 207.758 29.6197C208.093 29.8121 208.518 29.6919 208.708 29.3513L209.666 27.6288C209.855 27.2882 209.737 26.8561 209.401 26.6638C209.066 26.4714 208.641 26.5915 208.451 26.9321L207.493 28.6546Z" fill="#FEC600"/>
<circle cx="204" cy="84" r="9" fill="#001644" fill-opacity="0.6"/>
<rect x="201" y="80" width="2" height="8" fill="white"/>
<rect x="205" y="80" width="2" height="8" fill="white"/>
<circle cx="228" cy="84" r="9" fill="#001644" fill-opacity="0.6"/>
<path d="M231.649 84L225.243 88.0558L225.243 79.9442L231.649 84Z" fill="white"/>
<circle cx="59.9989" cy="129.84" r="2.68831" stroke="#313749" stroke-width="1.5" stroke-linecap="round" stroke-linejoin="round"/>
<path d="M65.4297 138.902V138.902C65.4297 136.693 63.6388 134.872 61.4297 134.872H58.5703C56.3612 134.872 54.5703 136.693 54.5703 138.902V138.902" stroke="#313749" stroke-width="1.5" stroke-linecap="round" stroke-linejoin="round"/>
<rect x="51" y="123" width="18" height="18" rx="9" stroke="#313749" stroke-width="1.5" stroke-linecap="round" stroke-linejoin="round"/>
<path d="M138 34L132 40L126 34" stroke="white" stroke-width="1.5" stroke-linecap="round" stroke-linejoin="round"/>
<path fill-rule="evenodd" clip-rule="evenodd" d="M228 128.667C225.791 128.667 224 130.458 224 132.667C224 134.876 225.791 136.667 228 136.667C230.209 136.667 232 134.876 232 132.667C232 130.458 230.209 128.667 228 128.667ZM226.136 124C224.67 124 223.368 124.794 222.671 126H220.667C219.194 126 218 127.194 218 128.667V137.333C218 138.806 219.194 140 220.667 140H235.333C236.806 140 238 138.806 238 137.333V128.667C238 127.194 236.806 126 235.333 126H233.329C232.632 124.794 231.33 124 229.864 124H226.136Z" fill="white"/>
<path d="M230.667 132.667C230.667 134.139 229.473 135.333 228 135.333C226.527 135.333 225.333 134.139 225.333 132.667C225.333 131.194 226.527 130 228 130C229.473 130 230.667 131.194 230.667 132.667Z" fill="white"/>
<g clip-path="url(#clip4_11124_106403)">
<path d="M112.5 144H105.95V149C105.95 150.66 104.61 152 102.95 152H98V163C98 164.66 99.34 166 101 166H112.5C114.16 166 115.5 164.66 115.5 163V147C115.5 145.34 114.16 144 112.5 144Z" fill="#E6EBF3"/>
<path d="M105.95 149V144L98 151.95V152H102.95C104.61 152 105.95 150.66 105.95 149Z" fill="url(#paint5_linear_11124_106403)"/>
<path d="M102.5 155H111" stroke="#CFD8E6" stroke-width="1.2" stroke-linecap="round" stroke-linejoin="round"/>
<path d="M102.5 160H111" stroke="#CFD8E6" stroke-width="1.2" stroke-linecap="round" stroke-linejoin="round"/>
<path d="M105.95 149V144L98 151.95V152H102.95C104.61 152 105.95 150.66 105.95 149Z" fill="#C8D2E2"/>
<path d="M114.09 155.08L109.83 156.72C109.36 156.9 109.05 157.34 109.05 157.83V162.34C109.05 165.75 112.83 167.44 114.12 167.92C114.4 168.02 114.69 168.02 114.97 167.92C116.26 167.44 120.04 165.76 120.04 162.34V157.83C120.04 157.34 119.73 156.9 119.26 156.72L114.98 155.08C114.69 154.97 114.37 154.97 114.09 155.08Z" fill="url(#paint6_linear_11124_106403)"/>
<path d="M112.5 161L114.1 162.8L117.5 159.5" stroke="white" stroke-width="1.5" stroke-linecap="round" stroke-linejoin="round"/>
</g>
<path d="M137 145H129L121 153V163C121 164.1 121.9 165 123 165H137C138.1 165 139 164.1 139 163V147C139 145.9 138.1 145 137 145Z" fill="url(#paint7_linear_11124_106403)"/>
<path d="M129 145L121 153H126.33C127.8 153 129 151.81 129 150.33V145Z" fill="#92B6F4"/>
<path d="M142.78 165.741L140.13 163.091C142.51 160.181 142.35 155.881 139.63 153.171C136.74 150.281 132.05 150.281 129.16 153.171C126.27 156.061 126.27 160.751 129.16 163.641C131.88 166.351 136.17 166.521 139.08 164.141L141.73 166.791C142.02 167.081 142.49 167.081 142.77 166.791C143.06 166.501 143.06 166.031 142.77 165.741H142.78Z" fill="url(#paint8_linear_11124_106403)"/>
<path d="M131.4 158.05L133.5 160.3L137.4 156.5" stroke="white" stroke-width="1.5" stroke-linecap="round" stroke-linejoin="round"/>
<g clip-path="url(#clip5_11124_106403)">
<path d="M145.01 154H167.01V164C167.01 165.66 165.67 167 164.01 167H148.01C146.35 167 145.01 165.66 145.01 164V154Z" fill="url(#paint9_linear_11124_106403)"/>
<path d="M166.04 149.55H161V149.12C161 146.85 159.16 145 156.88 145H155.11C152.84 145 150.99 146.84 150.99 149.12V149.55H145.96C144.88 149.55 144 150.43 144 151.51V154.26C144 155.13 144.58 155.9 145.41 156.15L155.45 159.07C155.81 159.17 156.19 159.17 156.55 159.07L166.58 156.15C167.42 155.91 167.99 155.14 167.99 154.26V151.51C167.99 150.43 167.11 149.55 166.03 149.55H166.04ZM155.12 147.4H156.89C157.84 147.4 158.61 148.17 158.61 149.12V149.55H153.41V149.12C153.41 148.17 154.18 147.4 155.13 147.4H155.12Z" fill="url(#paint10_linear_11124_106403)"/>
<path d="M156.5 157.141H155.5C154.948 157.141 154.5 157.588 154.5 158.141V160.141C154.5 160.693 154.948 161.141 155.5 161.141H156.5C157.052 161.141 157.5 160.693 157.5 160.141V158.141C157.5 157.588 157.052 157.141 156.5 157.141Z" fill="#E00E54"/>
</g>
<g clip-path="url(#clip6_11124_106403)">
<path d="M180 145H183.073C183.745 145 184.191 145.715 183.882 146.329L182.264 149.583L180.8 152.526C180.464 153.204 179.509 153.204 179.173 152.526L177.709 149.583L176.091 146.329C175.791 145.724 176.227 145 176.9 145H179.973H180Z" fill="#23B599"/>
<path d="M189.255 157.137C188.291 152.718 184.445 149.583 180 149.583C175.555 149.583 171.709 152.727 170.745 157.137L170.136 159.932C169.345 163.562 172.055 167 175.7 167H180H184.3C187.945 167 190.655 163.562 189.864 159.932L189.255 157.137Z" fill="url(#paint11_linear_11124_106403)"/>
<path d="M182.782 148.667H177.218C176.746 148.667 176.364 149.052 176.364 149.528V149.638C176.364 150.114 176.746 150.5 177.218 150.5H182.782C183.254 150.5 183.636 150.114 183.636 149.638V149.528C183.636 149.052 183.254 148.667 182.782 148.667Z" fill="#0C8E75"/>
<path d="M176.236 156.092L178.118 160.492L180 157.045" stroke="white" stroke-width="1.5" stroke-linecap="round" stroke-linejoin="round"/>
<path d="M183.764 156.092L181.882 160.492L180 157.045" stroke="white" stroke-width="1.5" stroke-linecap="round" stroke-linejoin="round"/>
<path d="M175.455 157.98H177.018" stroke="white" stroke-width="1.5" stroke-linecap="round" stroke-linejoin="round"/>
<path d="M182.982 157.98H184.545" stroke="white" stroke-width="1.5" stroke-linecap="round" stroke-linejoin="round"/>
</g>
<path d="M233 144C235.209 144 237 145.791 237 148L237 164C237 166.209 235.209 168 233 168L223 168C220.791 168 219 166.209 219 164L219 148C219 145.791 220.791 144 223 144L233 144Z" fill="url(#paint12_linear_11124_106403)"/>
<path d="M219 163H237V164C237 166.209 235.209 168 233 168H223C220.791 168 219 166.209 219 164V163Z" fill="white" fill-opacity="0.4"/>
<path d="M225 155L226.75 156.5L230.833 153" stroke="white" stroke-width="1.25" stroke-linecap="round" stroke-linejoin="round"/>
<rect x="226" y="146" width="4" height="1" rx="0.5" fill="white" fill-opacity="0.4"/>
<path d="M195 151.324C195 148.936 196.791 147 199 147H209C211.209 147 213 148.936 213 151.324V162.676C213 165.064 211.209 167 209 167H199C196.791 167 195 165.064 195 162.676V151.324Z" fill="url(#paint13_linear_11124_106403)"/>
<path fill-rule="evenodd" clip-rule="evenodd" d="M200 145.25C200.414 145.25 200.75 145.586 200.75 146V149C200.75 149.414 200.414 149.75 200 149.75C199.586 149.75 199.25 149.414 199.25 149V146C199.25 145.586 199.586 145.25 200 145.25Z" fill="#0046E2"/>
<path fill-rule="evenodd" clip-rule="evenodd" d="M208 145.25C208.414 145.25 208.75 145.586 208.75 146V149C208.75 149.414 208.414 149.75 208 149.75C207.586 149.75 207.25 149.414 207.25 149V146C207.25 145.586 207.586 145.25 208 145.25Z" fill="#0046E2"/>
<path d="M213.143 155.49C213.796 154.837 214.856 154.837 215.51 155.49C216.163 156.144 216.163 157.204 215.51 157.857L210.495 162.872C210.374 162.993 210.225 163.081 210.061 163.127L207.864 163.754C207.487 163.861 207.139 163.513 207.246 163.136L207.872 160.939C207.919 160.775 208.007 160.626 208.128 160.505L213.143 155.49Z" fill="url(#paint14_linear_11124_106403)"/>
<path d="M200 155H208" stroke="white" stroke-width="1.25" stroke-linecap="round"/>
<path d="M200 159H204.5" stroke="white" stroke-width="1.25" stroke-linecap="round"/>
<path d="M212.904 128.5H195.852C194.579 128.5 193.63 129.674 193.897 130.919L194.701 139.338C195.096 141.182 196.726 142.5 198.612 142.5H210.145C212.031 142.5 213.661 141.182 214.056 139.338L214.86 130.919C215.127 129.674 214.178 128.5 212.904 128.5Z" fill="url(#paint15_linear_11124_106403)"/>
<path d="M212.852 128.5V127.5C212.852 125.843 211.508 124.5 209.852 124.5H206.576C205.908 124.5 205.259 124.277 204.732 123.866L203.792 123.134C203.265 122.723 202.616 122.5 201.948 122.5H198.852C197.195 122.5 195.852 123.843 195.852 125.5V128.5H212.852Z" fill="#4482F9"/>
<path d="M16.9716 158.46C16.9727 158.459 16.9727 158.457 16.9716 158.456C16.7778 158.272 16.5172 158.159 16.2231 158.159C15.9279 158.159 15.658 158.272 15.4641 158.466L14.7219 159.212C14.2538 159.676 13.4948 159.676 13.031 159.212L10.91 157.092L8.78895 154.971C8.32089 154.503 8.32089 153.745 8.78895 153.277L9.5311 152.535C9.72507 152.336 9.83892 152.067 9.83892 151.776C9.83892 151.485 9.72507 151.223 9.53953 151.03L5.70652 146.396C5.50411 146.156 5.20051 146 4.86317 146C4.50474 146 4.18849 146.173 3.9903 146.438L3.92283 146.527C3.09214 147.653 2 149.444 2 151.126C2 153.433 3.7373 156.32 6.87034 159.465L7.68838 160.283C7.68838 160.283 7.68838 160.283 7.68838 160.283C7.6884 160.283 7.69077 160.286 7.69363 160.289C7.69856 160.293 7.70313 160.299 7.70731 160.304C7.71156 160.31 7.7162 160.315 7.72121 160.32C10.8653 163.449 14.5719 166 16.8724 166C18.5549 166 20.3428 164.908 21.4729 164.073L21.5615 164.01C21.8271 163.808 22 163.496 22 163.137C22 162.8 21.844 162.497 21.6036 162.298L16.9718 158.464C16.9705 158.463 16.9704 158.461 16.9716 158.46Z" fill="white"/>
<path fill-rule="evenodd" clip-rule="evenodd" d="M18.6601 149.34C17.6599 148.34 16.3034 147.778 14.8889 147.778C14.6531 147.778 14.427 147.684 14.2603 147.517C14.0936 147.351 14 147.125 14 146.889C14 146.653 14.0936 146.427 14.2603 146.26C14.427 146.094 14.6531 146 14.8889 146C16.7749 146 18.5836 146.749 19.9172 148.083C21.2508 149.416 22 151.225 22 153.111C22 153.347 21.9064 153.573 21.7397 153.74C21.573 153.906 21.3469 154 21.1111 154C20.8754 154 20.6493 153.906 20.4826 153.74C20.3159 153.573 20.2222 153.347 20.2222 153.111C20.2222 151.697 19.6603 150.34 18.6601 149.34ZM15.9314 152.069C15.6313 151.769 15.2243 151.6 14.8 151.6C14.5878 151.6 14.3843 151.516 14.2343 151.366C14.0843 151.216 14 151.012 14 150.8C14 150.588 14.0843 150.384 14.2343 150.234C14.3843 150.084 14.5878 150 14.8 150C15.6487 150 16.4626 150.337 17.0627 150.937C17.6629 151.537 18 152.351 18 153.2C18 153.412 17.9157 153.616 17.7657 153.766C17.6157 153.916 17.4122 154 17.2 154C16.9878 154 16.7843 153.916 16.6343 153.766C16.4843 153.616 16.4 153.412 16.4 153.2C16.4 152.776 16.2314 152.369 15.9314 152.069Z" fill="white"/>
<path d="M34.3398 165.937L34.6328 158.368L28.1875 162.421L26.5273 159.54L33.2656 156.024L26.5273 152.46L28.1875 149.579L34.6328 153.632L34.3398 146.063H37.6602L37.3672 153.632L43.8125 149.579L45.4727 152.46L38.7832 156.024L45.4727 159.54L43.8125 162.421L37.3672 158.368L37.6602 165.937H34.3398Z" fill="#656B7B"/>
<path d="M45 129H35M35 129C35 130.105 34.1046 131 33 131C31.8954 131 31 130.105 31 129M35 129C35 127.895 34.1046 127 33 127C31.8954 127 31 127.895 31 129M31 129H27M38 136H27M38 136C38 137.105 38.8954 138 40 138C41.1046 138 42 137.105 42 136M38 136C38 134.895 38.8954 134 40 134C41.1046 134 42 134.895 42 136M45 136H42" stroke="#656B7B" stroke-width="1.5" stroke-linecap="round"/>
<circle cx="12" cy="84" r="8" fill="#7E869A"/>
<path d="M9 81L15 87" stroke="white" stroke-width="1.5" stroke-linecap="round"/>
<path d="M15 81L9 87" stroke="white" stroke-width="1.5" stroke-linecap="round"/>
<path d="M127.74 60.3182L130.322 63L136 57.1" stroke="white" stroke-width="2" stroke-linecap="round" stroke-linejoin="round"/>
<path d="M151.74 60.3182L154.322 63L160 57.1" stroke="#E2E4E9" stroke-width="2" stroke-linecap="round" stroke-linejoin="round"/>
<defs>
<linearGradient id="paint0_linear_11124_106403" x1="222.796" y1="106.823" x2="224.688" y2="112.945" gradientUnits="userSpaceOnUse">
<stop stop-color="#FFFFD4"/>
<stop offset="1" stop-color="#FFEFB1"/>
</linearGradient>
<linearGradient id="paint1_linear_11124_106403" x1="52" y1="172" x2="68" y2="188" gradientUnits="userSpaceOnUse">
<stop stop-color="#FFD12D"/>
<stop offset="1" stop-color="#FFA927"/>
</linearGradient>
<linearGradient id="paint2_linear_11124_106403" x1="127" y1="196" x2="137" y2="213" gradientUnits="userSpaceOnUse">
<stop stop-color="#ACBCCB"/>
<stop offset="1" stop-color="#9BA8B5"/>
</linearGradient>
<linearGradient id="paint3_linear_11124_106403" x1="36.3784" y1="200.5" x2="36.3784" y2="214.5" gradientUnits="userSpaceOnUse">
<stop stop-color="#ADC8FF"/>
<stop offset="1" stop-color="#96ADFF"/>
</linearGradient>
<linearGradient id="paint4_linear_11124_106403" x1="196.418" y1="34.921" x2="196.418" y2="46.5" gradientUnits="userSpaceOnUse">
<stop stop-color="#AFD0FF"/>
<stop offset="1" stop-color="#80B4FF"/>
</linearGradient>
<linearGradient id="paint5_linear_11124_106403" x1="101.97" y1="144" x2="101.97" y2="166" gradientUnits="userSpaceOnUse">
<stop offset="0.3" stop-color="#DCE0E8"/>
<stop offset="1" stop-color="#B6BECF"/>
</linearGradient>
<linearGradient id="paint6_linear_11124_106403" x1="114.55" y1="155" x2="114.55" y2="168" gradientUnits="userSpaceOnUse">
<stop stop-color="#FFCD39"/>
<stop offset="1" stop-color="#FF7F00"/>
</linearGradient>
<linearGradient id="paint7_linear_11124_106403" x1="130" y1="105.09" x2="130" y2="234.43" gradientUnits="userSpaceOnUse">
<stop offset="0.3" stop-color="#DEE8FF"/>
<stop offset="0.46" stop-color="#A5BFF9"/>
</linearGradient>
<linearGradient id="paint8_linear_11124_106403" x1="135" y1="151.001" x2="135" y2="167.001" gradientUnits="userSpaceOnUse">
<stop stop-color="#92B6F4"/>
<stop offset="1" stop-color="#278CF2"/>
</linearGradient>
<linearGradient id="paint9_linear_11124_106403" x1="156.01" y1="154" x2="156.01" y2="167" gradientUnits="userSpaceOnUse">
<stop stop-color="#DCE0E8"/>
<stop offset="1" stop-color="#B6BECF"/>
</linearGradient>
<linearGradient id="paint10_linear_11124_106403" x1="156" y1="145" x2="156" y2="159.14" gradientUnits="userSpaceOnUse">
<stop stop-color="#FF9D7E"/>
<stop offset="1" stop-color="#FD3F6D"/>
</linearGradient>
<linearGradient id="paint11_linear_11124_106403" x1="180" y1="114.832" x2="180" y2="227.463" gradientUnits="userSpaceOnUse">
<stop offset="0.3" stop-color="#61D9B1"/>
<stop offset="0.46" stop-color="#0D9B80"/>
</linearGradient>
<linearGradient id="paint12_linear_11124_106403" x1="228.562" y1="149" x2="228.562" y2="169.5" gradientUnits="userSpaceOnUse">
<stop stop-color="#62AAFF"/>
<stop offset="1" stop-color="#418CFD"/>
</linearGradient>
<linearGradient id="paint13_linear_11124_106403" x1="203.978" y1="167" x2="203.978" y2="147" gradientUnits="userSpaceOnUse">
<stop stop-color="#3369FF"/>
<stop offset="1" stop-color="#668FFF"/>
</linearGradient>
<linearGradient id="paint14_linear_11124_106403" x1="216" y1="155" x2="207" y2="164" gradientUnits="userSpaceOnUse">
<stop stop-color="#A7DFFF"/>
<stop offset="1" stop-color="#77C3EE"/>
</linearGradient>
<linearGradient id="paint15_linear_11124_106403" x1="204.378" y1="128.5" x2="204.378" y2="142.5" gradientUnits="userSpaceOnUse">
<stop stop-color="#ADC8FF"/>
<stop offset="1" stop-color="#96ADFF"/>
</linearGradient>
<clipPath id="clip0_11124_106403">
<rect width="10" height="10" fill="white" transform="translate(127 79.2952)"/>
</clipPath>
<clipPath id="clip1_11124_106403">
<rect width="15" height="7" fill="white" transform="translate(5 177)"/>
</clipPath>
<clipPath id="clip2_11124_106403">
<rect width="18" height="18.0004" fill="white" transform="translate(146.801 2.7998)"/>
</clipPath>
<clipPath id="clip3_11124_106403">
<rect width="20" height="20" fill="white" transform="translate(74 194)"/>
</clipPath>
<clipPath id="clip4_11124_106403">
<rect width="23.05" height="24" fill="white" transform="translate(97 144)"/>
</clipPath>
<clipPath id="clip5_11124_106403">
<rect width="24" height="24" fill="white" transform="translate(144 144)"/>
</clipPath>
<clipPath id="clip6_11124_106403">
<rect width="20" height="22" fill="white" transform="translate(170 145)"/>
</clipPath>
</defs>
</svg>
