<svg width="134" height="20" viewBox="0 0 134 20" fill="none" xmlns="http://www.w3.org/2000/svg">
<g id="ShinhanEZ_CI" clip-path="url(#clip0_818_2027)">
<g id="Group">
<path id="Vector" d="M27.8111 4.60284C27.8111 4.09218 27.7808 3.81333 27.4852 3.48744C27.3004 3.25562 27.4247 3.03725 27.6397 3.03725H30.3207V5.09671C30.3207 7.1293 32.3063 8.32198 34.1037 8.92671L33.4385 10.1832C33.2369 10.5561 32.4776 10.415 31.1438 9.59528C30.3846 9.13165 29.6555 8.51012 29.1751 7.85835C28.6006 8.6781 27.8883 9.36011 27.0686 9.90437C26.1245 10.5225 24.915 11.1138 24.7135 10.7241L24.0012 9.37691C26.064 8.57059 27.8144 7.22337 27.8144 5.25462V4.60284H27.8111ZM38.011 15.4377V17.1881H29.1616C27.287 17.1881 26.5411 16.7077 26.5411 15.1421V12.8945C26.5411 12.5854 26.4336 12.3536 26.2152 12.0881C26.0271 11.8563 26.1548 11.638 26.3698 11.638H29.0037V14.8162C29.0037 15.2966 29.1583 15.4377 29.6387 15.4377H38.0076H38.011ZM35.3132 12.4308V4.37103C35.3132 3.83012 35.2191 3.55127 34.9268 3.22539C34.742 2.99357 34.8663 2.79199 35.0981 2.79199H37.7489V12.4342H35.3165L35.3132 12.4308Z" fill="white"/>
<path id="Vector_2" d="M43.1377 3.93743C43.1377 3.39317 43.1075 3.14792 42.8119 2.79179C42.6103 2.55998 42.7346 2.3584 42.9664 2.3584H45.6172V4.09534H49.1347V5.79868H47.5087C47.9891 6.34294 48.2847 7.00815 48.2847 7.79767C48.2847 9.74963 46.8434 11.238 44.27 11.238C41.6965 11.238 40.2552 9.74963 40.2552 7.79767C40.2552 6.99136 40.534 6.32615 40.9977 5.79868H39.3716V4.09534H43.1377V3.94079V3.93743ZM53.0118 15.4375V17.1879H44.317C42.4423 17.1879 41.6965 16.7075 41.6965 15.1419V13.5158C41.6965 13.2067 41.589 12.9715 41.3706 12.7095C41.1858 12.4777 41.3101 12.2593 41.5251 12.2593H44.1624V14.816C44.1624 15.2964 44.317 15.4375 44.7974 15.4375H53.0118ZM45.9599 7.71704C45.9599 6.66211 45.3417 5.85579 44.27 5.85579C43.1982 5.85579 42.58 6.66211 42.58 7.71704C42.58 8.70814 43.1848 9.53125 44.27 9.53125C45.3551 9.53125 45.9599 8.7115 45.9599 7.71704ZM50.3912 12.6456V4.37083C50.3912 3.82993 50.314 3.58131 50.0183 3.22519C49.8167 2.99337 49.941 2.79179 50.1729 2.79179H52.8236V6.45045H54.5908V8.20083H52.8236V12.649H50.3879L50.3912 12.6456Z" fill="white"/>
<path id="Vector_3" d="M55.8169 15.6558V5.13005C55.8169 4.60259 55.7228 4.34053 55.4305 4.01465C55.2424 3.78283 55.3667 3.56445 55.5851 3.56445H63.0401V5.37866H58.3433V8.69464H62.6067V10.5089H58.3433V13.8551H63.3794V15.6525H55.8169V15.6558Z" fill="white"/>
<path id="Vector_4" d="M67.4551 13.8584H72.5853V15.6558H64.3071V14.3523L69.5146 5.37866H64.5389V3.56445H72.4744V4.89823C72.4744 5.27116 72.3333 5.58024 72.1653 5.85909L67.4518 13.8584H67.4551Z" fill="white"/>
<path id="Vector_5" d="M79.5294 9.54783C79.5294 9.00356 79.4354 8.72807 79.1431 8.40219C78.9549 8.17037 79.0826 7.96879 79.3144 7.96879H82.0425V9.95434H88.1637V11.6275H73.3914V9.95434H79.5294V9.55119V9.54783ZM74.1674 7.14568C76.9727 6.68204 79.5294 5.40874 79.5294 4.18582V3.89017C79.5294 3.62812 79.3883 3.37951 79.1733 3.16113C78.9549 2.94275 79.0658 2.71094 79.2976 2.71094H81.9484V4.18246C81.9484 5.19036 84.3976 6.58461 87.2331 7.06504L86.6754 8.4593C86.5511 8.75495 85.6373 8.67768 83.8701 8.00911C82.6002 7.52868 81.4982 6.97097 80.7255 6.25873C80.0267 6.94074 79.2204 7.40437 78.0747 7.9016C76.5561 8.55337 74.9133 8.87926 74.7419 8.4761L74.1674 7.14232V7.14568ZM75.2526 13.8415C75.2526 13.5324 75.1451 13.2972 74.9267 13.0351C74.7419 12.8033 74.8662 12.585 75.0813 12.585H77.7152V14.9871C77.7152 15.313 77.9168 15.4373 78.1957 15.4373H86.6754V17.1877H77.1105C75.9178 17.1877 75.2492 16.4754 75.2492 15.4205V13.8381L75.2526 13.8415Z" fill="white"/>
<path id="Vector_6" d="M91.7248 4.18617C91.7248 3.62846 91.6308 3.30258 91.4158 3.02373C91.231 2.77511 91.3385 2.59033 91.5871 2.59033H94.0833V4.77746H96.687V6.52784H88.7986V4.77746H91.7282V4.18953L91.7248 4.18617ZM92.8873 7.05531C95.3365 7.05531 96.593 8.62091 96.593 10.9155C96.593 13.2102 95.3365 14.7758 92.8873 14.7758C90.4381 14.7758 89.1816 13.2102 89.1816 10.9155C89.1816 8.62091 90.4381 7.05531 92.8873 7.05531ZM92.8873 8.77545C91.8324 8.77545 91.3855 9.5952 91.3855 10.9155C91.3855 12.2359 91.8357 13.0556 92.8873 13.0556C93.9389 13.0556 94.389 12.2359 94.389 10.9155C94.389 9.5952 93.9389 8.77545 92.8873 8.77545ZM97.5538 4.48182C97.5538 3.92411 97.4598 3.59823 97.2448 3.31938C97.06 3.07076 97.1675 2.88598 97.4161 2.88598H99.8048V7.95569H101.122V2.79527H103.383V17.3829H101.122V9.86398H99.8048V16.9629H97.5572V4.47846L97.5538 4.48182Z" fill="white"/>
<path id="Vector_7" d="M108.745 11.779C106.9 11.779 106.077 11.2381 106.077 9.74981V4.85144C106.077 4.34077 105.97 4.07536 105.674 3.71924C105.489 3.47062 105.597 3.26904 105.829 3.26904H108.479V5.96684H114.896V3.26904H117.299V11.779H113.035V14.2585H119.156V16.0088H104.384V14.2585H110.522V11.779H108.738H108.745ZM114.9 10.0421V7.68698H108.483V9.11484C108.483 9.65574 108.637 10.0455 109.366 10.0455H114.9V10.0421Z" fill="white"/>
<path id="Vector_8" d="M123.652 3.93743C123.652 3.39317 123.622 3.14792 123.326 2.79179C123.124 2.55998 123.249 2.3584 123.481 2.3584H126.131V4.09534H129.649V5.79868H128.053C128.517 6.32615 128.799 6.97792 128.799 7.75064C128.799 9.70259 127.28 11.1439 124.784 11.1439C122.288 11.1439 120.769 9.70259 120.769 7.75064C120.769 6.96112 121.048 6.30935 121.498 5.79868H119.886V4.09534H123.652V3.94079V3.93743ZM125.466 17.2685C123.591 17.2685 122.815 16.8654 122.815 15.2998V13.2067C122.815 12.8976 122.708 12.6624 122.489 12.4004C122.305 12.1686 122.429 11.9502 122.644 11.9502H133.573C133.822 11.9502 133.929 12.0275 133.929 12.2929V17.2685H125.466ZM126.474 7.67337C126.474 6.65203 125.852 5.85915 124.784 5.85915C123.716 5.85915 123.094 6.64867 123.094 7.67337C123.094 8.63423 123.699 9.45734 124.784 9.45734C125.869 9.45734 126.474 8.63759 126.474 7.67337ZM131.544 15.5954V13.6099H125.204V14.9571C125.204 15.5148 125.406 15.5921 125.916 15.5921H131.544V15.5954ZM131.483 11.0532V8.63423H129.42V6.88385H131.483V4.37419C131.483 3.83329 131.406 3.58467 131.11 3.22855C130.909 2.99673 131.033 2.79515 131.265 2.79515H133.916V11.0565H131.483V11.0532Z" fill="white"/>
</g>
<path id="Vector_9" d="M9.99832 0C4.47841 0 0 4.47841 0 9.99832C0 15.5182 4.47841 19.9966 9.99832 19.9966C15.5182 19.9966 19.9966 15.5182 19.9966 9.99832C19.9966 4.47841 15.5216 0 9.99832 0ZM10.2066 18.1656C9.01058 18.3336 7.06199 18.0312 5.745 17.1947C4.58928 16.4656 3.90055 15.5518 3.45372 14.6246C2.99681 13.6771 2.78179 12.5281 3.26894 12.5853C3.4974 12.6121 3.69226 13.0422 4.13237 13.6032C4.43138 13.9862 4.71023 14.3088 4.91853 14.3558C5.0126 14.3759 5.08987 14.3323 5.15706 14.208C5.28137 13.9694 5.44935 13.5192 5.74836 13.153C5.99026 12.8742 6.28255 12.7432 6.45389 13.4252C6.53452 13.7645 6.60171 14.1173 6.63867 14.423C6.69242 14.8564 6.7193 15.1151 6.87049 15.1856C7.01495 15.2562 7.25684 15.1655 7.65328 15.0176C7.93549 14.9135 8.29834 14.7791 8.75861 14.6481C9.18192 14.5271 9.4507 14.591 9.17857 15.2461C9.0509 15.5552 8.91987 15.8172 8.46296 16.4757C8.38233 16.5933 8.39913 16.7075 8.49656 16.805C8.6511 16.9562 8.99714 17.1409 9.38014 17.3089C9.68587 17.4399 10.0487 17.5575 10.2906 17.6247C10.6669 17.7322 10.593 18.1119 10.2133 18.1656H10.2066ZM15.3368 16.0155C14.9639 16.6202 14.1844 17.2753 13.237 17.7121C13.0926 17.7759 12.9414 17.7558 12.9011 17.6382C12.8675 17.5374 12.9481 17.4198 13.0422 17.3089C14.2752 15.7097 13.358 14.2416 11.3691 13.106C9.89753 12.2661 8.96355 11.7823 7.87838 11.144C4.70015 9.27264 4.08533 7.63985 3.96103 6.67563C3.64858 4.23988 5.66437 2.41223 7.73392 1.97211C7.79775 1.95868 7.96237 1.9318 8.01613 2.06954C8.06988 2.20729 7.94557 2.30808 7.87502 2.35176C6.94776 2.86242 6.03729 3.94423 6.13808 5.14698C6.19184 5.81891 6.48077 6.78649 8.3017 8.08332C9.4003 8.86612 10.7442 9.50781 13.4554 11.1339C16.3212 12.8507 15.9953 14.9471 15.3368 16.0121V16.0155ZM15.7836 6.87049C15.1285 7.67008 14.4767 7.37443 13.9728 6.24559C13.6603 5.54342 13.2471 5.37208 12.9548 5.55686C12.6356 5.75844 12.7633 6.23887 13.1194 6.79321C13.3513 7.15606 13.2471 7.58273 13.0052 7.83471C12.7499 8.10012 12.3366 8.20427 11.8831 8.10684C11.0768 7.92878 10.2839 6.85033 10.8618 4.49185C11.0969 3.54107 10.64 3.13455 10.3477 2.76835C10.2033 2.58693 10.1865 2.47606 10.2369 2.40215C10.294 2.32152 10.4284 2.3148 10.6635 2.36519C10.9726 2.42903 11.4329 2.59029 11.8092 2.6474C12.0578 2.68772 12.34 2.6978 12.6356 2.68436C13.4386 2.65412 14.0333 2.77843 14.638 3.07744C15.666 3.58811 15.7736 4.46498 15.1991 4.39442C15.0008 4.37091 14.7455 4.21972 14.5338 4.11893C14.3927 4.05174 14.2718 4.02822 14.1811 4.09205C14.0971 4.15253 14.0601 4.28019 14.1206 4.40786C14.2483 4.67663 14.6817 4.81438 15.2663 4.979C16.2909 5.26121 16.3111 6.21199 15.7769 6.87049H15.7836Z" fill="white"/>
</g>
<defs>
<clipPath id="clip0_818_2027">
<rect width="133.929" height="20" fill="white"/>
</clipPath>
</defs>
</svg>
