<svg width="840" height="224" viewBox="0 0 840 224" fill="none" xmlns="http://www.w3.org/2000/svg">
<path d="M6.5 30.75C6.5 28.6784 8.17954 27.0006 10.2496 27.0006C12.3213 27.0006 14.0008 28.6784 14.0008 30.75V39.4993C14.0008 40.8814 12.8806 42 11.5 42H9.00083C7.62024 42 6.5 40.8814 6.5 39.4993V30.75Z" fill="#384C96"/>
<path d="M34 30.75C34 28.6784 35.6795 27.0006 37.7512 27.0006C39.8213 27.0006 41.5008 28.6784 41.5008 30.75V39.4993C41.5008 40.8814 40.3806 42 39 42H36.5008C35.1202 42 34 40.8814 34 39.4993V30.75Z" fill="#384C96"/>
<path fill-rule="evenodd" clip-rule="evenodd" d="M14.8856 7C12.5471 7 10.522 8.61999 10.0077 10.9005L8.04853 19.5903C5.74059 20.0355 4 22.0637 4 24.5001V34.4996C4 35.8802 5.1186 37.0004 6.49918 37.0004H41.5008C42.8814 37.0004 44 35.8802 44 34.4996V24.5001C44 22.0637 42.2578 20.0355 39.9515 19.5903L37.9923 10.9005C37.478 8.61999 35.4529 7 33.1144 7H14.8856Z" fill="url(#paint0_linear_1835_58730)"/>
<path d="M4 32.0012H44V34.5003C44 35.8808 42.8814 37.001 41.5008 37.001H6.49918C5.1186 37.001 4 35.8808 4 34.5003V32.0012Z" fill="#5074F5"/>
<path d="M10.8751 28.2487C11.9106 28.2487 12.7501 27.4092 12.7501 26.3736C12.7501 25.3381 11.9106 24.4987 10.8751 24.4987C9.83948 24.4987 9 25.3381 9 26.3736C9 27.4092 9.83948 28.2487 10.8751 28.2487Z" fill="white"/>
<path d="M37.1251 28.2487C38.1606 28.2487 39.0001 27.4092 39.0001 26.3736C39.0001 25.3381 38.1606 24.4987 37.1251 24.4987C36.0895 24.4987 35.25 25.3381 35.25 26.3736C35.25 27.4092 36.0895 28.2487 37.1251 28.2487Z" fill="white"/>
<g filter="url(#filter0_i_1835_58730)">
<path d="M13.6906 12.5993C13.9847 11.508 14.9748 10.7478 16.1046 10.7478H31.897C33.0268 10.7478 34.0169 11.508 34.311 12.5993L36.5016 20.749H11.5L13.6906 12.5993Z" fill="url(#paint1_linear_1835_58730)"/>
</g>
<path d="M112 2C99.8474 2 90 11.853 90 24C90 36.147 99.8474 46 112 46C124.153 46 134 36.147 134 24C134 11.853 124.141 2 112 2ZM112 7.17499C120.605 7.17499 127.689 13.64 128.696 21.97C126.715 22.058 124.645 22.124 122.765 21.771C121.747 21.584 120.773 21.264 119.9 20.767C117.371 19.322 114.182 18.307 111.239 18.561C109.393 18.726 107.613 19.256 105.901 19.973C104.491 20.558 102.813 21.86 101.246 21.86H95.3154C96.3672 13.585 103.428 7.17499 112 7.17499ZM95.3377 26.317H98.4262C102.119 26.317 104.077 29.395 106.942 31.205C108.945 32.473 109.628 34.713 109.505 36.986V40.638C102.153 39.546 96.3561 33.698 95.3266 26.317H95.3377ZM114.484 40.638V36.986C114.484 34.691 115.01 32.838 116.879 31.37C117.741 30.697 118.681 30.145 119.531 29.461C120.37 28.788 121.12 27.994 122.026 27.398C123.022 26.747 124.365 26.317 125.563 26.317H128.651C127.633 33.698 121.836 39.546 114.484 40.638Z" fill="url(#paint2_linear_1835_58730)"/>
<path d="M117.477 26.079C117.477 28.059 115.178 29.665 112.34 29.665C109.502 29.665 107.203 28.059 107.203 26.079C107.203 24.099 109.502 22.504 112.34 22.504C115.178 22.504 117.477 24.11 117.477 26.079Z" fill="url(#paint3_linear_1835_58730)"/>
<mask id="mask0_1835_58730" style="mask-type:luminance" maskUnits="userSpaceOnUse" x="181" y="5" width="40" height="40">
<path d="M221 5H181V45H221V5Z" fill="white"/>
</mask>
<g mask="url(#mask0_1835_58730)">
<path fill-rule="evenodd" clip-rule="evenodd" d="M183.608 6.88982L181 9.48549L185.563 16.6237L190.124 18.5697L202.51 30.8995L205.117 28.3042L192.733 15.9752L190.778 11.4323L183.608 6.88982Z" fill="url(#paint4_linear_1835_58730)"/>
<path d="M198.898 29.8995L204.113 24.7084L218.202 38.7334C219.642 40.1669 219.642 42.4915 218.202 43.9249C216.762 45.3584 214.427 45.3584 212.987 43.9249L198.898 29.8995Z" fill="url(#paint5_linear_1835_58730)"/>
<path fill-rule="evenodd" clip-rule="evenodd" d="M215.182 6.10703C215.707 6.36886 215.782 7.06045 215.366 7.47379L210.891 11.9285C209.991 12.8245 209.991 14.2771 210.891 15.1731C211.791 16.0691 213.25 16.0691 214.151 15.1731L218.588 10.7561C219.007 10.3386 219.709 10.4188 219.966 10.9511C221.844 14.8514 221.16 19.6687 217.914 22.901C214.737 26.063 210.037 26.7835 206.167 25.0624L188.258 42.8906C186.789 44.3534 184.407 44.3534 182.938 42.8906C181.469 41.4277 181.469 39.0573 182.938 37.5944L200.846 19.7664C199.117 15.9129 199.841 11.2335 203.017 8.07131C206.309 4.79451 211.237 4.13972 215.182 6.10703ZM187.027 37.1291C187.497 36.6629 188.256 36.6629 188.724 37.1291C189.194 37.5953 189.194 38.3525 188.724 38.8187L186.788 40.7468C186.319 41.2139 185.559 41.2139 185.091 40.7468C184.622 40.2806 184.622 39.5244 185.091 39.0573L187.027 37.1291Z" fill="url(#paint6_linear_1835_58730)"/>
</g>
<path d="M287.952 9.55098C280.063 9.55098 273.666 15.999 273.666 23.951C273.666 31.903 280.063 38.351 287.952 38.351C295.841 38.351 302.237 31.903 302.237 23.951C302.237 15.999 295.841 9.55098 287.952 9.55098ZM296.885 17.8422L293.031 20.1206C292.18 18.975 290.958 18.127 289.539 17.759V13.1862C292.59 13.6406 295.225 15.3782 296.885 17.839V17.8422ZM286.364 13.1894V17.7622C285.082 18.095 283.955 18.8182 283.12 19.8038L279.139 17.6694C280.806 15.3014 283.383 13.631 286.361 13.1894H286.364ZM277.158 23.951C277.158 22.7542 277.352 21.6022 277.707 20.5238L281.73 22.6806C281.647 23.0902 281.603 23.5158 281.603 23.951C281.603 25.503 282.152 26.9238 283.06 28.031L280.396 31.7206C278.396 29.7462 277.155 26.9942 277.155 23.951H277.158ZM287.952 34.831C286.152 34.831 284.46 34.3862 282.968 33.6022L285.634 29.9062C286.352 30.191 287.133 30.351 287.952 30.351C288.837 30.351 289.679 30.1686 290.447 29.8358L293.298 33.4006C291.723 34.3094 289.898 34.8278 287.955 34.8278L287.952 34.831ZM295.793 31.423L292.958 27.8774C293.796 26.7926 294.301 25.4326 294.301 23.951C294.301 23.6662 294.276 23.391 294.241 23.1158L298.266 20.735C298.577 21.7526 298.745 22.831 298.745 23.951C298.745 26.847 297.622 29.4742 295.793 31.423Z" fill="url(#paint7_radial_1835_58730)"/>
<path d="M287.954 27.1513C289.707 27.1513 291.129 25.7186 291.129 23.9513C291.129 22.184 289.707 20.7513 287.954 20.7513C286.201 20.7513 284.779 22.184 284.779 23.9513C284.779 25.7186 286.201 27.1513 287.954 27.1513Z" fill="#1A2028"/>
<path fill-rule="evenodd" clip-rule="evenodd" d="M267.953 23.9512C267.953 12.9048 276.909 3.95121 287.953 3.95121C298.998 3.95121 307.953 12.9048 307.953 23.9512C307.953 34.9976 298.998 43.9512 287.953 43.9512C286.679 43.9512 285.433 43.8321 284.225 43.6044L284.148 43.5402L284.401 43.6195L283.871 41.7473L282.241 40.2379L282.758 38.986L281.467 38.7787L281.918 37.2929L280.114 37.5608L279.994 35.001C282.254 36.6708 285.041 37.6568 288.058 37.6568C295.598 37.6568 301.709 31.4968 301.709 23.8968C301.709 16.2968 295.598 10.1368 288.058 10.1368C280.518 10.1368 274.407 16.2968 274.407 23.8968C274.407 28.407 276.559 32.4101 279.885 34.9196L279.74 37.6163L279.697 37.6227L278.399 35.8534L278.657 37.611L276.805 36.4338L277.254 37.9794L274.65 36.0444L277.162 38.5036L275.396 37.9291L276.288 38.639L275.847 39.345L274.322 38.5866C270.404 34.9356 267.953 29.7298 267.953 23.9512ZM282.007 43.0523C282.103 43.0821 282.199 43.1112 282.295 43.1396L281.954 42.9612L282.007 43.0523Z" fill="url(#paint8_linear_1835_58730)"/>
<path fill-rule="evenodd" clip-rule="evenodd" d="M287.12 3.95121H288.786V6.53454C288.786 6.94875 288.451 7.28454 288.036 7.28454H287.87C287.456 7.28454 287.12 6.94875 287.12 6.53454V3.95121ZM287.12 43.9512H288.786V41.3679C288.786 40.9537 288.451 40.6179 288.036 40.6179H287.87C287.456 40.6179 287.12 40.9537 287.12 41.3679V43.9512ZM307.953 23.1179V24.7845H305.37C304.956 24.7845 304.62 24.4488 304.62 24.0345V23.8679C304.62 23.4537 304.956 23.1179 305.37 23.1179H307.953ZM267.953 23.1179V24.7845H270.536C270.951 24.7845 271.286 24.4488 271.286 24.0345V23.8679C271.286 23.4537 270.951 23.1179 270.536 23.1179H267.953Z" fill="#29333B"/>
<path fill-rule="evenodd" clip-rule="evenodd" d="M301.504 9.21959L302.683 10.3981L300.856 12.2248C300.563 12.5177 300.088 12.5177 299.795 12.2248L299.678 12.1069C299.385 11.8141 299.385 11.3392 299.678 11.0463L301.504 9.21959ZM273.22 37.5038L274.398 38.6823L276.225 36.8556C276.518 36.5628 276.518 36.0879 276.225 35.795L276.107 35.6771C275.814 35.3842 275.339 35.3842 275.046 35.6771L273.22 37.5038ZM302.683 37.5039L301.504 38.6824L299.677 36.8557C299.385 36.5628 299.385 36.0879 299.677 35.7951L299.795 35.6772C300.088 35.3843 300.563 35.3843 300.856 35.6772L302.683 37.5039ZM274.398 9.21959L273.22 10.3981L275.046 12.2248C275.339 12.5177 275.814 12.5177 276.107 12.2248L276.225 12.1069C276.518 11.814 276.518 11.3392 276.225 11.0463L274.398 9.21959Z" fill="#29333B"/>
<path d="M310.439 9.54672L307.881 10.9967L309.106 13.6634L306.181 13.3217L305.606 16.2051L303.439 14.2134L301.281 16.2051L300.698 13.3217L297.781 13.6634L299.006 10.9967L296.439 9.54672L299.006 8.10505L297.781 5.43839L300.698 5.77172L301.281 2.89672L303.439 4.88839L305.606 2.89672L306.181 5.77172L309.106 5.43839L307.881 8.10505L310.439 9.54672Z" fill="url(#paint9_linear_1835_58730)"/>
<path d="M356 14H389.6V31.6C389.6 34.248 387.448 36.4 384.8 36.4H360.8C358.152 36.4 356 34.248 356 31.6V14Z" fill="url(#paint10_linear_1835_58730)"/>
<path d="M368.063 17.6161H366.111C365.959 17.6161 365.815 17.6561 365.687 17.7361L362.903 19.4801C362.671 19.6241 362.527 19.8801 362.527 20.1601V21.0641C362.527 21.6881 363.215 22.0721 363.743 21.7441L365.583 20.6161H365.655V30.3921C365.655 30.8321 366.015 31.1921 366.455 31.1921H368.063C368.503 31.1921 368.863 30.8321 368.863 30.3921V18.4161C368.863 17.9761 368.503 17.6161 368.063 17.6161ZM382.391 20.6321C381.935 19.5921 381.279 18.7921 380.431 18.2481C379.583 17.7041 378.567 17.4241 377.391 17.4241C376.215 17.4241 375.207 17.6961 374.351 18.2481C373.495 18.8001 372.847 19.5921 372.391 20.6321C371.935 21.6721 371.703 22.9361 371.703 24.4001C371.703 25.8641 371.935 27.1281 372.391 28.1681C372.847 29.2081 373.503 30.0081 374.351 30.5521C375.199 31.0961 376.215 31.3761 377.391 31.3761C378.567 31.3761 379.575 31.1041 380.431 30.5601C381.287 30.0161 381.935 29.2241 382.391 28.1761C382.847 27.1281 383.079 25.8721 383.079 24.4001C383.079 22.9281 382.847 21.6721 382.391 20.6321ZM379.159 27.6801C378.735 28.4081 378.143 28.7761 377.399 28.7761C376.655 28.7761 376.079 28.4161 375.647 27.7041C375.215 26.9921 374.999 25.9201 374.999 24.5041C374.999 23.0881 375.215 21.9041 375.639 21.1521C376.063 20.4001 376.655 20.0241 377.399 20.0241C378.143 20.0241 378.727 20.3921 379.159 21.1361C379.591 21.8801 379.799 22.9681 379.799 24.4161C379.799 25.8641 379.583 26.9681 379.159 27.6961V27.6801Z" fill="url(#paint11_linear_1835_58730)"/>
<path d="M360.8 6H384.8C387.448 6 389.6 8.152 389.6 10.8V14H356V10.8C356 8.152 358.152 6 360.8 6Z" fill="url(#paint12_linear_1835_58730)"/>
<path opacity="0.1" d="M367.809 6V6.8C367.809 7.68 368.529 8.4 369.409 8.4C370.289 8.4 371.009 7.68 371.009 6.8V6H367.809Z" fill="black"/>
<path d="M370.607 5.2C370.607 4.5376 370.069 4 369.407 4C368.745 4 368.207 4.5376 368.207 5.2V6.8C368.207 7.4624 368.745 8 369.407 8C370.069 8 370.607 7.4624 370.607 6.8V5.2Z" fill="url(#paint13_linear_1835_58730)"/>
<path opacity="0.1" d="M361.016 6V6.8C361.016 7.68 361.736 8.4 362.616 8.4C363.496 8.4 364.216 7.68 364.216 6.8V6H361.016Z" fill="black"/>
<path d="M363.816 5.2C363.816 4.5376 363.278 4 362.616 4C361.954 4 361.416 4.5376 361.416 5.2V6.8C361.416 7.4624 361.954 8 362.616 8C363.278 8 363.816 7.4624 363.816 6.8V5.2Z" fill="url(#paint14_linear_1835_58730)"/>
<path opacity="0.1" d="M374.592 6V6.8C374.592 7.68 375.312 8.4 376.192 8.4C377.072 8.4 377.792 7.68 377.792 6.8V6H374.592Z" fill="black"/>
<path d="M377.392 5.2C377.392 4.5376 376.855 4 376.192 4C375.53 4 374.992 4.5376 374.992 5.2V6.8C374.992 7.4624 375.53 8 376.192 8C376.855 8 377.392 7.4624 377.392 6.8V5.2Z" fill="url(#paint15_linear_1835_58730)"/>
<path opacity="0.1" d="M381.385 6V6.8C381.385 7.68 382.105 8.4 382.985 8.4C383.865 8.4 384.585 7.68 384.585 6.8V6H381.385Z" fill="black"/>
<path d="M384.185 5.2C384.185 4.5376 383.648 4 382.985 4C382.323 4 381.785 4.5376 381.785 5.2V6.8C381.785 7.4624 382.323 8 382.985 8C383.648 8 384.185 7.4624 384.185 6.8V5.2Z" fill="url(#paint16_linear_1835_58730)"/>
<path d="M385 44C391.075 44 396 39.0757 396 33C396 26.9262 391.075 22 385 22C378.925 22 374 26.9262 374 33C374 39.0757 378.925 44 385 44Z" fill="url(#paint17_linear_1835_58730)"/>
<path d="M388 30L381.636 36.364" stroke="white" stroke-width="1.8" stroke-linecap="round"/>
<path d="M388 36L381.636 29.636" stroke="white" stroke-width="1.8" stroke-linecap="round"/>
<path d="M446.857 24.2403C446.857 16.494 453.137 10.2143 460.883 10.2143H461.403C469.149 10.2143 475.429 16.494 475.429 24.2403V35.9286H446.857V24.2403Z" fill="url(#paint18_linear_1835_58730)"/>
<path d="M453.267 18.0714C451.942 19.6087 451.143 21.5971 451.143 23.7694V26.1433" stroke="white" stroke-opacity="0.25" stroke-width="1.41818" stroke-linecap="round" stroke-linejoin="round"/>
<path d="M444 38.0714C444 36.888 444.959 35.9286 446.143 35.9286H476.143C477.326 35.9286 478.286 36.888 478.286 38.0714V40.2143H444V38.0714Z" fill="url(#paint19_linear_1835_58730)"/>
<path d="M472.571 44.5C478.883 44.5 484 39.3833 484 33.0714C484 26.7596 478.883 21.6429 472.571 21.6429C466.259 21.6429 461.143 26.7596 461.143 33.0714C461.143 39.3833 466.259 44.5 472.571 44.5Z" fill="url(#paint20_linear_1835_58730)"/>
<path d="M467.246 29.9921L469.908 36.1635L472.57 31.3233" stroke="white" stroke-width="1.8" stroke-linecap="round" stroke-linejoin="round"/>
<path d="M477.895 29.9921L475.232 36.1635L472.57 31.3233" stroke="white" stroke-width="1.8" stroke-linecap="round" stroke-linejoin="round"/>
<path d="M466.145 32.6276H468.363" stroke="white" stroke-width="1.8" stroke-linecap="round" stroke-linejoin="round"/>
<path d="M476.779 32.6273H478.998" stroke="white" stroke-width="1.8" stroke-linecap="round" stroke-linejoin="round"/>
<path d="M461.143 4.5V7.35714" stroke="#FD665F" stroke-width="1.5" stroke-linecap="round"/>
<path d="M453.285 6.1197L454.714 8.59398" stroke="#FD665F" stroke-width="1.5" stroke-linecap="round"/>
<path d="M469.001 6.1197L467.572 8.59398" stroke="#FD665F" stroke-width="1.5" stroke-linecap="round"/>
<mask id="mask1_1835_58730" style="mask-type:luminance" maskUnits="userSpaceOnUse" x="532" y="4" width="40" height="40">
<path d="M572 4H532V44H572V4Z" fill="white"/>
</mask>
<g mask="url(#mask1_1835_58730)">
<path d="M569.909 14.9091H534.091C532.936 14.9091 532 15.8453 532 17V41.9091C532 43.0638 532.936 44 534.091 44H569.909C571.064 44 572 43.0638 572 41.9091V17C572 15.8453 571.064 14.9091 569.909 14.9091Z" fill="url(#paint21_linear_1835_58730)"/>
<path d="M562.946 4H541.055C540.072 4 539.273 4.79782 539.273 5.78182V42.2182C539.273 43.2022 540.072 44 541.055 44H562.946C563.93 44 564.728 43.2022 564.728 42.2182V5.78182C564.728 4.79782 563.93 4 562.946 4Z" fill="url(#paint22_linear_1835_58730)"/>
<path d="M547.273 16.7273H556.728" stroke="white" stroke-width="1.8" stroke-linecap="round" stroke-linejoin="round"/>
<path d="M552 21.4552V12.0007" stroke="white" stroke-width="1.8" stroke-linecap="round" stroke-linejoin="round"/>
<path d="M548.363 29.4545H555.636C557.636 29.4545 559.272 31.0909 559.272 33.0909V44H544.727V33.0909C544.727 31.0909 546.363 29.4545 548.363 29.4545Z" fill="#0C8E75"/>
<path d="M564.728 4H539.273C538.27 4 537.455 4.814 537.455 5.81818C537.455 6.82236 538.27 7.63636 539.273 7.63636H564.728C565.731 7.63636 566.546 6.82236 566.546 5.81818C566.546 4.814 565.731 4 564.728 4Z" fill="#0C8E75"/>
</g>
<path d="M622.375 25.7144C622.375 23.8203 623.971 22.2863 625.937 22.2863C627.905 22.2863 629.501 23.8203 629.501 25.7144V33.7137C629.501 34.9773 628.437 36 627.125 36H624.751C623.439 36 622.375 34.9773 622.375 33.7137V25.7144Z" fill="#536373"/>
<path d="M648.5 25.7144C648.5 23.8203 650.096 22.2863 652.064 22.2863C654.03 22.2863 655.626 23.8203 655.626 25.7144V33.7137C655.626 34.9773 654.562 36 653.25 36H650.876C649.564 36 648.5 34.9773 648.5 33.7137V25.7144Z" fill="#536373"/>
<path fill-rule="evenodd" clip-rule="evenodd" d="M630.341 4C628.12 4 626.196 5.48114 625.707 7.56619L623.846 15.5111C621.654 15.9182 620 17.7725 620 20.0001V29.1425C620 30.4047 621.063 31.4289 622.374 31.4289H655.626C656.937 31.4289 658 30.4047 658 29.1425V20.0001C658 17.7725 656.345 15.9182 654.154 15.5111L652.293 7.56619C651.804 5.48114 649.88 4 647.659 4H630.341Z" fill="url(#paint23_linear_1835_58730)"/>
<path d="M620 26.8583H658V29.1432C658 30.4054 656.937 31.4296 655.626 31.4296H622.374C621.063 31.4296 620 30.4054 620 29.1432V26.8583Z" fill="#C0CEDC"/>
<path d="M626.531 23.4273C627.515 23.4273 628.313 22.6597 628.313 21.713C628.313 20.7662 627.515 19.9987 626.531 19.9987C625.548 19.9987 624.75 20.7662 624.75 21.713C624.75 22.6597 625.548 23.4273 626.531 23.4273Z" fill="white"/>
<path d="M651.469 23.4273C652.453 23.4273 653.25 22.6597 653.25 21.713C653.25 20.7662 652.453 19.9987 651.469 19.9987C650.485 19.9987 649.688 20.7662 649.688 21.713C649.688 22.6597 650.485 23.4273 651.469 23.4273Z" fill="white"/>
<g filter="url(#filter1_i_1835_58730)">
<path d="M629.206 9.11884C629.486 8.12113 630.426 7.4261 631.499 7.4261H646.502C647.575 7.4261 648.516 8.12113 648.795 9.11884L650.877 16.57H627.125L629.206 9.11884Z" fill="url(#paint24_linear_1835_58730)"/>
</g>
<path d="M658.804 25.312C655.047 25.475 652.903 23.7011 651.846 22.4C651.413 21.8667 650.587 21.8667 650.154 22.4C649.097 23.7011 646.953 25.475 643.196 25.312C642.546 25.2837 642 25.7847 642 26.4285V36.2621C642.177 36.8521 641.392 41.6322 651 44C660.608 41.6322 659.823 36.8534 660 36.2621V26.4285C660 25.7847 659.454 25.2837 658.804 25.312Z" fill="url(#paint25_linear_1835_58730)"/>
<path d="M647.668 32.9143L649.668 34.751L654.334 30.4655" stroke="white" stroke-width="1.8" stroke-linecap="round" stroke-linejoin="round"/>
<path d="M722.278 33.1763C722.278 35.9393 720.033 38.1842 717.27 38.1842C714.507 38.1842 712.262 35.9393 712.262 33.1763C712.262 30.4133 714.507 28.1683 717.27 28.1683C720.033 28.1683 722.278 30.4133 722.278 33.1763ZM743.745 33.1763C743.745 35.9393 741.501 38.1842 738.738 38.1842C735.975 38.1842 733.73 35.9393 733.73 33.1763C733.73 30.4133 735.975 28.1683 738.738 28.1683C741.501 28.1683 743.745 30.4133 743.745 33.1763Z" fill="#384C96"/>
<path d="M712.235 33.1763H709.372C708.991 33.1763 708.663 33.0491 708.4 32.7855C708.136 32.5219 708.009 32.1947 708.009 31.813V29.0773C708.009 28.6864 708.136 28.3683 708.4 28.1138C708.663 27.8594 708.982 27.7321 709.372 27.7321H728.005L710.736 14.3624V19.6794C710.736 20.0702 710.608 20.3883 710.345 20.6519C710.081 20.9155 709.754 21.0427 709.363 21.0427C708.973 21.0427 708.654 20.9155 708.391 20.6519C708.136 20.3883 708 20.0702 708 19.6794V12.1357C708 11.6085 708.218 11.2086 708.663 10.945C709.1 10.6814 709.554 10.6723 710.009 10.9087L731.367 22.6787V10.3633C731.367 9.9816 731.495 9.6544 731.758 9.39082C732.022 9.12724 732.34 9 732.731 9H737.639C738.048 9 738.439 9.0818 738.802 9.25449C739.166 9.42718 739.475 9.67257 739.729 9.99977L747.364 19.1341C747.564 19.3885 747.718 19.6612 747.836 19.9611C747.955 20.2611 748 20.5792 748 20.9064V31.813C748 32.1947 747.873 32.5219 747.609 32.7855C747.346 33.0491 747.027 33.1763 746.637 33.1763H712.235Z" fill="url(#paint26_linear_1835_58730)"/>
<path d="M734.002 19.4886H744.363L737.547 11.3086H734.002V19.4886Z" fill="url(#paint27_linear_1835_58730)"/>
<path d="M748.001 31.813C748.001 32.1947 747.873 32.5219 747.61 32.7855C747.346 33.0491 747.028 33.1763 746.637 33.1763H709.373C708.991 33.1763 708.664 33.0491 708.401 32.7855C708.137 32.5219 708.01 32.1947 708.01 31.813V29.0772C708.01 28.6864 708.137 28.3683 708.401 28.1138C708.664 27.8593 708.982 27.7321 709.373 27.7321H748.001V31.8221V31.813Z" fill="#5074F5"/>
<path d="M747.035 22.906H747.999V24.9146H746.954C746.426 24.9146 745.99 24.4874 745.99 23.9512C745.99 23.3786 746.463 22.906 747.035 22.906Z" fill="white"/>
<path d="M830.853 28.6945C830.853 37.3823 823.661 44.368 814.973 43.8496C806.045 43.3167 799.934 34.7305 801.084 25.7545C801.781 20.2959 804.34 15.614 807.126 11.9825C807.61 11.349 808.107 16.4487 808.604 15.8877C809.103 15.3113 813.723 7.31506 815.329 4.50645C815.398 4.38319 815.493 4.27534 815.608 4.19105C815.722 4.10767 815.853 4.04876 815.992 4.02067C816.131 3.99166 816.274 3.99347 816.413 4.02429C816.551 4.05601 816.681 4.11765 816.793 4.20375C820.021 6.63896 830.853 15.7871 830.853 28.6945Z" fill="#FF5823"/>
<path d="M826.991 34.5501C826.991 39.8937 821.972 44.1886 815.867 43.9937C809.278 43.788 804.759 38.1989 805.726 32.4412C807.122 24.1876 816.265 18.8839 816.265 18.8839C816.265 18.8839 826.991 25.1056 826.991 34.5501Z" fill="#FFB02E"/>
<path d="M21.0945 132H21.663C23.9881 132 25.8086 130.26 25.8086 128.039V93.2987C25.8086 92.5818 25.1719 92 24.3874 92C23.6029 92 22.9662 92.5818 22.9662 93.2987V128.039C22.9662 128.709 22.4787 129.403 21.663 129.403H21.0945C20.3029 129.403 19.5554 128.74 19.5554 128.039V125.506C19.5554 124.79 18.9187 124.208 18.1342 124.208C17.3497 124.208 16.713 124.79 16.713 125.506V128.039C16.713 130.186 18.7197 132 21.0945 132Z" fill="#7B5D99"/>
<mask id="mask2_1835_58730" style="mask-type:alpha" maskUnits="userSpaceOnUse" x="16" y="92" width="10" height="40">
<path d="M21.0926 132H21.661C23.9861 132 25.8066 130.26 25.8066 128.039V93.2987C25.8066 92.5818 25.1699 92 24.3855 92C23.601 92 22.9643 92.5818 22.9643 93.2987V128.039C22.9643 128.709 22.4768 129.403 21.661 129.403H21.0926C20.301 129.403 19.5534 128.74 19.5534 128.039V125.506C19.5534 124.79 18.9167 124.208 18.1322 124.208C17.3477 124.208 16.711 124.79 16.711 125.506V128.039C16.711 130.186 18.7178 132 21.0926 132Z" fill="#7B5D99"/>
</mask>
<g mask="url(#mask2_1835_58730)">
<rect x="10.6484" y="117.185" width="14.8148" height="10.3704" fill="#BB77FF"/>
</g>
<path d="M14.1064 113.423C14.1064 113.423 17.3822 108.213 24.0734 113.348C24.0734 113.348 24.1394 103.621 24 94.7273H23.5779C23.5779 94.7273 11.3261 100.17 14.1064 113.423Z" fill="url(#paint28_linear_1835_58730)"/>
<path d="M14.1064 113.423C14.1064 113.423 8.90996 108.288 4 113.423C4 113.423 4.1394 95.7191 23.5779 94.7273C23.5779 94.7273 14.3929 98.9447 14.1064 113.423Z" fill="url(#paint29_linear_1835_58730)"/>
<path d="M33.8937 113.423C33.8937 113.423 30.6179 108.213 23.9267 113.348C23.9267 113.348 23.8606 103.621 24 94.7273H24.4651C24.4651 94.7273 36.674 100.17 33.8937 113.423Z" fill="url(#paint30_linear_1835_58730)"/>
<path d="M33.8937 113.423C33.8937 113.423 39.09 108.288 44 113.423C44 113.423 43.8606 95.7191 24.4221 94.7273C24.4221 94.7273 33.6072 98.9447 33.8937 113.423Z" fill="url(#paint31_linear_1835_58730)"/>
<path d="M28.2887 101.31C28.0396 100.451 27.2725 99.8257 26.3646 99.8257C25.8965 99.8257 25.4659 99.992 25.1244 100.271C25.0898 100.299 25.0561 100.329 25.0234 100.359C24.8163 100.543 24.3625 100.96 24.3556 101.097C24.3487 100.96 23.8949 100.543 23.6878 100.359C23.6551 100.329 23.6214 100.299 23.5868 100.271C23.2451 99.992 22.8144 99.8257 22.3464 99.8257C21.4385 99.8257 20.6715 100.451 20.4225 101.31C19.5963 104.049 24.3556 107.255 24.3556 107.255C24.3556 107.255 29.1151 104.048 28.2887 101.31V101.31Z" fill="white"/>
<path d="M130.333 115.833H127.778V108.944H130.333C130.811 108.944 131.2 108.789 131.522 108.478C131.844 108.167 132 107.767 132 107.289C132 106.811 131.844 106.411 131.522 106.089C131.2 105.767 130.811 105.611 130.333 105.611H127.778V100.056C127.778 99.1667 127.444 98.3889 126.778 97.7222C126.111 97.0556 125.333 96.7222 124.444 96.7222H118.889V94.1667C118.889 93.6889 118.733 93.3 118.422 92.9778C118.111 92.6556 117.711 92.5 117.233 92.5C116.756 92.5 116.356 92.6556 116.033 92.9778C115.711 93.3 115.556 93.6889 115.556 94.1667V96.7222H108.667V94.1667C108.667 93.6889 108.511 93.3 108.2 92.9778C107.889 92.6556 107.489 92.5 107.011 92.5C106.533 92.5 106.133 92.6556 105.811 92.9778C105.489 93.3 105.333 93.6889 105.333 94.1667V96.7222H99.7778C98.8889 96.7222 98.1111 97.0556 97.4444 97.7222C96.7778 98.3889 96.4444 99.1667 96.4444 100.056V105.611H93.6667C93.2 105.611 92.8 105.767 92.4778 106.078C92.1556 106.389 92 106.789 92 107.267C92 107.744 92.1556 108.144 92.4778 108.467C92.8 108.789 93.1889 108.944 93.6667 108.944H96.4444V115.833H93.6667C93.2 115.833 92.8 115.989 92.4778 116.3C92.1556 116.611 92 117.011 92 117.489C92 117.967 92.1556 118.367 92.4778 118.689C92.8 119.011 93.1889 119.167 93.6667 119.167H96.4444V124.722C96.4444 125.611 96.7778 126.389 97.4444 127.056C98.1111 127.722 98.8889 128.056 99.7778 128.056H105.333V130.833C105.333 131.3 105.489 131.7 105.811 132.022C106.122 132.344 106.522 132.5 107 132.5C107.478 132.5 107.878 132.344 108.2 132.022C108.522 131.7 108.678 131.311 108.678 130.833V128.056H115.567V130.833C115.567 131.3 115.722 131.7 116.033 132.022C116.344 132.344 116.744 132.5 117.222 132.5C117.7 132.5 118.1 132.344 118.422 132.022C118.744 131.7 118.9 131.311 118.9 130.833V128.056H124.456C125.344 128.056 126.122 127.722 126.789 127.056C127.456 126.389 127.789 125.611 127.789 124.722V119.167H130.344C130.822 119.167 131.211 119.011 131.533 118.689C131.856 118.378 132.011 117.978 132.011 117.5C132.011 117.022 131.856 116.622 131.533 116.311C131.211 115.989 130.822 115.833 130.344 115.833H130.333ZM124.333 124.833H99.6667V100.167H124.333V124.833Z" fill="url(#paint32_linear_1835_58730)"/>
<path d="M106.311 116.522V108.467C106.311 108 106.466 107.6 106.788 107.278C107.111 106.956 107.499 106.8 107.977 106.8H116.033C116.499 106.8 116.899 106.956 117.222 107.278C117.544 107.6 117.699 107.989 117.699 108.467V116.522C117.699 117 117.544 117.389 117.222 117.711C116.899 118.033 116.511 118.189 116.033 118.189H107.977C107.499 118.189 107.111 118.033 106.788 117.711C106.466 117.389 106.311 117 106.311 116.522Z" fill="url(#paint33_linear_1835_58730)"/>
<path d="M185.512 125.402L182.075 113.482C181.959 113.125 181.977 112.786 182.137 112.455C182.298 112.125 182.575 111.893 182.959 111.741L185.637 110.804V100.804C185.637 100 185.923 99.3214 186.485 98.7679C187.048 98.2143 187.735 97.9286 188.539 97.9018H195.102V94.1071C195.102 93.6607 195.253 93.2768 195.566 92.9643C195.878 92.6518 196.271 92.5 196.744 92.5H203.798C204.244 92.5 204.628 92.6518 204.941 92.9643C205.253 93.2768 205.405 93.6518 205.405 94.1071V97.9018H211.968C212.771 97.9018 213.459 98.1875 214.021 98.75C214.584 99.3125 214.869 100 214.869 100.804V110.848L217.548 111.696C217.914 111.804 218.173 112.045 218.334 112.411C218.494 112.777 218.512 113.134 218.396 113.482L215.003 125.402C213.78 125.312 212.601 125 211.45 124.464C210.298 123.929 209.298 123.277 208.45 122.5C208.146 122.259 207.825 122.134 207.503 122.116C207.173 122.098 206.869 122.223 206.593 122.491C205.762 123.339 204.798 124.045 203.682 124.589C202.566 125.134 201.414 125.402 200.235 125.402C199.941 125.402 199.655 125.384 199.396 125.357C199.128 125.33 198.86 125.286 198.593 125.223C197.718 125.018 196.896 124.67 196.11 124.196C195.325 123.723 194.602 123.179 193.923 122.554C193.664 122.277 193.343 122.134 192.977 122.116C192.602 122.098 192.289 122.214 192.03 122.464C191.119 123.259 190.102 123.929 188.977 124.464C187.852 125 186.691 125.312 185.494 125.402H185.512Z" fill="url(#paint34_linear_1835_58730)"/>
<path d="M188.529 110.107L199.199 106.625C199.52 106.536 199.869 106.491 200.226 106.491C200.583 106.491 200.931 106.536 201.252 106.625L211.967 110.152V101H188.529V110.107Z" fill="url(#paint35_linear_1835_58730)"/>
<path d="M213.459 114.259L216.54 115.268C216.906 115.375 217.165 115.616 217.326 115.982C217.486 116.348 217.504 116.705 217.388 117.053L215.022 125.402C213.799 125.312 212.62 125 211.468 124.464C210.317 123.928 209.317 123.277 208.468 122.5C208.165 122.259 207.843 122.134 207.522 122.116C207.192 122.098 206.888 122.223 206.611 122.491C205.781 123.339 204.817 124.045 203.701 124.589C202.584 125.134 201.433 125.402 200.254 125.402C199.959 125.402 199.674 125.384 199.415 125.357C199.147 125.33 198.879 125.286 198.611 125.223C197.736 125.018 196.915 124.67 196.129 124.196C195.343 123.723 194.62 123.178 193.942 122.553C193.683 122.277 193.361 122.134 192.995 122.116C192.62 122.098 192.308 122.214 192.049 122.464C191.138 123.259 190.12 123.928 188.995 124.464C187.87 125 186.709 125.312 185.513 125.402L183.147 117.232C183.031 116.875 183.049 116.536 183.21 116.205C183.37 115.875 183.647 115.643 184.031 115.491L186.709 114.553L199.29 110.428C199.906 110.241 200.567 110.241 201.183 110.42L213.442 114.268L213.459 114.259Z" fill="#5074F5"/>
<path d="M200.281 132.5C199.111 132.5 197.915 132.339 196.682 132.027C195.45 131.714 194.254 131.259 193.075 130.67C191.897 131.268 190.709 131.714 189.504 132.027C188.299 132.339 187.084 132.5 185.852 132.5H183.62C183.182 132.5 182.825 132.357 182.549 132.08C182.272 131.804 182.129 131.455 182.129 131.027C182.129 130.634 182.272 130.304 182.557 130.018C182.843 129.732 183.2 129.598 183.629 129.598H185.834C186.995 129.598 188.129 129.446 189.227 129.152C190.325 128.857 191.37 128.411 192.352 127.813C192.566 127.661 192.799 127.589 193.066 127.589C193.334 127.589 193.584 127.661 193.825 127.813C194.602 128.259 195.388 128.607 196.191 128.857C196.995 129.107 197.852 129.295 198.763 129.411C199.013 129.438 199.272 129.464 199.522 129.482C199.772 129.5 200.031 129.5 200.307 129.5C201.397 129.5 202.486 129.357 203.557 129.08C204.638 128.795 205.682 128.384 206.691 127.848C206.95 127.696 207.218 127.625 207.504 127.625C207.79 127.625 208.075 127.696 208.343 127.848C209.325 128.384 210.343 128.813 211.406 129.116C212.459 129.429 213.557 129.589 214.682 129.589H216.959C217.352 129.589 217.682 129.732 217.968 130.009C218.245 130.286 218.388 130.634 218.388 131.036C218.388 131.438 218.245 131.786 217.968 132.063C217.691 132.348 217.352 132.491 216.959 132.491H214.674C213.415 132.491 212.2 132.33 211.031 132.018C209.861 131.705 208.691 131.25 207.513 130.661C206.334 131.259 205.129 131.705 203.897 132.018C202.665 132.33 201.459 132.491 200.29 132.491L200.281 132.5Z" fill="#384C96"/>
<path d="M288 90C275.847 90 266 99.853 266 112C266 124.147 275.847 134 288 134C300.153 134 310 124.147 310 112C310 99.853 300.141 90 288 90ZM288 95.175C296.605 95.175 303.689 101.64 304.696 109.97C302.715 110.058 300.645 110.124 298.765 109.771C297.747 109.584 296.773 109.264 295.9 108.767C293.371 107.322 290.182 106.307 287.239 106.561C285.393 106.726 283.613 107.256 281.901 107.973C280.491 108.558 278.813 109.86 277.246 109.86H271.315C272.367 101.585 279.428 95.175 288 95.175ZM271.338 114.317H274.426C278.119 114.317 280.077 117.395 282.942 119.205C284.945 120.473 285.628 122.713 285.505 124.986V128.638C278.153 127.546 272.356 121.698 271.327 114.317H271.338ZM290.484 128.638V124.986C290.484 122.691 291.01 120.838 292.879 119.37C293.741 118.697 294.681 118.145 295.531 117.461C296.37 116.788 297.12 115.994 298.026 115.398C299.022 114.747 300.365 114.317 301.563 114.317H304.651C303.633 121.698 297.836 127.546 290.484 128.638Z" fill="url(#paint36_linear_1835_58730)"/>
<path d="M293.477 114.079C293.477 116.059 291.178 117.665 288.34 117.665C285.502 117.665 283.203 116.059 283.203 114.079C283.203 112.099 285.502 110.504 288.34 110.504C291.178 110.504 293.477 112.11 293.477 114.079Z" fill="url(#paint37_linear_1835_58730)"/>
<path d="M374.319 129.129C375.371 129.624 376.622 129.624 377.675 129.129C385.759 125.371 391.677 120.684 394.942 112.328C398.038 104.406 394.026 95.5264 386.995 94.6129C378.376 93.5048 375.997 100.917 375.997 100.917C375.997 100.917 373.617 93.5198 364.999 94.6129C357.967 95.5264 353.971 104.406 357.052 112.313C360.316 120.684 366.235 125.371 374.319 129.129Z" fill="url(#paint38_linear_1835_58730)"/>
<g filter="url(#filter2_d_1835_58730)">
<path d="M363.504 113.606H370.011L371.381 111.894L374.463 115.661L379.6 109.496L383.024 113.606H388.504" stroke="white" stroke-width="1.8" stroke-linecap="round" stroke-linejoin="round"/>
</g>
<path d="M467.622 132.5H465.847C461.591 132.5 458.127 128.567 458.127 123.733V112.247H461.573V123.733C461.573 126.409 463.491 128.587 465.847 128.587H467.622C469.978 128.587 471.896 126.409 471.896 123.733V120.195H475.342V123.733C475.342 128.567 471.879 132.5 467.622 132.5Z" fill="url(#paint39_linear_1835_58730)"/>
<path d="M459.184 115.578C459.112 115.578 459.037 115.578 458.966 115.578C452.919 115.454 448 110.392 448 104.294V96.8649C448 94.7355 449.718 93.0058 451.826 93.0058H454.173V96.3171H451.826C451.525 96.3171 451.279 96.5651 451.279 96.8684V104.297C451.279 108.608 454.757 112.184 459.031 112.27C461.107 112.308 463.096 111.502 464.623 109.993C466.194 108.439 467.096 106.285 467.096 104.084V96.8649C467.096 96.5617 466.85 96.3136 466.553 96.3136H464.206V93.0058H466.553C468.664 93.0058 470.379 94.739 470.379 96.8649V104.077C470.379 107.16 469.118 110.179 466.922 112.353C464.814 114.438 462.074 115.578 459.188 115.578H459.184Z" fill="#D0CAD4"/>
<path d="M456.833 96.8924L454.076 96.5513V92.8507L456.833 92.513C457.882 92.3856 458.804 93.2091 458.804 94.2738V95.1283C458.804 96.193 457.882 97.0199 456.833 96.889V96.8924Z" fill="#A49EA6"/>
<path d="M462.063 96.8924L464.82 96.5513V92.8507L462.063 92.513C461.014 92.3856 460.092 93.2091 460.092 94.2738V95.1283C460.092 96.193 461.014 97.0199 462.063 96.889V96.8924Z" fill="#A49EA6"/>
<path d="M472.81 120.349C477.005 120.349 480.405 116.948 480.405 112.753C480.405 108.559 477.005 105.158 472.81 105.158C468.615 105.158 465.215 108.559 465.215 112.753C465.215 116.948 468.615 120.349 472.81 120.349Z" fill="#A49EA6"/>
<path d="M472.81 116.298C474.767 116.298 476.354 114.711 476.354 112.754C476.354 110.796 474.767 109.209 472.81 109.209C470.852 109.209 469.266 110.796 469.266 112.754C469.266 114.711 470.852 116.298 472.81 116.298Z" fill="#F3F6FB"/>
<path d="M559 92.5C562.682 92.5 565.667 95.485 565.667 99.1667V125.833C565.667 129.515 562.682 132.5 559 132.5H545.667C541.985 132.5 539 129.515 539 125.833V99.1667C539 95.485 541.985 92.5 545.667 92.5H559Z" fill="url(#paint40_linear_1835_58730)"/>
<path d="M539 124.167H565.667V125.833C565.667 129.515 562.682 132.5 559 132.5H545.667C541.985 132.5 539 129.515 539 125.833V124.167Z" fill="white" fill-opacity="0.3"/>
<path d="M547.334 110.833L550.251 113.333L557.056 107.5" stroke="white" stroke-width="1.8" stroke-linecap="round" stroke-linejoin="round"/>
<path d="M554.833 95.8333H549.833C549.373 95.8333 549 96.2064 549 96.6667C549 97.1269 549.373 97.5 549.833 97.5H554.833C555.294 97.5 555.667 97.1269 555.667 96.6667C555.667 96.2064 555.294 95.8333 554.833 95.8333Z" fill="white" fill-opacity="0.3"/>
<path d="M623.623 117.126C623.623 116.808 623.88 116.55 624.199 116.55H626.607C626.926 116.55 627.183 116.808 627.183 117.126V123.096C627.183 123.414 626.926 123.672 626.607 123.672H624.199C623.88 123.672 623.623 123.414 623.623 123.096V117.126Z" fill="#384C96"/>
<path d="M648.818 117.126C648.818 116.808 649.077 116.55 649.394 116.55H651.804C652.121 116.55 652.38 116.808 652.38 117.126V123.096C652.38 123.414 652.121 123.672 651.804 123.672H649.394C649.077 123.672 648.818 123.414 648.818 123.096V117.126Z" fill="#384C96"/>
<path d="M642.005 92H633.999C632.845 92 631.91 92.935 631.91 94.0884V97.016C631.91 98.1693 632.845 99.1043 633.999 99.1043H642.005C643.159 99.1043 644.094 98.1693 644.094 97.016V94.0884C644.094 92.935 643.159 92 642.005 92Z" stroke="#384C96" stroke-width="1.86229"/>
<mask id="mask3_1835_58730" style="mask-type:luminance" maskUnits="userSpaceOnUse" x="620" y="95" width="36" height="27">
<path d="M651.68 95.6111H624.32C621.934 95.6111 620 97.5452 620 99.9311V117.211C620 119.597 621.934 121.531 624.32 121.531H651.68C654.066 121.531 656 119.597 656 117.211V99.9311C656 97.5452 654.066 95.6111 651.68 95.6111Z" fill="white"/>
</mask>
<g mask="url(#mask3_1835_58730)">
<path d="M620 96.7643C620 95.9684 620.644 95.3243 621.44 95.3243H654.56C655.356 95.3243 656 95.9684 656 96.7643V118.168C656 120.151 654.392 121.759 652.409 121.759H623.591C621.608 121.759 620 120.151 620 118.168V96.7643Z" fill="url(#paint41_linear_1835_58730)"/>
<g style="mix-blend-mode:multiply">
<path d="M620 96.7637C620 95.9678 620.644 95.3237 621.44 95.3237H654.56C655.356 95.3237 656 95.9678 656 96.7637V105.336C656 107.319 654.392 108.927 652.409 108.927H623.591C621.608 108.927 620 107.319 620 105.336V96.7637Z" fill="url(#paint42_linear_1835_58730)"/>
</g>
</g>
<path d="M648.5 131C654.299 131 659 126.299 659 120.5C659 114.701 654.299 110 648.5 110C642.701 110 638 114.701 638 120.5C638 126.299 642.701 131 648.5 131Z" fill="white" stroke="url(#paint43_linear_1835_58730)" stroke-width="3"/>
<path d="M648.5 115.5V120.5L653.5 124.5" stroke="#6F84A4" stroke-width="2" stroke-linecap="round" stroke-linejoin="round"/>
<path d="M740.003 102.239L730.46 111.962L724.547 107.714L724.458 107.653L720.01 104.473L714.789 100.733L708.764 96.4157C708.683 96.3558 708.608 96.2879 708.541 96.2187C707.939 95.6132 707.917 94.5911 708.549 93.9403C710.371 92.0852 713.115 91.4943 715.533 92.4552L720.866 94.5831L731.308 98.7566L740.018 102.231L740.003 102.239Z" fill="url(#paint44_linear_1835_58730)"/>
<path d="M737.767 99.9854L728.039 109.537L732.343 115.54L743.586 131.244C743.647 131.325 743.707 131.4 743.776 131.466C744.389 132.069 745.412 132.092 746.056 131.451C747.92 129.622 748.503 126.884 747.541 124.474L741.245 108.696L737.767 99.9854Z" fill="url(#paint45_linear_1835_58730)"/>
<path d="M722.057 130.084L721.999 125.811L740.716 109.228C743.936 106.706 746.091 103.059 746.747 99.0244L747.021 97.3515C747.436 94.7896 745.221 92.5685 742.657 92.9891L740.984 93.2632C736.942 93.9193 733.301 96.0739 730.777 99.2918L714.044 117.854L709.916 117.947C709.394 117.853 708.858 118.021 708.477 118.395C707.72 119.152 707.888 120.409 708.811 120.944L715.303 124.699L719.058 131.188C719.594 132.111 720.858 132.279 721.608 131.523C721.983 131.148 722.15 130.613 722.057 130.084Z" fill="url(#paint46_linear_1835_58730)"/>
<path d="M718.848 123.231C719.423 122.656 719.423 121.724 718.848 121.149C718.273 120.575 717.34 120.575 716.765 121.149L712.615 125.298C712.04 125.873 712.04 126.805 712.615 127.38C713.19 127.955 714.122 127.955 714.697 127.38L718.848 123.231Z" fill="url(#paint47_linear_1835_58730)"/>
<path d="M740.291 99.7103C741.335 100.754 742.219 101.85 742.942 102.941C743.464 101.964 743.879 100.928 744.153 99.8434C743.598 99.1209 742.982 98.405 742.292 97.709C741.603 97.0131 740.88 96.3983 740.157 95.8501C739.073 96.1242 738.036 96.5381 737.059 97.061C738.156 97.7836 739.254 98.6658 740.291 99.7103Z" fill="url(#paint48_linear_1835_58730)"/>
<path d="M740.291 99.7103C741.335 100.754 742.219 101.85 742.942 102.941C743.464 101.964 743.879 100.928 744.153 99.8434C743.598 99.1209 742.982 98.405 742.292 97.709C741.603 97.0131 740.88 96.3983 740.157 95.8501C739.073 96.1242 738.036 96.5381 737.059 97.061C738.156 97.7836 739.254 98.6658 740.291 99.7103Z" fill="url(#paint49_linear_1835_58730)"/>
<path d="M819.622 132.5H817.847C813.591 132.5 810.127 128.567 810.127 123.733V112.247H813.573V123.733C813.573 126.409 815.491 128.587 817.847 128.587H819.622C821.978 128.587 823.896 126.409 823.896 123.733V120.195H827.342V123.733C827.342 128.567 823.879 132.5 819.622 132.5Z" fill="url(#paint50_linear_1835_58730)"/>
<path d="M811.184 115.578C811.112 115.578 811.037 115.578 810.966 115.578C804.919 115.454 800 110.392 800 104.294V96.8649C800 94.7355 801.718 93.0058 803.826 93.0058H806.173V96.3171H803.826C803.525 96.3171 803.279 96.5651 803.279 96.8684V104.297C803.279 108.608 806.757 112.184 811.031 112.27C813.107 112.308 815.096 111.502 816.623 109.993C818.194 108.439 819.096 106.285 819.096 104.084V96.8649C819.096 96.5617 818.85 96.3136 818.553 96.3136H816.206V93.0058H818.553C820.664 93.0058 822.379 94.739 822.379 96.8649V104.077C822.379 107.16 821.118 110.179 818.922 112.353C816.814 114.438 814.074 115.578 811.188 115.578H811.184Z" fill="#D0CAD4"/>
<path d="M808.833 96.8924L806.076 96.5513V92.8507L808.833 92.513C809.882 92.3856 810.804 93.2091 810.804 94.2738V95.1283C810.804 96.193 809.882 97.0199 808.833 96.889V96.8924Z" fill="#A49EA6"/>
<path d="M814.063 96.8924L816.82 96.5513V92.8507L814.063 92.513C813.014 92.3856 812.092 93.2091 812.092 94.2738V95.1283C812.092 96.193 813.014 97.0199 814.063 96.889V96.8924Z" fill="#A49EA6"/>
<path d="M824.81 120.349C829.005 120.349 832.405 116.948 832.405 112.753C832.405 108.559 829.005 105.158 824.81 105.158C820.615 105.158 817.215 108.559 817.215 112.753C817.215 116.948 820.615 120.349 824.81 120.349Z" fill="#A49EA6"/>
<path d="M824.81 116.298C826.767 116.298 828.354 114.711 828.354 112.754C828.354 110.796 826.767 109.209 824.81 109.209C822.852 109.209 821.266 110.796 821.266 112.754C821.266 114.711 822.852 116.298 824.81 116.298Z" fill="#F3F6FB"/>
<path d="M28.0001 216C36.8369 216 44.0003 208.837 44.0003 200C44.0003 191.163 36.8369 184 28.0001 184C19.1634 184 12 191.163 12 200C12 208.837 19.1634 216 28.0001 216Z" fill="#FFD056"/>
<path d="M20.0001 216C28.8369 216 36.0003 208.837 36.0003 200C36.0003 191.163 28.8369 184 20.0001 184C11.1634 184 4 191.163 4 200C4 208.837 11.1634 216 20.0001 216Z" fill="url(#paint51_linear_1835_58730)"/>
<path d="M20.0001 216C28.8369 216 36.0003 208.837 36.0003 200C36.0003 191.163 28.8369 184 20.0001 184C11.1634 184 4 191.163 4 200C4 208.837 11.1634 216 20.0001 216Z" fill="url(#paint52_radial_1835_58730)"/>
<g style="mix-blend-mode:overlay">
<path d="M20.0001 216C28.8369 216 36.0003 208.837 36.0003 200C36.0003 191.163 28.8369 184 20.0001 184C11.1634 184 4 191.163 4 200C4 208.837 11.1634 216 20.0001 216Z" fill="url(#paint53_radial_1835_58730)"/>
</g>
<g opacity="0.1">
<path d="M13.668 197.333L17.0013 205.333L20.3347 199.333L23.6681 205.333L27.0023 197.333" stroke="black" stroke-width="2.4" stroke-linecap="round" stroke-linejoin="round"/>
<path d="M26.127 201.028H28.3336" stroke="black" stroke-width="2.4" stroke-linecap="round" stroke-linejoin="round"/>
<path d="M12.334 201.028H14.5407" stroke="black" stroke-width="2.4" stroke-linecap="round" stroke-linejoin="round"/>
</g>
<path d="M13.668 196.5L17.0013 204.5L20.3347 198.5L23.6681 204.5L27.0023 196.5" stroke="white" stroke-width="2.4" stroke-linecap="round" stroke-linejoin="round"/>
<path d="M26.1289 200.195H28.3356" stroke="white" stroke-width="2.4" stroke-linecap="round"/>
<path d="M12.334 200.195H14.5407" stroke="white" stroke-width="2.4" stroke-linecap="round"/>
<path d="M101.5 181.577V188.01V194.442H113.75V184.546L104 180.34C102 179.351 101.5 180.753 101.5 181.577Z" fill="#FE5271"/>
<path d="M123.5 181.577V188.01V194.442H111.25V184.546L121 180.34C123 179.351 123.5 180.753 123.5 181.577Z" fill="#FE5271"/>
<rect x="94" y="187.133" width="37" height="32.8675" rx="4" fill="url(#paint54_linear_1835_58730)"/>
<path d="M94 212.867H131V215.839C131 218.048 129.209 219.839 127 219.839H98C95.7909 219.839 94 218.048 94 215.839V212.867Z" fill="#FFCD39"/>
<rect x="110" y="186.971" width="5" height="32.8675" fill="#FE5271"/>
<g clip-path="url(#clip0_1835_58730)">
<mask id="mask4_1835_58730" style="mask-type:luminance" maskUnits="userSpaceOnUse" x="176" y="176" width="48" height="48">
<path d="M224 176H176V224H224V176Z" fill="white"/>
</mask>
<g mask="url(#mask4_1835_58730)">
<path d="M218.4 197.6H181.6C180.716 197.6 180 198.316 180 199.2V218.4C180 219.284 180.716 220 181.6 220H218.4C219.284 220 220 219.284 220 218.4V199.2C220 198.316 219.284 197.6 218.4 197.6Z" fill="url(#paint55_linear_1835_58730)"/>
<path d="M181.6 197.6H218.4C219.28 197.6 220 198.32 220 199.2V203.2H180V199.2C180 198.32 180.72 197.6 181.6 197.6Z" fill="url(#paint56_linear_1835_58730)"/>
<path d="M200.057 180H205.657C206.097 180 206.457 180.36 206.457 180.8V184C206.457 184.44 206.097 184.8 205.657 184.8H200.057V180Z" fill="url(#paint57_linear_1835_58730)"/>
<path d="M200 180V187.2" stroke="#A9BBCD" stroke-linecap="round" stroke-linejoin="round"/>
<path d="M205.2 189.599L200.84 186.919C200.328 186.599 199.68 186.599 199.16 186.919L194.8 189.599L190.36 192.327C189.888 192.615 189.6 193.135 189.6 193.687V219.991H210.4V193.695C210.4 193.143 210.112 192.623 209.64 192.335L205.2 189.607V189.599Z" fill="url(#paint58_linear_1835_58730)"/>
<path d="M211.201 193.479L205.601 190.079L200.001 186.679L194.401 190.079L188.801 193.479" stroke="url(#paint59_linear_1835_58730)" stroke-width="2" stroke-linecap="round" stroke-linejoin="round"/>
<path d="M199.999 203.735C202.65 203.735 204.799 201.587 204.799 198.935C204.799 196.284 202.65 194.135 199.999 194.135C197.348 194.135 195.199 196.284 195.199 198.935C195.199 201.587 197.348 203.735 199.999 203.735Z" fill="url(#paint60_linear_1835_58730)"/>
<path opacity="0.02" d="M189.6 197.6H188V220H189.6V197.6Z" fill="black"/>
<path opacity="0.02" d="M212 197.6H210.4V220H212V197.6Z" fill="black"/>
<path d="M200 202.935C202.209 202.935 204 201.144 204 198.935C204 196.727 202.209 194.935 200 194.935C197.791 194.935 196 196.727 196 198.935C196 201.144 197.791 202.935 200 202.935Z" fill="white"/>
<path d="M200 198.865V196.465" stroke="#A9BBCD" stroke-width="0.75" stroke-linecap="round" stroke-linejoin="round"/>
<path d="M200 198.935H201.6" stroke="#A9BBCD" stroke-width="0.75" stroke-linecap="round" stroke-linejoin="round"/>
<path d="M199.999 208C202.647 208 204.799 210.152 204.799 212.8V220H195.199V212.8C195.199 210.152 197.351 208 199.999 208Z" fill="url(#paint61_linear_1835_58730)"/>
</g>
</g>
<mask id="mask5_1835_58730" style="mask-type:luminance" maskUnits="userSpaceOnUse" x="267" y="181" width="41" height="38">
<path d="M307.824 181.93H267.824V218.93H307.824V181.93Z" fill="white"/>
</mask>
<g mask="url(#mask5_1835_58730)">
<path d="M302.826 181.93H279.492C276.731 181.93 274.492 184.188 274.492 186.975V210.521C274.492 213.307 276.731 215.566 279.492 215.566H302.826C305.587 215.566 307.826 213.307 307.826 210.521V186.975C307.826 184.188 305.587 181.93 302.826 181.93Z" fill="url(#paint62_linear_1835_58730)"/>
<path d="M277.824 218.929C283.347 218.929 287.824 214.412 287.824 208.838C287.824 203.266 283.347 198.747 277.824 198.747C272.301 198.747 267.824 203.266 267.824 208.838C267.824 214.412 272.301 218.929 277.824 218.929Z" fill="#0046E2"/>
<g opacity="0.5">
<path d="M300.258 205.894H292.758C292.074 205.894 291.508 206.465 291.508 207.155C291.508 207.844 292.074 208.416 292.758 208.416H300.258C300.941 208.416 301.508 207.844 301.508 207.155C301.508 206.465 300.941 205.894 300.258 205.894Z" fill="white"/>
<path d="M302.374 190.152C302.374 190.052 302.357 189.967 302.324 189.867C302.291 189.766 302.224 189.682 302.157 189.597C302.124 189.547 302.107 189.497 302.074 189.463C301.991 189.379 301.891 189.312 301.791 189.261C301.757 189.244 301.724 189.211 301.674 189.177C301.641 189.177 301.607 189.177 301.574 189.16C301.457 189.127 301.324 189.076 301.191 189.076H296.191C295.507 189.076 294.941 189.648 294.941 190.337C294.941 191.027 295.507 191.599 296.191 191.599H298.074L293.324 196.173L289.291 190.741C289.074 190.455 288.757 190.27 288.407 190.237C288.057 190.203 287.707 190.321 287.441 190.573L283.674 194.088C283.174 194.559 283.141 195.366 283.607 195.871C284.074 196.375 284.874 196.409 285.374 195.938L288.124 193.365L292.157 198.814C292.374 199.1 292.707 199.285 293.057 199.318C293.091 199.318 293.124 199.318 293.157 199.318C293.474 199.318 293.791 199.201 294.024 198.965L299.941 193.264V195.366C299.941 196.056 300.507 196.627 301.191 196.627C301.874 196.627 302.441 196.056 302.441 195.366V190.321C302.441 190.321 302.407 190.203 302.407 190.136L302.374 190.152Z" fill="white"/>
</g>
<path d="M273.34 207.215L275.59 212.462L277.823 208.358" stroke="white" stroke-width="1.8" stroke-linecap="round" stroke-linejoin="round"/>
<path d="M282.308 207.215L280.058 212.462L277.824 208.358" stroke="white" stroke-width="1.8" stroke-linecap="round" stroke-linejoin="round"/>
<path d="M272.406 209.467H274.273" stroke="white" stroke-width="1.8" stroke-linecap="round" stroke-linejoin="round"/>
<path d="M281.375 209.467H283.242" stroke="white" stroke-width="1.8" stroke-linecap="round" stroke-linejoin="round"/>
</g>
<path fill-rule="evenodd" clip-rule="evenodd" d="M368.572 186.133C368.572 184.21 370.131 182.651 372.054 182.651H380.538C382.461 182.651 384.02 184.21 384.02 186.133V189.235C384.02 191.158 382.461 192.716 380.538 192.716H372.054C370.131 192.716 368.572 191.158 368.572 189.235V186.133ZM372.054 185.188C371.532 185.188 371.109 185.611 371.109 186.133V189.235C371.109 189.756 371.532 190.179 372.054 190.179H380.538C381.06 190.179 381.482 189.756 381.482 189.235V186.133C381.482 185.611 381.06 185.188 380.538 185.188H372.054Z" fill="#384C96"/>
<mask id="mask6_1835_58730" style="mask-type:alpha" maskUnits="userSpaceOnUse" x="356" y="188" width="41" height="29">
<rect x="356" y="188.953" width="40.5943" height="28.0114" rx="2.66667" fill="url(#paint63_linear_1835_58730)"/>
</mask>
<g mask="url(#mask6_1835_58730)">
<rect x="356" y="188.953" width="40.5943" height="28.0114" rx="2.66667" fill="url(#paint64_linear_1835_58730)"/>
<g style="mix-blend-mode:multiply">
<circle cx="356.796" cy="189.639" r="3.88392" fill="url(#paint65_linear_1835_58730)"/>
</g>
<g style="mix-blend-mode:multiply">
<circle cx="356.796" cy="216.28" r="3.88392" fill="url(#paint66_linear_1835_58730)"/>
</g>
<g style="mix-blend-mode:multiply">
<circle cx="395.798" cy="189.639" r="3.88392" fill="url(#paint67_linear_1835_58730)"/>
</g>
<g style="mix-blend-mode:multiply">
<circle cx="395.8" cy="216.28" r="3.88392" fill="url(#paint68_linear_1835_58730)"/>
</g>
</g>
<g filter="url(#filter3_i_1835_58730)">
<rect x="362.623" y="188.952" width="2.53715" height="28.0114" fill="url(#paint69_linear_1835_58730)"/>
</g>
<g filter="url(#filter4_i_1835_58730)">
<rect x="387.439" y="188.953" width="2.53715" height="28.0114" fill="url(#paint70_linear_1835_58730)"/>
</g>
<path d="M384.014 204.798C383.599 204.901 383.178 204.647 383.075 204.231L381.206 196.669C381.155 196.463 381.191 196.245 381.305 196.066L383.11 193.24C383.331 192.896 383.781 192.781 384.139 192.979L387.118 194.627C387.307 194.732 387.444 194.91 387.496 195.12L389.364 202.676C389.467 203.092 389.213 203.512 388.798 203.615L384.014 204.798Z" fill="#384C96"/>
<path d="M382.752 188.954L383.719 194.03" stroke="#384C96" stroke-width="1.77778" stroke-linecap="round"/>
<rect x="382.625" y="196.711" width="3.61397" height="6.68355" rx="0.444444" transform="rotate(-14.6355 382.625 196.711)" fill="#688DFA"/>
<path d="M446.49 193.536C446.49 192.91 446.819 192.331 447.357 192.01L462.388 183.035C462.95 182.699 463.65 182.699 464.211 183.035L479.243 192.01C479.78 192.331 480.109 192.91 480.109 193.536V216.199C480.109 217.181 479.313 217.977 478.332 217.977H448.268C447.286 217.977 446.49 217.181 446.49 216.199V193.536Z" fill="#E1E4ED"/>
<path d="M458.32 207.303C458.32 206.321 459.116 205.526 460.098 205.526H467.749C468.731 205.526 469.527 206.321 469.527 207.303V217.977H458.32V207.303Z" fill="#ABB6C1"/>
<path fill-rule="evenodd" clip-rule="evenodd" d="M461.669 180.462C462.669 179.846 463.931 179.846 464.932 180.462L481.119 190.423C482.583 191.324 483.039 193.241 482.138 194.706C481.237 196.17 479.32 196.626 477.856 195.725L463.3 186.768L448.745 195.725C447.281 196.626 445.363 196.17 444.462 194.706C443.561 193.241 444.018 191.324 445.482 190.423L461.669 180.462Z" fill="#7199FF"/>
<path d="M483.222 209.741C483.222 215.166 478.731 219.529 473.305 219.205C467.73 218.873 463.913 213.51 464.632 207.905C465.067 204.496 466.665 201.572 468.405 199.304C468.707 198.909 469.017 202.094 469.328 201.743C469.639 201.383 472.524 196.39 473.528 194.636C473.571 194.558 473.63 194.491 473.701 194.439C473.773 194.386 473.855 194.35 473.941 194.332C474.028 194.314 474.118 194.315 474.204 194.335C474.291 194.354 474.372 194.392 474.442 194.446C476.457 195.967 483.222 201.68 483.222 209.741Z" fill="#FF5823"/>
<g filter="url(#filter5_i_1835_58730)">
<path d="M480.732 213.132C480.732 216.575 477.519 219.343 473.611 219.218C469.392 219.085 466.499 215.483 467.119 211.773C468.012 206.453 473.865 203.035 473.865 203.035C473.865 203.035 480.732 207.045 480.732 213.132Z" fill="#FFB02E"/>
</g>
<path d="M533.451 191.429H570.578C571.361 191.429 572 192.093 572 192.909V218.519C572 219.335 571.361 220 570.578 220H533.451C532.653 220 532 219.32 532 218.489V192.939C532 192.108 532.653 191.429 533.451 191.429Z" fill="url(#paint71_linear_1835_58730)"/>
<path d="M540.554 180H563.474C564.236 180 564.857 180.644 564.857 181.433V218.567C564.857 219.356 564.236 220 563.474 220H540.554C539.778 220 539.143 219.342 539.143 218.537V181.463C539.143 180.658 539.778 180 540.554 180Z" fill="url(#paint72_linear_1835_58730)"/>
<g filter="url(#filter6_i_1835_58730)">
<path d="M547.291 202.705H556.707C557.49 202.705 558.129 203.348 558.129 204.137V216.023C558.129 216.813 557.49 217.456 556.707 217.456H547.291C546.493 217.456 545.84 216.798 545.84 215.994V204.167C545.84 203.363 546.493 202.705 547.291 202.705Z" fill="url(#paint73_linear_1835_58730)"/>
</g>
<g style="mix-blend-mode:multiply">
<path d="M547.291 194.525C547.291 194.529 547.294 194.532 547.298 194.532H556.707C557.49 194.532 558.129 195.176 558.129 195.965V199.196C558.129 199.985 557.49 200.629 556.707 200.629H547.291C546.493 200.629 545.84 199.971 545.84 199.167V195.98C545.84 195.178 546.489 194.522 547.283 194.518C547.287 194.518 547.291 194.521 547.291 194.525V194.525Z" fill="url(#paint74_linear_1835_58730)"/>
</g>
<path d="M552.876 182.295H551.106C550.706 182.295 550.381 182.623 550.381 183.026V189.517C550.381 189.921 550.706 190.248 551.106 190.248H552.876C553.277 190.248 553.602 189.921 553.602 189.517V183.026C553.602 182.623 553.277 182.295 552.876 182.295Z" fill="#36C0A7"/>
<path d="M548.061 185.38V187.164C548.061 187.568 548.385 187.895 548.786 187.895H555.228C555.628 187.895 555.953 187.568 555.953 187.164V185.38C555.953 184.976 555.628 184.649 555.228 184.649H548.786C548.385 184.649 548.061 184.976 548.061 185.38Z" fill="#36C0A7"/>
<g style="mix-blend-mode:multiply">
<path d="M542.315 195.526H535.032C534.631 195.526 534.307 195.854 534.307 196.257V198.699C534.307 199.103 534.631 199.43 535.032 199.43H542.315C542.716 199.43 543.041 199.103 543.041 198.699V196.257C543.041 195.854 542.716 195.526 542.315 195.526Z" fill="url(#paint75_linear_1835_58730)"/>
</g>
<g style="mix-blend-mode:multiply">
<path d="M542.315 201.535H535.032C534.631 201.535 534.307 201.862 534.307 202.266V204.707C534.307 205.111 534.631 205.438 535.032 205.438H542.315C542.716 205.438 543.041 205.111 543.041 204.707V202.266C543.041 201.862 542.716 201.535 542.315 201.535Z" fill="url(#paint76_linear_1835_58730)"/>
</g>
<g style="mix-blend-mode:multiply">
<path d="M542.315 207.544H535.032C534.631 207.544 534.307 207.871 534.307 208.275V210.716C534.307 211.12 534.631 211.447 535.032 211.447H542.315C542.716 211.447 543.041 211.12 543.041 210.716V208.275C543.041 207.871 542.716 207.544 542.315 207.544Z" fill="url(#paint77_linear_1835_58730)"/>
</g>
<g style="mix-blend-mode:multiply">
<path d="M542.315 213.567H535.032C534.631 213.567 534.307 213.894 534.307 214.298V216.74C534.307 217.143 534.631 217.471 535.032 217.471H542.315C542.716 217.471 543.041 217.143 543.041 216.74V214.298C543.041 213.894 542.716 213.567 542.315 213.567Z" fill="url(#paint78_linear_1835_58730)"/>
</g>
<g style="mix-blend-mode:multiply">
<path d="M568.954 195.526H561.671C561.27 195.526 560.945 195.853 560.945 196.257V198.699C560.945 199.102 561.27 199.43 561.671 199.43H568.954C569.355 199.43 569.679 199.102 569.679 198.699V196.257C569.679 195.853 569.355 195.526 568.954 195.526Z" fill="url(#paint79_linear_1835_58730)"/>
</g>
<g style="mix-blend-mode:multiply">
<path d="M568.954 201.535H561.671C561.27 201.535 560.945 201.862 560.945 202.266V204.707C560.945 205.111 561.27 205.438 561.671 205.438H568.954C569.355 205.438 569.679 205.111 569.679 204.707V202.266C569.679 201.862 569.355 201.535 568.954 201.535Z" fill="url(#paint80_linear_1835_58730)"/>
</g>
<g style="mix-blend-mode:multiply">
<path d="M568.954 207.544H561.671C561.27 207.544 560.945 207.871 560.945 208.275V210.716C560.945 211.12 561.27 211.447 561.671 211.447H568.954C569.355 211.447 569.679 211.12 569.679 210.716V208.275C569.679 207.871 569.355 207.544 568.954 207.544Z" fill="url(#paint81_linear_1835_58730)"/>
</g>
<g style="mix-blend-mode:multiply">
<path d="M568.954 213.567H561.671C561.27 213.567 560.945 213.894 560.945 214.298V216.74C560.945 217.143 561.27 217.471 561.671 217.471H568.954C569.355 217.471 569.679 217.143 569.679 216.74V214.298C569.679 213.894 569.355 213.567 568.954 213.567Z" fill="url(#paint82_linear_1835_58730)"/>
</g>
<path d="M552.879 202.705H551.123V217.456H552.879V202.705Z" fill="white"/>
<defs>
<filter id="filter0_i_1835_58730" x="11.5" y="10.7478" width="25.002" height="10.779" filterUnits="userSpaceOnUse" color-interpolation-filters="sRGB">
<feFlood flood-opacity="0" result="BackgroundImageFix"/>
<feBlend mode="normal" in="SourceGraphic" in2="BackgroundImageFix" result="shape"/>
<feColorMatrix in="SourceAlpha" type="matrix" values="0 0 0 0 0 0 0 0 0 0 0 0 0 0 0 0 0 0 127 0" result="hardAlpha"/>
<feOffset dy="0.777778"/>
<feGaussianBlur stdDeviation="0.388889"/>
<feComposite in2="hardAlpha" operator="arithmetic" k2="-1" k3="1"/>
<feColorMatrix type="matrix" values="0 0 0 0 1 0 0 0 0 1 0 0 0 0 1 0 0 0 0.3 0"/>
<feBlend mode="normal" in2="shape" result="effect1_innerShadow_1835_58730"/>
</filter>
<filter id="filter1_i_1835_58730" x="627.125" y="7.4261" width="23.752" height="9.92171" filterUnits="userSpaceOnUse" color-interpolation-filters="sRGB">
<feFlood flood-opacity="0" result="BackgroundImageFix"/>
<feBlend mode="normal" in="SourceGraphic" in2="BackgroundImageFix" result="shape"/>
<feColorMatrix in="SourceAlpha" type="matrix" values="0 0 0 0 0 0 0 0 0 0 0 0 0 0 0 0 0 0 127 0" result="hardAlpha"/>
<feOffset dy="0.777778"/>
<feGaussianBlur stdDeviation="0.388889"/>
<feComposite in2="hardAlpha" operator="arithmetic" k2="-1" k3="1"/>
<feColorMatrix type="matrix" values="0 0 0 0 1 0 0 0 0 1 0 0 0 0 1 0 0 0 0.3 0"/>
<feBlend mode="normal" in2="shape" result="effect1_innerShadow_1835_58730"/>
</filter>
<filter id="filter2_d_1835_58730" x="355.492" y="101.485" width="41.023" height="22.1866" filterUnits="userSpaceOnUse" color-interpolation-filters="sRGB">
<feFlood flood-opacity="0" result="BackgroundImageFix"/>
<feColorMatrix in="SourceAlpha" type="matrix" values="0 0 0 0 0 0 0 0 0 0 0 0 0 0 0 0 0 0 127 0" result="hardAlpha"/>
<feOffset/>
<feGaussianBlur stdDeviation="3.55556"/>
<feComposite in2="hardAlpha" operator="out"/>
<feColorMatrix type="matrix" values="0 0 0 0 0.996078 0 0 0 0 0.270588 0 0 0 0 0.435294 0 0 0 1 0"/>
<feBlend mode="normal" in2="BackgroundImageFix" result="effect1_dropShadow_1835_58730"/>
<feBlend mode="normal" in="SourceGraphic" in2="effect1_dropShadow_1835_58730" result="shape"/>
</filter>
<filter id="filter3_i_1835_58730" x="362.623" y="188.952" width="2.53711" height="28.0114" filterUnits="userSpaceOnUse" color-interpolation-filters="sRGB">
<feFlood flood-opacity="0" result="BackgroundImageFix"/>
<feBlend mode="normal" in="SourceGraphic" in2="BackgroundImageFix" result="shape"/>
<feColorMatrix in="SourceAlpha" type="matrix" values="0 0 0 0 0 0 0 0 0 0 0 0 0 0 0 0 0 0 127 0" result="hardAlpha"/>
<feOffset/>
<feGaussianBlur stdDeviation="0.888889"/>
<feComposite in2="hardAlpha" operator="arithmetic" k2="-1" k3="1"/>
<feColorMatrix type="matrix" values="0 0 0 0 0 0 0 0 0 0 0 0 0 0 0 0 0 0 0.1 0"/>
<feBlend mode="normal" in2="shape" result="effect1_innerShadow_1835_58730"/>
</filter>
<filter id="filter4_i_1835_58730" x="387.439" y="188.953" width="2.53711" height="28.0114" filterUnits="userSpaceOnUse" color-interpolation-filters="sRGB">
<feFlood flood-opacity="0" result="BackgroundImageFix"/>
<feBlend mode="normal" in="SourceGraphic" in2="BackgroundImageFix" result="shape"/>
<feColorMatrix in="SourceAlpha" type="matrix" values="0 0 0 0 0 0 0 0 0 0 0 0 0 0 0 0 0 0 127 0" result="hardAlpha"/>
<feOffset/>
<feGaussianBlur stdDeviation="0.888889"/>
<feComposite in2="hardAlpha" operator="arithmetic" k2="-1" k3="1"/>
<feColorMatrix type="matrix" values="0 0 0 0 0 0 0 0 0 0 0 0 0 0 0 0 0 0 0.1 0"/>
<feBlend mode="normal" in2="shape" result="effect1_innerShadow_1835_58730"/>
</filter>
<filter id="filter5_i_1835_58730" x="467.035" y="203.035" width="13.6973" height="17.9648" filterUnits="userSpaceOnUse" color-interpolation-filters="sRGB">
<feFlood flood-opacity="0" result="BackgroundImageFix"/>
<feBlend mode="normal" in="SourceGraphic" in2="BackgroundImageFix" result="shape"/>
<feColorMatrix in="SourceAlpha" type="matrix" values="0 0 0 0 0 0 0 0 0 0 0 0 0 0 0 0 0 0 127 0" result="hardAlpha"/>
<feOffset dy="1.77778"/>
<feGaussianBlur stdDeviation="1.33333"/>
<feComposite in2="hardAlpha" operator="arithmetic" k2="-1" k3="1"/>
<feColorMatrix type="matrix" values="0 0 0 0 1 0 0 0 0 0.403922 0 0 0 0 0.137255 0 0 0 0.8 0"/>
<feBlend mode="normal" in2="shape" result="effect1_innerShadow_1835_58730"/>
</filter>
<filter id="filter6_i_1835_58730" x="545.84" y="202.705" width="12.2891" height="14.7515" filterUnits="userSpaceOnUse" color-interpolation-filters="sRGB">
<feFlood flood-opacity="0" result="BackgroundImageFix"/>
<feBlend mode="normal" in="SourceGraphic" in2="BackgroundImageFix" result="shape"/>
<feColorMatrix in="SourceAlpha" type="matrix" values="0 0 0 0 0 0 0 0 0 0 0 0 0 0 0 0 0 0 127 0" result="hardAlpha"/>
<feOffset/>
<feGaussianBlur stdDeviation="0.888889"/>
<feComposite in2="hardAlpha" operator="arithmetic" k2="-1" k3="1"/>
<feColorMatrix type="matrix" values="0 0 0 0 0 0 0 0 0 0 0 0 0 0 0 0 0 0 0.1 0"/>
<feBlend mode="normal" in2="shape" result="effect1_innerShadow_1835_58730"/>
</filter>
<linearGradient id="paint0_linear_1835_58730" x1="32.5021" y1="32.0006" x2="32.5021" y2="5.99554" gradientUnits="userSpaceOnUse">
<stop stop-color="#6691FF"/>
<stop offset="1" stop-color="#82A5FF"/>
</linearGradient>
<linearGradient id="paint1_linear_1835_58730" x1="12.1252" y1="10.7478" x2="19.0212" y2="27.9893" gradientUnits="userSpaceOnUse">
<stop stop-color="#F2F9FF"/>
<stop offset="1" stop-color="#DDEEFF"/>
</linearGradient>
<linearGradient id="paint2_linear_1835_58730" x1="112.01" y1="2" x2="112.01" y2="45.973" gradientUnits="userSpaceOnUse">
<stop stop-color="#D8DCE4"/>
<stop offset="1" stop-color="#B2BACB"/>
</linearGradient>
<linearGradient id="paint3_linear_1835_58730" x1="112.34" y1="22.504" x2="112.34" y2="29.665" gradientUnits="userSpaceOnUse">
<stop stop-color="#616A75"/>
<stop offset="1" stop-color="#525E6E"/>
</linearGradient>
<linearGradient id="paint4_linear_1835_58730" x1="182.763" y1="7.74541" x2="205.536" y2="30.6209" gradientUnits="userSpaceOnUse">
<stop stop-color="#DDE5ED"/>
<stop offset="0.541667" stop-color="#C8D3DE"/>
<stop offset="1" stop-color="#5A7592"/>
</linearGradient>
<linearGradient id="paint5_linear_1835_58730" x1="201.506" y1="27.3041" x2="219.256" y2="45.1334" gradientUnits="userSpaceOnUse">
<stop stop-color="#1B5AD0"/>
<stop offset="0.309211" stop-color="#4D7FFF"/>
</linearGradient>
<linearGradient id="paint6_linear_1835_58730" x1="218.664" y1="7.32411" x2="181.644" y2="44.5112" gradientUnits="userSpaceOnUse">
<stop stop-color="#DDE5ED"/>
<stop offset="1" stop-color="#B0C3D6"/>
</linearGradient>
<radialGradient id="paint7_radial_1835_58730" cx="0" cy="0" r="1" gradientUnits="userSpaceOnUse" gradientTransform="translate(287.952 23.951) rotate(90) scale(14.4 14.2857)">
<stop stop-color="#C0CAD2"/>
<stop offset="1" stop-color="#99A3AB"/>
</radialGradient>
<linearGradient id="paint8_linear_1835_58730" x1="267.953" y1="3.95121" x2="307.953" y2="43.9512" gradientUnits="userSpaceOnUse">
<stop stop-color="#4B555E"/>
<stop offset="1" stop-color="#333F49"/>
</linearGradient>
<linearGradient id="paint9_linear_1835_58730" x1="303.439" y1="2.89672" x2="303.439" y2="16.2051" gradientUnits="userSpaceOnUse">
<stop stop-color="#FF997E"/>
<stop offset="1" stop-color="#F93F6D"/>
</linearGradient>
<linearGradient id="paint10_linear_1835_58730" x1="372.8" y1="14" x2="372.8" y2="36.4" gradientUnits="userSpaceOnUse">
<stop stop-color="#F8FAFE"/>
<stop offset="1" stop-color="#E9F1FC"/>
</linearGradient>
<linearGradient id="paint11_linear_1835_58730" x1="365.495" y1="16.8561" x2="379.895" y2="31.2561" gradientUnits="userSpaceOnUse">
<stop stop-color="#E2DBFF"/>
<stop offset="1" stop-color="#C2B6F0"/>
</linearGradient>
<linearGradient id="paint12_linear_1835_58730" x1="372.8" y1="14" x2="372.8" y2="6" gradientUnits="userSpaceOnUse">
<stop stop-color="#9740ED"/>
<stop offset="1" stop-color="#AE66F5"/>
</linearGradient>
<linearGradient id="paint13_linear_1835_58730" x1="369.407" y1="4" x2="369.407" y2="8" gradientUnits="userSpaceOnUse">
<stop stop-color="#D0DEEF"/>
<stop offset="1" stop-color="#A8BACC"/>
</linearGradient>
<linearGradient id="paint14_linear_1835_58730" x1="362.616" y1="-1.6" x2="362.616" y2="-1.6" gradientUnits="userSpaceOnUse">
<stop stop-color="#D0DEEF"/>
<stop offset="1" stop-color="#A8BACC"/>
</linearGradient>
<linearGradient id="paint15_linear_1835_58730" x1="376.192" y1="-1.6" x2="376.192" y2="-1.6" gradientUnits="userSpaceOnUse">
<stop stop-color="#D0DEEF"/>
<stop offset="1" stop-color="#A8BACC"/>
</linearGradient>
<linearGradient id="paint16_linear_1835_58730" x1="382.985" y1="-1.6" x2="382.985" y2="-1.6" gradientUnits="userSpaceOnUse">
<stop stop-color="#D0DEEF"/>
<stop offset="1" stop-color="#A8BACC"/>
</linearGradient>
<linearGradient id="paint17_linear_1835_58730" x1="385" y1="22" x2="385" y2="44" gradientUnits="userSpaceOnUse">
<stop offset="0.295" stop-color="#CB9FF8"/>
<stop offset="1" stop-color="#9741EE"/>
</linearGradient>
<linearGradient id="paint18_linear_1835_58730" x1="461.143" y1="10.2143" x2="461.143" y2="35.9286" gradientUnits="userSpaceOnUse">
<stop stop-color="#FF8767"/>
<stop offset="1" stop-color="#F93F55"/>
</linearGradient>
<linearGradient id="paint19_linear_1835_58730" x1="461.143" y1="35.7926" x2="461.143" y2="40.3951" gradientUnits="userSpaceOnUse">
<stop stop-color="#D7E4F2"/>
<stop offset="1" stop-color="#B7CCE1"/>
</linearGradient>
<linearGradient id="paint20_linear_1835_58730" x1="472.571" y1="21.6429" x2="472.571" y2="44.5" gradientUnits="userSpaceOnUse">
<stop stop-color="#FFC839"/>
<stop offset="1" stop-color="#FF7F00"/>
</linearGradient>
<linearGradient id="paint21_linear_1835_58730" x1="552" y1="14.9091" x2="552" y2="44" gradientUnits="userSpaceOnUse">
<stop stop-color="#D6DAE2"/>
<stop offset="1" stop-color="#B0B8C9"/>
</linearGradient>
<linearGradient id="paint22_linear_1835_58730" x1="552.001" y1="4" x2="552.001" y2="44" gradientUnits="userSpaceOnUse">
<stop stop-color="#61D9B1"/>
<stop offset="1" stop-color="#129F83"/>
</linearGradient>
<linearGradient id="paint23_linear_1835_58730" x1="647.077" y1="26.8577" x2="647.077" y2="17.7143" gradientUnits="userSpaceOnUse">
<stop stop-color="#D2DEE8"/>
<stop offset="1" stop-color="#E1EAF3"/>
</linearGradient>
<linearGradient id="paint24_linear_1835_58730" x1="627.719" y1="7.4261" x2="633.849" y2="23.3518" gradientUnits="userSpaceOnUse">
<stop stop-color="#E2EBFB"/>
<stop offset="1" stop-color="#D1DCF3"/>
</linearGradient>
<linearGradient id="paint25_linear_1835_58730" x1="651" y1="22" x2="651" y2="44" gradientUnits="userSpaceOnUse">
<stop stop-color="#62AAFF"/>
<stop offset="1" stop-color="#4A91FC"/>
</linearGradient>
<linearGradient id="paint26_linear_1835_58730" x1="728.005" y1="33.2854" x2="728.005" y2="9.15451" gradientUnits="userSpaceOnUse">
<stop offset="0.23" stop-color="#6691FF"/>
<stop offset="0.76" stop-color="#82A5FF"/>
</linearGradient>
<linearGradient id="paint27_linear_1835_58730" x1="734.002" y1="15.3986" x2="744.363" y2="15.3986" gradientUnits="userSpaceOnUse">
<stop stop-color="#F2F9FF"/>
<stop offset="1" stop-color="#DDEEFF"/>
</linearGradient>
<linearGradient id="paint28_linear_1835_58730" x1="33.0198" y1="103.95" x2="33.0198" y2="94.1013" gradientUnits="userSpaceOnUse">
<stop stop-color="#BB76FF"/>
<stop offset="1" stop-color="#CE9CF9"/>
</linearGradient>
<linearGradient id="paint29_linear_1835_58730" x1="33.0198" y1="103.95" x2="33.0198" y2="94.1013" gradientUnits="userSpaceOnUse">
<stop stop-color="#BB76FF"/>
<stop offset="1" stop-color="#CE9CF9"/>
</linearGradient>
<linearGradient id="paint30_linear_1835_58730" x1="33.0198" y1="103.95" x2="33.0198" y2="94.1013" gradientUnits="userSpaceOnUse">
<stop stop-color="#BB76FF"/>
<stop offset="1" stop-color="#CE9CF9"/>
</linearGradient>
<linearGradient id="paint31_linear_1835_58730" x1="33.0198" y1="103.95" x2="33.0198" y2="94.1013" gradientUnits="userSpaceOnUse">
<stop stop-color="#BB76FF"/>
<stop offset="1" stop-color="#CE9CF9"/>
</linearGradient>
<linearGradient id="paint32_linear_1835_58730" x1="112" y1="96.4111" x2="112" y2="126.411" gradientUnits="userSpaceOnUse">
<stop stop-color="#61D9B1"/>
<stop offset="1" stop-color="#129F83"/>
</linearGradient>
<linearGradient id="paint33_linear_1835_58730" x1="106.311" y1="112.5" x2="117.688" y2="112.5" gradientUnits="userSpaceOnUse">
<stop stop-color="#D6DAE2"/>
<stop offset="1" stop-color="#B0B8C9"/>
</linearGradient>
<linearGradient id="paint34_linear_1835_58730" x1="200.244" y1="123.973" x2="200.244" y2="87.4821" gradientUnits="userSpaceOnUse">
<stop stop-color="#6691FF"/>
<stop offset="0.46" stop-color="#82A5FF"/>
</linearGradient>
<linearGradient id="paint35_linear_1835_58730" x1="200.244" y1="109.759" x2="200.244" y2="99.6072" gradientUnits="userSpaceOnUse">
<stop stop-color="#F2F9FF"/>
<stop offset="1" stop-color="#DDEEFF"/>
</linearGradient>
<linearGradient id="paint36_linear_1835_58730" x1="288.01" y1="90" x2="288.01" y2="133.973" gradientUnits="userSpaceOnUse">
<stop stop-color="#D8DCE4"/>
<stop offset="1" stop-color="#B2BACB"/>
</linearGradient>
<linearGradient id="paint37_linear_1835_58730" x1="288.34" y1="110.504" x2="288.34" y2="117.665" gradientUnits="userSpaceOnUse">
<stop stop-color="#616A75"/>
<stop offset="1" stop-color="#525E6E"/>
</linearGradient>
<linearGradient id="paint38_linear_1835_58730" x1="376" y1="94.5" x2="376" y2="129.5" gradientUnits="userSpaceOnUse">
<stop stop-color="#FF9D7E"/>
<stop offset="1" stop-color="#FD3F6D"/>
</linearGradient>
<linearGradient id="paint39_linear_1835_58730" x1="475.342" y1="122.88" x2="457.621" y2="122.88" gradientUnits="userSpaceOnUse">
<stop stop-color="#67AFE4"/>
<stop offset="1" stop-color="#8FC9F4"/>
</linearGradient>
<linearGradient id="paint40_linear_1835_58730" x1="553.167" y1="100.833" x2="553.167" y2="135" gradientUnits="userSpaceOnUse">
<stop stop-color="#62AAFF"/>
<stop offset="1" stop-color="#4A91FC"/>
</linearGradient>
<linearGradient id="paint41_linear_1835_58730" x1="634.148" y1="102.486" x2="642.625" y2="114.03" gradientUnits="userSpaceOnUse">
<stop stop-color="#E8ECFF"/>
<stop offset="1" stop-color="#D0D8F7"/>
</linearGradient>
<linearGradient id="paint42_linear_1835_58730" x1="634.148" y1="99.0085" x2="637.172" y2="107.011" gradientUnits="userSpaceOnUse">
<stop stop-color="#E8ECFF"/>
<stop offset="1" stop-color="#D0D8F7"/>
</linearGradient>
<linearGradient id="paint43_linear_1835_58730" x1="637" y1="109" x2="659.5" y2="131.5" gradientUnits="userSpaceOnUse">
<stop stop-color="#B5E3F7"/>
<stop offset="1" stop-color="#ACBCF2"/>
</linearGradient>
<linearGradient id="paint44_linear_1835_58730" x1="708.073" y1="101.981" x2="740.003" y2="101.981" gradientUnits="userSpaceOnUse">
<stop stop-color="#7EC2FF"/>
<stop offset="0.99" stop-color="#6F7FFF"/>
</linearGradient>
<linearGradient id="paint45_linear_1835_58730" x1="728.033" y1="115.957" x2="747.989" y2="115.957" gradientUnits="userSpaceOnUse">
<stop stop-color="#6F7FFF"/>
<stop offset="1" stop-color="#7EC2FF"/>
</linearGradient>
<linearGradient id="paint46_linear_1835_58730" x1="723.354" y1="103.52" x2="736.484" y2="116.653" gradientUnits="userSpaceOnUse">
<stop stop-color="#E4E9FF"/>
<stop offset="1" stop-color="#D2DAFD"/>
</linearGradient>
<linearGradient id="paint47_linear_1835_58730" x1="714.689" y1="123.223" x2="716.77" y2="125.306" gradientUnits="userSpaceOnUse">
<stop stop-color="#89C7FF"/>
<stop offset="0.99" stop-color="#7E8DFF"/>
</linearGradient>
<linearGradient id="paint48_linear_1835_58730" x1="737.764" y1="95.4829" x2="744.519" y2="102.241" gradientUnits="userSpaceOnUse">
<stop stop-color="#9ED1FF"/>
<stop offset="0.99" stop-color="#919DFD"/>
</linearGradient>
<linearGradient id="paint49_linear_1835_58730" x1="738.354" y1="101.648" x2="744.009" y2="96.9905" gradientUnits="userSpaceOnUse">
<stop stop-color="#89C7FF"/>
<stop offset="0.99" stop-color="#7E8DFF"/>
</linearGradient>
<linearGradient id="paint50_linear_1835_58730" x1="827.342" y1="122.88" x2="809.621" y2="122.88" gradientUnits="userSpaceOnUse">
<stop stop-color="#67AFE4"/>
<stop offset="1" stop-color="#8FC9F4"/>
</linearGradient>
<linearGradient id="paint51_linear_1835_58730" x1="4" y1="184" x2="32.5003" y2="212.5" gradientUnits="userSpaceOnUse">
<stop stop-color="#FFAF2E"/>
<stop offset="1" stop-color="#FB9C04"/>
</linearGradient>
<radialGradient id="paint52_radial_1835_58730" cx="0" cy="0" r="1" gradientUnits="userSpaceOnUse" gradientTransform="translate(18.2501 198.25) rotate(45) scale(20.1528)">
<stop offset="0.805" stop-color="#F89907" stop-opacity="0"/>
<stop offset="1" stop-color="#E96200"/>
</radialGradient>
<radialGradient id="paint53_radial_1835_58730" cx="0" cy="0" r="1" gradientUnits="userSpaceOnUse" gradientTransform="translate(21.0835 201.083) rotate(-135) scale(17.0886)">
<stop offset="0.86" stop-color="#FFBF59" stop-opacity="0"/>
<stop offset="1" stop-color="#FFD069"/>
</radialGradient>
<linearGradient id="paint54_linear_1835_58730" x1="112.5" y1="187.133" x2="112.5" y2="220" gradientUnits="userSpaceOnUse">
<stop stop-color="#FFE28B"/>
<stop offset="1" stop-color="#FFD968"/>
</linearGradient>
<linearGradient id="paint55_linear_1835_58730" x1="200" y1="197.6" x2="200" y2="220" gradientUnits="userSpaceOnUse">
<stop stop-color="#E9F1FC"/>
<stop offset="1" stop-color="#CAD9ED"/>
</linearGradient>
<linearGradient id="paint56_linear_1835_58730" x1="200" y1="197.6" x2="200" y2="203.2" gradientUnits="userSpaceOnUse">
<stop stop-color="#9ED1FF"/>
<stop offset="1" stop-color="#919DFD"/>
</linearGradient>
<linearGradient id="paint57_linear_1835_58730" x1="200.057" y1="182.4" x2="206.457" y2="182.4" gradientUnits="userSpaceOnUse">
<stop stop-color="#FD978A"/>
<stop offset="1" stop-color="#FC7A6D"/>
</linearGradient>
<linearGradient id="paint58_linear_1835_58730" x1="200" y1="186.679" x2="200" y2="219.999" gradientUnits="userSpaceOnUse">
<stop stop-color="#F8FAFE"/>
<stop offset="1" stop-color="#E9F1FC"/>
</linearGradient>
<linearGradient id="paint59_linear_1835_58730" x1="188.001" y1="190.079" x2="212.001" y2="190.079" gradientUnits="userSpaceOnUse">
<stop stop-color="#9ED1FF"/>
<stop offset="1" stop-color="#919DFD"/>
</linearGradient>
<linearGradient id="paint60_linear_1835_58730" x1="199.999" y1="194.135" x2="199.999" y2="203.735" gradientUnits="userSpaceOnUse">
<stop stop-color="#D0DEEF"/>
<stop offset="0.97" stop-color="#A9BBCD"/>
<stop offset="1" stop-color="#A8BACC"/>
</linearGradient>
<linearGradient id="paint61_linear_1835_58730" x1="195.199" y1="214" x2="204.799" y2="214" gradientUnits="userSpaceOnUse">
<stop stop-color="#9ED1FF"/>
<stop offset="1" stop-color="#919DFD"/>
</linearGradient>
<linearGradient id="paint62_linear_1835_58730" x1="291.159" y1="215.566" x2="291.159" y2="181.93" gradientUnits="userSpaceOnUse">
<stop stop-color="#3369FF"/>
<stop offset="1" stop-color="#668FFF"/>
</linearGradient>
<linearGradient id="paint63_linear_1835_58730" x1="371.953" y1="196.541" x2="380.755" y2="209.298" gradientUnits="userSpaceOnUse">
<stop stop-color="#E8ECFF"/>
<stop offset="1" stop-color="#D0D8F7"/>
</linearGradient>
<linearGradient id="paint64_linear_1835_58730" x1="371.953" y1="196.541" x2="380.755" y2="209.298" gradientUnits="userSpaceOnUse">
<stop stop-color="#E8ECFF"/>
<stop offset="1" stop-color="#D0D8F7"/>
</linearGradient>
<linearGradient id="paint65_linear_1835_58730" x1="355.965" y1="187.859" x2="358.576" y2="190.47" gradientUnits="userSpaceOnUse">
<stop stop-color="#E8ECFF"/>
<stop offset="1" stop-color="#D0D8F7"/>
</linearGradient>
<linearGradient id="paint66_linear_1835_58730" x1="355.965" y1="214.5" x2="358.576" y2="217.111" gradientUnits="userSpaceOnUse">
<stop stop-color="#E8ECFF"/>
<stop offset="1" stop-color="#D0D8F7"/>
</linearGradient>
<linearGradient id="paint67_linear_1835_58730" x1="394.967" y1="187.859" x2="397.578" y2="190.47" gradientUnits="userSpaceOnUse">
<stop stop-color="#E8ECFF"/>
<stop offset="1" stop-color="#D0D8F7"/>
</linearGradient>
<linearGradient id="paint68_linear_1835_58730" x1="394.969" y1="214.5" x2="397.58" y2="217.111" gradientUnits="userSpaceOnUse">
<stop stop-color="#E8ECFF"/>
<stop offset="1" stop-color="#D0D8F7"/>
</linearGradient>
<linearGradient id="paint69_linear_1835_58730" x1="364.431" y1="212.295" x2="364.431" y2="188.015" gradientUnits="userSpaceOnUse">
<stop stop-color="#6691FF"/>
<stop offset="1" stop-color="#82A5FF"/>
</linearGradient>
<linearGradient id="paint70_linear_1835_58730" x1="389.247" y1="212.295" x2="389.247" y2="188.015" gradientUnits="userSpaceOnUse">
<stop stop-color="#6691FF"/>
<stop offset="1" stop-color="#82A5FF"/>
</linearGradient>
<linearGradient id="paint71_linear_1835_58730" x1="547.719" y1="199.169" x2="556.804" y2="211.887" gradientUnits="userSpaceOnUse">
<stop stop-color="#E8ECFF"/>
<stop offset="1" stop-color="#D0D8F7"/>
</linearGradient>
<linearGradient id="paint72_linear_1835_58730" x1="549.248" y1="190.836" x2="561.479" y2="198.7" gradientUnits="userSpaceOnUse">
<stop stop-color="#E8ECFF"/>
<stop offset="1" stop-color="#D0D8F7"/>
</linearGradient>
<linearGradient id="paint73_linear_1835_58730" x1="554.596" y1="214.998" x2="554.596" y2="202.211" gradientUnits="userSpaceOnUse">
<stop stop-color="#6691FF"/>
<stop offset="1" stop-color="#82A5FF"/>
</linearGradient>
<linearGradient id="paint74_linear_1835_58730" x1="550.669" y1="196.173" x2="552.307" y2="199.467" gradientUnits="userSpaceOnUse">
<stop stop-color="#E8ECFF"/>
<stop offset="1" stop-color="#D0D8F7"/>
</linearGradient>
<linearGradient id="paint75_linear_1835_58730" x1="537.739" y1="196.584" x2="538.717" y2="198.771" gradientUnits="userSpaceOnUse">
<stop stop-color="#E8ECFF"/>
<stop offset="1" stop-color="#D0D8F7"/>
</linearGradient>
<linearGradient id="paint76_linear_1835_58730" x1="537.739" y1="202.592" x2="538.717" y2="204.78" gradientUnits="userSpaceOnUse">
<stop stop-color="#E8ECFF"/>
<stop offset="1" stop-color="#D0D8F7"/>
</linearGradient>
<linearGradient id="paint77_linear_1835_58730" x1="537.739" y1="208.601" x2="538.717" y2="210.789" gradientUnits="userSpaceOnUse">
<stop stop-color="#E8ECFF"/>
<stop offset="1" stop-color="#D0D8F7"/>
</linearGradient>
<linearGradient id="paint78_linear_1835_58730" x1="537.739" y1="214.625" x2="538.717" y2="216.812" gradientUnits="userSpaceOnUse">
<stop stop-color="#E8ECFF"/>
<stop offset="1" stop-color="#D0D8F7"/>
</linearGradient>
<linearGradient id="paint79_linear_1835_58730" x1="564.378" y1="196.584" x2="565.355" y2="198.771" gradientUnits="userSpaceOnUse">
<stop stop-color="#E8ECFF"/>
<stop offset="1" stop-color="#D0D8F7"/>
</linearGradient>
<linearGradient id="paint80_linear_1835_58730" x1="564.378" y1="202.592" x2="565.355" y2="204.78" gradientUnits="userSpaceOnUse">
<stop stop-color="#E8ECFF"/>
<stop offset="1" stop-color="#D0D8F7"/>
</linearGradient>
<linearGradient id="paint81_linear_1835_58730" x1="564.378" y1="208.601" x2="565.355" y2="210.789" gradientUnits="userSpaceOnUse">
<stop stop-color="#E8ECFF"/>
<stop offset="1" stop-color="#D0D8F7"/>
</linearGradient>
<linearGradient id="paint82_linear_1835_58730" x1="564.378" y1="214.625" x2="565.355" y2="216.812" gradientUnits="userSpaceOnUse">
<stop stop-color="#E8ECFF"/>
<stop offset="1" stop-color="#D0D8F7"/>
</linearGradient>
<clipPath id="clip0_1835_58730">
<rect width="48" height="48" fill="white" transform="translate(176 176)"/>
</clipPath>
</defs>
</svg>
