<svg width="960" height="160" viewBox="0 0 960 160" fill="none" xmlns="http://www.w3.org/2000/svg">
<g id="60*60">
<g id="Group 1261157296">
<path id="Vector" d="M38.1818 0H21.8182C9.76833 0 0 9.76833 0 21.8182V38.1818C0 50.2317 9.76833 60 21.8182 60H38.1818C50.2317 60 60 50.2317 60 38.1818V21.8182C60 9.76833 50.2317 0 38.1818 0Z" fill="#F6F7F8"/>
<g id="Clip path group">
<mask id="mask0_1835_59666" style="mask-type:luminance" maskUnits="userSpaceOnUse" x="17" y="13" width="26" height="34">
<g id="clip3_11124_105591">
<path id="Vector_2" d="M42.272 13.6387H17.7266V46.3659H42.272V13.6387Z" fill="white"/>
</g>
</mask>
<g mask="url(#mask0_1835_59666)">
<g id="Group">
<path id="Vector_3" d="M38.1811 13.6387H21.8175C19.5579 13.6387 17.7266 15.47 17.7266 17.7296V42.275C17.7266 44.5346 19.5579 46.3659 21.8175 46.3659H38.1811C40.4407 46.3659 42.272 44.5346 42.272 42.275V17.7296C42.272 15.47 40.4407 13.6387 38.1811 13.6387Z" fill="url(#paint0_linear_1835_59666)"/>
<path id="Vector_4" opacity="0.3" d="M36.8168 16.3662H23.1804C21.6736 16.3662 20.4531 17.5867 20.4531 19.0935V36.8208C20.4531 38.3276 21.6736 39.548 23.1804 39.548H36.8168C38.3236 39.548 39.544 38.3276 39.544 36.8208V19.0935C39.544 17.5867 38.3236 16.3662 36.8168 16.3662Z" fill="white"/>
<path id="Vector_5" d="M27.2715 42.9561H32.726" stroke="white" stroke-width="1.5" stroke-linecap="round" stroke-linejoin="round"/>
<path id="Vector_6" d="M25.9082 27.4828L28.7718 30.5509L34.09 25.3691" stroke="white" stroke-width="1.5" stroke-linecap="round" stroke-linejoin="round"/>
</g>
</g>
</g>
</g>
<g id="Group 1261157297">
<path id="Vector_7" d="M138.182 0H121.818C109.768 0 100 9.76833 100 21.8182V38.1818C100 50.2317 109.768 60 121.818 60H138.182C150.232 60 160 50.2317 160 38.1818V21.8182C160 9.76833 150.232 0 138.182 0Z" fill="#F6F7F8"/>
<g id="Clip path group_2">
<mask id="mask1_1835_59666" style="mask-type:luminance" maskUnits="userSpaceOnUse" x="113" y="13" width="34" height="34">
<g id="clip2_11124_105591">
<path id="Vector_8" d="M146.364 13.6387H113.637V46.3659H146.364V13.6387Z" fill="white"/>
</g>
</mask>
<g mask="url(#mask1_1835_59666)">
<g id="Group_2">
<path id="Vector_9" d="M137.214 39.6536L133.518 35.9581C132.646 35.0854 131.228 35.0854 130.355 35.9581C129.482 36.8308 128.064 36.8308 127.191 35.9581L124.028 32.7945C123.155 31.9217 123.155 30.5035 124.028 29.6308C124.9 28.7581 124.9 27.3399 124.028 26.4672L120.332 22.7717C119.459 21.899 118.041 21.899 117.169 22.7717L115.587 24.3536C112.969 26.9717 112.969 31.2263 115.587 33.8445L116.582 34.8399L117.7 35.9581L124.028 42.2854L125.473 43.7308L126.141 44.399C128.759 47.0172 133.014 47.0172 135.632 44.399L137.214 42.8172C138.087 41.9445 138.087 40.5263 137.214 39.6536Z" fill="url(#paint1_linear_1835_59666)"/>
<path id="Vector_10" d="M138.292 13.6347H135.36C130.914 13.6347 127.287 17.2893 127.287 21.762V23.2347C127.287 25.6211 128.337 27.7756 129.973 29.262C130.042 29.3302 130.042 29.4393 129.973 29.4938L128.064 30.8165C127.833 30.9802 127.942 31.3484 128.228 31.3484H138.305C142.751 31.3484 146.378 27.6938 146.378 23.2211V21.7484C146.378 17.2756 142.737 13.6211 138.305 13.6211L138.292 13.6347Z" fill="url(#paint2_linear_1835_59666)"/>
<path id="Vector_11" d="M133.492 20.7549H140.147" stroke="white" stroke-width="1.2" stroke-linecap="round" stroke-linejoin="round"/>
<path id="Vector_12" d="M133.492 24.2412H140.147" stroke="white" stroke-width="1.2" stroke-linecap="round" stroke-linejoin="round"/>
</g>
</g>
</g>
</g>
<g id="Group 1261157298">
<path id="Vector_13" d="M238.182 0H221.818C209.768 0 200 9.76833 200 21.8182V38.1818C200 50.2317 209.768 60 221.818 60H238.182C250.232 60 260 50.2317 260 38.1818V21.8182C260 9.76833 250.232 0 238.182 0Z" fill="#F6F7F8"/>
<g id="Clip path group_3">
<mask id="mask2_1835_59666" style="mask-type:luminance" maskUnits="userSpaceOnUse" x="215" y="13" width="30" height="34">
<g id="clip1_11124_105591">
<path id="Vector_14" d="M245 13.6387H215V46.3659H245V13.6387Z" fill="white"/>
</g>
</mask>
<g mask="url(#mask2_1835_59666)">
<g id="Group_3">
<path id="Vector_15" d="M215.764 29.0044L229.427 21.2862C229.782 21.0817 230.205 21.0817 230.559 21.2862L244.223 29.0044C244.7 29.2771 244.986 29.768 244.986 30.3135V43.6362C244.986 45.1362 243.759 46.3635 242.259 46.3635H217.727C216.227 46.3635 215 45.1362 215 43.6362V30.3135C215 29.768 215.286 29.2771 215.764 29.0044Z" fill="#B6BECF"/>
<path id="Vector_16" d="M238.768 13.6387H221.232C218.972 13.6387 217.141 15.47 217.141 17.7296V34.4614C217.141 36.721 218.972 38.5523 221.232 38.5523H238.768C241.027 38.5523 242.859 36.721 242.859 34.4614V17.7296C242.859 15.47 241.027 13.6387 238.768 13.6387Z" fill="url(#paint3_linear_1835_59666)"/>
<path id="Vector_17" d="M215 31.3662L228.555 38.2799C229.291 38.648 230.15 38.6753 230.9 38.348L245.014 32.1162V43.6389C245.014 45.1389 243.786 46.3662 242.286 46.3662H217.727C216.227 46.3662 215 45.1389 215 43.6389V31.3662Z" fill="#DCE0E8"/>
<path id="Vector_18" d="M225.037 23.377L227.519 29.1315L230.001 24.6179" stroke="#FF9933" stroke-width="1.5" stroke-linecap="round" stroke-linejoin="round"/>
<path id="Vector_19" d="M234.964 23.377L232.482 29.1315L230 24.6179" stroke="#FF9933" stroke-width="1.5" stroke-linecap="round" stroke-linejoin="round"/>
<path id="Vector_20" d="M224 25.8408H226.073" stroke="#FF9933" stroke-width="1.5" stroke-linecap="round" stroke-linejoin="round"/>
<path id="Vector_21" d="M233.928 25.8408H236" stroke="#FF9933" stroke-width="1.5" stroke-linecap="round" stroke-linejoin="round"/>
</g>
</g>
</g>
</g>
<g id="Frame 1261158302" clip-path="url(#clip0_1835_59666)">
<path id="Vector_22" d="M344 0H316C307.163 0 300 7.16344 300 16V44C300 52.8366 307.163 60 316 60H344C352.837 60 360 52.8366 360 44V16C360 7.16344 352.837 0 344 0Z" fill="#F6F7F8"/>
<g id="Group 1261157274">
<g id="Rectangle 154241" filter="url(#filter0_ii_1835_59666)">
<path d="M314.445 17.334C314.445 15.1248 316.236 13.334 318.445 13.334H341.556C343.766 13.334 345.556 15.1248 345.556 17.334V43.7784C345.556 45.9876 343.766 47.7784 341.556 47.7784H318.445C316.236 47.7784 314.445 45.9876 314.445 43.7784V17.334Z" fill="url(#paint4_linear_1835_59666)"/>
</g>
<g id="Vector 3268" filter="url(#filter1_d_1835_59666)">
<path d="M326 30L329 33L335 27" stroke="white" stroke-width="2" stroke-linecap="round" stroke-linejoin="round"/>
</g>
<rect id="Rectangle 154243" x="321.113" y="12.2227" width="17.7778" height="4.44444" rx="2.22222" fill="url(#paint5_linear_1835_59666)"/>
</g>
</g>
<g id="Frame 1261158301" clip-path="url(#clip1_1835_59666)">
<path id="Vector_23" d="M444 0H416C407.163 0 400 7.16344 400 16V44C400 52.8366 407.163 60 416 60H444C452.837 60 460 52.8366 460 44V16C460 7.16344 452.837 0 444 0Z" fill="#F6F7F8"/>
<g id="Group 1261158503">
<path id="Vector_24" d="M436.155 14H418.923C416.204 14 414 16.2043 414 18.9234V41.0785C414 43.7976 416.204 46.0018 418.923 46.0018H436.155C438.874 46.0018 441.078 43.7976 441.078 41.0785V18.9234C441.078 16.2043 438.874 14 436.155 14Z" fill="#FBD11C"/>
<path id="Vector_25" d="M434.001 23.8466H421.077C420.568 23.8466 420.154 24.2599 420.154 24.7697C420.154 25.2795 420.568 25.6928 421.077 25.6928H434.001C434.511 25.6928 434.924 25.2795 434.924 24.7697C434.924 24.2599 434.511 23.8466 434.001 23.8466Z" fill="white" fill-opacity="0.6"/>
<path id="Vector_26" d="M434.001 30.6162H421.077C420.568 30.6162 420.154 31.0295 420.154 31.5393C420.154 32.0492 420.568 32.4625 421.077 32.4625H434.001C434.511 32.4625 434.924 32.0492 434.924 31.5393C434.924 31.0295 434.511 30.6162 434.001 30.6162Z" fill="white" fill-opacity="0.6"/>
<path id="Vector_27" fill-rule="evenodd" clip-rule="evenodd" d="M418.926 45.9578V46.0009H439.85V39.8467H422.618V41.6929C422.618 43.8641 421.013 45.6587 418.926 45.9578Z" fill="#FDA212"/>
<path id="Vector_28" d="M436.156 39.8466H443.541V41.96C443.541 44.1915 441.732 46.0008 439.5 46.0008C437.653 46.0008 436.156 44.5041 436.156 42.6566V39.8466Z" fill="#FDA212"/>
<path id="Vector_29" d="M437.385 36.159C435.681 36.159 434.015 35.6543 432.598 34.7078C431.181 33.7601 430.077 32.4148 429.425 30.8405C428.773 29.2663 428.603 27.5345 428.935 25.863C429.268 24.1915 430.088 22.6567 431.293 21.4517C432.498 20.2467 434.033 19.4257 435.705 19.0934C437.376 18.7611 439.108 18.9309 440.682 19.5833C442.257 20.2356 443.602 21.3397 444.55 22.7564C445.496 24.1731 446.001 25.8397 446.001 27.5431C445.998 29.8276 445.09 32.0172 443.475 33.6333C441.86 35.2482 439.669 36.1565 437.385 36.159Z" fill="#FD993D"/>
<g id="Group_4" filter="url(#filter2_d_1835_59666)">
<path id="Vector_30" fill-rule="evenodd" clip-rule="evenodd" d="M432.87 25.0731C433.327 24.8454 433.88 25.03 434.108 25.4854L435.424 28.1157L436.603 26.2301C436.772 25.9593 437.067 25.7956 437.386 25.7956C437.705 25.7956 438 25.9593 438.169 26.2301L439.348 28.1157L440.662 25.4854C440.891 25.03 441.445 24.8454 441.902 25.0731C442.357 25.3008 442.542 25.8559 442.314 26.3114L441.888 27.1643H441.899C442.409 27.1643 442.822 27.5766 442.822 28.0874C442.822 28.597 442.409 29.0106 441.899 29.0106H440.965L440.262 30.4137C440.113 30.7128 439.814 30.9073 439.481 30.9233C439.147 30.9393 438.831 30.7731 438.655 30.49L437.386 28.4604L436.117 30.49C435.941 30.7731 435.625 30.9393 435.291 30.9233C434.957 30.9073 434.658 30.7128 434.508 30.4137L433.807 29.0106H432.872C432.363 29.0106 431.949 28.597 431.949 28.0874C431.949 27.5766 432.363 27.1643 432.872 27.1643H432.883L432.458 26.3114C432.23 25.8559 432.414 25.3008 432.87 25.0731Z" fill="white"/>
</g>
</g>
</g>
<g id="Frame 1261158300" clip-path="url(#clip2_1835_59666)">
<path id="Vector_31" d="M544 0H516C507.163 0 500 7.16344 500 16V44C500 52.8366 507.163 60 516 60H544C552.837 60 560 52.8366 560 44V16C560 7.16344 552.837 0 544 0Z" fill="#F6F7F8"/>
<g id="Group 1000011068">
<path id="Vector_32" d="M537.804 14H521.333C519.294 14 517.641 15.6531 517.641 17.6923V32.1755C517.641 34.2147 519.294 35.8678 521.333 35.8678H537.804C539.843 35.8678 541.496 34.2147 541.496 32.1755V17.6923C541.496 15.6531 539.843 14 537.804 14Z" fill="white"/>
<path id="Vector_33" d="M536.188 23.5353H522.953C522.431 23.5353 522.008 23.9585 522.008 24.4806C522.008 25.0027 522.431 25.426 522.953 25.426H536.188C536.71 25.426 537.133 25.0027 537.133 24.4806C537.133 23.9585 536.71 23.5353 536.188 23.5353Z" fill="#DFF2FB"/>
<path id="Vector_34" d="M536.188 18.8105H522.953C522.431 18.8105 522.008 19.2337 522.008 19.7558C522.008 20.2779 522.431 20.7012 522.953 20.7012H536.188C536.71 20.7012 537.133 20.2779 537.133 19.7558C537.133 19.2337 536.71 18.8105 536.188 18.8105Z" fill="#DFF2FB"/>
<path id="Vector_35" d="M541.974 28.7715H517.358C515.319 28.7715 513.666 30.4246 513.666 32.4638V42.3099C513.666 44.3492 515.319 46.0023 517.358 46.0023H541.974C544.013 46.0023 545.666 44.3492 545.666 42.3099V32.4638C545.666 30.4246 544.013 28.7715 541.974 28.7715Z" fill="url(#paint6_linear_1835_59666)"/>
<g id="Group_5" style="mix-blend-mode:multiply" opacity="0.5">
<path id="Vector_36" d="M513.666 41.0781H545.666V42.3089C545.666 44.3482 544.013 46.0012 541.974 46.0012H517.358C515.319 46.0012 513.666 44.3482 513.666 42.3089V41.0781Z" fill="#52BDF3"/>
</g>
<path id="Vector_37" d="M540.505 32.4627H536.529C535.98 32.4627 535.535 32.9077 535.535 33.4567C535.535 34.0057 535.98 34.4507 536.529 34.4507H540.505C541.054 34.4507 541.499 34.0057 541.499 33.4567C541.499 32.9077 541.054 32.4627 540.505 32.4627Z" fill="white"/>
</g>
</g>
<g id="Frame 1261158304" clip-path="url(#clip3_1835_59666)">
<path id="Vector_38" d="M644 0H616C607.163 0 600 7.16344 600 16V44C600 52.8366 607.163 60 616 60H644C652.837 60 660 52.8366 660 44V16C660 7.16344 652.837 0 644 0Z" fill="#F6F7F8"/>
<g id="Clip path group_4">
<mask id="mask3_1835_59666" style="mask-type:luminance" maskUnits="userSpaceOnUse" x="613" y="14" width="35" height="32">
<g id="clip11_11124_105591">
<path id="Vector_39" d="M647.332 14H613.332V45.1667H647.332V14Z" fill="white"/>
</g>
</mask>
<g mask="url(#mask3_1835_59666)">
<g id="Group_6">
<path id="Vector_40" d="M630.33 17.1603L617.58 26.4962V40.9178C617.58 43.2695 619.478 45.1678 621.83 45.1678H638.83C641.182 45.1678 643.08 43.2695 643.08 40.9178V26.4962L630.33 17.1603Z" fill="url(#paint7_linear_1835_59666)"/>
<path id="Vector_41" d="M626.082 32.0767L629.057 35.2642L634.582 29.8809" stroke="white" stroke-width="1.5" stroke-linecap="round" stroke-linejoin="round"/>
<path id="Vector_42" d="M645.207 29.3992C647.247 29.3992 648.111 26.8067 646.482 25.5742L631.607 14.425C630.856 13.8583 629.807 13.8583 629.057 14.425L614.182 25.5742C612.552 26.7925 613.417 29.3992 615.457 29.3992C615.91 29.3992 616.363 29.2434 616.732 28.9742L629.057 19.7375C629.807 19.1708 630.856 19.1708 631.607 19.7375L643.932 28.9742C644.3 29.2434 644.753 29.3992 645.207 29.3992Z" fill="#771CD2"/>
<path id="Vector_43" d="M642.232 16.833H639.682C639.213 16.833 638.832 17.2141 638.832 17.683V24.483C638.832 24.9519 639.213 25.333 639.682 25.333H642.232C642.702 25.333 643.082 24.9519 643.082 24.483V17.683C643.082 17.2141 642.702 16.833 642.232 16.833Z" fill="#771CD2"/>
</g>
</g>
</g>
</g>
<g id="Frame 1261158305" clip-path="url(#clip4_1835_59666)">
<path id="Vector_44" d="M744 0H716C707.163 0 700 7.16344 700 16V44C700 52.8366 707.163 60 716 60H744C752.837 60 760 52.8366 760 44V16C760 7.16344 752.837 0 744 0Z" fill="#F6F7F8"/>
<g id="Clip path group_5">
<mask id="mask4_1835_59666" style="mask-type:luminance" maskUnits="userSpaceOnUse" x="712" y="13" width="35" height="35">
<g id="clip14_11124_105591">
<path id="Vector_45" d="M747 13H712V48H747V13Z" fill="white"/>
</g>
</mask>
<g mask="url(#mask4_1835_59666)">
<g id="Group_7">
<path id="Vector_46" d="M738.25 21.75C740.671 21.75 742.625 19.7958 742.625 17.375C742.625 14.9542 740.671 13 738.25 13C735.829 13 733.875 14.9542 733.875 17.375C733.875 19.7958 735.829 21.75 738.25 21.75ZM740 23.2083H736.5C732.635 23.2083 729.5 26.3437 729.5 30.2083C729.5 30.3687 729.631 30.5 729.792 30.5H746.708C746.869 30.5 747 30.3687 747 30.2083C747 26.3437 743.865 23.2083 740 23.2083ZM720.75 39.25C723.171 39.25 725.125 37.2958 725.125 34.875C725.125 32.4542 723.171 30.5 720.75 30.5C718.329 30.5 716.375 32.4542 716.375 34.875C716.375 37.2958 718.329 39.25 720.75 39.25ZM722.5 40.7083H719C715.135 40.7083 712 43.8437 712 47.7083C712 47.8687 712.131 48 712.292 48H729.208C729.369 48 729.5 47.8687 729.5 47.7083C729.5 43.8437 726.365 40.7083 722.5 40.7083Z" fill="url(#paint8_linear_1835_59666)"/>
<path id="Vector_47" d="M742.625 34.875V37.7917C742.625 41.0146 740.015 43.625 736.792 43.625H733.875" stroke="#0D5999" stroke-width="1.5" stroke-linecap="round" stroke-linejoin="round"/>
<path id="Vector_48" d="M716.375 26.125V23.2083C716.375 19.9854 718.985 17.375 722.208 17.375H725.125" stroke="#0D5999" stroke-width="1.5" stroke-linecap="round" stroke-linejoin="round"/>
</g>
</g>
</g>
</g>
<g id="Frame 1261158306" clip-path="url(#clip5_1835_59666)">
<path id="Vector_49" d="M844 0H816C807.163 0 800 7.16344 800 16V44C800 52.8366 807.163 60 816 60H844C852.837 60 860 52.8366 860 44V16C860 7.16344 852.837 0 844 0Z" fill="#F6F7F8"/>
<g id="Clip path group_6">
<mask id="mask5_1835_59666" style="mask-type:luminance" maskUnits="userSpaceOnUse" x="813" y="13" width="33" height="35">
<g id="clip4_11124_105591">
<path id="Vector_50" d="M845.666 13H813.666V47.9091H845.666V13Z" fill="white"/>
</g>
</mask>
<g mask="url(#mask5_1835_59666)">
<g id="Group_8">
<path id="Vector_51" d="M829.667 13H834.583C835.659 13 836.372 14.1345 835.878 15.1091L833.288 20.2727L830.947 24.9418C830.408 26.0182 828.881 26.0182 828.343 24.9418L826.001 20.2727L823.412 15.1091C822.932 14.1491 823.63 13 824.707 13H829.623H829.667Z" fill="#23B599"/>
<path id="Vector_52" d="M844.474 32.2579C842.932 25.247 836.779 20.2725 829.667 20.2725C822.554 20.2725 816.401 25.2616 814.859 32.2579L813.885 36.6943C812.619 42.4543 816.954 47.9088 822.787 47.9088H829.667H836.547C842.379 47.9088 846.714 42.4543 845.449 36.6943L844.474 32.2579Z" fill="url(#paint9_linear_1835_59666)"/>
<path id="Vector_53" d="M834.119 18.8182H825.217C824.462 18.8182 823.85 19.4305 823.85 20.1855V20.36C823.85 21.1149 824.462 21.7273 825.217 21.7273H834.119C834.874 21.7273 835.486 21.1149 835.486 20.36V20.1855C835.486 19.4305 834.874 18.8182 834.119 18.8182Z" fill="#0C8E75"/>
<path id="Vector_54" d="M823.645 30.5996L826.655 37.5814L829.666 32.1123" stroke="white" stroke-width="1.5" stroke-linecap="round" stroke-linejoin="round"/>
<path id="Vector_55" d="M835.69 30.5994L832.679 37.5812L829.668 32.1121" stroke="white" stroke-width="1.5" stroke-linecap="round" stroke-linejoin="round"/>
<path id="Vector_56" d="M822.395 33.5967H824.896" stroke="white" stroke-width="1.5" stroke-linecap="round" stroke-linejoin="round"/>
<path id="Vector_57" d="M834.438 33.5966H836.939" stroke="white" stroke-width="1.5" stroke-linecap="round" stroke-linejoin="round"/>
</g>
</g>
</g>
</g>
<g id="Frame 1261158307" clip-path="url(#clip6_1835_59666)">
<path id="Vector_58" d="M944 0H916C907.163 0 900 7.16344 900 16V44C900 52.8366 907.163 60 916 60H944C952.837 60 960 52.8366 960 44V16C960 7.16344 952.837 0 944 0Z" fill="#F6F7F8"/>
<g id="Group_9">
<path id="Vector_59" d="M945.056 14H919.745C917.014 14 914.801 16.2144 914.801 18.9439V36.2557C914.801 38.9868 917.014 41.1996 919.745 41.1996H945.056C947.786 41.1996 950 38.9868 950 36.2557V18.9439C950 16.2144 947.786 14 945.056 14Z" fill="#0046E2"/>
<path id="Vector_60" d="M940.256 18.8007H914.944C912.213 18.8007 910 21.015 910 23.7446V41.0563C910 43.7875 912.213 46.0002 914.944 46.0002H940.256C942.985 46.0002 945.199 43.7875 945.199 41.0563V23.7446C945.199 21.015 942.985 18.8007 940.256 18.8007Z" fill="url(#paint10_linear_1835_59666)"/>
<path id="Vector_61" d="M914.801 26.8018H940.4" stroke="white" stroke-width="1.2" stroke-linecap="round" stroke-linejoin="round"/>
<path id="Vector_62" d="M938.158 33.2002H934.638C933.402 33.2002 932.398 34.2034 932.398 35.4402V38.9601C932.398 40.1985 933.402 41.2001 934.638 41.2001H938.158C939.395 41.2001 940.398 40.1985 940.398 38.9601V35.4402C940.398 34.2034 939.395 33.2002 938.158 33.2002Z" fill="white"/>
</g>
</g>
<g id="Frame 1261158308" clip-path="url(#clip7_1835_59666)">
<path id="Vector_63" d="M44 100H16C7.16344 100 0 107.163 0 116V144C0 152.837 7.16344 160 16 160H44C52.8366 160 60 152.837 60 144V116C60 107.163 52.8366 100 44 100Z" fill="#F6F7F8"/>
<g id="icon">
<path id="Vector_64" d="M34 146C42.8366 146 50 138.837 50 130C50 121.163 42.8366 114 34 114C25.1634 114 18 121.163 18 130C18 138.837 25.1634 146 34 146Z" fill="#FFD056"/>
<g id="Vector_65" filter="url(#filter3_ii_1835_59666)">
<path d="M26 146C34.8366 146 42 138.837 42 130C42 121.163 34.8366 114 26 114C17.1634 114 10 121.163 10 130C10 138.837 17.1634 146 26 146Z" fill="url(#paint11_linear_1835_59666)"/>
</g>
<g id="W" filter="url(#filter4_d_1835_59666)">
<path id="Vector 2589" d="M19.3359 126L22.6693 134L26.0028 128L29.3362 134L32.6696 126" stroke="#FFE8AE" stroke-width="2" stroke-linecap="round" stroke-linejoin="round"/>
<path id="Vector 2590" d="M31.793 129.694H33.9996" stroke="#FFE8AE" stroke-width="2" stroke-linecap="round"/>
<path id="Vector 2591" d="M18 129.694H20.2067" stroke="#FFE8AE" stroke-width="2" stroke-linecap="round"/>
</g>
</g>
</g>
<g id="Frame 1261158309" clip-path="url(#clip8_1835_59666)">
<path id="Vector_66" d="M144 100H116C107.163 100 100 107.163 100 116V144C100 152.837 107.163 160 116 160H144C152.837 160 160 152.837 160 144V116C160 107.163 152.837 100 144 100Z" fill="#F6F7F8"/>
<g id="Clip path group_7">
<mask id="mask6_1835_59666" style="mask-type:luminance" maskUnits="userSpaceOnUse" x="113" y="113" width="35" height="34">
<g id="clip22_11124_105591">
<path id="Vector_67" d="M148 113H113V146.478H148V113Z" fill="white"/>
</g>
</mask>
<g mask="url(#mask6_1835_59666)">
<g id="Group_10">
<path id="Vector_68" d="M116.683 128.217H144.318C145.155 128.217 145.839 127.533 145.839 126.696V117.58C145.839 115.054 143.785 113 141.259 113H119.742C117.216 113 115.161 115.054 115.161 117.58V126.68C115.161 127.517 115.846 128.202 116.683 128.202V128.217ZM147.924 141.091L146.068 130.987C145.931 130.257 145.307 129.739 144.561 129.739H116.439C115.694 129.739 115.07 130.272 114.933 130.987L113.076 141.091C112.559 143.891 114.735 146.478 117.611 146.478H143.405C146.281 146.478 148.442 143.891 147.939 141.091H147.924Z" fill="url(#paint12_linear_1835_59666)"/>
<path id="Vector_69" d="M126.088 118.053L128.294 123.166L130.501 119.163" stroke="white" stroke-width="1.2" stroke-linecap="round" stroke-linejoin="round"/>
<path id="Vector_70" d="M134.913 118.053L132.707 123.166L130.5 119.163" stroke="white" stroke-width="1.2" stroke-linecap="round" stroke-linejoin="round"/>
<path id="Vector_71" d="M125.174 120.243H127.015" stroke="white" stroke-width="1.2" stroke-linecap="round" stroke-linejoin="round"/>
<path id="Vector_72" d="M133.984 120.243H135.826" stroke="white" stroke-width="1.2" stroke-linecap="round" stroke-linejoin="round"/>
<path id="Vector_73" d="M121.369 138.048H139.63" stroke="white" stroke-width="1.2" stroke-linecap="round" stroke-linejoin="round"/>
</g>
</g>
</g>
</g>
<g id="Frame 1261158310" clip-path="url(#clip9_1835_59666)">
<path id="Vector_74" d="M244 100H216C207.163 100 200 107.163 200 116V144C200 152.837 207.163 160 216 160H244C252.837 160 260 152.837 260 144V116C260 107.163 252.837 100 244 100Z" fill="#F6F7F8"/>
<g id="Clip path group_8">
<mask id="mask7_1835_59666" style="mask-type:luminance" maskUnits="userSpaceOnUse" x="216" y="113" width="29" height="35">
<g id="clip10_11124_105591">
<path id="Vector_75" d="M245 113H216V147.8H245V113Z" fill="white"/>
</g>
</mask>
<g mask="url(#mask7_1835_59666)">
<g id="Group_11">
<path id="Vector_76" d="M244.927 143.869L242.839 137.315C241.708 133.748 238.417 131.326 234.676 131.268C235.647 130.688 236.256 129.557 236.053 128.31C235.821 126.889 234.487 125.903 233.037 125.903H231.022C230.616 125.903 230.297 125.584 230.297 125.178V123.931C230.297 122.699 229.702 121.539 228.774 120.828C230.456 120.364 231.703 118.827 231.703 117C231.703 114.796 229.92 113.013 227.716 113.013C225.512 113.013 223.728 114.796 223.728 117C223.728 118.378 224.424 119.596 225.483 120.306C224.062 120.799 223.047 122.148 223.047 123.728V128.803C223.047 130.398 224.352 131.703 225.947 131.703H233.197C233.4 131.703 233.588 131.674 233.777 131.645L237.967 144.768C238.156 145.362 238.721 145.783 239.345 145.783H243.55C244.536 145.783 245.232 144.826 244.927 143.898V143.869Z" fill="white"/>
<path id="Vector_77" opacity="0.8" d="M244.927 143.869L242.839 137.315C241.708 133.748 238.417 131.326 234.676 131.268C235.647 130.688 236.256 129.557 236.053 128.31C235.821 126.889 234.487 125.903 233.037 125.903H231.022C230.616 125.903 230.297 125.584 230.297 125.178V123.931C230.297 122.699 229.702 121.539 228.774 120.828C230.456 120.364 231.703 118.827 231.703 117C231.703 114.796 229.92 113.013 227.716 113.013C225.512 113.013 223.728 114.796 223.728 117C223.728 118.378 224.424 119.596 225.483 120.306C224.062 120.799 223.047 122.148 223.047 123.728V128.803C223.047 130.398 224.352 131.703 225.947 131.703H233.197C233.4 131.703 233.588 131.674 233.777 131.645L237.967 144.768C238.156 145.362 238.721 145.783 239.345 145.783H243.55C244.536 145.783 245.232 144.826 244.927 143.898V143.869Z" fill="url(#paint13_linear_1835_59666)"/>
<path id="Vector_78" d="M226.15 127.5C225.932 127.5 225.73 127.514 225.512 127.529V126.702C225.512 123.338 222.786 120.612 219.422 120.612C218.624 120.612 217.972 121.265 217.972 122.062C217.972 122.86 218.624 123.512 219.422 123.512C221.176 123.512 222.612 124.948 222.612 126.702V128.138C218.755 129.573 216 133.285 216 137.635C216 143.247 220.538 147.785 226.15 147.785C231.761 147.785 236.3 143.247 236.3 137.635C236.3 132.024 231.761 127.485 226.15 127.485V127.5Z" fill="url(#paint14_linear_1835_59666)"/>
<path id="Vector_79" d="M226.152 141.273C228.154 141.273 229.777 139.651 229.777 137.648C229.777 135.647 228.154 134.023 226.152 134.023C224.15 134.023 222.527 135.647 222.527 137.648C222.527 139.651 224.15 141.273 226.152 141.273Z" fill="white"/>
</g>
</g>
</g>
</g>
</g>
<defs>
<filter id="filter0_ii_1835_59666" x="313.445" y="12.334" width="33.1113" height="36.4445" filterUnits="userSpaceOnUse" color-interpolation-filters="sRGB">
<feFlood flood-opacity="0" result="BackgroundImageFix"/>
<feBlend mode="normal" in="SourceGraphic" in2="BackgroundImageFix" result="shape"/>
<feColorMatrix in="SourceAlpha" type="matrix" values="0 0 0 0 0 0 0 0 0 0 0 0 0 0 0 0 0 0 127 0" result="hardAlpha"/>
<feOffset dx="-1" dy="-1"/>
<feGaussianBlur stdDeviation="1"/>
<feComposite in2="hardAlpha" operator="arithmetic" k2="-1" k3="1"/>
<feColorMatrix type="matrix" values="0 0 0 0 0 0 0 0 0 0 0 0 0 0 0 0 0 0 0.15 0"/>
<feBlend mode="normal" in2="shape" result="effect1_innerShadow_1835_59666"/>
<feColorMatrix in="SourceAlpha" type="matrix" values="0 0 0 0 0 0 0 0 0 0 0 0 0 0 0 0 0 0 127 0" result="hardAlpha"/>
<feOffset dx="1" dy="1"/>
<feGaussianBlur stdDeviation="1"/>
<feComposite in2="hardAlpha" operator="arithmetic" k2="-1" k3="1"/>
<feColorMatrix type="matrix" values="0 0 0 0 1 0 0 0 0 1 0 0 0 0 1 0 0 0 0.15 0"/>
<feBlend mode="normal" in2="effect1_innerShadow_1835_59666" result="effect2_innerShadow_1835_59666"/>
</filter>
<filter id="filter1_d_1835_59666" x="324" y="25.5" width="13" height="10" filterUnits="userSpaceOnUse" color-interpolation-filters="sRGB">
<feFlood flood-opacity="0" result="BackgroundImageFix"/>
<feColorMatrix in="SourceAlpha" type="matrix" values="0 0 0 0 0 0 0 0 0 0 0 0 0 0 0 0 0 0 127 0" result="hardAlpha"/>
<feOffset dy="0.5"/>
<feGaussianBlur stdDeviation="0.5"/>
<feComposite in2="hardAlpha" operator="out"/>
<feColorMatrix type="matrix" values="0 0 0 0 0 0 0 0 0 0 0 0 0 0 0 0 0 0 0.1 0"/>
<feBlend mode="normal" in2="BackgroundImageFix" result="effect1_dropShadow_1835_59666"/>
<feBlend mode="normal" in="SourceGraphic" in2="effect1_dropShadow_1835_59666" result="shape"/>
</filter>
<filter id="filter2_d_1835_59666" x="429.949" y="22.9756" width="14.873" height="9.94876" filterUnits="userSpaceOnUse" color-interpolation-filters="sRGB">
<feFlood flood-opacity="0" result="BackgroundImageFix"/>
<feColorMatrix in="SourceAlpha" type="matrix" values="0 0 0 0 0 0 0 0 0 0 0 0 0 0 0 0 0 0 127 0" result="hardAlpha"/>
<feOffset/>
<feGaussianBlur stdDeviation="1"/>
<feComposite in2="hardAlpha" operator="out"/>
<feColorMatrix type="matrix" values="0 0 0 0 0 0 0 0 0 0 0 0 0 0 0 0 0 0 0.08 0"/>
<feBlend mode="normal" in2="BackgroundImageFix" result="effect1_dropShadow_1835_59666"/>
<feBlend mode="normal" in="SourceGraphic" in2="effect1_dropShadow_1835_59666" result="shape"/>
</filter>
<filter id="filter3_ii_1835_59666" x="9" y="113" width="34" height="34" filterUnits="userSpaceOnUse" color-interpolation-filters="sRGB">
<feFlood flood-opacity="0" result="BackgroundImageFix"/>
<feBlend mode="normal" in="SourceGraphic" in2="BackgroundImageFix" result="shape"/>
<feColorMatrix in="SourceAlpha" type="matrix" values="0 0 0 0 0 0 0 0 0 0 0 0 0 0 0 0 0 0 127 0" result="hardAlpha"/>
<feOffset dx="-1" dy="-1"/>
<feGaussianBlur stdDeviation="0.5"/>
<feComposite in2="hardAlpha" operator="arithmetic" k2="-1" k3="1"/>
<feColorMatrix type="matrix" values="0 0 0 0 0.952116 0 0 0 0 0.57127 0 0 0 0 0 0 0 0 0.75 0"/>
<feBlend mode="normal" in2="shape" result="effect1_innerShadow_1835_59666"/>
<feColorMatrix in="SourceAlpha" type="matrix" values="0 0 0 0 0 0 0 0 0 0 0 0 0 0 0 0 0 0 127 0" result="hardAlpha"/>
<feOffset dx="1" dy="1"/>
<feGaussianBlur stdDeviation="1"/>
<feComposite in2="hardAlpha" operator="arithmetic" k2="-1" k3="1"/>
<feColorMatrix type="matrix" values="0 0 0 0 1 0 0 0 0 1 0 0 0 0 1 0 0 0 0.25 0"/>
<feBlend mode="normal" in2="effect1_innerShadow_1835_59666" result="effect2_innerShadow_1835_59666"/>
</filter>
<filter id="filter4_d_1835_59666" x="15.9333" y="123.933" width="20.1334" height="12.1338" filterUnits="userSpaceOnUse" color-interpolation-filters="sRGB">
<feFlood flood-opacity="0" result="BackgroundImageFix"/>
<feColorMatrix in="SourceAlpha" type="matrix" values="0 0 0 0 0 0 0 0 0 0 0 0 0 0 0 0 0 0 127 0" result="hardAlpha"/>
<feOffset/>
<feGaussianBlur stdDeviation="0.533346"/>
<feComposite in2="hardAlpha" operator="out"/>
<feColorMatrix type="matrix" values="0 0 0 0 0.454167 0 0 0 0 0.2725 0 0 0 0 0 0 0 0 0.15 0"/>
<feBlend mode="normal" in2="BackgroundImageFix" result="effect1_dropShadow_1835_59666"/>
<feBlend mode="normal" in="SourceGraphic" in2="effect1_dropShadow_1835_59666" result="shape"/>
</filter>
<linearGradient id="paint0_linear_1835_59666" x1="29.9993" y1="46.3659" x2="29.9993" y2="13.6387" gradientUnits="userSpaceOnUse">
<stop stop-color="#3369FF"/>
<stop offset="1" stop-color="#668FFF"/>
</linearGradient>
<linearGradient id="paint1_linear_1835_59666" x1="125.759" y1="22.199" x2="125.759" y2="46.3899" gradientUnits="userSpaceOnUse">
<stop stop-color="#61D9B1"/>
<stop offset="1" stop-color="#12A188"/>
</linearGradient>
<linearGradient id="paint2_linear_1835_59666" x1="136.819" y1="13.6347" x2="136.819" y2="31.362" gradientUnits="userSpaceOnUse">
<stop stop-color="#61D9B1"/>
<stop offset="1" stop-color="#12A188"/>
</linearGradient>
<linearGradient id="paint3_linear_1835_59666" x1="230" y1="13.6387" x2="230" y2="38.5523" gradientUnits="userSpaceOnUse">
<stop stop-color="#FFE28E"/>
<stop offset="1" stop-color="#FFCD39"/>
</linearGradient>
<linearGradient id="paint4_linear_1835_59666" x1="343.334" y1="42.2229" x2="313.334" y2="12.2229" gradientUnits="userSpaceOnUse">
<stop stop-color="#396EFF"/>
<stop offset="1" stop-color="#6B93FF"/>
</linearGradient>
<linearGradient id="paint5_linear_1835_59666" x1="330.002" y1="12.2227" x2="330.002" y2="16.6671" gradientUnits="userSpaceOnUse">
<stop stop-color="#384C96"/>
<stop offset="1" stop-color="#293F8E"/>
</linearGradient>
<linearGradient id="paint6_linear_1835_59666" x1="529.666" y1="28.7715" x2="529.666" y2="46.0023" gradientUnits="userSpaceOnUse">
<stop stop-color="#7FCFF7"/>
<stop offset="1" stop-color="#52BDF3"/>
</linearGradient>
<linearGradient id="paint7_linear_1835_59666" x1="630.33" y1="45.1678" x2="630.33" y2="17.1603" gradientUnits="userSpaceOnUse">
<stop stop-color="#9946EC"/>
<stop offset="1" stop-color="#BA82F2"/>
</linearGradient>
<linearGradient id="paint8_linear_1835_59666" x1="729.5" y1="13" x2="729.5" y2="48" gradientUnits="userSpaceOnUse">
<stop stop-color="#92B6F4"/>
<stop offset="1" stop-color="#278CF2"/>
</linearGradient>
<linearGradient id="paint9_linear_1835_59666" x1="829.667" y1="-34.8694" x2="829.667" y2="143.851" gradientUnits="userSpaceOnUse">
<stop offset="0.3" stop-color="#61D9B1"/>
<stop offset="0.46" stop-color="#0D9B80"/>
</linearGradient>
<linearGradient id="paint10_linear_1835_59666" x1="927.6" y1="46.0002" x2="927.6" y2="18.8007" gradientUnits="userSpaceOnUse">
<stop stop-color="#3369FF"/>
<stop offset="1" stop-color="#668FFF"/>
</linearGradient>
<linearGradient id="paint11_linear_1835_59666" x1="10" y1="114" x2="38.5" y2="142.5" gradientUnits="userSpaceOnUse">
<stop stop-color="#FFAF2E"/>
<stop offset="1" stop-color="#FB9C04"/>
</linearGradient>
<linearGradient id="paint12_linear_1835_59666" x1="130.5" y1="113" x2="130.5" y2="146.478" gradientUnits="userSpaceOnUse">
<stop stop-color="#61D9B1"/>
<stop offset="1" stop-color="#12A188"/>
</linearGradient>
<linearGradient id="paint13_linear_1835_59666" x1="234.023" y1="145.754" x2="234.023" y2="112.998" gradientUnits="userSpaceOnUse">
<stop stop-color="#3369FF"/>
<stop offset="1" stop-color="#668FFF"/>
</linearGradient>
<linearGradient id="paint14_linear_1835_59666" x1="226.15" y1="120.627" x2="226.15" y2="147.8" gradientUnits="userSpaceOnUse">
<stop stop-color="#3369FF"/>
<stop offset="1" stop-color="#0046E2"/>
</linearGradient>
<clipPath id="clip0_1835_59666">
<rect width="60" height="60" fill="white" transform="translate(300)"/>
</clipPath>
<clipPath id="clip1_1835_59666">
<rect width="60" height="60" fill="white" transform="translate(400)"/>
</clipPath>
<clipPath id="clip2_1835_59666">
<rect width="60" height="60" fill="white" transform="translate(500)"/>
</clipPath>
<clipPath id="clip3_1835_59666">
<rect width="60" height="60" fill="white" transform="translate(600)"/>
</clipPath>
<clipPath id="clip4_1835_59666">
<rect width="60" height="60" fill="white" transform="translate(700)"/>
</clipPath>
<clipPath id="clip5_1835_59666">
<rect width="60" height="60" fill="white" transform="translate(800)"/>
</clipPath>
<clipPath id="clip6_1835_59666">
<rect width="60" height="60" fill="white" transform="translate(900)"/>
</clipPath>
<clipPath id="clip7_1835_59666">
<rect width="60" height="60" fill="white" transform="translate(0 100)"/>
</clipPath>
<clipPath id="clip8_1835_59666">
<rect width="60" height="60" fill="white" transform="translate(100 100)"/>
</clipPath>
<clipPath id="clip9_1835_59666">
<rect width="60" height="60" fill="white" transform="translate(200 100)"/>
</clipPath>
</defs>
</svg>
