<svg width="1164" height="320" viewBox="0 0 1164 320" fill="none" xmlns="http://www.w3.org/2000/svg">
<g id="80*80">
<g id="Frame 1261158515" clip-path="url(#clip0_1835_58947)">
<path id="Vector" d="M50.9091 0H29.0909C13.0244 0 0 13.0244 0 29.0909V50.9091C0 66.9756 13.0244 80 29.0909 80H50.9091C66.9756 80 80 66.9756 80 50.9091V29.0909C80 13.0244 66.9756 0 50.9091 0Z" fill="#F6F7F8"/>
<g id="Clip path group">
<mask id="mask0_1835_58947" style="mask-type:luminance" maskUnits="userSpaceOnUse" x="20" y="20" width="40" height="40">
<g id="clip28_11124_105591">
<path id="Vector_2" d="M60 20H20V59.75H60V20Z" fill="white"/>
</g>
</mask>
<g mask="url(#mask0_1835_58947)">
<g id="Group">
<path id="Vector_3" d="M46.9167 28.0827H30V34.7494C30 36.5827 28.5 38.0827 26.6667 38.0827H20V54.9994C20 57.616 22.1333 59.7494 24.75 59.7494H46.9167C49.5333 59.7494 51.6667 57.616 51.6667 54.9994V32.8327C51.6667 30.216 49.5333 28.0827 46.9167 28.0827Z" fill="white"/>
<path id="Vector_4" d="M28.334 51.6667H43.334" stroke="#CCDBE4" stroke-width="1.8" stroke-linecap="round" stroke-linejoin="round"/>
<path id="Vector_5" d="M30 34.7494V28.0827L20 38.0827H26.6667C28.5 38.0827 30 36.5827 30 34.7494Z" fill="#FFCD39"/>
<path id="Vector_6" d="M50.232 24.8833C49.8986 24.55 49.382 24.55 49.0486 24.8833L37.0986 36.8334C36.7653 37.1667 36.7653 37.6833 37.0986 38.0167L41.982 42.9C42.3153 43.2334 42.832 43.2334 43.1653 42.9L55.1153 30.95C55.4486 30.6167 55.4486 30.1 55.1153 29.7667L50.232 24.8833ZM59.7653 25.1167L54.8653 20.25C54.532 19.9167 54.0153 19.9167 53.682 20.25L51.232 22.7C50.8986 23.0333 50.8986 23.55 51.232 23.8833L56.1153 28.7667C56.4486 29.1 56.9653 29.1 57.2986 28.7667L59.7486 26.3167C60.082 25.9833 60.082 25.4667 59.7486 25.1333L59.7653 25.1167ZM38.532 41.4667L36.5153 39.45C36.0653 39 35.282 39.2 35.1153 39.8167L34.382 42.5667L33.6486 45.3167C33.482 45.9333 34.0486 46.5 34.6653 46.3333L37.4153 45.6L40.1653 44.8667C40.782 44.7 40.9986 43.9333 40.532 43.4667L38.5153 41.45L38.532 41.4667Z" fill="url(#paint0_linear_1835_58947)"/>
</g>
</g>
</g>
</g>
<g id="Group 1261157317">
<path id="Vector_7" d="M170.909 0H149.091C133.024 0 120 13.0244 120 29.0909V50.9091C120 66.9756 133.024 80 149.091 80H170.909C186.976 80 200 66.9756 200 50.9091V29.0909C200 13.0244 186.976 0 170.909 0Z" fill="#F6F7F8"/>
<g id="Clip path group_2">
<mask id="mask1_1835_58947" style="mask-type:luminance" maskUnits="userSpaceOnUse" x="138" y="18" width="44" height="44">
<g id="clip5_11124_105591">
<path id="Vector_8" d="M181.818 18.1818H138.182V61.8182H181.818V18.1818Z" fill="white"/>
</g>
</mask>
<g mask="url(#mask1_1835_58947)">
<g id="Group_2">
<path id="Vector_9" d="M167.273 18.1818H152.727L138.182 32.7273V50.9091C138.182 52.9091 139.818 54.5455 141.818 54.5455H167.273C169.273 54.5455 170.909 52.9091 170.909 50.9091V21.8182C170.909 19.8182 169.273 18.1818 167.273 18.1818Z" fill="url(#paint1_linear_1835_58947)"/>
<path id="Vector_10" d="M152.727 18.1818L138.182 32.7273H147.873C150.545 32.7273 152.727 30.5636 152.727 27.8727V18.1818Z" fill="#92B6F4"/>
<path id="Vector_11" d="M181.417 59.5265L176.599 54.7083C180.927 49.4174 180.636 41.5992 175.69 36.6719C170.436 31.4174 161.908 31.4174 156.654 36.6719C151.399 41.9265 151.399 50.4537 156.654 55.7083C161.599 60.6356 169.399 60.9447 174.69 56.6174L179.508 61.4356C180.036 61.9628 180.89 61.9628 181.399 61.4356C181.927 60.9083 181.927 60.0538 181.399 59.5265H181.417Z" fill="url(#paint2_linear_1835_58947)"/>
<path id="Vector_12" d="M160.727 45.5457L164.545 49.6366L171.636 42.7275" stroke="white" stroke-width="1.5" stroke-linecap="round" stroke-linejoin="round"/>
</g>
</g>
</g>
</g>
<g id="Group 1261157334">
<path id="Vector_13" d="M290.909 0H269.091C253.024 0 240 13.0244 240 29.0909V50.9091C240 66.9756 253.024 80 269.091 80H290.909C306.976 80 320 66.9756 320 50.9091V29.0909C320 13.0244 306.976 0 290.909 0Z" fill="#F6F7F8"/>
<path id="Vector_14" d="M262.746 35.3292L279.309 25.9656C279.727 25.7292 280.255 25.7292 280.691 25.9656L297.255 35.3111C297.818 35.6383 298.182 36.2383 298.182 36.8929V54.5292C298.182 55.5292 297.364 56.3474 296.364 56.3474H263.637C262.637 56.3474 261.818 55.5292 261.818 54.5292V36.8929C261.818 36.2383 262.164 35.6383 262.746 35.3111V35.3292Z" fill="#740ADD"/>
<path id="Vector_15" d="M292.054 20H267.945C265.996 20 264.418 21.58 264.418 23.5273V43.7455C264.418 45.6927 265.996 47.2727 267.945 47.2727H292.054C294.002 47.2727 295.582 45.6927 295.582 43.7455V23.5273C295.582 21.58 294.002 20 292.054 20Z" fill="url(#paint3_linear_1835_58947)"/>
<path id="Vector_16" d="M261.818 38.1818L279.637 47.2727L298.182 39.0909V58.1818C298.182 59.1818 297.364 60 296.364 60H263.637C262.637 60 261.818 59.1818 261.818 58.1818V38.1818Z" fill="url(#paint4_linear_1835_58947)"/>
<path id="Vector_17" d="M270.908 29.6165H289.09" stroke="white" stroke-width="2" stroke-linecap="round" stroke-linejoin="round"/>
<path id="Vector_18" d="M270.908 35.9872H289.09" stroke="white" stroke-width="2" stroke-linecap="round" stroke-linejoin="round"/>
</g>
<g id="Group 1261157288">
<path id="Vector_19" d="M410.909 0H389.091C373.024 0 360 13.0244 360 29.0909V50.9091C360 66.9756 373.024 80 389.091 80H410.909C426.976 80 440 66.9756 440 50.9091V29.0909C440 13.0244 426.976 0 410.909 0Z" fill="#F6F7F8"/>
<g id="Clip path group_3">
<mask id="mask2_1835_58947" style="mask-type:luminance" maskUnits="userSpaceOnUse" x="380" y="18" width="40" height="44">
<g id="clip7_11124_105591">
<path id="Vector_20" d="M420 18.1783H380V61.8146H420V18.1783Z" fill="white"/>
</g>
</mask>
<g mask="url(#mask2_1835_58947)">
<g id="Group_3">
<path id="Vector_21" d="M410.909 18.1783H383.637V32.7237H387.273V61.8146L390 59.9965L391.728 58.851C392.346 58.451 393.128 58.451 393.746 58.851L395.473 59.9965L397.2 61.1419C397.819 61.5419 398.6 61.5419 399.219 61.1419L400.946 59.9965L402.673 58.851C403.291 58.451 404.073 58.451 404.691 58.851L406.419 59.9965L408.146 61.1419C408.764 61.5419 409.546 61.5419 410.164 61.1419L411.891 59.9965L413.619 58.851C414.237 58.451 415.019 58.451 415.637 58.851L417.364 59.9965L420.091 61.8146V27.2692C420.091 22.251 416.019 18.1783 411 18.1783H410.909Z" fill="url(#paint5_linear_1835_58947)"/>
<path id="Vector_22" d="M383.636 18.1783C385.636 18.1783 387.273 19.8146 387.273 21.8146V32.7237H381.818C380.818 32.7237 380 31.9056 380 30.9056V21.8146C380 19.8146 381.636 18.1783 383.636 18.1783Z" fill="url(#paint6_linear_1835_58947)"/>
<path id="Vector_23" d="M396.363 44.6484H410.909" stroke="white" stroke-width="1.2" stroke-linecap="round" stroke-linejoin="round"/>
<path id="Vector_24" d="M398.363 30.3942L401 36.5033L403.636 31.7214" stroke="white" stroke-width="1.2" stroke-linecap="round" stroke-linejoin="round"/>
<path id="Vector_25" d="M408.909 30.3942L406.273 36.5033L403.637 31.7214" stroke="white" stroke-width="1.2" stroke-linecap="round" stroke-linejoin="round"/>
<path id="Vector_26" d="M397.273 33.015H399.473" stroke="white" stroke-width="1.2" stroke-linecap="round" stroke-linejoin="round"/>
<path id="Vector_27" d="M407.801 33.015H410.001" stroke="white" stroke-width="1.2" stroke-linecap="round" stroke-linejoin="round"/>
</g>
</g>
</g>
</g>
<g id="Group 1261157289">
<path id="Vector_28" d="M530.909 0H509.091C493.024 0 480 13.0244 480 29.0909V50.9091C480 66.9756 493.024 80 509.091 80H530.909C546.976 80 560 66.9756 560 50.9091V29.0909C560 13.0244 546.976 0 530.909 0Z" fill="#F6F7F8"/>
<g id="Clip path group_4">
<mask id="mask3_1835_58947" style="mask-type:luminance" maskUnits="userSpaceOnUse" x="498" y="20" width="44" height="41">
<g id="clip6_11124_105591">
<path id="Vector_29" d="M541.818 20H498.182V60.1091H541.818V20Z" fill="white"/>
</g>
</mask>
<g mask="url(#mask3_1835_58947)">
<g id="Group_4">
<path id="Vector_30" d="M534.545 25.5611H505.454C501.438 25.5611 498.182 28.8175 498.182 32.8338V52.8338C498.182 56.8502 501.438 60.1066 505.454 60.1066H534.545C538.562 60.1066 541.818 56.8502 541.818 52.8338V32.8338C541.818 28.8175 538.562 25.5611 534.545 25.5611Z" fill="url(#paint7_linear_1835_58947)"/>
<path id="Vector_31" d="M519.999 50.1066C525.02 50.1066 529.09 46.0357 529.09 41.0157C529.09 35.9957 525.02 31.9247 519.999 31.9247C514.978 31.9247 510.908 35.9957 510.908 41.0157C510.908 46.0357 514.978 50.1066 519.999 50.1066Z" fill="white"/>
<g id="Mask group">
<mask id="mask4_1835_58947" style="mask-type:luminance" maskUnits="userSpaceOnUse" x="510" y="31" width="20" height="20">
<g id="Group_5">
<path id="Vector_32" d="M519.999 50.1044C525.02 50.1044 529.09 46.0335 529.09 41.0135C529.09 35.9935 525.02 31.9226 519.999 31.9226C514.978 31.9226 510.908 35.9935 510.908 41.0135C510.908 46.0335 514.978 50.1044 519.999 50.1044Z" fill="white"/>
</g>
</mask>
<g mask="url(#mask4_1835_58947)">
<g id="Group_6">
<path id="Vector_33" d="M519.998 41.23C521.943 41.23 523.525 39.6482 523.525 37.7028C523.525 35.7573 521.943 34.1755 519.998 34.1755C518.052 34.1755 516.471 35.7573 516.471 37.7028C516.471 39.6482 518.052 41.23 519.998 41.23ZM521.871 42.1755H518.125C515.652 42.1755 513.652 44.1755 513.652 46.6482V49.2118C513.652 49.7028 514.052 50.1027 514.543 50.1027H525.434C525.925 50.1027 526.325 49.7028 526.325 49.2118V46.6482C526.325 44.1755 524.325 42.1937 521.871 42.1937V42.1755Z" fill="#A256EE"/>
</g>
</g>
</g>
<path id="Vector_34" d="M512.727 53.7429H527.272" stroke="white" stroke-width="1.2" stroke-linecap="round" stroke-linejoin="round"/>
<path id="Vector_35" d="M516.364 21.8182V26.5273C516.364 27.0182 516.564 27.4727 516.891 27.8182L518.182 29.1091L518.709 29.6364C519.418 30.3455 520.564 30.3455 521.273 29.6364L521.8 29.1091L523.091 27.8182C523.437 27.4727 523.618 27.0182 523.618 26.5273V21.8182C523.618 20.8182 522.8 20 521.8 20H518.164C517.164 20 516.346 20.8182 516.346 21.8182H516.364Z" fill="#A256EE"/>
</g>
</g>
</g>
</g>
<g id="Group 1261157291">
<path id="Vector_36" d="M650.909 0H629.091C613.024 0 600 13.0244 600 29.0909V50.9091C600 66.9756 613.024 80 629.091 80H650.909C666.976 80 680 66.9756 680 50.9091V29.0909C680 13.0244 666.976 0 650.909 0Z" fill="#F6F7F8"/>
<g id="Clip path group_5">
<mask id="mask5_1835_58947" style="mask-type:luminance" maskUnits="userSpaceOnUse" x="620" y="18" width="40" height="44">
<g id="clip4_11124_105591">
<path id="Vector_37" d="M660 18.1783H620V61.8146H660V18.1783Z" fill="white"/>
</g>
</mask>
<g mask="url(#mask5_1835_58947)">
<g id="Group_7">
<path id="Vector_38" d="M639.999 18.1783H646.145C647.49 18.1783 648.381 19.5965 647.763 20.8146L644.527 27.2692L641.599 33.1056C640.927 34.451 639.017 34.451 638.345 33.1056L635.417 27.2692L632.181 20.8146C631.581 19.6146 632.454 18.1783 633.799 18.1783H639.945H639.999Z" fill="#23B599"/>
<path id="Vector_39" d="M658.508 42.251C656.581 33.4874 648.89 27.2692 639.999 27.2692C631.108 27.2692 623.418 33.5055 621.49 42.251L620.272 47.7964C618.69 54.9964 624.108 61.8146 631.399 61.8146H639.999H648.599C655.89 61.8146 661.308 54.9964 659.727 47.7964L658.508 42.251Z" fill="url(#paint8_linear_1835_58947)"/>
<path id="Vector_40" d="M645.563 25.451H634.436C633.492 25.451 632.727 26.2164 632.727 27.1601V27.3783C632.727 28.3219 633.492 29.0874 634.436 29.0874H645.563C646.507 29.0874 647.272 28.3219 647.272 27.3783V27.1601C647.272 26.2164 646.507 25.451 645.563 25.451Z" fill="#0C8E75"/>
<path id="Vector_41" d="M632.471 40.1812L636.234 48.9084L639.998 42.072" stroke="white" stroke-width="1.5" stroke-linecap="round" stroke-linejoin="round"/>
<path id="Vector_42" d="M647.527 40.1812L643.764 48.9084L640 42.072" stroke="white" stroke-width="1.5" stroke-linecap="round" stroke-linejoin="round"/>
<path id="Vector_43" d="M630.908 43.924H634.035" stroke="white" stroke-width="1.5" stroke-linecap="round" stroke-linejoin="round"/>
<path id="Vector_44" d="M645.963 43.924H649.09" stroke="white" stroke-width="1.5" stroke-linecap="round" stroke-linejoin="round"/>
</g>
</g>
</g>
</g>
<g id="Group 1261158518">
<path id="Vector_45" d="M770.909 0H749.091C733.024 0 720 13.0244 720 29.0909V50.9091C720 66.9756 733.024 80 749.091 80H770.909C786.976 80 800 66.9756 800 50.9091V29.0909C800 13.0244 786.976 0 770.909 0Z" fill="#F6F7F8"/>
<g id="Group_8">
<path id="Vector_46" d="M765.535 20H754.452V28.3335C754.452 31.1002 752.184 33.3335 749.376 33.3335H741V51.6671C741 54.4338 743.267 56.6672 746.076 56.6672H765.535C768.343 56.6672 770.611 54.4338 770.611 51.6671V25.0001C770.611 22.2334 768.343 20 765.535 20Z" fill="white"/>
<path id="Vector_47" d="M747.346 31.8008H757.498" stroke="#CCDBE4" stroke-width="1.8" stroke-linecap="round" stroke-linejoin="round"/>
<path id="Vector_48" d="M747.346 37.3164H764.266" stroke="#CCDBE4" stroke-width="1.8" stroke-linecap="round" stroke-linejoin="round"/>
<path id="Vector_49" d="M747.346 42.832H764.266" stroke="#CCDBE4" stroke-width="1.8" stroke-linecap="round" stroke-linejoin="round"/>
<path id="Vector_50" d="M779.686 58.111L775.678 54.1626C779.277 49.8258 779.035 43.4191 774.921 39.3824C770.549 35.0757 763.454 35.0757 759.084 39.3824C754.712 43.6875 754.712 50.6759 759.084 54.9826C763.197 59.0193 769.688 59.2727 774.089 55.7276L778.097 59.676C778.536 60.1077 779.246 60.1077 779.671 59.676C780.109 59.2427 780.109 58.5427 779.671 58.111H779.686Z" fill="#A256EE"/>
<path id="Vector_51" d="M754.452 28.3335V20L741 33.2502V33.3335H749.376C752.184 33.3335 754.452 31.1002 754.452 28.3335Z" fill="url(#paint9_linear_1835_58947)"/>
<path id="Vector_52" d="M754.452 28.3335V20L741 33.2502V33.3335H749.376C752.184 33.3335 754.452 31.1002 754.452 28.3335Z" fill="#B274EF"/>
<path id="Vector_53" d="M767.073 48.2891C764.102 48.2891 761.756 50.9808 760.975 52.3458C765.978 56.3775 771.252 54.0125 773.354 52.3325C772.426 50.9675 770.044 48.2891 767.073 48.2891Z" fill="white"/>
<path id="Vector_54" d="M767.15 46.1851C768.886 46.1851 770.289 44.8034 770.289 43.0917C770.289 41.3817 768.886 40 767.15 40C765.413 40 764.01 41.3817 764.01 43.0917C764.01 44.8034 765.413 46.1851 767.15 46.1851ZM768.406 47.2151H765.895C763.122 47.2151 760.871 49.4318 760.871 52.1635C760.871 52.2769 760.964 52.3702 761.081 52.3702H773.22C773.335 52.3702 773.429 52.2769 773.429 52.1635C773.429 49.4318 771.179 47.2151 768.406 47.2151Z" fill="white"/>
</g>
</g>
<g id="Group 1261158519">
<path id="Vector_55" d="M890.909 0H869.091C853.024 0 840 13.0244 840 29.0909V50.9091C840 66.9756 853.024 80 869.091 80H890.909C906.976 80 920 66.9756 920 50.9091V29.0909C920 13.0244 906.976 0 890.909 0Z" fill="#F6F7F8"/>
<g id="Group 1261158517">
<path id="Vector_56" fill-rule="evenodd" clip-rule="evenodd" d="M869.534 35.4737C872.285 35.4737 874.516 33.3526 874.516 30.7368C874.516 28.1211 872.285 26 869.534 26C866.781 26 864.55 28.1211 864.55 30.7368C864.55 33.3526 866.781 35.4737 869.534 35.4737ZM867.52 36.5263C863.145 36.5263 859.6 39.92 859.6 44.1053C859.6 45.1516 860.486 46 861.58 46H877.421C878.515 46 879.401 45.1516 879.401 44.1053C879.401 39.92 875.856 36.5263 871.481 36.5263H867.52Z" fill="url(#paint10_linear_1835_58947)"/>
<path id="Vector_57" d="M883.748 40C888.133 40 891.673 36.4267 891.673 32C891.673 27.5733 888.133 24 883.748 24C879.362 24 875.822 27.5733 875.822 32C875.822 36.4267 879.362 40 883.748 40ZM886.918 42.6667H880.577C873.577 42.6667 867.896 48.4 867.896 55.4666C867.896 55.76 868.134 56 868.425 56H899.07C899.361 56 899.599 55.76 899.599 55.4666C899.599 48.4 893.919 42.6667 886.918 42.6667Z" fill="url(#paint11_linear_1835_58947)"/>
</g>
</g>
<g id="Group 1261158520">
<path id="Vector_58" d="M1010.91 0H989.091C973.024 0 960 13.0244 960 29.0909V50.9091C960 66.9756 973.024 80 989.091 80H1010.91C1026.98 80 1040 66.9756 1040 50.9091V29.0909C1040 13.0244 1026.98 0 1010.91 0Z" fill="#F6F7F8"/>
<g id="Group 1261158516">
<path id="Vector_59" fill-rule="evenodd" clip-rule="evenodd" d="M997.094 37.1429C1001.92 37.1429 1005.83 33.3053 1005.83 28.5714C1005.83 23.8376 1001.92 20 997.094 20C992.266 20 988.353 23.8376 988.353 28.5714C988.353 33.3053 992.266 37.1429 997.094 37.1429ZM989.931 40C985.659 40 982.012 43.0293 981.309 47.1623L980.461 52.1526C980.017 54.7649 982.072 57.1429 984.771 57.1429H1009.42C1012.12 57.1429 1014.17 54.7649 1013.73 52.1526L1012.88 47.1623C1012.18 43.0293 1008.53 40 1004.26 40H989.931Z" fill="url(#paint12_linear_1835_58947)"/>
<path id="Vector_60" d="M1010.2 60C1015.83 60 1020.4 55.5229 1020.4 50C1020.4 44.4771 1015.83 40 1010.2 40C1004.57 40 1000.01 44.4771 1000.01 50C1000.01 55.5229 1004.57 60 1010.2 60Z" fill="url(#paint13_linear_1835_58947)"/>
<path id="Vector_61" d="M1005.83 49.4994L1008.89 52.7137L1014.57 47.2852" stroke="white" stroke-width="1.8" stroke-linecap="round" stroke-linejoin="round"/>
</g>
</g>
<g id="Group 1261158521">
<path id="Vector_62" d="M1130.91 0H1109.09C1093.02 0 1080 13.0244 1080 29.0909V50.9091C1080 66.9756 1093.02 80 1109.09 80H1130.91C1146.98 80 1160 66.9756 1160 50.9091V29.0909C1160 13.0244 1146.98 0 1130.91 0Z" fill="#F6F7F8"/>
<g id="Group 1261157343">
<path id="Vector_63" opacity="0.5" d="M1127.89 20H1106.35C1102.95 20 1100.2 22.7553 1100.2 26.1542V53.848C1100.2 57.2468 1102.95 60.0021 1106.35 60.0021H1127.89C1131.29 60.0021 1134.05 57.2468 1134.05 53.848V26.1542C1134.05 22.7553 1131.29 20 1127.89 20Z" fill="#FBD11C"/>
<path id="Vector_64" d="M1127.89 52.3094H1137.12V54.9511C1137.12 57.7405 1134.86 60.0022 1132.07 60.0022C1129.76 60.0022 1127.89 58.1313 1127.89 55.8219V52.3094Z" fill="#F9CA00"/>
<path id="Vector_65" d="M1125.2 32.3083H1109.05C1108.41 32.3083 1107.89 32.825 1107.89 33.4623C1107.89 34.0995 1108.41 34.6162 1109.05 34.6162H1125.2C1125.84 34.6162 1126.36 34.0995 1126.36 33.4623C1126.36 32.825 1125.84 32.3083 1125.2 32.3083Z" fill="white" fill-opacity="0.5"/>
<path id="Vector_66" d="M1125.2 40.7703H1109.05C1108.41 40.7703 1107.89 41.2869 1107.89 41.9242C1107.89 42.5615 1108.41 43.0781 1109.05 43.0781H1125.2C1125.84 43.0781 1126.36 42.5615 1126.36 41.9242C1126.36 41.2869 1125.84 40.7703 1125.2 40.7703Z" fill="white" fill-opacity="0.5"/>
<path id="Vector_67" fill-rule="evenodd" clip-rule="evenodd" d="M1106.35 59.9483V60.0022H1132.51V52.3094H1110.97V54.6173C1110.97 57.3313 1108.96 59.5744 1106.35 59.9483Z" fill="#F9CA00"/>
<path id="Vector_68" d="M1129.43 47.6962C1127.3 47.6962 1125.22 47.0654 1123.45 45.8822C1121.68 44.6975 1120.29 43.0159 1119.48 41.0481C1118.66 39.0803 1118.45 36.9156 1118.87 34.8262C1119.28 32.7369 1120.31 30.8183 1121.82 29.3121C1123.32 27.8059 1125.24 26.7796 1127.33 26.3642C1129.42 25.9488 1131.58 26.1612 1133.55 26.9766C1135.52 27.792 1137.2 29.1721 1138.39 30.943C1139.57 32.7138 1140.2 34.797 1140.2 36.9264C1140.2 39.7819 1139.06 42.519 1137.04 44.5391C1135.02 46.5577 1132.28 47.6931 1129.43 47.6962Z" fill="#FD993D"/>
<g id="Group_9" filter="url(#filter0_d_1835_58947)">
<path id="Vector_69" fill-rule="evenodd" clip-rule="evenodd" d="M1123.79 33.8405C1124.36 33.5558 1125.05 33.7866 1125.34 34.3559L1126.98 37.6437L1128.45 35.2867C1128.66 34.9482 1129.03 34.7436 1129.43 34.7436C1129.83 34.7436 1130.2 34.9482 1130.41 35.2867L1131.88 37.6437L1133.53 34.3559C1133.81 33.7866 1134.51 33.5558 1135.08 33.8405C1135.65 34.1251 1135.88 34.819 1135.59 35.3883L1135.06 36.4545H1135.07C1135.71 36.4545 1136.23 36.9699 1136.23 37.6084C1136.23 38.2453 1135.71 38.7623 1135.07 38.7623H1133.91L1133.03 40.5162C1132.84 40.8901 1132.47 41.1332 1132.05 41.1532C1131.63 41.1732 1131.24 40.9655 1131.02 40.6116L1129.43 38.0745L1127.85 40.6116C1127.63 40.9655 1127.23 41.1732 1126.81 41.1532C1126.4 41.1332 1126.02 40.8901 1125.84 40.5162L1124.96 38.7623H1123.79C1123.15 38.7623 1122.64 38.2453 1122.64 37.6084C1122.64 36.9699 1123.15 36.4545 1123.79 36.4545H1123.8L1123.27 35.3883C1122.99 34.819 1123.22 34.1251 1123.79 33.8405Z" fill="white"/>
</g>
</g>
</g>
<g id="Group 1261158522">
<path id="Vector_70" d="M50.9091 120H29.0909C13.0244 120 0 133.024 0 149.091V170.909C0 186.976 13.0244 200 29.0909 200H50.9091C66.9756 200 80 186.976 80 170.909V149.091C80 133.024 66.9756 120 50.9091 120Z" fill="#F6F7F8"/>
<g id="Group 1261157337">
<path id="Vector_71" d="M24.0254 170.561C24.0254 170.198 24.3111 169.906 24.6654 169.906H27.3411C27.6954 169.906 27.9811 170.198 27.9811 170.561V177.346C27.9811 177.707 27.6954 178.001 27.3411 178.001H24.6654C24.3111 178.001 24.0254 177.707 24.0254 177.346V170.561Z" fill="#384C96"/>
<path id="Vector_72" d="M52.0195 170.561C52.0195 170.198 52.3067 169.906 52.6595 169.906H55.3367C55.6895 169.906 55.9767 170.198 55.9767 170.561V177.346C55.9767 177.707 55.6895 178.001 55.3367 178.001H52.6595C52.3067 178.001 52.0195 177.707 52.0195 177.346V170.561Z" fill="#384C96"/>
<path id="Vector_73" d="M44.4514 142H35.5548C34.2733 142 33.2344 143.063 33.2344 144.374V147.701C33.2344 149.012 34.2733 150.075 35.5548 150.075H44.4514C45.733 150.075 46.7718 149.012 46.7718 147.701V144.374C46.7718 143.063 45.733 142 44.4514 142Z" stroke="#384C96" stroke-width="1.86229"/>
<g id="Clip path group_6">
<mask id="mask6_1835_58947" style="mask-type:luminance" maskUnits="userSpaceOnUse" x="20" y="146" width="40" height="30">
<g id="clip38_11124_105591">
<path id="Vector_74" d="M55.2 146.107H24.8C22.149 146.107 20 148.305 20 151.017V170.658C20 173.37 22.149 175.568 24.8 175.568H55.2C57.851 175.568 60 173.37 60 170.658V151.017C60 148.305 57.851 146.107 55.2 146.107Z" fill="white"/>
</g>
</mask>
<g mask="url(#mask6_1835_58947)">
<g id="Group_10">
<path id="Vector_75" d="M20 147.416C20 146.512 20.7157 145.779 21.6 145.779H58.4C59.2843 145.779 60 146.512 60 147.416V171.744C60 173.999 58.2129 175.826 56.01 175.826H23.99C21.7871 175.826 20 173.999 20 171.744V147.416Z" fill="url(#paint14_linear_1835_58947)"/>
<g id="Group_11" style="mix-blend-mode:multiply">
<path id="Vector_76" d="M20 147.417C20 146.513 20.7157 145.78 21.6 145.78H58.4C59.2843 145.78 60 146.513 60 147.417V157.16C60 159.415 58.2129 161.242 56.01 161.242H23.99C21.7871 161.242 20 159.415 20 157.16V147.417Z" fill="url(#paint15_linear_1835_58947)"/>
</g>
</g>
</g>
</g>
</g>
</g>
<g id="Group 1261157318">
<path id="Vector_77" d="M170.909 120H149.091C133.024 120 120 133.024 120 149.091V170.909C120 186.976 133.024 200 149.091 200H170.909C186.976 200 200 186.976 200 170.909V149.091C200 133.024 186.976 120 170.909 120Z" fill="#F6F7F8"/>
<g id="Clip path group_7">
<mask id="mask7_1835_58947" style="mask-type:luminance" maskUnits="userSpaceOnUse" x="141" y="138" width="37" height="44">
<g id="clip33_11124_105591">
<path id="Vector_78" d="M177.273 138.182H141.818V181.636H177.273V138.182Z" fill="white"/>
</g>
</mask>
<g mask="url(#mask7_1835_58947)">
<g id="Group_12">
<path id="Vector_79" d="M146.764 141.637H159.091C167.127 141.637 173.637 148.146 173.637 156.183V176.692C173.637 179.419 171.418 181.637 168.691 181.637H146.764C144.037 181.637 141.818 179.419 141.818 176.692V146.583C141.818 143.855 144.037 141.637 146.764 141.637Z" fill="#0C8E75"/>
<path id="Vector_80" d="M150.91 138.182H162.819V147.273C162.819 150.291 165.255 152.727 168.273 152.727H177.273V172.727C177.273 175.746 174.837 178.182 171.819 178.182H150.91C147.891 178.182 145.455 175.746 145.455 172.727V143.637C145.455 140.618 147.891 138.182 150.91 138.182Z" fill="url(#paint16_linear_1835_58947)"/>
<path id="Vector_81" opacity="0.3" d="M161.364 169.091C167.389 169.091 172.273 164.207 172.273 158.182C172.273 152.157 167.389 147.273 161.364 147.273C155.339 147.273 150.455 152.157 150.455 158.182C150.455 164.207 155.339 169.091 161.364 169.091Z" fill="white"/>
<path id="Vector_82" d="M155.91 157.545L159.728 161.636L166.819 154.727" stroke="white" stroke-width="2" stroke-linecap="round" stroke-linejoin="round"/>
<path id="Vector_83" d="M162.818 147.273V138.182L177.273 152.637V152.727H168.273C165.255 152.727 162.818 150.291 162.818 147.273Z" fill="#23B599"/>
</g>
</g>
</g>
</g>
<g id="Group 1261157302">
<path id="Vector_84" d="M290.909 120H269.091C253.024 120 240 133.024 240 149.091V170.909C240 186.976 253.024 200 269.091 200H290.909C306.976 200 320 186.976 320 170.909V149.091C320 133.024 306.976 120 290.909 120Z" fill="#F6F7F8"/>
<g id="Group 1000011064">
<path id="Vector_85" d="M295.252 140H262.727C259.212 140 256.363 142.849 256.363 146.364V167.576C256.363 171.09 259.212 173.939 262.727 173.939H295.252C298.767 173.939 301.616 171.09 301.616 167.576V146.364C301.616 142.849 298.767 140 295.252 140Z" fill="url(#paint17_linear_1835_58947)"/>
<path id="Vector_86" d="M268.191 154.536C270.133 154.536 271.722 152.902 271.722 150.904C271.722 148.907 270.133 147.273 268.191 147.273C266.251 147.273 264.662 148.907 264.662 150.904C264.662 152.902 266.251 154.536 268.191 154.536ZM270.113 155.585H266.269C263.798 155.585 261.818 157.644 261.818 160.165V162.729C261.818 163.233 262.211 163.636 262.7 163.636H273.664C274.153 163.636 274.546 163.233 274.546 162.729V160.165C274.546 157.644 272.546 155.585 270.095 155.585H270.113Z" fill="url(#paint18_linear_1835_58947)"/>
<path id="Vector_87" d="M293.182 147.273H279.545C278.792 147.273 278.182 147.883 278.182 148.636C278.182 149.389 278.792 150 279.545 150H293.182C293.935 150 294.545 149.389 294.545 148.636C294.545 147.883 293.935 147.273 293.182 147.273Z" fill="white"/>
<path id="Vector_88" d="M289.545 152.727H279.545C278.792 152.727 278.182 153.338 278.182 154.091C278.182 154.844 278.792 155.455 279.545 155.455H289.545C290.298 155.455 290.909 154.844 290.909 154.091C290.909 153.338 290.298 152.727 289.545 152.727Z" fill="white"/>
<path id="Vector_89" d="M294.546 180C300.571 180 305.455 175.116 305.455 169.091C305.455 163.067 300.571 158.182 294.546 158.182C288.521 158.182 283.637 163.067 283.637 169.091C283.637 175.116 288.521 180 294.546 180Z" fill="url(#paint19_linear_1835_58947)"/>
<path id="Vector_90" d="M289.09 169.091H299.999" stroke="white" stroke-width="2.5" stroke-linecap="round" stroke-linejoin="round"/>
<path id="Vector_91" d="M294.545 174.545V163.636" stroke="white" stroke-width="2.5" stroke-linecap="round" stroke-linejoin="round"/>
</g>
</g>
<g id="Group 1261157304">
<path id="Vector_92" d="M410.909 120H389.091C373.024 120 360 133.024 360 149.091V170.909C360 186.976 373.024 200 389.091 200H410.909C426.976 200 440 186.976 440 170.909V149.091C440 133.024 426.976 120 410.909 120Z" fill="#F6F7F8"/>
<g id="Clip path group_8">
<mask id="mask8_1835_58947" style="mask-type:luminance" maskUnits="userSpaceOnUse" x="378" y="138" width="43" height="44">
<g id="clip29_11124_105591">
<path id="Vector_93" d="M420.091 138.178H378.182V181.815H420.091V138.178Z" fill="white"/>
</g>
</mask>
<g mask="url(#mask8_1835_58947)">
<g id="Group_13">
<path id="Vector_94" d="M404.545 138.178H392.636V147.269C392.636 150.287 390.2 152.724 387.182 152.724H378.182V172.724C378.182 175.742 380.618 178.178 383.636 178.178H404.545C407.563 178.178 410 175.742 410 172.724V143.633C410 140.615 407.563 138.178 404.545 138.178Z" fill="#DCE0E8"/>
<path id="Vector_95" d="M385 151.048H395.909" stroke="#B6BECF" stroke-width="1.2" stroke-linecap="round" stroke-linejoin="round"/>
<path id="Vector_96" d="M385 157.07H403.182" stroke="#B6BECF" stroke-width="1.2" stroke-linecap="round" stroke-linejoin="round"/>
<path id="Vector_97" d="M385 163.086H403.182" stroke="#B6BECF" stroke-width="1.2" stroke-linecap="round" stroke-linejoin="round"/>
<path id="Vector_98" d="M409.29 158.321L401.508 161.303C400.653 161.63 400.09 162.43 400.09 163.321V171.521C400.09 177.721 406.963 180.794 409.308 181.667C409.817 181.848 410.344 181.848 410.854 181.667C413.199 180.794 420.072 177.739 420.072 171.521V163.321C420.072 162.43 419.508 161.63 418.654 161.303L410.872 158.321C410.344 158.121 409.763 158.121 409.253 158.321H409.29Z" fill="url(#paint20_linear_1835_58947)"/>
<path id="Vector_99" d="M404.637 169.363L408.455 173.454L415.546 166.545" stroke="white" stroke-width="2.5" stroke-linecap="round" stroke-linejoin="round"/>
<path id="Vector_100" d="M392.636 147.269V138.178L378.182 152.633V152.724H387.182C390.2 152.724 392.636 150.287 392.636 147.269Z" fill="url(#paint21_linear_1835_58947)"/>
<path id="Vector_101" d="M392.636 147.269V138.178L378.182 152.633V152.724H387.182C390.2 152.724 392.636 150.287 392.636 147.269Z" fill="#A256EE"/>
</g>
</g>
</g>
</g>
<g id="Group 1261157305">
<path id="Vector_102" d="M530.909 120H509.091C493.024 120 480 133.024 480 149.091V170.909C480 186.976 493.024 200 509.091 200H530.909C546.976 200 560 186.976 560 170.909V149.091C560 133.024 546.976 120 530.909 120Z" fill="#F6F7F8"/>
<g id="Group 1000011065">
<path id="Vector_103" d="M533.434 141.816H500.909C497.394 141.816 494.545 144.666 494.545 148.18V169.392C494.545 172.907 497.394 175.756 500.909 175.756H533.434C536.948 175.756 539.797 172.907 539.797 169.392V148.18C539.797 144.666 536.948 141.816 533.434 141.816Z" fill="url(#paint22_linear_1835_58947)"/>
<path id="Vector_104" d="M530.908 139.998C530.908 138.995 530.093 138.18 529.09 138.18C528.086 138.18 527.271 138.995 527.271 139.998V143.635C527.271 144.638 528.086 145.453 529.09 145.453C530.093 145.453 530.908 144.638 530.908 143.635V139.998Z" fill="#FD993D"/>
<path id="Vector_105" d="M507.273 139.998C507.273 138.995 506.459 138.18 505.455 138.18C504.451 138.18 503.637 138.995 503.637 139.998V143.635C503.637 144.638 504.451 145.453 505.455 145.453C506.459 145.453 507.273 144.638 507.273 143.635V139.998Z" fill="#FD993D"/>
<path id="Vector_106" d="M517.281 158.171C519.223 158.171 520.812 156.536 520.812 154.538C520.812 152.542 519.223 150.907 517.281 150.907C515.341 150.907 513.752 152.542 513.752 154.538C513.752 156.536 515.341 158.171 517.281 158.171ZM519.203 159.22H515.359C512.888 159.22 510.908 161.278 510.908 163.8V166.364C510.908 166.867 511.301 167.271 511.79 167.271H522.754C523.243 167.271 523.635 166.867 523.635 166.364V163.8C523.635 161.278 521.635 159.22 519.185 159.22H519.203Z" fill="url(#paint23_linear_1835_58947)"/>
<path id="Vector_107" d="M532.727 181.816C538.752 181.816 543.637 176.933 543.637 170.907C543.637 164.884 538.752 159.998 532.727 159.998C526.703 159.998 521.818 164.884 521.818 170.907C521.818 176.933 526.703 181.816 532.727 181.816Z" fill="url(#paint24_linear_1835_58947)"/>
<path id="5" d="M532.547 177.182C530.022 177.182 528.184 175.712 528.152 173.651H530.805C530.837 174.513 531.604 175.073 532.547 175.073C533.634 175.073 534.417 174.306 534.401 173.187C534.417 172.053 533.618 171.286 532.515 171.286C531.684 171.286 531.141 171.605 530.821 172.228H528.376L528.951 165.453H536.35V167.658H531.189L530.917 170.423H530.997C531.396 169.783 532.291 169.336 533.378 169.336C535.487 169.336 537.037 170.902 537.037 173.107C537.037 175.488 535.232 177.182 532.547 177.182Z" fill="white"/>
</g>
</g>
<g id="Group 1261157306">
<path id="Vector_108" d="M650.909 120H629.091C613.024 120 600 133.024 600 149.091V170.909C600 186.976 613.024 200 629.091 200H650.909C666.976 200 680 186.976 680 170.909V149.091C680 133.024 666.976 120 650.909 120Z" fill="#F6F7F8"/>
<g id="Clip path group_9">
<mask id="mask9_1835_58947" style="mask-type:luminance" maskUnits="userSpaceOnUse" x="618" y="138" width="44" height="44">
<g id="clip14_11124_105591">
<path id="Vector_109" d="M661.818 138.178H618.182V181.815H661.818V138.178Z" fill="white"/>
</g>
</mask>
<g mask="url(#mask9_1835_58947)">
<g id="Group_14">
<path id="Vector_110" d="M650.909 149.087C653.927 149.087 656.363 146.651 656.363 143.633C656.363 140.615 653.927 138.178 650.909 138.178C647.891 138.178 645.454 140.615 645.454 143.633C645.454 146.651 647.891 149.087 650.909 149.087ZM653.091 150.906H648.727C643.909 150.906 640 154.815 640 159.633C640 159.833 640.163 159.996 640.363 159.996H661.454C661.654 159.996 661.818 159.833 661.818 159.633C661.818 154.815 657.909 150.906 653.091 150.906ZM629.091 170.906C632.109 170.906 634.545 168.469 634.545 165.451C634.545 162.433 632.109 159.996 629.091 159.996C626.073 159.996 623.636 162.433 623.636 165.451C623.636 168.469 626.073 170.906 629.091 170.906ZM631.273 172.724H626.909C622.091 172.724 618.182 176.633 618.182 181.451C618.182 181.651 618.345 181.815 618.545 181.815H639.636C639.836 181.815 640 181.651 640 181.451C640 176.633 636.091 172.724 631.273 172.724Z" fill="url(#paint25_linear_1835_58947)"/>
<path id="Vector_111" d="M656.364 165.451V169.087C656.364 173.106 653.11 176.36 649.091 176.36H645.455" stroke="#0D5999" stroke-width="2.5" stroke-linecap="round" stroke-linejoin="round"/>
<path id="Vector_112" d="M623.637 154.542V150.906C623.637 146.887 626.891 143.633 630.909 143.633H634.546" stroke="#0D5999" stroke-width="2.5" stroke-linecap="round" stroke-linejoin="round"/>
</g>
</g>
</g>
</g>
<g id="Group 1261157307">
<path id="Vector_113" d="M770.909 120H749.091C733.024 120 720 133.024 720 149.091V170.909C720 186.976 733.024 200 749.091 200H770.909C786.976 200 800 186.976 800 170.909V149.091C800 133.024 786.976 120 770.909 120Z" fill="#F6F7F8"/>
<g id="Group 1000011066">
<path id="Vector_114" fill-rule="evenodd" clip-rule="evenodd" d="M755.909 154.963C760.51 154.963 764.239 151.206 764.239 146.572C764.239 141.937 760.51 138.18 755.909 138.18C751.308 138.18 747.579 141.937 747.579 146.572C747.579 151.206 751.308 154.963 755.909 154.963ZM749.083 157.76C745.011 157.76 741.536 160.726 740.866 164.773L740.058 169.658C739.634 172.216 741.593 174.544 744.166 174.544H767.653C770.225 174.544 772.184 172.216 771.76 169.658L770.952 164.773C770.282 160.726 766.807 157.76 762.735 157.76H749.083Z" fill="url(#paint26_linear_1835_58947)"/>
<path id="Vector_115" d="M770.909 181.816C776.934 181.816 781.818 176.932 781.818 170.907C781.818 164.882 776.934 159.998 770.909 159.998C764.884 159.998 760 164.882 760 170.907C760 176.932 764.884 181.816 770.909 181.816Z" fill="url(#paint27_linear_1835_58947)"/>
<path id="Vector_116" d="M765.455 170.089L769.273 174.18L776.364 167.271" stroke="white" stroke-width="2.5" stroke-linecap="round" stroke-linejoin="round"/>
</g>
</g>
<g id="Frame 1261158516" clip-path="url(#clip1_1835_58947)">
<path id="Vector_117" d="M890.909 120H869.091C853.024 120 840 133.024 840 149.091V170.909C840 186.976 853.024 200 869.091 200H890.909C906.976 200 920 186.976 920 170.909V149.091C920 133.024 906.976 120 890.909 120Z" fill="#F6F7F8"/>
<g id="Group 1261158515">
<path id="Vector_118" d="M860 151.171C860 146.779 863.326 143.219 867.429 143.219H886C890.102 143.219 893.428 146.779 893.428 151.171V172.048C893.428 176.44 890.102 180 886 180H867.429C863.326 180 860 176.44 860 172.048V151.171Z" fill="url(#paint28_linear_1835_58947)"/>
<path id="Vector_119" fill-rule="evenodd" clip-rule="evenodd" d="M869.287 140C870.056 140 870.68 140.618 870.68 141.379V146.897C870.68 147.658 870.056 148.276 869.287 148.276C868.519 148.276 867.895 147.658 867.895 146.897V141.379C867.895 140.618 868.519 140 869.287 140Z" fill="#0046E2"/>
<path id="Vector_120" fill-rule="evenodd" clip-rule="evenodd" d="M884.143 140C884.912 140 885.536 140.618 885.536 141.379V146.897C885.536 147.658 884.912 148.276 884.143 148.276C883.374 148.276 882.75 147.658 882.75 146.897V141.379C882.75 140.618 883.374 140 884.143 140Z" fill="#0046E2"/>
<path id="Vector_121" d="M893.695 158.832C894.908 157.631 896.876 157.631 898.091 158.832C899.304 160.035 899.304 161.984 898.091 163.185L888.777 172.408C888.553 172.631 888.276 172.793 887.971 172.877L883.891 174.03C883.191 174.227 882.545 173.587 882.743 172.894L883.906 168.853C883.993 168.552 884.157 168.278 884.381 168.055L893.695 158.832Z" fill="url(#paint29_linear_1835_58947)"/>
<path id="Vector_122" d="M869.285 157.932H884.142" stroke="white" stroke-width="1.8" stroke-linecap="round"/>
<path id="Vector_123" d="M869.285 165.289H877.642" stroke="white" stroke-width="1.8" stroke-linecap="round"/>
</g>
</g>
<g id="Group 1261158524">
<path id="Vector_124" d="M1010.91 120H989.091C973.024 120 960 133.024 960 149.091V170.909C960 186.976 973.024 200 989.091 200H1010.91C1026.98 200 1040 186.976 1040 170.909V149.091C1040 133.024 1026.98 120 1010.91 120Z" fill="#F6F7F8"/>
<g id="Group 1261158523">
<g id="Group 1261158525">
<path id="Vector_125" d="M1012 170V145.455C1012 142.442 1009.56 140 1006.55 140H990.182L982 148.182V170C982 173.012 984.442 175.455 987.455 175.455H1006.55C1009.56 175.455 1012 173.012 1012 170Z" fill="url(#paint30_linear_1835_58947)"/>
<path id="Vector_126" d="M990 145.333V140L982 148H987.333C988.807 148 990 146.806 990 145.333Z" fill="#E00E54"/>
<path id="Vector_127" d="M990.285 153.932H1005.14" stroke="white" stroke-width="1.8" stroke-linecap="round"/>
<path id="Vector_128" d="M990.285 161.289H998.642" stroke="white" stroke-width="1.8" stroke-linecap="round"/>
</g>
<g id="Group 1261158524_2">
<path id="Vector_129" d="M1008 179.998C1013.53 179.998 1018 175.521 1018 169.998C1018 164.475 1013.53 159.998 1008 159.998C1002.48 159.998 998.004 164.475 998.004 169.998C998.004 175.521 1002.48 179.998 1008 179.998Z" fill="#E00E54"/>
<path id="Vector_130" d="M1003.72 169.497L1006.72 172.712L1012.29 167.283" stroke="white" stroke-width="1.8" stroke-linecap="round" stroke-linejoin="round"/>
</g>
</g>
</g>
<g id="Group 1261158526">
<path id="Vector_131" d="M1130.91 120H1109.09C1093.02 120 1080 133.024 1080 149.091V170.909C1080 186.976 1093.02 200 1109.09 200H1130.91C1146.98 200 1160 186.976 1160 170.909V149.091C1160 133.024 1146.98 120 1130.91 120Z" fill="#F6F7F8"/>
<g id="Group 1261158526_2">
<g id="Group 1261157344">
<path id="Vector_132" opacity="0.5" d="M1127.14 143H1108.36C1105.4 143 1103 145.402 1103 148.364V172.503C1103 175.465 1105.4 177.867 1108.36 177.867H1127.14C1130.1 177.867 1132.5 175.465 1132.5 172.503V148.364C1132.5 145.402 1130.1 143 1127.14 143Z" fill="#FBD11C"/>
<path id="Vector_133" d="M1127.14 171.162H1135.18V173.464C1135.18 175.896 1133.21 177.867 1130.78 177.867C1128.77 177.867 1127.14 176.236 1127.14 174.223V171.162Z" fill="#F9CA00"/>
<path id="Vector_134" d="M1124.79 153.728H1110.71C1110.16 153.728 1109.71 154.179 1109.71 154.734C1109.71 155.29 1110.16 155.74 1110.71 155.74H1124.79C1125.35 155.74 1125.8 155.29 1125.8 154.734C1125.8 154.179 1125.35 153.728 1124.79 153.728Z" fill="white" fill-opacity="0.5"/>
<path id="Vector_135" d="M1124.79 161.104H1110.71C1110.16 161.104 1109.71 161.554 1109.71 162.11C1109.71 162.665 1110.16 163.116 1110.71 163.116H1124.79C1125.35 163.116 1125.8 162.665 1125.8 162.11C1125.8 161.554 1125.35 161.104 1124.79 161.104Z" fill="white" fill-opacity="0.5"/>
<path id="Vector_136" fill-rule="evenodd" clip-rule="evenodd" d="M1108.36 177.82V177.867H1131.16V171.162H1112.39V173.173C1112.39 175.539 1110.64 177.494 1108.36 177.82Z" fill="#F9CA00"/>
</g>
<path id="Vector_137" d="M1135.14 150.952C1134.87 150.684 1134.46 150.684 1134.19 150.952L1124.58 160.568C1124.31 160.836 1124.31 161.252 1124.58 161.52L1128.5 165.449C1128.77 165.717 1129.19 165.717 1129.46 165.449L1139.07 155.834C1139.34 155.566 1139.34 155.15 1139.07 154.882L1135.14 150.952ZM1142.81 151.14L1138.87 147.224C1138.6 146.956 1138.19 146.956 1137.92 147.224L1135.95 149.196C1135.68 149.464 1135.68 149.88 1135.95 150.148L1139.88 154.077C1140.14 154.345 1140.56 154.345 1140.83 154.077L1142.8 152.106C1143.07 151.837 1143.07 151.422 1142.8 151.154L1142.81 151.14ZM1125.73 164.296L1124.11 162.673C1123.74 162.311 1123.11 162.472 1122.98 162.968L1122.39 165.181L1121.8 167.393C1121.67 167.89 1122.12 168.346 1122.62 168.212L1124.83 167.621L1127.04 167.031C1127.54 166.897 1127.71 166.28 1127.34 165.905L1125.71 164.282L1125.73 164.296Z" fill="url(#paint31_linear_1835_58947)"/>
</g>
</g>
<g id="rewarded_ads">
<mask id="mask10_1835_58947" style="mask-type:alpha" maskUnits="userSpaceOnUse" x="0" y="240" width="80" height="80">
<rect id="Bounding box" y="240" width="80" height="80" fill="url(#paint32_linear_1835_58947)"/>
</mask>
<g mask="url(#mask10_1835_58947)">
<path id="rewarded_ads_2" d="M40 276.917C42.0556 276.917 43.7917 276.208 45.2083 274.792C46.625 273.375 47.3333 271.639 47.3333 269.583C47.3333 267.528 46.625 265.792 45.2083 264.375C43.7917 262.958 42.0556 262.25 40 262.25C37.9444 262.25 36.2083 262.958 34.7917 264.375C33.375 265.792 32.6667 267.528 32.6667 269.583C32.6667 271.639 33.375 273.375 34.7917 274.792C36.2083 276.208 37.9444 276.917 40 276.917ZM24.8333 310V305H37.5V292.667C34.5 292.056 31.8333 290.764 29.5 288.792C27.1667 286.819 25.5556 284.361 24.6667 281.417C20.5556 280.972 17.0833 279.306 14.25 276.417C11.4167 273.528 10 270.056 10 266V262.333C10 260.944 10.4861 259.764 11.4583 258.792C12.4306 257.819 13.6111 257.333 15 257.333H23.6667V250H56.3333V257.333H65C66.3889 257.333 67.5694 257.819 68.5417 258.792C69.5139 259.764 70 260.944 70 262.333V266C70 270.056 68.5833 273.528 65.75 276.417C62.9167 279.306 59.4444 280.972 55.3333 281.417C54.4444 284.361 52.8333 286.819 50.5 288.792C48.1667 290.764 45.5 292.056 42.5 292.667V305H55.1667V310H24.8333ZM23.6667 276.167V262.333H15V266C15 268.5 15.8194 270.681 17.4583 272.542C19.0972 274.403 21.1667 275.611 23.6667 276.167ZM56.3333 276.167C58.8333 275.611 60.9028 274.403 62.5417 272.542C64.1806 270.681 65 268.5 65 266V262.333H56.3333V276.167Z" fill="url(#paint33_linear_1835_58947)"/>
</g>
</g>
<g id="electric_bolt">
<mask id="mask11_1835_58947" style="mask-type:alpha" maskUnits="userSpaceOnUse" x="120" y="240" width="80" height="80">
<rect id="Bounding box_2" x="120" y="240" width="80" height="80" fill="url(#paint34_linear_1835_58947)"/>
</mask>
<g mask="url(#mask11_1835_58947)">
<path id="electric_bolt_2" d="M143.833 313.415L158.083 287.832L130 284.498L171.25 246.582H176.167L161.917 272.165L190 275.498L148.75 313.415H143.833Z" fill="url(#paint35_linear_1835_58947)"/>
</g>
</g>
<g id="award_star">
<mask id="mask12_1835_58947" style="mask-type:alpha" maskUnits="userSpaceOnUse" x="240" y="240" width="80" height="80">
<rect id="Bounding box_3" x="240" y="240" width="80" height="80" fill="url(#paint36_linear_1835_58947)"/>
</mask>
<g mask="url(#mask12_1835_58947)">
<path id="award_star_2" d="M270.251 294.168L280.001 288.252L289.751 294.168L287.168 283.085L295.835 275.585L284.418 274.668L280.001 264.168L275.585 274.668L264.168 275.585L272.835 283.085L270.251 294.168ZM280.085 317.585L268.835 306.668H253.335V291.168L242.168 280.002L253.335 268.835V253.335H268.835L280.085 242.168L291.168 253.335H306.668V268.835L317.835 280.002L306.668 291.168V306.668H291.168L280.085 317.585Z" fill="url(#paint37_linear_1835_58947)"/>
</g>
</g>
<g id="loyalty">
<mask id="mask13_1835_58947" style="mask-type:alpha" maskUnits="userSpaceOnUse" x="360" y="240" width="80" height="80">
<rect id="Bounding box_4" x="360" y="240" width="80" height="80" fill="url(#paint38_linear_1835_58947)"/>
</mask>
<g mask="url(#mask13_1835_58947)">
<path id="loyalty_2" d="M403.666 298.167L415.333 286.5C415.944 285.889 416.388 285.208 416.666 284.458C416.944 283.708 417.083 282.917 417.083 282.083C417.083 280.306 416.458 278.792 415.208 277.542C413.958 276.292 412.444 275.667 410.666 275.667C409.555 275.667 408.444 276.028 407.333 276.75C406.222 277.472 404.999 278.639 403.666 280.25C402.333 278.639 401.11 277.472 399.999 276.75C398.888 276.028 397.777 275.667 396.666 275.667C394.888 275.667 393.374 276.292 392.124 277.542C390.874 278.792 390.249 280.306 390.249 282.083C390.249 282.917 390.388 283.708 390.666 284.458C390.944 285.208 391.388 285.889 391.999 286.5L403.666 298.167ZM406.583 311.917C405.583 312.917 404.374 313.417 402.958 313.417C401.541 313.417 400.333 312.917 399.333 311.917L368.083 280.667C367.527 280.111 367.152 279.528 366.958 278.917C366.763 278.306 366.666 277.667 366.666 277V251.667C366.666 250.222 367.138 249.028 368.083 248.083C369.027 247.139 370.222 246.667 371.666 246.667H396.999C397.666 246.667 398.333 246.764 398.999 246.958C399.666 247.153 400.277 247.528 400.833 248.083L431.916 279.167C432.972 280.222 433.499 281.458 433.499 282.875C433.499 284.292 432.972 285.528 431.916 286.583L406.583 311.917ZM380.416 264.667C381.583 264.667 382.597 264.236 383.458 263.375C384.319 262.514 384.749 261.5 384.749 260.333C384.749 259.167 384.319 258.153 383.458 257.292C382.597 256.431 381.583 256 380.416 256C379.249 256 378.235 256.431 377.374 257.292C376.513 258.153 376.083 259.167 376.083 260.333C376.083 261.5 376.513 262.514 377.374 263.375C378.235 264.236 379.249 264.667 380.416 264.667Z" fill="url(#paint39_linear_1835_58947)"/>
</g>
</g>
<g id="key_vertical">
<mask id="mask14_1835_58947" style="mask-type:alpha" maskUnits="userSpaceOnUse" x="480" y="240" width="80" height="80">
<rect id="Bounding box_5" x="480" y="240" width="80" height="80" fill="url(#paint40_linear_1835_58947)"/>
</mask>
<g mask="url(#mask14_1835_58947)">
<path id="key_vertical_2" d="M520.101 274.083C523.091 274.083 525.628 273.037 527.711 270.944C529.794 268.85 530.836 266.309 530.836 263.319C530.836 260.328 529.789 257.792 527.696 255.708C525.603 253.625 523.061 252.583 520.071 252.583C517.081 252.583 514.544 253.63 512.461 255.723C510.378 257.816 509.336 260.358 509.336 263.348C509.336 266.338 510.382 268.875 512.476 270.958C514.569 273.042 517.11 274.083 520.101 274.083ZM520.253 316.667L508.086 306.083L515.086 297.5L508.086 290.5L514.003 284.583V281.917C509.836 280.861 506.475 278.625 503.919 275.208C501.364 271.792 500.086 267.833 500.086 263.333C500.086 257.778 502.03 253.056 505.919 249.167C509.808 245.278 514.53 243.333 520.086 243.333C525.641 243.333 530.364 245.278 534.253 249.167C538.141 253.056 540.086 257.778 540.086 263.333C540.086 268.056 538.794 272.014 536.211 275.208C533.628 278.403 530.336 280.639 526.336 281.917V310.583L520.253 316.667Z" fill="url(#paint41_linear_1835_58947)"/>
</g>
</g>
<g id="digital_wellbeing">
<mask id="mask15_1835_58947" style="mask-type:alpha" maskUnits="userSpaceOnUse" x="600" y="240" width="80" height="80">
<rect id="Bounding box_6" x="600" y="240" width="80" height="80" fill="url(#paint42_linear_1835_58947)"/>
</mask>
<g mask="url(#mask15_1835_58947)">
<path id="digital_wellbeing_2" d="M639.999 269C636.888 269 634.249 267.917 632.083 265.75C629.916 263.583 628.833 260.944 628.833 257.833C628.833 254.722 629.916 252.083 632.083 249.917C634.249 247.75 636.888 246.667 639.999 246.667C643.11 246.667 645.749 247.75 647.916 249.917C650.083 252.083 651.166 254.722 651.166 257.833C651.166 260.944 650.083 263.583 647.916 265.75C645.749 267.917 643.11 269 639.999 269ZM639.999 313.333L619.999 293.333C618.999 292.333 618.194 291.097 617.583 289.625C616.972 288.153 616.666 286.444 616.666 284.5C616.666 281.389 617.763 278.736 619.958 276.542C622.152 274.347 624.805 273.25 627.916 273.25C629.36 273.25 630.708 273.583 631.958 274.25C633.208 274.917 634.305 275.722 635.249 276.667L639.999 281.417L644.749 276.667C645.694 275.722 646.791 274.917 648.041 274.25C649.291 273.583 650.638 273.25 652.083 273.25C655.194 273.25 657.847 274.347 660.041 276.542C662.235 278.736 663.333 281.389 663.333 284.5C663.333 286.444 663.027 288.153 662.416 289.625C661.805 291.097 660.999 292.333 659.999 293.333L639.999 313.333Z" fill="url(#paint43_linear_1835_58947)"/>
</g>
</g>
</g>
<defs>
<filter id="filter0_d_1835_58947" x="1120.64" y="31.7186" width="17.5918" height="11.4359" filterUnits="userSpaceOnUse" color-interpolation-filters="sRGB">
<feFlood flood-opacity="0" result="BackgroundImageFix"/>
<feColorMatrix in="SourceAlpha" type="matrix" values="0 0 0 0 0 0 0 0 0 0 0 0 0 0 0 0 0 0 127 0" result="hardAlpha"/>
<feOffset/>
<feGaussianBlur stdDeviation="1"/>
<feComposite in2="hardAlpha" operator="out"/>
<feColorMatrix type="matrix" values="0 0 0 0 0 0 0 0 0 0 0 0 0 0 0 0 0 0 0.08 0"/>
<feBlend mode="normal" in2="BackgroundImageFix" result="effect1_dropShadow_1835_58947"/>
<feBlend mode="normal" in="SourceGraphic" in2="effect1_dropShadow_1835_58947" result="shape"/>
</filter>
<linearGradient id="paint0_linear_1835_58947" x1="46.8153" y1="20" x2="46.8153" y2="46.3833" gradientUnits="userSpaceOnUse">
<stop stop-color="#FFCD39"/>
<stop offset="1" stop-color="#FF7F00"/>
</linearGradient>
<linearGradient id="paint1_linear_1835_58947" x1="154.545" y1="-54.3818" x2="154.545" y2="180.782" gradientUnits="userSpaceOnUse">
<stop offset="0.3" stop-color="#DEE8FF"/>
<stop offset="0.46" stop-color="#A5BFF9"/>
</linearGradient>
<linearGradient id="paint2_linear_1835_58947" x1="167.272" y1="32.7265" x2="167.272" y2="61.8174" gradientUnits="userSpaceOnUse">
<stop stop-color="#92B6F4"/>
<stop offset="1" stop-color="#278CF2"/>
</linearGradient>
<linearGradient id="paint3_linear_1835_58947" x1="280" y1="20" x2="280" y2="47.2727" gradientUnits="userSpaceOnUse">
<stop stop-color="#CAB5F8"/>
<stop offset="1" stop-color="#E7DEFF"/>
</linearGradient>
<linearGradient id="paint4_linear_1835_58947" x1="280" y1="38.1818" x2="280" y2="60" gradientUnits="userSpaceOnUse">
<stop stop-color="#9B49ED"/>
<stop offset="1" stop-color="#BA82F2"/>
</linearGradient>
<linearGradient id="paint5_linear_1835_58947" x1="401.819" y1="61.8146" x2="401.819" y2="18.1783" gradientUnits="userSpaceOnUse">
<stop stop-color="#3369FF"/>
<stop offset="1" stop-color="#668FFF"/>
</linearGradient>
<linearGradient id="paint6_linear_1835_58947" x1="383.636" y1="18.1783" x2="383.636" y2="32.7237" gradientUnits="userSpaceOnUse">
<stop stop-color="#3369FF"/>
<stop offset="1" stop-color="#0046E2"/>
</linearGradient>
<linearGradient id="paint7_linear_1835_58947" x1="520" y1="25.5611" x2="520" y2="60.1066" gradientUnits="userSpaceOnUse">
<stop stop-color="#CEA5F7"/>
<stop offset="1" stop-color="#B37EF2"/>
</linearGradient>
<linearGradient id="paint8_linear_1835_58947" x1="639.999" y1="-41.6581" x2="639.999" y2="181.742" gradientUnits="userSpaceOnUse">
<stop offset="0.3" stop-color="#61D9B1"/>
<stop offset="0.46" stop-color="#0D9B80"/>
</linearGradient>
<linearGradient id="paint9_linear_1835_58947" x1="747.717" y1="20" x2="747.717" y2="56.6672" gradientUnits="userSpaceOnUse">
<stop offset="0.3" stop-color="#DCE0E8"/>
<stop offset="1" stop-color="#B6BECF"/>
</linearGradient>
<linearGradient id="paint10_linear_1835_58947" x1="867.292" y1="35.4737" x2="867.292" y2="43.8947" gradientUnits="userSpaceOnUse">
<stop stop-color="#D7DDE9"/>
<stop offset="1" stop-color="#CFD3DE"/>
</linearGradient>
<linearGradient id="paint11_linear_1835_58947" x1="884.198" y1="40" x2="884.198" y2="62" gradientUnits="userSpaceOnUse">
<stop stop-color="#36C0A7"/>
<stop offset="1" stop-color="#35A590"/>
</linearGradient>
<linearGradient id="paint12_linear_1835_58947" x1="996.845" y1="-56.6525" x2="996.845" y2="191.763" gradientUnits="userSpaceOnUse">
<stop offset="0.3" stop-color="#ADC6FF"/>
<stop offset="0.46" stop-color="#87ACFE"/>
</linearGradient>
<linearGradient id="paint13_linear_1835_58947" x1="1014.54" y1="56.6667" x2="1014.54" y2="39.3304" gradientUnits="userSpaceOnUse">
<stop stop-color="#3369FF"/>
<stop offset="1" stop-color="#759AFF"/>
</linearGradient>
<linearGradient id="paint14_linear_1835_58947" x1="35.72" y1="153.919" x2="45.4184" y2="166.831" gradientUnits="userSpaceOnUse">
<stop stop-color="#E8ECFF"/>
<stop offset="1" stop-color="#D0D8F7"/>
</linearGradient>
<linearGradient id="paint15_linear_1835_58947" x1="35.72" y1="149.969" x2="39.2159" y2="159.012" gradientUnits="userSpaceOnUse">
<stop stop-color="#E8ECFF"/>
<stop offset="1" stop-color="#D0D8F7"/>
</linearGradient>
<linearGradient id="paint16_linear_1835_58947" x1="161.364" y1="138.182" x2="161.364" y2="178.182" gradientUnits="userSpaceOnUse">
<stop stop-color="#61D9B1"/>
<stop offset="1" stop-color="#12A188"/>
</linearGradient>
<linearGradient id="paint17_linear_1835_58947" x1="288.607" y1="168.282" x2="288.607" y2="138.864" gradientUnits="userSpaceOnUse">
<stop stop-color="#3369FF"/>
<stop offset="1" stop-color="#668FFF"/>
</linearGradient>
<linearGradient id="paint18_linear_1835_58947" x1="262.309" y1="146.747" x2="274.507" y2="162.556" gradientUnits="userSpaceOnUse">
<stop stop-color="#F2F6FF"/>
<stop offset="1" stop-color="#DDE4FF"/>
</linearGradient>
<linearGradient id="paint19_linear_1835_58947" x1="294.546" y1="158.182" x2="294.546" y2="180" gradientUnits="userSpaceOnUse">
<stop offset="0.295" stop-color="#749FFF"/>
<stop offset="1" stop-color="#0046E2"/>
</linearGradient>
<linearGradient id="paint20_linear_1835_58947" x1="410.09" y1="158.176" x2="410.09" y2="181.812" gradientUnits="userSpaceOnUse">
<stop stop-color="#CEA5F7"/>
<stop offset="1" stop-color="#B37EF2"/>
</linearGradient>
<linearGradient id="paint21_linear_1835_58947" x1="385.4" y1="138.178" x2="385.4" y2="178.178" gradientUnits="userSpaceOnUse">
<stop offset="0.3" stop-color="#DCE0E8"/>
<stop offset="1" stop-color="#B6BECF"/>
</linearGradient>
<linearGradient id="paint22_linear_1835_58947" x1="526.789" y1="170.098" x2="526.789" y2="140.68" gradientUnits="userSpaceOnUse">
<stop stop-color="#FFD004"/>
<stop offset="1" stop-color="#FDE88B"/>
</linearGradient>
<linearGradient id="paint23_linear_1835_58947" x1="511.399" y1="150.382" x2="523.597" y2="166.191" gradientUnits="userSpaceOnUse">
<stop stop-color="white"/>
<stop offset="1" stop-color="#FFF7D6"/>
</linearGradient>
<linearGradient id="paint24_linear_1835_58947" x1="532.727" y1="159.998" x2="532.727" y2="181.816" gradientUnits="userSpaceOnUse">
<stop offset="0.37" stop-color="#FFA756"/>
<stop offset="0.685" stop-color="#FD993D"/>
</linearGradient>
<linearGradient id="paint25_linear_1835_58947" x1="640" y1="138.178" x2="640" y2="181.815" gradientUnits="userSpaceOnUse">
<stop stop-color="#92B6F4"/>
<stop offset="1" stop-color="#278CF2"/>
</linearGradient>
<linearGradient id="paint26_linear_1835_58947" x1="755.672" y1="63.1356" x2="755.672" y2="306.339" gradientUnits="userSpaceOnUse">
<stop offset="0.3" stop-color="#DCE0E8"/>
<stop offset="0.49" stop-color="#B6BECF"/>
</linearGradient>
<linearGradient id="paint27_linear_1835_58947" x1="775.547" y1="178.18" x2="775.547" y2="159.268" gradientUnits="userSpaceOnUse">
<stop stop-color="#0C8E75"/>
<stop offset="1" stop-color="#5DD6AF"/>
</linearGradient>
<linearGradient id="paint28_linear_1835_58947" x1="876.673" y1="180" x2="876.673" y2="143.219" gradientUnits="userSpaceOnUse">
<stop stop-color="#3369FF"/>
<stop offset="1" stop-color="#668FFF"/>
</linearGradient>
<linearGradient id="paint29_linear_1835_58947" x1="899.001" y1="157.931" x2="882.45" y2="174.645" gradientUnits="userSpaceOnUse">
<stop stop-color="#A7DFFF"/>
<stop offset="1" stop-color="#77C3EE"/>
</linearGradient>
<linearGradient id="paint30_linear_1835_58947" x1="997" y1="140" x2="997" y2="175.455" gradientUnits="userSpaceOnUse">
<stop stop-color="#FFB3B3"/>
<stop offset="1" stop-color="#FF8484"/>
</linearGradient>
<linearGradient id="paint31_linear_1835_58947" x1="1132.39" y1="147.023" x2="1132.39" y2="168.252" gradientUnits="userSpaceOnUse">
<stop stop-color="#FFCD39"/>
<stop offset="1" stop-color="#FF7F00"/>
</linearGradient>
<linearGradient id="paint32_linear_1835_58947" x1="40" y1="240" x2="40" y2="320" gradientUnits="userSpaceOnUse">
<stop stop-color="#FF7E52"/>
<stop offset="1" stop-color="#FC3E14"/>
</linearGradient>
<linearGradient id="paint33_linear_1835_58947" x1="40" y1="250" x2="40" y2="310" gradientUnits="userSpaceOnUse">
<stop stop-color="#FF7E52"/>
<stop offset="1" stop-color="#FC3E14"/>
</linearGradient>
<linearGradient id="paint34_linear_1835_58947" x1="160" y1="240" x2="160" y2="320" gradientUnits="userSpaceOnUse">
<stop stop-color="#FCA00C"/>
<stop offset="1" stop-color="#FEAA22"/>
</linearGradient>
<linearGradient id="paint35_linear_1835_58947" x1="160" y1="246.582" x2="160" y2="313.415" gradientUnits="userSpaceOnUse">
<stop stop-color="#FCA00C"/>
<stop offset="1" stop-color="#FEAA22"/>
</linearGradient>
<linearGradient id="paint36_linear_1835_58947" x1="254.222" y1="256.889" x2="309.333" y2="308.444" gradientUnits="userSpaceOnUse">
<stop offset="0.25" stop-color="#31BCA2"/>
<stop offset="1" stop-color="#009E81"/>
</linearGradient>
<linearGradient id="paint37_linear_1835_58947" x1="255.62" y1="258.09" x2="307.585" y2="306.863" gradientUnits="userSpaceOnUse">
<stop offset="0.25" stop-color="#31BCA2"/>
<stop offset="1" stop-color="#009E81"/>
</linearGradient>
<linearGradient id="paint38_linear_1835_58947" x1="400" y1="240" x2="400" y2="320" gradientUnits="userSpaceOnUse">
<stop stop-color="#5482FF"/>
<stop offset="1" stop-color="#4376FF"/>
</linearGradient>
<linearGradient id="paint39_linear_1835_58947" x1="400.083" y1="246.667" x2="400.083" y2="313.417" gradientUnits="userSpaceOnUse">
<stop stop-color="#5482FF"/>
<stop offset="1" stop-color="#4376FF"/>
</linearGradient>
<linearGradient id="paint40_linear_1835_58947" x1="520" y1="240" x2="520" y2="320" gradientUnits="userSpaceOnUse">
<stop stop-color="#CD80FC"/>
<stop offset="1" stop-color="#9642EC"/>
</linearGradient>
<linearGradient id="paint41_linear_1835_58947" x1="520.086" y1="243.333" x2="520.086" y2="316.667" gradientUnits="userSpaceOnUse">
<stop stop-color="#CD80FC"/>
<stop offset="1" stop-color="#9642EC"/>
</linearGradient>
<linearGradient id="paint42_linear_1835_58947" x1="640" y1="240" x2="640" y2="320" gradientUnits="userSpaceOnUse">
<stop stop-color="#FFB444"/>
<stop offset="1" stop-color="#FE701E"/>
</linearGradient>
<linearGradient id="paint43_linear_1835_58947" x1="639.999" y1="246.667" x2="639.999" y2="313.333" gradientUnits="userSpaceOnUse">
<stop stop-color="#FFB444"/>
<stop offset="1" stop-color="#FE701E"/>
</linearGradient>
<clipPath id="clip0_1835_58947">
<rect width="80" height="80" fill="white"/>
</clipPath>
<clipPath id="clip1_1835_58947">
<rect width="80" height="80" fill="white" transform="translate(840 120)"/>
</clipPath>
</defs>
</svg>
