<svg width="200" height="200" viewBox="0 0 200 200" fill="none" xmlns="http://www.w3.org/2000/svg">
<path d="M0.336002 3.25243L3.99734 5.99068e-05L4.99732 5.9863e-05L4.99732 8.00006L3.99734 8.00006L0.336002 4.74769C-0.111841 4.34987 -0.111841 3.65025 0.336002 3.25243Z" fill="#656B7B"/>
<rect x="3.05176e-05" y="8.00006" width="36" height="20" fill="white"/>
<path fill-rule="evenodd" clip-rule="evenodd" d="M18 8.00006C12.4773 8.00006 8 12.4773 8 18.0001C8 23.5228 12.4773 28.0001 18 28.0001C23.5227 28.0001 28 23.5228 28 18.0001C28 12.4773 23.5227 8.00006 18 8.00006Z" fill="#E2E4E9"/>
<path fill-rule="evenodd" clip-rule="evenodd" d="M13.7233 16.4485C14.0783 16.0934 14.6539 16.0934 15.0089 16.4485L18.0025 19.442L20.996 16.4485C21.351 16.0934 21.9267 16.0934 22.2817 16.4485C22.6367 16.8035 22.6367 17.3791 22.2817 17.7341L18.6453 21.3705C18.2903 21.7255 17.7147 21.7255 17.3597 21.3705L13.7233 17.7341C13.3683 17.3791 13.3683 16.8035 13.7233 16.4485Z" fill="white"/>
<path d="M10.336 3.25237L13.9973 -1.1284e-06L14.9973 -1.17211e-06L14.9973 8L13.9973 8L10.336 4.74763C9.88813 4.34981 9.88813 3.65019 10.336 3.25237Z" fill="#0046FF"/>
<path d="M36 8C36 3.58172 39.5817 -6.26248e-07 44 -1.39876e-06L52 -2.79753e-06L52 36L44 36C39.5817 36 36 32.4183 36 28L36 8Z" fill="#12192B" fill-opacity="0.12"/>
<path d="M41.75 22.5L46.25 18L41.75 13.5" stroke="white" stroke-linecap="round" stroke-linejoin="round"/>
<path d="M11.6292 47.6066C11.6292 48.4559 10.6374 48.9185 9.98667 48.3729L2.10672 41.7663C1.39114 41.1664 1.81538 40 2.7492 40L10.6291 40C11.1814 40 11.6292 40.4477 11.6292 41L11.6292 47.6066Z" fill="white"/>
<path d="M26.6136 48.1327C26.2168 48.761 25.2975 48.7523 24.9127 48.1165L20.9187 41.5178C20.5153 40.8514 20.9952 40 21.7742 40L29.9357 40C30.7233 40 31.2018 40.8681 30.7812 41.534L26.6136 48.1327Z" fill="white"/>
<path d="M41.6425 48.3729C40.9917 48.9185 40 48.4559 40 47.6066L40 41C40 40.4477 40.4477 40 41 40L48.8799 40C49.8137 40 50.238 41.1664 49.5224 41.7663L41.6425 48.3729Z" fill="white"/>
<rect x="168" width="32" height="32" rx="12" fill="#0046FF"/>
<path d="M4.41601 65.376C4.2181 65.6728 3.78187 65.6728 3.58396 65.376L0.518222 60.7773C0.296704 60.4451 0.5349 60 0.934248 60L7.06573 60C7.46508 60 7.70327 60.4451 7.48176 60.7773L4.41601 65.376Z" fill="#00AAFF"/>
<path d="M14.416 65.376C14.2181 65.6728 13.7819 65.6728 13.584 65.376L10.5182 60.7773C10.2967 60.4451 10.5349 60 10.9342 60L17.0657 60C17.4651 60 17.7033 60.4451 17.4818 60.7773L14.416 65.376Z" fill="#83CA88"/>
<path d="M24.416 65.376C24.2181 65.6728 23.7819 65.6728 23.584 65.376L20.5182 60.7773C20.2967 60.4451 20.5349 60 20.9342 60L27.0657 60C27.4651 60 27.7033 60.4451 27.4818 60.7773L24.416 65.376Z" fill="#F9CE4E"/>
<path d="M34.416 65.376C34.2181 65.6728 33.7819 65.6728 33.584 65.376L30.5182 60.7773C30.2967 60.4451 30.5349 60 30.9342 60L37.0657 60C37.4651 60 37.7033 60.4451 37.4818 60.7773L34.416 65.376Z" fill="#F99040"/>
<path d="M44.416 65.376C44.2181 65.6728 43.7819 65.6728 43.584 65.376L40.5182 60.7773C40.2967 60.4451 40.5349 60 40.9342 60L47.0657 60C47.4651 60 47.7033 60.4451 47.4818 60.7773L44.416 65.376Z" fill="#F03543"/>
<path d="M84 9V15H88" stroke="#313749" stroke-linecap="round" stroke-linejoin="round"/>
<path d="M96 9V15H100" stroke="#0046FF" stroke-linecap="round" stroke-linejoin="round"/>
</svg>
