<svg width="160" height="160" viewBox="0 0 160 160" fill="none" xmlns="http://www.w3.org/2000/svg">
<path d="M92 52L84 60M84 52L92 60" stroke="#A8AEBD" stroke-width="1.5" stroke-linecap="round"/>
<path d="M72 19V29M67 24H77" stroke="#313749" stroke-linecap="round" stroke-linejoin="round"/>
<path d="M83 24H93" stroke="#313749" stroke-linecap="round" stroke-linejoin="round"/>
<rect x="35.7573" y="68.5607" width="1" height="11" transform="rotate(-45 35.7573 68.5607)" fill="#656B7B"/>
<rect x="36.4648" y="76.3387" width="1" height="11" transform="rotate(-135 36.4648 76.3387)" fill="#656B7B"/>
<circle cx="39.9998" cy="68.5535" r="0.7" fill="#656B7B"/>
<circle cx="39.9998" cy="75.6387" r="0.7" fill="#656B7B"/>
<circle cx="36.4573" cy="72.0962" r="0.7" fill="#656B7B"/>
<circle cx="43.5428" cy="72.0962" r="0.7" fill="#656B7B"/>
<rect x="51.7573" y="68.4645" width="1" height="11" transform="rotate(-45 51.7573 68.4645)" fill="#0046FF"/>
<rect x="52.4648" y="76.2425" width="1" height="11" transform="rotate(-135 52.4648 76.2425)" fill="#0046FF"/>
<circle cx="55.9998" cy="68.4573" r="0.7" fill="#0046FF"/>
<circle cx="55.9998" cy="75.5425" r="0.7" fill="#0046FF"/>
<circle cx="52.4573" cy="72" r="0.7" fill="#0046FF"/>
<circle cx="59.5428" cy="72" r="0.7" fill="#0046FF"/>
<path d="M131.339 43L141.361 43C141.615 43 141.754 42.7038 141.592 42.5083L136.581 36.4746C136.461 36.3301 136.239 36.3301 136.119 36.4746L131.108 42.5083C130.946 42.7038 131.085 43 131.339 43Z" fill="#E2E4E9"/>
<path d="M4 71.4711L6.35856 74L11 68.9999" stroke="#656B7B" stroke-width="1.2" stroke-linecap="round" stroke-linejoin="round"/>
<path d="M20 71.4711L22.3586 74L27 68.9999" stroke="#0046FF" stroke-width="1.2" stroke-linecap="round" stroke-linejoin="round"/>
<path d="M68 56.1818L70.6042 58.8333L76.3333 53" stroke="#A8BFFF" stroke-width="1.5" stroke-linecap="round" stroke-linejoin="round"/>
<path d="M11 18L5 24L11 30" stroke="#7E869A" stroke-width="1.5" stroke-linecap="round" stroke-linejoin="round"/>
<path d="M34 21L40 27L46 21" stroke="#7E869A" stroke-width="1.5" stroke-linecap="round" stroke-linejoin="round"/>
<path d="M62 27L56 21L50 27" stroke="#7E869A" stroke-width="1.5" stroke-linecap="round" stroke-linejoin="round"/>
<circle cx="56" cy="8" r="7" fill="#C4C8D4"/>
<rect x="54.9493" y="6.94995" width="2.1" height="5.25" rx="1.05" fill="white"/>
<circle cx="55.9993" cy="4.84993" r="1.05" fill="white"/>
<path d="M115.5 53.75L120 58.25L124.5 53.75" stroke="#7E869A" stroke-linecap="round" stroke-linejoin="round"/>
<path d="M100 57.3333L104 53.3333L108 57.3333" stroke="#7E869A" stroke-linecap="round" stroke-linejoin="round"/>
<path d="M4 56.1818L6.60417 58.8333L12.3333 53" stroke="white" stroke-width="1.5" stroke-linecap="round" stroke-linejoin="round"/>
<path d="M21 30L27 24L21 18" stroke="#7E869A" stroke-width="1.5" stroke-linecap="round" stroke-linejoin="round"/>
<path d="M52 56.1818L54.6042 58.8333L60.3333 53" stroke="#E2E4E9" stroke-width="1.5" stroke-linecap="round" stroke-linejoin="round"/>
<path d="M36 56.1818L38.6042 58.8333L44.3333 53" stroke="#C4C8D4" stroke-width="1.5" stroke-linecap="round" stroke-linejoin="round"/>
<path d="M20 56.1818L22.6042 58.8333L28.3333 53" stroke="#0046FF" stroke-width="1.5" stroke-linecap="round" stroke-linejoin="round"/>
<g opacity="0.7">
<circle cx="7.98305" cy="7.72362" r="6.02232" stroke="#0046FF" stroke-linecap="round" stroke-linejoin="round"/>
<path d="M7.84961 4.71753V8.07312H10.8374" stroke="#0046FF" stroke-linecap="round" stroke-linejoin="round"/>
</g>
<circle cx="40" cy="7.99998" r="6.66667" fill="#F5002C"/>
<rect x="39.3333" y="4.66669" width="1.33333" height="4.66667" fill="white"/>
<rect x="39.3333" y="10.6667" width="1.33333" height="1.33333" fill="white"/>
<circle cx="23.9997" cy="7.99967" r="6.66667" fill="#EDEFF2"/>
<path d="M23.333 7.33301H24.6663V11.333H23.333V7.33301Z" fill="#C4C8D4"/>
<path d="M23.333 4.66602H24.6663V5.99935H23.333V4.66602Z" fill="#C4C8D4"/>
<path d="M37.75 44.5L42.25 40L37.75 35.5" stroke="#C4C8D4" stroke-linecap="round" stroke-linejoin="round"/>
<path d="M21.75 44.5L26.25 40L21.75 35.5" stroke="#313749" stroke-linecap="round" stroke-linejoin="round"/>
<path d="M5.75 44.5L10.25 40L5.75 35.5" stroke="#7E869A" stroke-linecap="round" stroke-linejoin="round"/>
<path d="M85.75 44.5L90.25 40L85.75 35.5" stroke="#A8BFFF" stroke-linecap="round" stroke-linejoin="round"/>
<path d="M69.75 44.5L74.25 40L69.75 35.5" stroke="#0036C6" stroke-linecap="round" stroke-linejoin="round"/>
<path d="M53.75 44.5L58.25 40L53.75 35.5" stroke="#0046FF" stroke-linecap="round" stroke-linejoin="round"/>
<circle cx="72" cy="8" r="7" fill="#EDEFF2"/>
<path d="M70.9877 10.9781C70.9877 10.7313 71.0612 10.5371 71.2082 10.3953C71.3552 10.2536 71.5625 10.1827 71.8303 10.1827C72.098 10.1827 72.3054 10.2562 72.4524 10.4032C72.5994 10.545 72.6729 10.7366 72.6729 10.9781C72.6729 11.2196 72.5994 11.4138 72.4524 11.5608C72.3054 11.7026 72.098 11.7735 71.8303 11.7735C71.5625 11.7735 71.3552 11.7026 71.2082 11.5608C71.0612 11.4191 70.9877 11.2248 70.9877 10.9781ZM71.0349 9.46459V8.98422C71.0349 8.67972 71.069 8.43034 71.1373 8.23609C71.2055 8.04184 71.3499 7.87909 71.5704 7.74784C71.7437 7.64284 71.8985 7.54834 72.035 7.46434C72.1715 7.38034 72.2818 7.30159 72.3658 7.22809C72.4918 7.11259 72.5758 7.00759 72.6178 6.91309C72.6598 6.81334 72.6808 6.69522 72.6808 6.55872C72.6808 6.37497 72.6178 6.23059 72.4918 6.12559C72.3658 6.02059 72.2135 5.96809 72.035 5.96809C71.8513 5.96809 71.6859 6.01272 71.5389 6.10197C71.3972 6.18597 71.3027 6.30934 71.2554 6.47209C71.1977 6.66109 71.0927 6.80547 70.9404 6.90522C70.7882 7.00497 70.6018 7.04697 70.3813 7.03122C70.292 7.02597 70.2054 7.00759 70.1214 6.97609C70.0374 6.93934 69.9639 6.88947 69.9009 6.82647C69.8432 6.76347 69.7959 6.68734 69.7592 6.59809C69.7224 6.50359 69.7067 6.39597 69.7119 6.27522C69.7172 6.03372 69.7828 5.81059 69.9088 5.60584C70.0348 5.39584 70.2028 5.21472 70.4128 5.06247C70.6228 4.91022 70.8669 4.79209 71.1452 4.70809C71.4234 4.61884 71.72 4.57422 72.035 4.57422C72.3605 4.57422 72.6598 4.61622 72.9328 4.70022C73.211 4.77897 73.4499 4.89972 73.6494 5.06247C73.8489 5.22522 74.0038 5.43259 74.114 5.68459C74.2295 5.93134 74.2873 6.22272 74.2873 6.55872C74.2873 6.82647 74.2558 7.05747 74.1928 7.25172C74.1298 7.44597 74.0274 7.62709 73.8857 7.79509C73.7649 7.93159 73.6153 8.06809 73.4368 8.20459C73.2635 8.34109 73.0798 8.47234 72.8855 8.59834C72.7753 8.67184 72.7044 8.75059 72.6729 8.83459C72.6414 8.91334 72.6257 9.00522 72.6257 9.11022V9.46459H71.0349Z" fill="#A8AEBD"/>
<g opacity="0.5">
<path d="M115.5 37.75L120 42.25L124.5 37.75" stroke="#7E869A" stroke-linecap="round" stroke-linejoin="round"/>
</g>
<g clip-path="url(#clip0_487_524)">
<path d="M104 19.4619V26.8462" stroke="#313749" stroke-linecap="round" stroke-linejoin="round"/>
<path d="M106.769 24.0771L104 26.8463L101.23 24.0771" stroke="#313749" stroke-linecap="round" stroke-linejoin="round"/>
<path d="M98.9231 28.7842H109.077" stroke="#313749" stroke-linecap="round" stroke-linejoin="round"/>
</g>
<path d="M150.98 41.3138L147.854 38.1875C147.539 37.8726 147.762 37.334 148.207 37.334H154.46C154.905 37.334 155.128 37.8726 154.813 38.1875L151.687 41.3138C151.492 41.509 151.175 41.509 150.98 41.3138Z" fill="#0046FF"/>
<path fill-rule="evenodd" clip-rule="evenodd" d="M36.6127 82.2035C37.6438 81.1724 39.0418 80.5924 40.5 80.5908C41.9582 80.5924 43.3561 81.1724 44.3872 82.2035C45.4183 83.2346 45.9983 84.6326 46 86.0908C46 90.797 41 94.3514 40.7868 94.5001C40.7028 94.559 40.6026 94.5906 40.5 94.5906C40.3973 94.5906 40.2972 94.559 40.2131 94.5001C40 94.3514 35 90.797 35 86.0908C35.0016 84.6326 35.5816 83.2346 36.6127 82.2035ZM40.5 88.5001C41.6045 88.5001 42.5 87.6047 42.5 86.5001C42.5 85.3956 41.6045 84.5001 40.5 84.5001C39.3954 84.5001 38.5 85.3956 38.5 86.5001C38.5 87.6047 39.3954 88.5001 40.5 88.5001Z" fill="#C4C8D4"/>
<circle cx="24" cy="84" r="3" fill="#C4C8D4"/>
<path d="M18 92C18 89.7909 19.7909 88 22 88H26C28.2091 88 30 89.7909 30 92C30 93.1046 29.1046 94 28 94H20C18.8954 94 18 93.1046 18 92Z" fill="#C4C8D4"/>
<path fill-rule="evenodd" clip-rule="evenodd" d="M4 83C2.89543 83 2 83.8954 2 85V86H14V85C14 83.8954 13.1046 83 12 83H4ZM14 87H2V93C2 94.1046 2.89543 95 4 95H12C13.1046 95 14 94.1046 14 93V87Z" fill="#C4C8D4"/>
<path fill-rule="evenodd" clip-rule="evenodd" d="M5.75 81.7524C5.75 81.3382 5.41421 81.0024 5 81.0024C4.58579 81.0024 4.25 81.3382 4.25 81.7524V84C4.25 84.4142 4.58579 84.75 5 84.75C5.41421 84.75 5.75 84.4142 5.75 84V81.7524ZM11.75 81.7539C11.75 81.3397 11.4142 81.0039 11 81.0039C10.5858 81.0039 10.25 81.3397 10.25 81.7539V84C10.25 84.4142 10.5858 84.75 11 84.75C11.4142 84.75 11.75 84.4142 11.75 84V81.7539Z" fill="#C4C8D4"/>
<path d="M106.25 35.5L101.75 40L106.25 44.5" stroke="white" stroke-linecap="round" stroke-linejoin="round"/>
<path d="M24.6676 99.1309L25.9735 101.787C26.0392 101.918 26.1632 102.006 26.3019 102.028L29.2275 102.451C29.585 102.502 29.731 102.947 29.4683 103.195L27.3525 105.26C27.2503 105.362 27.1993 105.508 27.2284 105.647L27.7319 108.565C27.7902 108.923 27.4181 109.193 27.0971 109.025L24.4779 107.646C24.3538 107.58 24.2006 107.58 24.0693 107.646L21.4501 109.025C21.129 109.193 20.7569 108.923 20.8153 108.565L21.3187 105.647C21.3406 105.508 21.2968 105.362 21.1947 105.26L19.0716 103.202C18.8089 102.947 18.9548 102.509 19.3123 102.458L22.238 102.035C22.3839 102.013 22.5007 101.925 22.5663 101.794L23.8796 99.1309C24.0401 98.8026 24.5071 98.8026 24.6676 99.1309Z" fill="url(#paint0_linear_487_524)"/>
<path d="M8.66757 99.1308L9.97355 101.787C10.0392 101.918 10.1632 102.006 10.3019 102.027L13.2275 102.451C13.585 102.502 13.731 102.947 13.4683 103.195L11.3525 105.26C11.2503 105.362 11.1993 105.508 11.2284 105.646L11.7319 108.565C11.7902 108.922 11.4181 109.192 11.0971 109.025L8.47788 107.646C8.35385 107.58 8.20063 107.58 8.0693 107.646L5.45006 109.025C5.12904 109.192 4.75695 108.922 4.81531 108.565L5.31873 105.646C5.34062 105.508 5.29685 105.362 5.1947 105.26L3.07158 103.202C2.80893 102.947 2.95485 102.509 3.31235 102.458L6.23802 102.035C6.38394 102.013 6.50068 101.925 6.56634 101.794L7.87961 99.1308C8.04012 98.8024 8.50706 98.8024 8.66757 99.1308Z" fill="#C4C8D4" fill-opacity="0.6"/>
<path d="M132 57.3333L136 53.3333L140 57.3333" stroke="#313749" stroke-linecap="round" stroke-linejoin="round"/>
<path d="M86.8557 125.988C87.5563 126.45 88.4437 126.45 89.1443 125.988C90.7114 124.954 93.3333 122.805 93.3333 120V116.257C93.3333 115.702 92.9886 115.204 92.4682 115.009L88.4682 113.509C88.1663 113.396 87.8337 113.396 87.5318 113.509L83.5318 115.009C83.0114 115.204 82.6667 115.702 82.6667 116.257V120C82.6667 122.805 85.2886 124.954 86.8557 125.988Z" fill="url(#paint1_linear_487_524)"/>
<path d="M86 119.333L87.3333 120.667L90 118" stroke="white" stroke-linecap="round" stroke-linejoin="round"/>
<path fill-rule="evenodd" clip-rule="evenodd" d="M71.2344 114.333C70.4059 114.333 69.7344 115.005 69.7344 115.833V116.5C69.7344 116.776 69.5105 117 69.2344 117C68.9582 117 68.7344 116.776 68.7344 116.5V115.833C68.7344 114.453 69.8537 113.333 71.2344 113.333H72.5677C73.9484 113.333 75.0677 114.453 75.0677 115.833V116.5C75.0677 116.776 74.8439 117 74.5677 117C74.2916 117 74.0677 116.776 74.0677 116.5V115.833C74.0677 115.005 73.3961 114.333 72.5677 114.333H71.2344Z" fill="#7F7CFF"/>
<path d="M65.2344 119.167C65.2344 117.694 66.4283 116.5 67.901 116.5H75.901C77.3738 116.5 78.5677 117.694 78.5677 119.167V124.5C78.5677 125.973 77.3738 127.167 75.901 127.167H67.901C66.4283 127.167 65.2344 125.973 65.2344 124.5V119.167Z" fill="#BEC3FF"/>
<path d="M67.901 116.5H75.901C77.3738 116.5 78.5677 117.694 78.5677 119.167C78.5677 119.167 77.0488 120.653 73.2106 120.858C73.0347 120.867 72.8887 120.731 72.8185 120.569C72.6645 120.215 72.3117 119.968 71.901 119.968C71.5046 119.968 71.162 120.198 71.0002 120.533C70.9238 120.691 70.7733 120.821 70.5984 120.806C66.7514 120.473 65.2344 119.167 65.2344 119.167C65.2344 117.694 66.4283 116.5 67.901 116.5Z" fill="#7F7CFF"/>
<rect x="71.401" y="120.5" width="1" height="1.86268" rx="0.5" fill="white"/>
<g clip-path="url(#clip1_487_524)">
<path d="M56 113.333C52.3172 113.333 49.3333 116.317 49.3333 120C49.3333 123.683 52.3172 126.667 56 126.667C59.6828 126.667 62.6667 123.683 62.6667 120C62.6667 116.317 59.6828 113.333 56 113.333ZM58.1505 117.849C58.6264 117.849 59.0108 118.234 59.0108 118.71C59.0108 119.185 58.6264 119.57 58.1505 119.57C57.6747 119.57 57.2903 119.185 57.2903 118.71C57.2903 118.234 57.6747 117.849 58.1505 117.849ZM53.8495 117.849C54.3253 117.849 54.7097 118.234 54.7097 118.71C54.7097 119.185 54.3253 119.57 53.8495 119.57C53.3737 119.57 52.9893 119.185 52.9893 118.71C52.9893 118.234 53.3737 117.849 53.8495 117.849ZM59.086 122.425C58.3199 123.344 57.1962 123.871 56 123.871C54.8038 123.871 53.6801 123.344 52.914 122.425C52.5484 121.987 53.2097 121.438 53.5753 121.874C54.1774 122.597 55.0591 123.008 56 123.008C56.9409 123.008 57.8226 122.594 58.4247 121.874C58.785 121.438 59.4489 121.987 59.086 122.425Z" fill="#FBC400"/>
</g>
<path d="M37.0513 114.256C36.8683 113.817 37.191 113.333 37.6667 113.333H42.3334C42.8091 113.333 43.1317 113.817 42.9487 114.256L41.6667 117.333H38.3334L37.0513 114.256Z" fill="#199F87"/>
<path d="M33.3333 122C33.3333 118.318 36.3181 115.333 40 115.333C43.6819 115.333 46.6667 118.318 46.6667 122V123.429V125.333C46.6667 126.07 46.0697 126.667 45.3333 126.667H34.6667C33.9303 126.667 33.3333 126.07 33.3333 125.333V123.429V122Z" fill="#3DBAA3"/>
<path fill-rule="evenodd" clip-rule="evenodd" d="M37.7329 119.555C37.6341 119.357 37.3938 119.277 37.1962 119.376C36.9986 119.474 36.9185 119.715 37.0173 119.912L37.339 120.556H36.9677C36.7468 120.556 36.5677 120.735 36.5677 120.956C36.5677 121.177 36.7468 121.356 36.9677 121.356L37.739 121.356L38.6469 123.171C38.7147 123.307 38.8532 123.393 39.0047 123.393C39.1562 123.393 39.2947 123.307 39.3625 123.171L40.2269 121.443L41.0914 123.171C41.1591 123.307 41.2976 123.393 41.4491 123.393C41.6006 123.393 41.7391 123.307 41.8069 123.171L42.7013 121.383H43.4862C43.7072 121.383 43.8862 121.204 43.8862 120.983C43.8862 120.762 43.7072 120.583 43.4862 120.583H43.1013L43.4365 119.912C43.5353 119.715 43.4552 119.474 43.2576 119.376C43.06 119.277 42.8198 119.357 42.721 119.555L41.4491 122.098L40.5847 120.369C40.5169 120.234 40.3784 120.148 40.2269 120.148C40.0754 120.148 39.9369 120.234 39.8691 120.369L39.0047 122.098L37.7329 119.555Z" fill="white"/>
<path d="M29.9363 117.667H18.5682C17.7194 117.667 17.0866 118.449 17.2645 119.279L17.8005 124.892C18.064 126.122 19.1506 127 20.408 127H28.0965C29.3539 127 30.4405 126.122 30.7039 124.892L31.24 119.279C31.4178 118.449 30.7851 117.667 29.9363 117.667Z" fill="url(#paint2_linear_487_524)"/>
<path d="M29.9011 117.667V117C29.9011 115.895 29.0056 115 27.901 115H25.7176C25.2722 115 24.8396 114.851 24.4883 114.578L23.8614 114.089C23.5101 113.815 23.0774 113.667 22.6321 113.667H20.5677C19.4631 113.667 18.5677 114.562 18.5677 115.667V117.667H29.9011Z" fill="#4482F9"/>
<path fill-rule="evenodd" clip-rule="evenodd" d="M22.9008 121.833C22.9008 122.478 23.4231 123 24.0675 123C24.7118 123 25.2341 122.478 25.2341 121.833C25.2341 121.189 24.7118 120.667 24.0675 120.667C23.4231 120.667 22.9008 121.189 22.9008 121.833ZM21.9008 121.833C21.9008 123.03 22.8709 124 24.0675 124C24.4847 124 24.8744 123.882 25.205 123.678L26.2142 124.687C26.4094 124.882 26.726 124.882 26.9213 124.687C27.1165 124.492 27.1165 124.175 26.9213 123.98L25.9121 122.971C26.1163 122.64 26.2341 122.25 26.2341 121.833C26.2341 120.637 25.2641 119.667 24.0675 119.667C22.8709 119.667 21.9008 120.637 21.9008 121.833Z" fill="white"/>
<path opacity="0.4" d="M14.6667 124.667V122.667C14.6667 121.562 13.7712 120.667 12.6667 120.667H12C11.5803 120.667 11.1851 120.864 10.9333 121.2L10.1333 122.267C9.62973 122.938 8.83936 123.333 8.00001 123.333C7.16066 123.333 6.37029 122.938 5.86668 122.267L5.06668 121.2C4.81487 120.864 4.41969 120.667 4.00001 120.667H3.33334C2.22877 120.667 1.33334 121.562 1.33334 122.667V124.667C1.33334 125.771 2.22877 126.667 3.33334 126.667H12.6667C13.7712 126.667 14.6667 125.771 14.6667 124.667Z" fill="#6E83FF"/>
<path fill-rule="evenodd" clip-rule="evenodd" d="M3.33332 120.667H3.99999C4.41967 120.667 4.81485 120.864 5.06666 121.2L5.86666 122.267C6.37027 122.938 7.16064 123.333 7.99999 123.333C8.83934 123.333 9.62971 122.938 10.1333 122.267L10.9333 121.2C11.1851 120.864 11.5803 120.667 12 120.667H12.6667C12.9004 120.667 13.1248 120.707 13.3333 120.78V116C13.3333 114.527 12.1394 113.333 10.6667 113.333H5.33332C3.86056 113.333 2.66666 114.527 2.66666 116V120.78C2.87518 120.707 3.09957 120.667 3.33332 120.667ZM10.3763 116.329C10.5581 116.121 10.5371 115.806 10.3293 115.624C10.1214 115.442 9.80556 115.463 9.62372 115.671L7.71045 117.857C7.65172 117.924 7.55055 117.933 7.4809 117.878L6.31236 116.943C6.09672 116.77 5.78208 116.805 5.60957 117.021C5.43707 117.237 5.47203 117.551 5.68766 117.724L6.85621 118.659C7.34373 119.049 8.0519 118.986 8.46303 118.516L10.3763 116.329Z" fill="#6E83FF"/>
<path d="M92 68L84 76M84 68L92 76" stroke="#7E869A" stroke-width="1.5" stroke-linecap="round"/>
<path opacity="0.5" d="M8.00749 129C8.53016 129.006 9.0507 129.067 9.56127 129.182C9.6699 129.206 9.76823 129.264 9.84253 129.348C9.91684 129.431 9.9634 129.536 9.97571 129.648L10.0968 130.744C10.1139 130.899 10.1667 131.047 10.251 131.177C10.3354 131.307 10.4488 131.416 10.5823 131.494C10.7158 131.572 10.8656 131.617 11.0196 131.626C11.1736 131.635 11.3275 131.607 11.469 131.545L12.4659 131.104C12.5672 131.059 12.6798 131.047 12.7883 131.069C12.8967 131.091 12.9956 131.147 13.0712 131.229C13.792 132.005 14.3289 132.936 14.6413 133.951C14.674 134.058 14.6729 134.172 14.6382 134.278C14.6035 134.385 14.5369 134.477 14.4477 134.543L13.564 135.201C13.4394 135.293 13.3382 135.413 13.2684 135.552C13.1986 135.691 13.1622 135.845 13.1622 136C13.1622 136.156 13.1986 136.309 13.2684 136.448C13.3382 136.587 13.4394 136.707 13.564 136.799L14.4491 137.456C14.5385 137.523 14.6052 137.615 14.6399 137.722C14.6746 137.828 14.6756 137.942 14.6428 138.049C14.3304 139.065 13.7938 139.996 13.0733 140.772C12.9978 140.853 12.8992 140.909 12.7909 140.932C12.6826 140.954 12.57 140.942 12.4688 140.897L11.4675 140.454C11.3263 140.392 11.1724 140.364 11.0183 140.373C10.8643 140.381 10.7145 140.426 10.5809 140.504C10.4474 140.582 10.3339 140.691 10.2497 140.821C10.1654 140.951 10.1128 141.1 10.0961 141.254L9.975 142.35C9.96291 142.46 9.91737 142.564 9.8446 142.647C9.77182 142.73 9.67536 142.789 9.5684 142.814C8.53696 143.062 7.46235 143.062 6.43091 142.814C6.32381 142.789 6.2272 142.73 6.15429 142.647C6.08137 142.564 6.03573 142.46 6.02359 142.35L5.90325 141.256C5.88577 141.102 5.83268 140.954 5.74825 140.824C5.66382 140.694 5.5504 140.586 5.4171 140.509C5.2838 140.431 5.13433 140.386 4.98069 140.378C4.82706 140.369 4.67354 140.397 4.53247 140.459L3.53127 140.901C3.42991 140.946 3.31721 140.958 3.20877 140.935C3.10034 140.913 3.00152 140.857 2.92599 140.775C2.2054 139.998 1.66903 139.066 1.35725 138.05C1.32442 137.943 1.32543 137.829 1.36014 137.722C1.39485 137.616 1.46154 137.523 1.55094 137.457L2.43607 136.799C2.56058 136.707 2.66183 136.587 2.73162 136.448C2.80142 136.309 2.83779 136.156 2.83779 136C2.83779 135.845 2.80142 135.691 2.73162 135.552C2.66183 135.413 2.56058 135.293 2.43607 135.201L1.55094 134.545C1.46154 134.479 1.39485 134.386 1.36014 134.28C1.32543 134.173 1.32442 134.059 1.35725 133.952C1.66973 132.936 2.20658 132.005 2.92741 131.229C3.00303 131.148 3.10188 131.092 3.21032 131.07C3.31875 131.047 3.4314 131.059 3.53269 131.104L4.52962 131.546C4.67134 131.608 4.8255 131.635 4.9797 131.626C5.1339 131.617 5.28385 131.572 5.41751 131.494C5.55117 131.416 5.6648 131.307 5.74929 131.177C5.83377 131.047 5.88675 130.898 5.90396 130.743L6.02502 129.648C6.03724 129.536 6.08384 129.431 6.15829 129.347C6.23275 129.263 6.33131 129.205 6.44017 129.181C6.95501 129.066 7.48025 129.006 8.00749 129ZM7.99894 133.846C7.43236 133.846 6.88899 134.073 6.48836 134.477C6.08773 134.881 5.86266 135.429 5.86266 136C5.86266 136.571 6.08773 137.119 6.48836 137.523C6.88899 137.927 7.43236 138.154 7.99894 138.154C8.56552 138.154 9.10889 137.927 9.50952 137.523C9.91015 137.119 10.1352 136.571 10.1352 136C10.1352 135.429 9.91015 134.881 9.50952 134.477C9.10889 134.073 8.56552 133.846 7.99894 133.846Z" fill="#4D6477"/>
<path d="M120.328 25.6911C120.328 26.2078 120.132 26.7244 119.737 27.1192L118.588 28.268L117.95 28.9066C117.555 29.3014 117.038 29.4971 116.522 29.4971C116.005 29.4971 115.488 29.3014 115.094 28.9066C114.699 28.5119 114.503 27.9952 114.5 27.4786C114.5 26.9619 114.699 26.4452 115.094 26.0505L115.732 25.4119L116.881 24.263C117.276 23.8683 117.793 23.6725 118.309 23.6725" stroke="#313749" stroke-linecap="round" stroke-linejoin="round"/>
<path d="M119.672 22.308C119.672 21.7913 119.871 21.2746 120.263 20.8799L121.412 19.7311L122.05 19.0924C122.445 18.6977 122.962 18.502 123.478 18.502C123.995 18.502 124.512 18.7009 124.906 19.0924C125.301 19.4872 125.497 20.0038 125.5 20.5205C125.5 21.0372 125.301 21.5538 124.906 21.9486L124.268 22.5872L123.119 23.736C122.724 24.1308 122.208 24.3265 121.691 24.3265" stroke="#313749" stroke-linecap="round" stroke-linejoin="round"/>
<path d="M118.877 25.1204L121.124 22.874" stroke="#313749" stroke-linecap="round" stroke-linejoin="round"/>
<path d="M81.7777 154.222C81.7777 153.486 82.3747 152.889 83.1111 152.889C83.8475 152.889 84.4444 153.486 84.4444 154.222V157.333C84.4444 157.824 84.0464 158.222 83.5555 158.222H82.6666C82.1757 158.222 81.7777 157.824 81.7777 157.333V154.222Z" fill="#384C96"/>
<path d="M91.5555 154.222C91.5555 153.486 92.1525 152.889 92.8888 152.889C93.6252 152.889 94.2222 153.486 94.2222 154.222V157.333C94.2222 157.824 93.8242 158.222 93.3333 158.222H92.4444C91.9535 158.222 91.5555 157.824 91.5555 157.333V154.222Z" fill="#384C96"/>
<path fill-rule="evenodd" clip-rule="evenodd" d="M84.7593 145.778C83.9281 145.778 83.2079 146.354 83.0251 147.164L82.3283 150.254C81.5083 150.412 80.8889 151.134 80.8889 152V155.556C80.8889 156.046 81.2869 156.444 81.7778 156.444H94.2222C94.7131 156.444 95.1111 156.046 95.1111 155.556V152C95.1111 151.134 94.4917 150.412 93.6717 150.254L92.9749 147.164C92.7921 146.354 92.0719 145.778 91.2407 145.778H84.7593Z" fill="url(#paint3_linear_487_524)"/>
<path d="M80.8889 154.667H95.1111V155.556C95.1111 156.046 94.7131 156.444 94.2222 156.444H81.7777C81.2868 156.444 80.8889 156.046 80.8889 155.556V154.667Z" fill="#5074F5"/>
<circle cx="83.3333" cy="152.667" r="0.666667" fill="white"/>
<circle cx="92.6666" cy="152.666" r="0.666667" fill="white"/>
<g filter="url(#filter0_i_487_524)">
<path d="M84.3343 147.769C84.4387 147.381 84.7907 147.111 85.1928 147.111H90.8072C91.2092 147.111 91.5612 147.381 91.6656 147.769L92.4444 150.667H83.5555L84.3343 147.769Z" fill="url(#paint4_linear_487_524)"/>
</g>
<path d="M66 150.592C66 149.966 66.3291 149.386 66.8664 149.065L71.0886 146.544C71.65 146.209 72.35 146.209 72.9114 146.544L77.1336 149.065C77.6709 149.386 78 149.966 78 150.592V156.889C78 157.871 77.2041 158.667 76.2222 158.667H67.7778C66.7959 158.667 66 157.871 66 156.889V150.592Z" fill="url(#paint5_linear_487_524)"/>
<path d="M70.2222 155.111C70.2222 154.62 70.6202 154.222 71.1111 154.222H73.3333C73.8243 154.222 74.2222 154.62 74.2222 155.111V158.667H70.2222V155.111Z" fill="#ABB6C1"/>
<g filter="url(#filter1_i_487_524)">
<path d="M66.2222 149.778L72 146.222L77.7778 149.778" stroke="url(#paint6_linear_487_524)" stroke-width="2.22222" stroke-linecap="round" stroke-linejoin="round"/>
</g>
<path d="M79.1111 155.727C79.1111 157.663 77.5079 159.221 75.5714 159.105C73.5812 158.986 72.2189 157.072 72.4755 155.072C72.6307 153.855 73.2012 152.811 73.8221 152.002C73.9301 151.86 74.0409 152.997 74.1517 152.872C74.2628 152.744 75.2926 150.961 75.6507 150.335C75.6661 150.308 75.6873 150.284 75.7128 150.265C75.7383 150.246 75.7675 150.233 75.7985 150.227C75.8294 150.22 75.8614 150.221 75.8922 150.228C75.9231 150.235 75.952 150.248 75.9771 150.268C76.6965 150.81 79.1111 152.85 79.1111 155.727Z" fill="#FF5823"/>
<g filter="url(#filter2_i_487_524)">
<path d="M78.2222 156.937C78.2222 158.166 77.0753 159.154 75.6804 159.11C74.1747 159.062 73.1421 157.777 73.3631 156.452C73.6822 154.553 75.7713 153.333 75.7713 153.333C75.7713 153.333 78.2222 154.765 78.2222 156.937Z" fill="#FFB02E"/>
</g>
<path d="M56.2222 159.093C58.7995 159.093 60.8889 158.352 60.8889 157.438C60.8889 156.524 58.7995 155.783 56.2222 155.783C53.6449 155.783 51.5555 156.524 51.5555 157.438C51.5555 158.352 53.6449 159.093 56.2222 159.093Z" fill="url(#paint7_linear_487_524)"/>
<g filter="url(#filter3_i_487_524)">
<path d="M60.7687 149.435C60.7687 151.947 56.2223 157.439 56.2223 157.439C56.2223 157.439 51.6759 151.947 51.6759 149.435C51.6759 146.924 53.7109 144.889 56.2223 144.889C58.7336 144.889 60.7687 146.924 60.7687 149.435Z" fill="url(#paint8_linear_487_524)"/>
</g>
<path d="M56.2216 151.02C57.1293 151.02 57.8652 150.284 57.8652 149.376C57.8652 148.469 57.1293 147.733 56.2216 147.733C55.3138 147.733 54.578 148.469 54.578 149.376C54.578 150.284 55.3138 151.02 56.2216 151.02Z" fill="white"/>
<rect x="37.5855" y="145.573" width="4.52309" height="2.63743" rx="0.775291" stroke="#384C96" stroke-width="0.888889"/>
<g clip-path="url(#clip2_487_524)">
<rect x="32.7359" y="147.336" width="14.2222" height="9.81379" rx="1.33333" fill="url(#paint9_linear_487_524)"/>
<g style="mix-blend-mode:multiply">
<circle cx="33.0148" cy="147.576" r="1.36073" fill="url(#paint10_linear_487_524)"/>
</g>
<g style="mix-blend-mode:multiply">
<circle cx="33.0147" cy="156.909" r="1.36073" fill="url(#paint11_linear_487_524)"/>
</g>
<g style="mix-blend-mode:multiply">
<circle cx="46.6792" cy="147.576" r="1.36073" fill="url(#paint12_linear_487_524)"/>
</g>
<g style="mix-blend-mode:multiply">
<circle cx="46.6792" cy="156.909" r="1.36073" fill="url(#paint13_linear_487_524)"/>
</g>
</g>
<g filter="url(#filter4_i_487_524)">
<rect x="35.0556" y="147.336" width="0.888889" height="9.81379" fill="url(#paint14_linear_487_524)"/>
</g>
<g filter="url(#filter5_i_487_524)">
<rect x="43.7496" y="147.336" width="0.888889" height="9.81379" fill="url(#paint15_linear_487_524)"/>
</g>
<path d="M42.6643 152.859C42.4565 152.911 42.2464 152.784 42.195 152.576L41.5798 150.088C41.5543 149.984 41.5722 149.875 41.6294 149.786L42.1765 148.93C42.2866 148.757 42.5117 148.7 42.6907 148.799L43.595 149.299C43.6894 149.352 43.7578 149.441 43.7837 149.546L44.3982 152.031C44.4496 152.239 44.3228 152.449 44.1149 152.501L42.6643 152.859Z" fill="#384C96"/>
<path d="M42.1086 147.336L42.4473 149.114" stroke="#384C96" stroke-width="0.888889" stroke-linecap="round"/>
<rect x="42.0652" y="150.054" width="1.26615" height="2.34158" rx="0.222222" transform="rotate(-14.6355 42.0652 150.054)" fill="#688DFA"/>
<path d="M21.0073 154.459C22.5455 154.459 23.7924 153.212 23.7924 151.674C23.7924 150.136 22.5455 148.889 21.0073 148.889C19.4692 148.889 18.2222 150.136 18.2222 151.674C18.2222 153.212 19.4692 154.459 21.0073 154.459Z" fill="url(#paint16_linear_487_524)"/>
<path d="M21.5028 154.777H20.5119L18.5175 153.408H23.4972L21.5028 154.777Z" fill="url(#paint17_linear_487_524)"/>
<path d="M21.5003 154.777H20.5119V156.333H21.5003V154.777Z" fill="url(#paint18_linear_487_524)"/>
<g filter="url(#filter6_i_487_524)">
<path d="M28.8888 145.333L25.5225 155.681H21.3942C20.5306 155.681 19.829 156.379 19.829 157.237V157.555C19.829 158.414 20.5306 159.111 21.3942 159.111H24.4478C25.2303 159.111 25.9233 158.604 26.1558 157.862L29.9823 145.556L29.5555 145.333H28.8888Z" fill="url(#paint19_linear_487_524)"/>
</g>
<path d="M27.5053 148.718L28.5387 145.186C28.5897 145.01 28.7446 144.889 28.9178 144.889H29.8249C30.0919 144.889 30.2835 145.164 30.204 145.436L29.1706 148.968C29.1196 149.143 28.9647 149.265 28.7915 149.265H27.8844C27.6174 149.265 27.4258 148.989 27.5053 148.718Z" fill="#262C6A"/>
<path d="M11.995 148.753L8.80778 152L6.83281 150.581L6.803 150.561L5.31743 149.499L3.5735 148.25L1.56128 146.808C1.53395 146.788 1.50911 146.765 1.48675 146.742C1.28553 146.54 1.27807 146.199 1.48923 145.981C2.09787 145.362 3.01455 145.164 3.82193 145.486L5.60312 146.196L9.09098 147.59L12 148.75L11.995 148.753Z" fill="url(#paint20_linear_487_524)"/>
<path d="M11.2493 148L8 151.19L9.43739 153.195L13.1928 158.439C13.2131 158.466 13.2333 158.491 13.2561 158.514C13.4611 158.715 13.8027 158.722 14.0178 158.509C14.6404 157.897 14.8352 156.983 14.5138 156.178L12.4109 150.909L11.2493 148Z" fill="url(#paint21_linear_487_524)"/>
<path d="M6.00149 158.052L5.98231 156.625L12.234 151.087C13.3092 150.245 14.0291 149.027 14.2481 147.679L14.3398 147.121C14.4784 146.265 13.7385 145.523 12.8823 145.664L12.3234 145.755C10.9732 145.974 9.75708 146.694 8.91431 147.769L3.3253 153.968L1.94634 153.999C1.77198 153.967 1.59314 154.023 1.46572 154.148C1.21311 154.401 1.269 154.821 1.57749 155L3.7459 156.253L5 158.421C5.17884 158.729 5.60134 158.785 5.85171 158.532C5.9769 158.407 6.03279 158.228 6.00149 158.052Z" fill="url(#paint22_linear_487_524)"/>
<path d="M4.92967 155.764C5.12173 155.572 5.12173 155.261 4.92967 155.069C4.73761 154.877 4.42621 154.877 4.23415 155.069L2.84786 156.454C2.6558 156.646 2.6558 156.958 2.84786 157.15C3.03992 157.342 3.35132 157.342 3.54338 157.15L4.92967 155.764Z" fill="url(#paint23_linear_487_524)"/>
<path d="M12.0916 147.908C12.4403 148.257 12.7354 148.623 12.9768 148.988C13.1512 148.661 13.2898 148.315 13.3814 147.953C13.1959 147.712 12.9902 147.473 12.76 147.24C12.5297 147.008 12.2883 146.802 12.0469 146.619C11.6847 146.711 11.3382 146.849 11.0118 147.023C11.3785 147.265 11.7451 147.56 12.0916 147.908Z" fill="url(#paint24_linear_487_524)"/>
<path d="M12.0916 147.908C12.4403 148.257 12.7354 148.623 12.9768 148.988C13.1512 148.661 13.2898 148.315 13.3814 147.953C13.1959 147.712 12.9902 147.473 12.76 147.24C12.5297 147.008 12.2883 146.802 12.0469 146.619C11.6847 146.711 11.3382 146.849 11.0118 147.023C11.3785 147.265 11.7451 147.56 12.0916 147.908Z" fill="url(#paint25_linear_487_524)"/>
<circle cx="88" cy="8" r="7" transform="rotate(-180 88 8)" fill="#7E869A"/>
<path d="M90.709 8.86414L88.0001 6.15527L85.2913 8.86414" stroke="white" stroke-linecap="round" stroke-linejoin="round"/>
<path d="M104 66V78M98 72H110" stroke="#7E869A" stroke-width="1.5" stroke-linecap="round" stroke-linejoin="round"/>
<circle cx="56" cy="88" r="7" fill="#C4C8D4"/>
<path d="M52.5 85.5L54.5 90.5L56 86.5L57.5 90.5L59.5 85.5" stroke="white" stroke-linecap="round" stroke-linejoin="round"/>
<path d="M52 88H53.5" stroke="white" stroke-linecap="round" stroke-linejoin="round"/>
<path d="M58.5 88H60" stroke="white" stroke-linecap="round" stroke-linejoin="round"/>
<defs>
<filter id="filter0_i_487_524" x="83.5555" y="147.111" width="8.88889" height="3.99999" filterUnits="userSpaceOnUse" color-interpolation-filters="sRGB">
<feFlood flood-opacity="0" result="BackgroundImageFix"/>
<feBlend mode="normal" in="SourceGraphic" in2="BackgroundImageFix" result="shape"/>
<feColorMatrix in="SourceAlpha" type="matrix" values="0 0 0 0 0 0 0 0 0 0 0 0 0 0 0 0 0 0 127 0" result="hardAlpha"/>
<feOffset dy="0.444444"/>
<feGaussianBlur stdDeviation="0.222222"/>
<feComposite in2="hardAlpha" operator="arithmetic" k2="-1" k3="1"/>
<feColorMatrix type="matrix" values="0 0 0 0 1 0 0 0 0 1 0 0 0 0 1 0 0 0 0.3 0"/>
<feBlend mode="normal" in2="shape" result="effect1_innerShadow_487_524"/>
</filter>
<filter id="filter1_i_487_524" x="65.111" y="145.111" width="13.7781" height="5.77789" filterUnits="userSpaceOnUse" color-interpolation-filters="sRGB">
<feFlood flood-opacity="0" result="BackgroundImageFix"/>
<feBlend mode="normal" in="SourceGraphic" in2="BackgroundImageFix" result="shape"/>
<feColorMatrix in="SourceAlpha" type="matrix" values="0 0 0 0 0 0 0 0 0 0 0 0 0 0 0 0 0 0 127 0" result="hardAlpha"/>
<feOffset/>
<feGaussianBlur stdDeviation="0.444444"/>
<feComposite in2="hardAlpha" operator="arithmetic" k2="-1" k3="1"/>
<feColorMatrix type="matrix" values="0 0 0 0 0 0 0 0 0 0 0 0 0 0 0 0 0 0 0.1 0"/>
<feBlend mode="normal" in2="shape" result="effect1_innerShadow_487_524"/>
</filter>
<filter id="filter2_i_487_524" x="73.3333" y="153.333" width="4.88889" height="6.66666" filterUnits="userSpaceOnUse" color-interpolation-filters="sRGB">
<feFlood flood-opacity="0" result="BackgroundImageFix"/>
<feBlend mode="normal" in="SourceGraphic" in2="BackgroundImageFix" result="shape"/>
<feColorMatrix in="SourceAlpha" type="matrix" values="0 0 0 0 0 0 0 0 0 0 0 0 0 0 0 0 0 0 127 0" result="hardAlpha"/>
<feOffset dy="0.888889"/>
<feGaussianBlur stdDeviation="0.666667"/>
<feComposite in2="hardAlpha" operator="arithmetic" k2="-1" k3="1"/>
<feColorMatrix type="matrix" values="0 0 0 0 1 0 0 0 0 0.403922 0 0 0 0 0.137255 0 0 0 0.8 0"/>
<feBlend mode="normal" in2="shape" result="effect1_innerShadow_487_524"/>
</filter>
<filter id="filter3_i_487_524" x="51.6759" y="144.889" width="9.0928" height="12.5497" filterUnits="userSpaceOnUse" color-interpolation-filters="sRGB">
<feFlood flood-opacity="0" result="BackgroundImageFix"/>
<feBlend mode="normal" in="SourceGraphic" in2="BackgroundImageFix" result="shape"/>
<feColorMatrix in="SourceAlpha" type="matrix" values="0 0 0 0 0 0 0 0 0 0 0 0 0 0 0 0 0 0 127 0" result="hardAlpha"/>
<feOffset/>
<feGaussianBlur stdDeviation="0.888889"/>
<feComposite in2="hardAlpha" operator="arithmetic" k2="-1" k3="1"/>
<feColorMatrix type="matrix" values="0 0 0 0 0 0 0 0 0 0.65 0 0 0 0 0.610123 0 0 0 0.25 0"/>
<feBlend mode="normal" in2="shape" result="effect1_innerShadow_487_524"/>
</filter>
<filter id="filter4_i_487_524" x="35.0556" y="147.336" width="0.888885" height="9.81378" filterUnits="userSpaceOnUse" color-interpolation-filters="sRGB">
<feFlood flood-opacity="0" result="BackgroundImageFix"/>
<feBlend mode="normal" in="SourceGraphic" in2="BackgroundImageFix" result="shape"/>
<feColorMatrix in="SourceAlpha" type="matrix" values="0 0 0 0 0 0 0 0 0 0 0 0 0 0 0 0 0 0 127 0" result="hardAlpha"/>
<feOffset/>
<feGaussianBlur stdDeviation="0.444444"/>
<feComposite in2="hardAlpha" operator="arithmetic" k2="-1" k3="1"/>
<feColorMatrix type="matrix" values="0 0 0 0 0 0 0 0 0 0 0 0 0 0 0 0 0 0 0.1 0"/>
<feBlend mode="normal" in2="shape" result="effect1_innerShadow_487_524"/>
</filter>
<filter id="filter5_i_487_524" x="43.7496" y="147.336" width="0.888885" height="9.81378" filterUnits="userSpaceOnUse" color-interpolation-filters="sRGB">
<feFlood flood-opacity="0" result="BackgroundImageFix"/>
<feBlend mode="normal" in="SourceGraphic" in2="BackgroundImageFix" result="shape"/>
<feColorMatrix in="SourceAlpha" type="matrix" values="0 0 0 0 0 0 0 0 0 0 0 0 0 0 0 0 0 0 127 0" result="hardAlpha"/>
<feOffset/>
<feGaussianBlur stdDeviation="0.444444"/>
<feComposite in2="hardAlpha" operator="arithmetic" k2="-1" k3="1"/>
<feColorMatrix type="matrix" values="0 0 0 0 0 0 0 0 0 0 0 0 0 0 0 0 0 0 0.1 0"/>
<feBlend mode="normal" in2="shape" result="effect1_innerShadow_487_524"/>
</filter>
<filter id="filter6_i_487_524" x="19.829" y="145.333" width="10.1532" height="13.7778" filterUnits="userSpaceOnUse" color-interpolation-filters="sRGB">
<feFlood flood-opacity="0" result="BackgroundImageFix"/>
<feBlend mode="normal" in="SourceGraphic" in2="BackgroundImageFix" result="shape"/>
<feColorMatrix in="SourceAlpha" type="matrix" values="0 0 0 0 0 0 0 0 0 0 0 0 0 0 0 0 0 0 127 0" result="hardAlpha"/>
<feOffset/>
<feGaussianBlur stdDeviation="0.444444"/>
<feComposite in2="hardAlpha" operator="arithmetic" k2="-1" k3="1"/>
<feColorMatrix type="matrix" values="0 0 0 0 0.415686 0 0 0 0 0.521569 0 0 0 0 0.713726 0 0 0 0.5 0"/>
<feBlend mode="normal" in2="shape" result="effect1_innerShadow_487_524"/>
</filter>
<linearGradient id="paint0_linear_487_524" x1="18.6667" y1="98.6667" x2="29.3333" y2="109.333" gradientUnits="userSpaceOnUse">
<stop stop-color="#FFD12D"/>
<stop offset="1" stop-color="#FFA927"/>
</linearGradient>
<linearGradient id="paint1_linear_487_524" x1="84.6667" y1="114.667" x2="91.3333" y2="126" gradientUnits="userSpaceOnUse">
<stop stop-color="#ACBCCB"/>
<stop offset="1" stop-color="#9BA8B5"/>
</linearGradient>
<linearGradient id="paint2_linear_487_524" x1="24.2522" y1="117.667" x2="24.2522" y2="127" gradientUnits="userSpaceOnUse">
<stop stop-color="#ADC8FF"/>
<stop offset="1" stop-color="#96ADFF"/>
</linearGradient>
<linearGradient id="paint3_linear_487_524" x1="91.0228" y1="154.667" x2="91.0228" y2="145.421" gradientUnits="userSpaceOnUse">
<stop stop-color="#6691FF"/>
<stop offset="1" stop-color="#82A5FF"/>
</linearGradient>
<linearGradient id="paint4_linear_487_524" x1="83.7777" y1="147.111" x2="86.2298" y2="153.241" gradientUnits="userSpaceOnUse">
<stop stop-color="#F2F9FF"/>
<stop offset="1" stop-color="#DDEEFF"/>
</linearGradient>
<linearGradient id="paint5_linear_487_524" x1="72" y1="146.667" x2="72" y2="158.667" gradientUnits="userSpaceOnUse">
<stop stop-color="#F1F3FB"/>
<stop offset="1" stop-color="#E3E9EF"/>
</linearGradient>
<linearGradient id="paint6_linear_487_524" x1="72.1729" y1="146.222" x2="72.1729" y2="149.679" gradientUnits="userSpaceOnUse">
<stop stop-color="#4991FC"/>
<stop offset="1" stop-color="#62AAFF"/>
</linearGradient>
<linearGradient id="paint7_linear_487_524" x1="56.2222" y1="155.783" x2="56.2222" y2="159.093" gradientUnits="userSpaceOnUse">
<stop stop-color="#B2EDDF"/>
<stop offset="1" stop-color="#CBF1E8"/>
</linearGradient>
<linearGradient id="paint8_linear_487_524" x1="52.8889" y1="147.111" x2="58.8889" y2="154.444" gradientUnits="userSpaceOnUse">
<stop stop-color="#46D99B"/>
<stop offset="1" stop-color="#1ECDC3"/>
</linearGradient>
<linearGradient id="paint9_linear_487_524" x1="38.325" y1="149.994" x2="41.4089" y2="154.464" gradientUnits="userSpaceOnUse">
<stop stop-color="#E8ECFF"/>
<stop offset="1" stop-color="#D0D8F7"/>
</linearGradient>
<linearGradient id="paint10_linear_487_524" x1="32.7235" y1="146.953" x2="33.6382" y2="147.867" gradientUnits="userSpaceOnUse">
<stop stop-color="#E8ECFF"/>
<stop offset="1" stop-color="#D0D8F7"/>
</linearGradient>
<linearGradient id="paint11_linear_487_524" x1="32.7235" y1="156.286" x2="33.6382" y2="157.201" gradientUnits="userSpaceOnUse">
<stop stop-color="#E8ECFF"/>
<stop offset="1" stop-color="#D0D8F7"/>
</linearGradient>
<linearGradient id="paint12_linear_487_524" x1="46.388" y1="146.953" x2="47.3027" y2="147.867" gradientUnits="userSpaceOnUse">
<stop stop-color="#E8ECFF"/>
<stop offset="1" stop-color="#D0D8F7"/>
</linearGradient>
<linearGradient id="paint13_linear_487_524" x1="46.388" y1="156.286" x2="47.3027" y2="157.201" gradientUnits="userSpaceOnUse">
<stop stop-color="#E8ECFF"/>
<stop offset="1" stop-color="#D0D8F7"/>
</linearGradient>
<linearGradient id="paint14_linear_487_524" x1="35.6889" y1="155.514" x2="35.6889" y2="147.007" gradientUnits="userSpaceOnUse">
<stop stop-color="#6691FF"/>
<stop offset="1" stop-color="#82A5FF"/>
</linearGradient>
<linearGradient id="paint15_linear_487_524" x1="44.3829" y1="155.514" x2="44.3829" y2="147.007" gradientUnits="userSpaceOnUse">
<stop stop-color="#6691FF"/>
<stop offset="1" stop-color="#82A5FF"/>
</linearGradient>
<linearGradient id="paint16_linear_487_524" x1="19.7924" y1="152.889" x2="22.9767" y2="149.705" gradientUnits="userSpaceOnUse">
<stop stop-color="#F3F5FC"/>
<stop offset="1" stop-color="#E2E5F2"/>
</linearGradient>
<linearGradient id="paint17_linear_487_524" x1="19.7612" y1="154.652" x2="22.251" y2="152.164" gradientUnits="userSpaceOnUse">
<stop stop-color="#9ED1FF"/>
<stop offset="0.99" stop-color="#919DFD"/>
</linearGradient>
<linearGradient id="paint18_linear_487_524" x1="20.3718" y1="156.191" x2="21.643" y2="154.917" gradientUnits="userSpaceOnUse">
<stop stop-color="#9ED1FF"/>
<stop offset="0.99" stop-color="#919DFD"/>
</linearGradient>
<linearGradient id="paint19_linear_487_524" x1="29.2477" y1="157.019" x2="25.0592" y2="151.464" gradientUnits="userSpaceOnUse">
<stop stop-color="#6A85B6"/>
<stop offset="1" stop-color="#BAC8E0"/>
</linearGradient>
<linearGradient id="paint20_linear_487_524" x1="1.33024" y1="148.667" x2="11.995" y2="148.667" gradientUnits="userSpaceOnUse">
<stop stop-color="#89C7FF"/>
<stop offset="0.99" stop-color="#7E8DFF"/>
</linearGradient>
<linearGradient id="paint21_linear_487_524" x1="7.99806" y1="153.334" x2="14.6636" y2="153.334" gradientUnits="userSpaceOnUse">
<stop stop-color="#7E8DFF"/>
<stop offset="1" stop-color="#89C7FF"/>
</linearGradient>
<linearGradient id="paint22_linear_487_524" x1="6.43502" y1="149.18" x2="10.8197" y2="153.567" gradientUnits="userSpaceOnUse">
<stop stop-color="#E8ECFF"/>
<stop offset="1" stop-color="#D0D8F7"/>
</linearGradient>
<linearGradient id="paint23_linear_487_524" x1="3.54073" y1="155.761" x2="4.23583" y2="156.457" gradientUnits="userSpaceOnUse">
<stop stop-color="#89C7FF"/>
<stop offset="0.99" stop-color="#7E8DFF"/>
</linearGradient>
<linearGradient id="paint24_linear_487_524" x1="11.2474" y1="146.496" x2="13.5037" y2="148.754" gradientUnits="userSpaceOnUse">
<stop stop-color="#9ED1FF"/>
<stop offset="0.99" stop-color="#919DFD"/>
</linearGradient>
<linearGradient id="paint25_linear_487_524" x1="11.4445" y1="148.556" x2="13.3333" y2="147" gradientUnits="userSpaceOnUse">
<stop stop-color="#89C7FF"/>
<stop offset="0.99" stop-color="#7E8DFF"/>
</linearGradient>
<clipPath id="clip0_487_524">
<rect width="12" height="10.2458" fill="white" transform="translate(98 19)"/>
</clipPath>
<clipPath id="clip1_487_524">
<rect width="13.3333" height="13.3333" fill="white" transform="translate(49.3333 113.333)"/>
</clipPath>
<clipPath id="clip2_487_524">
<rect x="32.7359" y="147.336" width="14.2222" height="9.81379" rx="1.33333" fill="white"/>
</clipPath>
</defs>
</svg>
