<svg width="10" height="10" viewBox="0 0 10 10" fill="none" xmlns="http://www.w3.org/2000/svg">
<g id="arrow_outward">
<mask id="mask0_818_1063" style="mask-type:alpha" maskUnits="userSpaceOnUse" x="0" y="0" width="10" height="10">
<rect id="Bounding box" width="10" height="10" fill="#D9D9D9"/>
</mask>
<g mask="url(#mask0_818_1063)">
<path id="arrow_outward_2" d="M7.35 3.05L1.01667 9.38333C0.894444 9.50556 0.755556 9.56389 0.6 9.55833C0.444444 9.55278 0.305556 9.48889 0.183333 9.36667C0.0611111 9.24444 0 9.10278 0 8.94167C0 8.78056 0.0611111 8.63889 0.183333 8.51667L6.5 2.2H1.15C0.98 2.2 0.8375 2.14284 0.7225 2.02852C0.6075 1.91418 0.55 1.77252 0.55 1.60352C0.55 1.43451 0.6075 1.29167 0.7225 1.175C0.8375 1.05833 0.98 1 1.15 1H7.95C8.12 1 8.2625 1.0575 8.3775 1.1725C8.4925 1.2875 8.55 1.43 8.55 1.6V8.4C8.55 8.57 8.49284 8.7125 8.37852 8.8275C8.26418 8.9425 8.12252 9 7.95352 9C7.78451 9 7.64167 8.9425 7.525 8.8275C7.40833 8.7125 7.35 8.57 7.35 8.4V3.05Z" fill="#313749"/>
</g>
</g>
</svg>
