<svg width="200" height="30" viewBox="0 0 200 30" fill="none" xmlns="http://www.w3.org/2000/svg">
<g clip-path="url(#clip0_818_1031)">
<path d="M41.5311 6.90378C41.5311 6.13778 41.486 5.7195 41.0445 5.23067C40.7685 4.88295 40.9542 4.55538 41.2753 4.55538H45.2789V7.64458C45.2789 10.6935 48.244 12.4825 50.9281 13.3896L49.9347 15.2743C49.6337 15.8337 48.4998 15.6221 46.5081 14.3924C45.3742 13.697 44.2855 12.7647 43.5681 11.787C42.7101 13.0167 41.6465 14.0397 40.4224 14.8561C39.0126 15.7833 37.2064 16.6703 36.9054 16.0857L35.8418 14.0649C38.9223 12.8554 41.5362 10.8346 41.5362 7.88144V6.90378H41.5311ZM56.7629 23.1561V25.7817H43.548C40.7485 25.7817 39.6347 25.061 39.6347 22.7126V19.3412C39.6347 18.8776 39.4741 18.5298 39.148 18.1317C38.8671 17.784 39.0577 17.4564 39.3788 17.4564H43.3122V22.2238C43.3122 22.9444 43.543 23.1561 44.2604 23.1561H56.7579H56.7629ZM52.7342 18.6458V6.55605C52.7342 5.7447 52.5938 5.32642 52.1573 4.83759C51.8813 4.48987 52.067 4.1875 52.4131 4.1875H56.3716V18.6508H52.7392L52.7342 18.6458Z" fill="#0046FF"/>
<path d="M64.419 5.90615C64.419 5.08976 64.3739 4.72187 63.9324 4.18769C63.6314 3.83997 63.817 3.5376 64.1632 3.5376H68.1216V6.14301H73.3745V8.69802H70.9462C71.6637 9.51442 72.1052 10.5122 72.1052 11.6965C72.1052 14.6244 69.9529 16.8569 66.1098 16.8569C62.2667 16.8569 60.1144 14.6244 60.1144 11.6965C60.1144 10.487 60.5308 9.48922 61.2232 8.69802H58.7949V6.14301H64.419V5.91119V5.90615ZM79.1642 23.1563V25.7818H66.18C63.3805 25.7818 62.2667 25.0612 62.2667 22.7128V20.2737C62.2667 19.8101 62.1062 19.4573 61.7801 19.0642C61.5041 18.7165 61.6898 18.3889 62.0109 18.3889H65.9492V22.224C65.9492 22.9446 66.18 23.1563 66.8975 23.1563H79.1642ZM68.6334 11.5756C68.6334 9.99317 67.7102 8.78369 66.1098 8.78369C64.5094 8.78369 63.5862 9.99317 63.5862 11.5756C63.5862 13.0622 64.4893 14.2969 66.1098 14.2969C67.7303 14.2969 68.6334 13.0672 68.6334 11.5756ZM75.2509 18.9685V6.55624C75.2509 5.74489 75.1355 5.37197 74.694 4.83778C74.393 4.49006 74.5786 4.18769 74.9248 4.18769H78.8832V9.67568H81.5222V12.3012H78.8832V18.9735H75.2459L75.2509 18.9685Z" fill="#0046FF"/>
<path d="M83.3532 23.4838V7.69508C83.3532 6.90388 83.2127 6.5108 82.7763 6.02197C82.4953 5.67425 82.6809 5.34668 83.007 5.34668H94.1399V8.068H87.126V13.042H93.4927V15.7633H87.126V20.7826H94.6466V23.4787H83.3532V23.4838Z" fill="#0046FF"/>
<path d="M100.732 20.7876H108.393V23.4838H96.0312V21.5284L103.808 8.068H96.3774V5.34668H108.228V7.34735C108.228 7.90673 108.017 8.37037 107.766 8.78864L100.727 20.7876H100.732Z" fill="#0046FF"/>
<path d="M118.764 14.3222C118.764 13.5058 118.623 13.0926 118.187 12.6038C117.906 12.256 118.097 11.9537 118.443 11.9537H122.517V14.932H131.658V17.4417H109.598V14.932H118.764V14.3273V14.3222ZM110.757 10.719C114.946 10.0236 118.764 8.11359 118.764 6.27922V5.83575C118.764 5.44267 118.553 5.06975 118.232 4.74218C117.906 4.41462 118.071 4.06689 118.418 4.06689H122.376V6.27418C122.376 7.78603 126.034 9.87741 130.268 10.5981L129.435 12.6894C129.249 13.1329 127.885 13.017 125.246 12.0141C123.349 11.2935 121.704 10.4569 120.55 9.38858C119.506 10.4116 118.302 11.107 116.591 11.8529C114.324 12.8305 111.87 13.3194 111.615 12.7146L110.757 10.714V10.719ZM112.377 20.7627C112.377 20.299 112.217 19.9463 111.89 19.5532C111.615 19.2055 111.8 18.8779 112.121 18.8779H116.055V22.4811C116.055 22.97 116.356 23.1564 116.772 23.1564H129.435V25.782H115.152C113.37 25.782 112.372 24.7136 112.372 23.1312V20.7576L112.377 20.7627Z" fill="#0046FF"/>
<path d="M136.975 6.27901C136.975 5.44245 136.835 4.95362 136.514 4.53535C136.238 4.16243 136.398 3.88525 136.77 3.88525H140.497V7.16595H144.386V9.79152H132.605V7.16595H136.98V6.28404L136.975 6.27901ZM138.711 10.5827C142.369 10.5827 144.245 12.9311 144.245 16.3731C144.245 19.815 142.369 22.1634 138.711 22.1634C135.054 22.1634 133.177 19.815 133.177 16.3731C133.177 12.9311 135.054 10.5827 138.711 10.5827ZM138.711 13.1629C137.136 13.1629 136.469 14.3926 136.469 16.3731C136.469 18.3536 137.141 19.5832 138.711 19.5832C140.282 19.5832 140.954 18.3536 140.954 16.3731C140.954 14.3926 140.282 13.1629 138.711 13.1629ZM145.68 6.72248C145.68 5.88593 145.539 5.3971 145.218 4.97882C144.942 4.6059 145.103 4.32873 145.474 4.32873H149.041V11.9333H151.008V4.19266H154.385V26.0741H151.008V14.7957H149.041V25.4441H145.685V6.71744L145.68 6.72248Z" fill="#0046FF"/>
<path d="M162.392 17.6683C159.638 17.6683 158.408 16.857 158.408 14.6245V7.27691C158.408 6.51091 158.248 6.11279 157.806 5.57861C157.53 5.20569 157.691 4.90332 158.037 4.90332H161.996V8.95002H171.578V4.90332H175.165V17.6683H168.799V21.3874H177.94V24.013H155.88V21.3874H165.046V17.6683H162.382H162.392ZM171.583 15.0629V11.5302H162.001V13.672C162.001 14.4834 162.231 15.0679 163.32 15.0679H171.583V15.0629Z" fill="#0046FF"/>
<path d="M184.652 5.90615C184.652 5.08976 184.607 4.72187 184.166 4.18769C183.865 3.83997 184.05 3.5376 184.397 3.5376H188.355V6.14301H193.608V8.69802H191.225C191.917 9.48922 192.339 10.4669 192.339 11.626C192.339 14.5539 190.071 16.7158 186.343 16.7158C182.616 16.7158 180.348 14.5539 180.348 11.626C180.348 10.4417 180.764 9.46402 181.437 8.69802H179.028V6.14301H184.652V5.91119V5.90615ZM187.362 25.9028C184.562 25.9028 183.403 25.2981 183.403 22.9497V19.8101C183.403 19.3464 183.243 18.9937 182.917 18.6006C182.641 18.2529 182.826 17.9253 183.147 17.9253H199.468C199.839 17.9253 200 18.0412 200 18.4393V25.9028H187.362ZM188.867 11.51C188.867 9.97805 187.939 8.78873 186.343 8.78873C184.748 8.78873 183.82 9.97301 183.82 11.51C183.82 12.9513 184.723 14.186 186.343 14.186C187.964 14.186 188.867 12.9564 188.867 11.51ZM196.438 23.3931V20.4148H186.97V22.4356C186.97 23.2722 187.271 23.3881 188.034 23.3881H196.438V23.3931ZM196.347 16.5798V12.9513H193.267V10.3258H196.347V6.56128C196.347 5.74993 196.232 5.37701 195.79 4.84282C195.489 4.4951 195.675 4.19273 196.021 4.19273H199.98V16.5848H196.347V16.5798Z" fill="#0046FF"/>
<path d="M14.9308 0C6.68774 0 0 6.71762 0 14.9975C0 23.2773 6.68774 29.995 14.9308 29.995C23.1738 29.995 29.8615 23.2773 29.8615 14.9975C29.8615 6.71762 23.1788 0 14.9308 0ZM15.2418 27.2484C13.4557 27.5004 10.5459 27.0469 8.57917 25.792C6.8533 24.6985 5.8248 23.3277 5.15754 21.9368C4.47522 20.5157 4.15412 18.7922 4.8816 18.8779C5.22276 18.9182 5.51375 19.5632 6.17098 20.4048C6.6175 20.9793 7.03392 21.4631 7.34497 21.5337C7.48545 21.5639 7.60084 21.4984 7.70118 21.3119C7.88681 20.9541 8.13767 20.2789 8.58419 19.7295C8.94541 19.3113 9.3819 19.1147 9.63777 20.1377C9.75818 20.6467 9.85852 21.1759 9.91371 21.6345C9.99398 22.2846 10.0341 22.6726 10.2599 22.7784C10.4756 22.8843 10.8368 22.7482 11.4289 22.5265C11.8503 22.3702 12.3921 22.1687 13.0795 21.9721C13.7116 21.7907 14.113 21.8864 13.7066 22.8691C13.516 23.3328 13.3203 23.7259 12.638 24.7136C12.5176 24.89 12.5426 25.0613 12.6881 25.2075C12.9189 25.4342 13.4357 25.7114 14.0076 25.9634C14.4642 26.1599 15.006 26.3363 15.3672 26.4371C15.9292 26.5984 15.8188 27.1678 15.2519 27.2484H15.2418ZM22.9029 24.0232C22.346 24.9303 21.182 25.913 19.7672 26.5681C19.5515 26.6639 19.3257 26.6336 19.2655 26.4573C19.2153 26.3061 19.3357 26.1297 19.4762 25.9634C21.3175 23.5646 19.9478 21.3623 16.9777 19.659C14.7803 18.3991 13.3855 17.6734 11.765 16.7159C7.01886 13.909 6.10074 11.4598 5.91511 10.0134C5.44852 6.35982 8.45876 3.61834 11.5493 2.95817C11.6446 2.93801 11.8904 2.8977 11.9707 3.10432C12.051 3.31094 11.8653 3.46212 11.76 3.52763C10.3753 4.29363 9.01565 5.91635 9.16616 7.72048C9.24644 8.72837 9.6779 10.1797 12.3971 12.125C14.0377 13.2992 16.0445 14.2617 20.0933 16.7008C24.3729 19.276 23.8862 22.4206 22.9029 24.0181V24.0232ZM23.5701 10.3057C22.5918 11.5051 21.6185 11.0617 20.8659 9.36839C20.3994 8.31514 19.7823 8.05812 19.3458 8.33529C18.8692 8.63766 19.0598 9.35831 19.5916 10.1898C19.9378 10.7341 19.7823 11.3741 19.421 11.7521C19.0397 12.1502 18.4226 12.3064 17.7453 12.1603C16.5412 11.8932 15.3572 10.2755 16.2201 6.73778C16.5713 5.31161 15.889 4.70183 15.4525 4.15253C15.2368 3.8804 15.2117 3.71409 15.287 3.60323C15.3723 3.48228 15.5729 3.4722 15.9241 3.54779C16.3857 3.64354 17.073 3.88544 17.635 3.97111C18.0062 4.03158 18.4277 4.0467 18.8692 4.02654C20.0682 3.98119 20.9562 4.16765 21.8593 4.61616C23.3945 5.38216 23.5551 6.69746 22.6972 6.59163C22.4012 6.55636 22.0199 6.32958 21.7038 6.1784C21.4931 6.07761 21.3125 6.04233 21.177 6.13808C21.0516 6.22879 20.9964 6.42029 21.0867 6.61179C21.2773 7.01495 21.9245 7.22157 22.7975 7.4685C24.3277 7.89182 24.3578 9.31799 23.5601 10.3057H23.5701Z" fill="#0046FF"/>
</g>
<defs>
<clipPath id="clip0_818_1031">
<rect width="200" height="30" fill="white"/>
</clipPath>
</defs>
</svg>
