<svg xmlns="http://www.w3.org/2000/svg" viewBox="0 0 112.099 36.523"><defs><style>.cls-1{fill:#fff;}</style></defs><title>cocacola_logo</title><g id="Layer_2" data-name="Layer 2"><g id="Layer_1-2" data-name="Layer 1"><path class="cls-1" d="M13.855,30.623c-3.054.354-6.48-.4-7.952-3.371-1.46-2.945-.7-6.048.558-8.821a38.993,38.993,0,0,1,10.5-13.982c1.475-1.212,2.732-2.292,4.705-2.583,1.5-.22,2.521,1.243,1.661,1.34a3.03,3.03,0,0,0-2.565,1.643c-.328.623-.439,1.733.512,1.947.977.22,1.6-.508,2.146-1.179,1.158-1.425,1.255-4.212-.658-4.772-4.8-1.4-11.712,3.827-15.9,8.509C2.842,13.845-1.592,20.4.565,27.039c1.628,5.008,7.765,5.681,12.5,4.94,6.553-1.028,11.4-3.8,18.584-2.765,2.081.3,4.36.986,5.418,3.065,1.5-1.8,4.5-4.2,12.6-.6-3.031-3.116-7.378-4.379-11.61-4.936C29.588,25.63,22.084,29.672,13.855,30.623Z"/><path class="cls-1" d="M51.63,8.554h-3.5l-.55.951c-2.026-2.3-5.16-.4-6.891,1.215-3.743,3.493-5.435,8.694-10.091,11.088a1.821,1.821,0,0,1-2.758-.944,3.5,3.5,0,0,1,.189-2c1.47-3.557,3.9-7.558,6.6-8.858.9-.3,1.9-.3,1.6,1.25-1-.565-1.862.48-2.327,1.246-.383.63-.322,1.651.524,1.63,2.036-.048,3.341-3.615,2.153-4.828-2.6-2.652-6.751,1.552-9.213,4.085a5.058,5.058,0,0,1-3.538,1.271.352.352,0,0,1-.219-.011c.967-1.87,1.778-4.669-.249-5.929-1.267-.788-3.106.177-4.124.81a18.893,18.893,0,0,0-7.35,10.21c-.741,2.374.193,4.519,1.62,4.635,4.648.231,7.861-5.873,9.681-8.763l.047-.105.194,0a5.92,5.92,0,0,0,2.6-.45A12.586,12.586,0,0,0,23.715,19.9c-.575,2.4,1.156,4.915,3.692,4.459,3.006-.54,5.072-2.638,7.222-4.89-.5,1.7-1.167,4.033.84,4.683,2.2.712,4.031-1.4,5.56-2.88-.485,1.354-.254,3.36,1.367,3.036,2.975-.595,6.645-4.523,8.684-7.742h-.8c-1.3,1.5-3.5,4.255-4.75,4.255-.75.05-.512-.813-.4-1ZM18.055,20.876c-.576.344-2.025.725-2.55.175C14.431,20,16.7,16.182,17.55,14.781c.312-.513.863-1.338,1.25-1.852a4.814,4.814,0,0,0,3.5,2.478C21.367,17.113,20.054,19.682,18.055,20.876Zm4.681-6.316a3.608,3.608,0,0,1-2.525-1.307,2.031,2.031,0,0,1,.493-2.782c.757-.678,2-.93,2.48-.257C24.232,11.473,23.086,14.26,22.736,14.56Zm19.788,3.559c-.65,1.1-2.383,3.409-3.65,2.954-.975-.351.15-3.078.55-3.879s3.188-5.439,5.2-6.782c1.2-.8,1.5-.647,1.85-.451a.7.7,0,0,1,.325.876Z"/><polygon class="cls-1" points="58.144 8.591 54.594 8.591 52.662 11.745 56.162 11.745 58.144 8.591"/><path class="cls-1" d="M71.3,18.515c-.389-3.467-5.258-2.161-7.016-.2-.86.8-4.01,4.952-3.46,7.755a8.965,8.965,0,0,1,4.6-3.2c.172-2.017.929-4.265,2.851-5.006.618-.237,2.075-.324,2.225.8.538,4.038-2.61,8.21-6.332,10.52-1.618,1-5.427,1.735-6.172-.957-1.578-5.7,2.328-10.739,5.3-15.12,2.985-4.4,6.237-7.888,10.77-10.384,1.142-.628,2.658-1.378,3.958-.677A15.284,15.284,0,0,0,73.071,5.8c-.675.9-2.625,3.354-2.5,5.456a2.349,2.349,0,0,0,1.463,2.365,2.258,2.258,0,0,0,1.758-.218,11.481,11.481,0,0,0,5.83-10.956,5.26,5.26,0,0,1,2.65,0c1.661.345,7.3,3.528,9.751,5.08l2.8-2.878a27.657,27.657,0,0,0-9.05-4.1A13.688,13.688,0,0,0,78.921,1.6a2.509,2.509,0,0,0-1.8-1.077c-3.837-.352-8.6,2.128-12.659,5.388a32.76,32.76,0,0,0-4.181,4,43.928,43.928,0,0,0-5.9,8.8c-2.322,4.367-3.278,12.235,2.865,13.179C64.32,32.982,72.044,25.183,71.3,18.515ZM78.74,2.875c.474,4.2-3.076,9.009-5.626,9.76-1.239.365-1.875-1.1-1.425-2.428a9.7,9.7,0,0,1,2.025-3.654A12.11,12.11,0,0,1,78.74,2.875Z"/><path class="cls-1" d="M111.731.241c-2.777,3.858-7.7,5.6-12.777,5.381L96.2,8.9c9.254,0,13.276-4.756,15.777-8.509C112.3-.094,111.88-.109,111.731.241Z"/><path class="cls-1" d="M107.524,16.238h-3.5l-.55.951c-2.026-2.295-5.16-.4-6.892,1.214A50.522,50.522,0,0,0,91.2,25.172c-.943,1.264-2.1,2.98-3.488,3.624-.544.253-1.451.26-1.5-.525-.145-2.2.852-4.387,1.54-6.2,5.125-3.424,9.951-7.609,13.127-12.856l-.826.043a73.367,73.367,0,0,1-4.7,5.655,59.8,59.8,0,0,1-4.66,4.072c-.727.524-1.442.963-2.141,1.485A53.025,53.025,0,0,1,101.2,2.5c.71-.639,1.95-1.457,2.377-.915.606.771-.009,2.216-.827,3.061a3.239,3.239,0,0,0,1-.1c1.2-1.3,1.238-3.833.276-4.1-1.513-.479-4.788,1.346-6.781,2.923C91.066,8.257,86.959,15.616,83.8,22.17a2.882,2.882,0,0,1-1.85.3c.967-1.87,1.8-4.706-.227-5.966-1.267-.788-3.106.178-4.123.81a18.892,18.892,0,0,0-7.351,10.211c-.741,2.373.193,4.517,1.62,4.633,4.648.232,7.861-5.871,9.68-8.763a4.976,4.976,0,0,0,2-.124c-.865,2.561-2.85,6.586-.072,8.185,2.85,1.639,5.061-2,6.872-3.981l.176-.325c-.5,1.7-1.168,4.032.839,4.682,2.2.712,4.031-1.4,5.561-2.88-.486,1.354-.256,3.361,1.366,3.036,2.976-.595,6.645-4.523,8.685-7.742h-.8c-1.275,1.727-3.425,4.255-4.75,4.255-.75.051-.512-.813-.4-1ZM76.41,28.613c-.577.345-2.025.726-2.551.175-1.074-1.051,1.2-4.868,2.045-6.27.312-.513.863-1.339,1.25-1.852a4.814,4.814,0,0,0,3.5,2.478C79.721,24.849,78.408,27.419,76.41,28.613ZM81.09,22.3a3.606,3.606,0,0,1-2.525-1.308,2.031,2.031,0,0,1,.493-2.782c.757-.678,2-.93,2.48-.258C82.587,19.21,81.44,22,81.09,22.3Zm17.335,3.459c-.651,1.1-2.4,3.454-3.651,2.953s.025-2.853.425-3.654,3.312-5.664,5.325-7.008c1.2-.8,1.5-.65,1.85-.45a.662.662,0,0,1,.3.926Z"/><path class="cls-1" d="M57.9,33.653a1.435,1.435,0,1,0,1.455,1.429A1.441,1.441,0,0,0,57.9,33.653Zm0,2.65a1.216,1.216,0,1,1,1.2-1.221A1.205,1.205,0,0,1,57.9,36.3Z"/><path class="cls-1" d="M57.9,33.872a1.216,1.216,0,1,0,1.2,1.21A1.2,1.2,0,0,0,57.9,33.872Zm.5,2.007c-.063,0-.126.008-.189.012l-.436-.753H57.7v.753c-.055,0-.109-.012-.164-.012s-.108.008-.163.012V34.285H58c.294,0,.461.141.461.381a.424.424,0,0,1-.377.425c.13.223.273.436.415.651l.092.149C58.525,35.887,58.462,35.879,58.4,35.879Z"/><path class="cls-1" d="M57.83,34.435H57.7v.63c.272.02.4-.093.4-.337C58.1,34.448,57.964,34.435,57.83,34.435Z"/></g></g></svg>